<svg viewBox="0 0 950 950" xmlns="http://www.w3.org/2000/svg">
  <!-- Neon Pink popcorn box -->
  <path
    d="m314.97 880.56c-12.75-2.56-22.82-11.93-26.38-24.56-.85-3.03-4.5-21.25-8.12-40.5-3.61-19.25-8.82-46.92-11.57-61.5s-9.45-50.12-14.89-79c-5.43-28.88-12.6-66.67-15.92-84-8.64-45.01-20.64-108.55-23.04-121.92-2.65-14.76-2.66-25.89-.04-34.37 7.65-24.76 34.52-39.37 60.99-33.15 9.56 2.24 20.5 8.04 27.45 14.54l6.07 5.68 2.99-4.99c4.04-6.74 15.67-17.59 23-21.45 14.2-7.48 29.32-9.91 42.89-6.89 12.11 2.69 24.66 9.51 33.05 17.96l7.05 7.09 9-9.08c9.69-9.77 18.99-15.47 31-19 7.34-2.16 23.61-2.42 31.5-.5 7.06 1.71 18.22 6.9 24.11 11.21 4.96 3.62 13.85 12.98 15.75 16.57 1.11 2.11 1.48 1.87 9.4-6.12 6.73-6.8 9.8-9.06 16.74-12.35 11.01-5.21 17.35-6.67 29-6.68 11.43-.01 21.18 2.65 31.07 8.46 7 4.12 18.35 15.34 22.1 21.87l2.28 3.95 7.03-6.66c11.49-10.89 24.26-16.17 39.12-16.17 14.24 0 26.79 5.38 36.34 15.59 11.55 12.36 15.38 25.19 13.23 44.45-1.09 9.83-6.18 37.9-13.58 74.96-1.38 6.88-4.97 25.33-7.98 41s-7.74 40.2-10.49 54.5c-12.69 65.79-24.63 128.14-31.12 162.5-13.14 69.64-13.3 70.21-22.62 79.03-7.96 7.52-12.64 9.26-25.88 9.64-6.05.17-76.92.46-157.5.65-104.46.25-148.09.03-152.03-.76zm109.6-36.81c-.38-8.39-1.56-33.43-2.63-55.65l-.06-1.2c-2.01-41.91-2.31-48.22-1.02-48.57.23-.06.51.07.84.22l.05.02c.96.43 5.68 2.13 10.49 3.77 8.17 2.79 8.76 3.19 9.19 6.07.26 1.7.95 18.62 1.53 37.59.59 18.97 1.36 43.16 1.71 53.75l.65 19.25h57.68l-.01-2.75c-.02-5.13 5.08-103.72 5.57-107.77.48-3.88.66-4.06 5.42-5.19 2.72-.65 7.3-2.3 10.19-3.69 2.89-1.38 5.37-2.4 5.51-2.25.29.28-5.26 100.67-6.26 113.4l-.66 8.25h52.81l2.77-22.75c2.87-23.44 11.3-92.12 19.2-156.25 2.47-20.08 4.95-39.65 5.5-43.5.56-3.85 3.03-23.65 5.5-44 5.57-45.85 9.5-77.69 14.1-114.32 3.05-24.36 3.4-29.17 2.48-34.4-5.19-29.47-36.31-44.83-60.93-30.07-16.29 9.78-22.15 21.85-24.16 49.79-1.63 22.69-2.94 37.75-3.32 38.12-.18.18-4.73-1.58-10.13-3.9l-9.81-4.22.62-9c1.88-27.22 1.93-39.9.17-46-6.73-23.28-26.87-37.16-48.6-33.49-18.48 3.11-32.36 15.86-36.54 33.57-1.35 5.7-1.52 10.1-.99 24.92.35 9.9.91 20.76 1.23 24.13l.59 6.13-3.87 1.25c-2.14.69-6.67 2.51-10.07 4.03l-6.19 2.78-.54-5.16c-.3-2.84-1.02-13.26-1.59-23.16-1.48-25.51-2.51-31.71-6.68-40.23-2.58-5.28-5.37-8.97-10.33-13.65-9.29-8.77-15.14-11.04-28.53-11.08-9.65-.04-10.36.11-17.69 3.73-14.88 7.36-22.72 20.61-22.75 38.48 0 3.99 1.13 16.59 2.51 28 1.39 11.41 4.33 35.6 6.53 53.75 2.21 18.15 5.35 44.03 6.99 57.5s3.66 30.12 4.49 37 4.4 35.9 7.94 64.5 7.59 61.9 9.01 74c1.41 12.1 3.67 31 5.01 42 1.35 11 3.22 27.09 4.15 35.75l1.71 15.75h51.91zm-71.93 12.5c-.28-1.51-.79-5.45-1.13-8.75s-1.49-13.2-2.55-22c-1.07-8.8-4.41-36.47-7.43-61.5-6.13-50.8-12.56-102.79-18.53-150-2.2-17.33-7.39-58.95-11.53-92.5-4.15-33.55-8.19-63.58-8.98-66.73-4.68-18.65-19.55-31.68-37.2-32.61-12.44-.65-21.33 3.98-26.74 13.92-5.3 9.75-4.62 19.4 4.94 69.92 4.05 21.41 12.55 66.62 17.49 93 1.08 5.78 7.62 40.2 14.53 76.5 6.92 36.3 13.93 73.2 15.58 82 3.63 19.4 12.17 63.7 15.33 79.53 4.24 21.26 5.18 21.96 29.41 21.97h17.33zm279.38.9c4.85-2.58 7.51-6.95 9.38-15.4 2.03-9.21 15-75.47 22.06-112.75 2.97-15.67 8.38-44.03 12.03-63 3.64-18.97 7.74-40.35 9.11-47.5s3.54-18.4 4.82-25c10.51-54.14 21.86-114.17 23.55-124.5 3.77-23.18 2.46-30.71-6.98-40.17-6.78-6.78-11.04-8.25-22.13-7.61-12.33.71-22.92 7.05-30.09 18.02-5.63 8.61-6.81 13.09-9.82 37.26-1.57 12.65-6.97 55.62-11.99 95.5-5.03 39.88-10.2 81.05-11.5 91.5s-4.63 37-7.39 59c-9.03 71.85-16.06 130.62-16.07 134.25 0 2.24.08 2.25 15.77 2.25 13.42 0 16.28-.28 19.25-1.85z"
    fill="#f12869"
  />

  <!-- Buttery Yellow popcorn kernels -->
  <path
    d="m730.77 375.48c-5-1-16.25-12.48-18.96-25.64-1.11-5.34-1.61-6.12-5.32-8.29-5.74-3.37-12.19-10.68-15.33-17.37-2.35-5.02-2.66-6.9-2.66-16.18 0-9.63.24-10.95 2.87-15.95 4.09-7.77 12.24-15.38 19.33-18.06 7.4-2.79 18.63-2.44 24.89.78l4.09 2.11 4.71-3.35c9.22-6.56 22.24-7.23 33.93-1.76 8.28 3.87 13.62 8.76 17.44 15.96 7.51 14.15 6.17 29.37-3.71 42.27-2.3 3.02-2.57 4.05-1.93 7.5 1.03 5.51-.57 14.86-3.6 21.05-3.23 6.6-11.91 14.83-19.15 18.14-6.79 3.11-20.14 4.06-27.37 1.95zm27.91-18.54c4.27-1.61 9.24-6.93 10.36-11.07.81-3.01.61-4.67-1.02-8.83-3.14-7.95-2.79-9.3 4.36-16.92 6.73-7.15 8.28-10.75 7.09-16.37-1.73-8.2-8.56-13.75-16.91-13.75-5.28 0-8.93 1.6-12.56 5.5-3.11 3.34-7.15 5.5-10.32 5.5-1.32 0-5.06-1.8-8.3-4-8.95-6.08-16.29-5.01-20.37 2.98-5.15 10.1.2 22.94 11.07 26.55 6 1.99 7.94 4.61 9.12 12.29 1.77 11.57 9.67 19.18 19.89 19.18 2.63 0 6.05-.48 7.59-1.06zm-171.68 20.46c-7.05-1.88-15.17-7.27-19.05-12.63-2.36-3.25-4.37-4.69-8.86-6.31-12.6-4.57-21.1-11.88-25.88-22.28-1.97-4.31-2.7-7.76-3.02-14.28-.7-14.37 3.87-26.1 13.65-35.04 6.25-5.71 11.01-8.36 18.41-10.23 5-1.27 5.31-1.54 6.53-5.73 7.27-25.02 30.86-39.07 53.86-32.08 16.85 5.12 28.42 18.65 30.1 35.18.52 5.17.91 5.82 6.38 10.81 11 10.02 15.8 24.67 12.93 39.39-1.61 8.24-7.31 19-12.45 23.48-5.27 4.59-14.54 8.98-22.12 10.47-3.29.65-6.39 1.87-6.89 2.71s-2.72 3.5-4.94 5.9c-9.79 10.63-24.03 14.55-38.65 10.64zm20.46-21.38c2.22-1.37 5.61-5.16 8.2-9.16 5.07-7.84 7.16-9.3 12-8.4 5.66 1.07 13.21-1.73 18.03-6.67 5.07-5.19 6.31-8.22 6.31-15.4 0-9-4.08-15.08-12.67-18.91-2.84-1.26-5.64-3.19-6.23-4.29s-.96-6.01-.83-10.92c.22-8.38.05-9.21-2.8-13.82-4.36-7.06-10.52-10.62-18.32-10.58-12.91.06-21.23 8.36-23.07 23.02-1.4 11.18-3.78 13.41-15.93 15.01-5.34.7-8.45 1.73-11.39 3.76-10.28 7.13-13.33 20.3-7.17 31 3.01 5.25 7.52 8.05 15.68 9.76 8.42 1.76 10.35 2.9 11.67 6.89 1.23 3.73 6.25 9.03 10.06 10.63 3.98 1.66 12.22.71 16.46-1.92zm-256.96 18.63c-10.67-3.54-20.89-11.58-26.31-20.71-2.73-4.6-5.19-14.09-5.19-20.06 0-9.05 5.43-21.47 11.94-27.34 1.95-1.75 2.11-2.6 1.52-8.09-1.24-11.53 3.25-23.42 12.11-32.06 6.25-6.1 13.54-9.81 22.56-11.47 19.19-3.54 39.95 9 45.34 27.37 1.12 3.83 1.71 4.38 6.54 6.14 7.54 2.75 16.85 11.7 20.59 19.8 2.64 5.71 2.9 7.25 2.9 17.27 0 10.48-.16 11.33-3.41 17.97-8.23 16.85-24.99 26.46-44.04 25.24-8.3-.53-8.76-.44-15.89 3.07-6.44 3.17-8.4 3.65-16 3.91-5.31.18-10.21-.22-12.66-1.04zm21.35-22.47c2.39-1.48 5.7-3.53 7.34-4.57 2.92-1.86 3.16-1.86 10.41-.05 6.4 1.59 8.22 1.68 13.16.65 12.99-2.71 21.47-13.83 19.68-25.79-1.27-8.47-6.29-13.43-17.13-16.95-7.91-2.56-9.87-4.71-11.32-12.45-2.44-13.02-13.37-20.81-25.22-17.97-11.89 2.86-18.81 15.75-14.27 26.6 2.87 6.88 2.16 9.16-4.97 15.81-6.97 6.52-9.53 11.2-9.53 17.44 0 5.32 1.48 8.93 5.31 12.94 7.97 8.33 17.5 9.89 26.54 4.34zm-152.8 21.78c-16.18-3.36-29.78-18.01-30.88-33.3-.42-5.83-.61-6.17-6.15-11.3-3.73-3.45-6.89-7.64-9.11-12.07-3.24-6.46-3.41-7.3-3.37-17.29.04-9.21.37-11.21 2.71-16.28 3.39-7.36 12.18-16.6 19.12-20.11 8.7-4.4 19.09-5.29 28.44-2.43 3.19.98 3.55.8 9.52-4.94 9.81-9.42 19.01-12.91 31.63-12.01 23.92 1.71 40.04 25.4 33.56 49.34l-1.75 6.48 2.43 3.72c7.82 11.98 8.46 27.17 1.7 40.43-3.38 6.63-11.55 14.53-18.39 17.8-6.8 3.24-18.88 5.53-24.07 4.55-2.55-.47-4.27-.06-7.15 1.73-8.63 5.37-19.34 7.52-28.24 5.68zm14.25-22.6c1.76-.9 4.74-2.98 6.62-4.62 3.2-2.79 3.74-2.93 8.5-2.16 2.79.45 7.85.82 11.23.82 11.83.02 20.35-8.4 20.35-20.12 0-6.5-.83-8.23-7.14-14.97-4.11-4.39-4.86-5.8-4.86-9.12 0-2.3.77-4.91 1.86-6.31 5.63-7.22 6.52-13.71 2.89-20.92-2.6-5.14-8.88-8.96-14.77-8.96-6.28 0-13.65 4.51-17.75 10.88-5.75 8.9-7.11 10.12-11.31 10.12-2.08 0-6.56-1.33-10.08-3-7.27-3.44-11.65-3.72-17.38-1.12-9.4 4.27-13.85 15.46-9.91 24.9 1.94 4.65 5.88 8.85 10.52 11.24 5.6 2.88 6.38 4.45 6.97 14.01.44 7.21 1 9.43 3.17 12.71 4.71 7.12 14.25 10.12 21.09 6.62zm-119.84-4.95c-12.54-4.45-19.12-18.12-15.36-31.91 1.42-5.22 10.22-13.94 15.55-15.42 17.39-4.83 33.26 6.7 33.33 24.2.02 6.86-1.53 11-6.1 16.2-6.64 7.56-17.73 10.37-27.42 6.93zm363.04-11.31c-13.46-6.23-16.79-23.5-6.64-34.44 9.45-10.18 26.67-9.09 34.6 2.19 4.03 5.73 4.8 15.76 1.69 21.86-2.32 4.55-7.08 8.93-11.87 10.94-4.55 1.91-13.04 1.65-17.78-.55zm22.84-71.52c-7.57-1.84-15.56-6.21-20.44-11.18l-4.29-4.38-6.56.6c-20.29 1.85-37.78-8.9-44.03-27.07-4.04-11.74-3.46-21.73 1.92-33.24 5.22-11.14 16.9-20.91 27.34-22.84 3.35-.62 4.08-1.33 6.5-6.27 7.89-16.15 27.54-25.61 46.46-22.36 9.69 1.66 16.66 5.01 23.1 11.1 11.46 10.83 16.05 26.47 12.16 41.41l-1.51 5.78 3.16 4.59c11.37 16.53 9.82 36.77-3.95 51.5-5.75 6.14-11.52 9.58-20.06 11.95-7.54 2.09-12.45 2.19-19.8.41zm17.44-21.13c10.86-4.54 16.27-17.55 11.32-27.25-1.04-2.04-4.19-5.65-7-8.01-4.28-3.62-5.1-4.85-5.1-7.7 0-1.86 1.11-5.48 2.47-8.04 3.35-6.28 4.02-10.68 2.61-16.99-2.45-10.96-13.03-18.36-24.54-17.18-10.78 1.12-17.26 6.7-20 17.24-2.14 8.22-4.64 10.44-12.89 11.46-8.63 1.07-14.75 4.62-18.25 10.61-10.4 17.73 6.69 36.94 26.6 29.91 8.27-2.92 9.86-2.24 16.27 6.9 6.1 8.71 19.29 12.9 28.51 9.05zm-208.52-9.96c-8.94-1.95-17.24-6.75-24.24-14.05-6.95-7.24-10.4-14.01-12.07-23.7-2.67-15.57 4.82-32.99 18.47-42.92 3.85-2.8 3.92-2.97 3.69-8.61-.34-8.33 2.24-19.18 6.47-27.23 15.08-28.7 53.86-34.87 77.5-12.32 8.92 8.51 14.86 22.04 14.91 33.96.01 3.68.43 4.39 3.98 6.74 12.96 8.57 19.58 27.11 15.56 43.53-3.42 13.94-12.18 24.63-25.3 30.89-9.98 4.75-19.41 6.07-28.67 3.99l-6.94-1.56-3.56 2.85c-7.32 5.85-19.85 10.05-29.45 9.86-2.26-.04-6.92-.69-10.35-1.43zm22.04-22.93c2.1-1.01 6.28-4.25 9.3-7.2 6.41-6.25 8.5-6.62 16.55-2.87 6.62 3.08 15.41 3.35 21.37.64 8.4-3.82 14.42-12.65 14.46-21.23.05-10.03-4.14-16.45-13.97-21.4-4.29-2.16-7.11-4.25-7.54-5.6-.38-1.18-.38-5.41 0-9.39.83-8.86-.41-13.95-4.78-19.72-6.96-9.17-20.02-12.94-30.77-8.88-15.3 5.78-22.23 19.84-17.03 34.56 1.16 3.28 2.11 6.73 2.11 7.67 0 3.21-4.82 7.53-10.86 9.73-17.48 6.37-21.75 27.74-7.92 39.59 2.23 1.9 5.9 4.14 8.17 4.97 5.39 1.98 15.93 1.54 20.91-.87zm418.36 14.04c-9.41-3.5-15.99-13.01-16.02-23.15-.06-21.1 25.48-32.52 40.91-18.29 5.92 5.45 8.46 10.99 8.43 18.41-.04 9.45-5.1 17.86-13.33 22.11-4.29 2.22-15.16 2.72-19.99.92zm-109.66-7.62c-11.52-1.66-25.36-8.06-30.41-14.06-3.9-4.64-3.6-10.11.81-14.52 4.3-4.3 9.89-4.7 14.27-1.04 10.23 8.55 24.92 10.46 36.19 4.71 8.16-4.16 15.15-15.24 15.13-24-.01-12.12-7.08-19.53-20.43-21.44-6.64-.95-7.83-3.03-8.6-15-.75-11.8-2.82-16.66-9.62-22.64-6.4-5.61-11.66-7.41-21.84-7.45-7.65-.03-9.83.35-14.55 2.56-7.46 3.5-12.3 7.95-15.38 14.14-4.63 9.28-3.13 18.17 4.44 26.39 4.43 4.81 4.99 7.86 2.28 12.45-1.82 3.09-6.72 5.92-10.24 5.92-5.62 0-11.94-6.26-16.82-16.66-2.5-5.35-2.73-6.85-2.73-17.89 0-11.88.05-12.17 3.68-19.51 8.77-17.73 25.76-28.49 46.82-29.64 11.1-.61 19.06 1.07 28.5 6.01 12.4 6.49 23.06 21.15 25.68 35.33l1.13 6.14 5.89 2.82c7.37 3.52 15.98 12.36 19.48 20.01 7.8 17.04 4 37.11-9.83 51.89-11.26 12.04-27.64 17.82-43.85 15.48zm-448.5-10.32c-6.55-2.17-9.88-4.26-14.17-8.91-7.56-8.21-10.14-20.29-6.76-31.68 2.22-7.46 10.7-15.99 18.93-19.04 14.89-5.52 31.69 1.08 39.33 15.47 2.3 4.34 2.65 6.19 2.65 14 .01 10.09-1.57 14.27-8.11 21.52-7.26 8.03-21.81 11.98-31.87 8.64zm16.36-21.19c6.43-5.41 5.93-14.19-1.05-18.44-10.31-6.29-21.84 4.28-16.32 14.96 3.36 6.48 11.79 8.17 17.37 3.48zm237.42-73.02c-6.43-3.2-12.7-9.94-16.07-17.27-3.65-7.97-4.21-20.26-1.28-28.6 9.6-27.36 39.7-39.96 66.85-27.99 10.31 4.54 22.16 18.72 25.16 30.11 1.62 6.14 1.47 17.38-.31 23.51-2.25 7.73-6.28 11.29-12.78 11.29-4.26 0-5.39-.42-7.44-2.81-2.8-3.25-3.22-9.64-.91-13.69.79-1.38 1.45-4.88 1.46-7.79.07-9.31-4.87-16-15.33-20.78-4.96-2.27-6.82-2.61-12.03-2.19-14.35 1.15-24.61 11.08-24.6 23.83.01 6.86 2.36 10.88 8.46 14.46 5.25 3.08 6.54 4.98 6.54 9.68 0 4.26-2.36 7.62-6.6 9.4-4.48 1.87-5.2 1.79-11.12-1.16z"
    fill="#fade05"
  />

  <!-- Clusterflick icon -->
  <g transform="matrix(1.657 0 0 1.657 309 453)">
  <!-- Electric Blue middle circle -->
    <circle cx="100" cy="100" fill="#319edb" r="72" />
    <!-- Midnight Navy circle -->
    <circle cx="100" cy="100" fill="#010013" r="60" />
    <!-- Buttery Yellow popcorn kernel -->
    <path
      d="m98 137.91c-2.47-.48-7.47-2.34-11.09-4.14l-6.6-3.27-5.4 2.72c-7.41 3.73-14.75 5.08-24.86 4.58-11.37-.56-20.02-4.57-28.56-13.22-15-15.18-18.65-35.67-9.53-53.5 3.01-5.89 11.41-14.13 17.29-16.97 4.17-2.01 4.75-2.68 4.77-5.45.15-18.3 17-38.2 36.09-42.6 12.16-2.8 26.93-.38 37.06 6.07 12.05 7.68 20.83 22.88 20.83 36.06 0 3.43.38 3.96 4.25 5.91 10.31 5.19 17.32 13.53 20.77 24.71 5.03 16.27.28 33.82-12.45 46.05-11.88 11.41-27.04 16.05-42.57 13.05zm18.13-22.44c9.46-3.22 16.56-12.06 17.57-21.88.49-4.68.16-6.36-2.16-11.1-3.11-6.35-7.44-9.73-14.8-11.55-3.11-.77-5.63-2.21-7.25-4.14-2.77-3.28-2.7-2.94-2.88-14.8-.16-9.92-2.23-14.89-8.33-19.93-4.02-3.33-11.61-6.07-16.78-6.07-5.41 0-12.93 2.82-17.15 6.43-6.08 5.21-8.5 11.69-8.22 22.02.33 11.71-1.22 13.86-11.94 16.57-4.66 1.18-11.45 6.64-13.73 11.05-4.14 8.01-2.23 18.65 4.64 25.8 5.37 5.58 10.89 8.08 17.9 8.1 7.7.03 12.06-1.41 18.16-6 7.56-5.68 11.6-5.44 19.84 1.16 7.02 5.62 16.54 7.27 25.13 4.34z"
      fill="#fade05"
      transform="matrix(.6276973 .20395122 -.20395122 .6276973 65 34)"
    />
  </g>
</svg>
