<?xml version="1.0" encoding="UTF-8"?>
<svg id="Layer_2" data-name="Layer 2" xmlns="http://www.w3.org/2000/svg" viewBox="0 0 447.22 179">
  <defs>
    <style>
      .cls-1 {
        fill: #ea5541;
      }

      .cls-2 {
        fill: #43bee1;
      }

      .cls-3 {
        fill: #eb5c44;
      }
    </style>
  </defs>
  <g id="_レイヤー_1" data-name="レイヤー 1">
    <g>
      <g>
        <g>
          <path class="cls-2" d="M221.47,86.33l-14.13-39.55c-1.63-4.56-5.98-7.63-10.82-7.63-4.29,0-8.19,2.36-10.18,6.16l-19.73,37.62c-1.74,3.31-1.63,7.2.29,10.41,1.92,3.21,5.3,5.14,9.03,5.17,6.14,0,8.7-3.83,9.52-5.48.41-.82,1.23-1.33,2.15-1.33h12.13c.94,0,1.8.56,2.19,1.43,1.59,3.56,5.2,5.29,11.03,5.29,2.84,0,5.58-1.48,7.32-3.95,1.73-2.46,2.17-5.42,1.2-8.14ZM194.75,78.01c-3.42,0-6.2-2.78-6.2-6.2s2.78-6.2,6.2-6.2,6.2,2.78,6.2,6.2-2.78,6.2-6.2,6.2Z"/>
          <path class="cls-2" d="M301.17,98.38h22.66c.08-.03.17-.05.26-.05h2.77c5.77,0,10.58-4.51,10.96-10.27.2-3.06-.84-5.99-2.94-8.23-2.1-2.24-4.95-3.48-8.02-3.48l-1.07-.02h-7.34c-.41,0-.75-.34-.75-.75s.34-.75.75-.75h7.11s.01,0,.02,0h1.49c3.4,0,6.25-2.65,6.49-6.04.13-1.82-.51-3.63-1.76-4.97-1.25-1.34-2.92-2.07-4.72-2.07l-.58-.02s0,0,0,0h-4.33c-.41,0-.75-.34-.75-.75s.34-.75.75-.75h4.61s0,0,.01,0h2.85c5.77,0,10.58-4.51,10.96-10.27.2-3.06-.84-5.99-2.94-8.23-2.1-2.24-4.95-3.48-8.02-3.48h-26.07c-5.91,0-10.83,4.62-11.21,10.52l-2.4,37.66c-.2,3.13.87,6.11,3.02,8.4,2.15,2.29,5.05,3.55,8.19,3.55Z"/>
          <path class="cls-2" d="M247.77,115.16c-.22,0-.44,0-.66,0-17.14.31-30.06,13.49-30.06,30.65s13.52,30.23,30.79,30.23c7.06,0,14.04-2.69,19.65-7.56,2.53-2.2,3.73-5.5,3.22-8.83-.52-3.37-2.69-6.19-5.8-7.55,0,0-.1-.04-.1-.04-3.44-1.5-7.47-.84-10.5,1.71-1.99,1.68-4.23,2.56-6.46,2.56-6.42,0-11.08-4.42-11.08-10.52s4.41-10.83,10.71-10.95c2.1-.04,5.34.25,8.64,3.2,3.19,2.85,7.78,3.44,11.43,1.46,2.83-1.54,4.68-4.26,5.06-7.45.39-3.24-.78-6.36-3.21-8.56-6.04-5.47-13.5-8.36-21.61-8.36Z"/>
          <path class="cls-2" d="M184.61,117.33c-3.51,0-6.75,1.47-9.4,4.26l-6.29,6.32c-.89.8-2.18.8-3.04.03l-6.95-6.95c-2.47-2.39-5.54-3.66-8.88-3.66-5.63,0-10.38,4.39-10.83,10l-3.03,38.19c-.24,3.05.77,5.98,2.85,8.23s4.91,3.49,7.98,3.49c5.63,0,10.38-4.39,10.83-10l1.07-13.48c.02-.29.21-.53.47-.64.27-.1.57-.05.78.15,2.87,2.64,7.28,2.73,10.27.23.14-.12.31-.18.48-.18.12,0,.24.03.34.08.27.14.43.42.4.73l-.9,11.4c-.24,3.05.77,5.98,2.85,8.23s4.91,3.49,7.98,3.49c5.63,0,10.38-4.39,10.83-10l3.03-38.19c.24-3.05-.77-5.98-2.85-8.23-2.08-2.25-4.91-3.49-7.98-3.49Z"/>
          <path class="cls-2" d="M53.12,127.57c-.1-5.7-5-10.34-10.91-10.34h-12.69s-.09,0-.14-.01h-14.13c-5.52,0-10.19,4.31-10.64,9.81l-3.07,37.55c-.54,6.57,4.19,12.34,10.54,12.88,3.11.26,6.13-.7,8.5-2.71,2.37-2.01,3.82-4.82,4.07-7.92l.65-7.95c.08-1.01.95-1.81,1.96-1.81h8.89c4.68,0,8.58-3.51,8.89-7.99.19-2.72-.55-5.12-2.08-6.75-1.48-1.59-3.69-2.43-6.4-2.44h-6.81c-.41,0-.75-.34-.75-.75s.34-.75.75-.75h6.75s0,0,0,0l6.06-.08h.01c2.85,0,5.52-1.12,7.52-3.15,2-2.03,3.07-4.73,3.02-7.58Z"/>
          <path class="cls-2" d="M120.55,155.94h-10.34c-.21,0-.41-.09-.55-.24-.14-.15-.21-.36-.2-.56l1.85-25.92c.23-3.2-.85-6.26-3.04-8.62-2.19-2.35-5.16-3.65-8.38-3.65-5.98,0-10.99,4.67-11.42,10.64l-2.64,37.01c-.23,3.19.84,6.23,3.01,8.58,2.17,2.35,5.12,3.65,8.32,3.68.06,0,.13,0,.18.02h23.21c5.77,0,10.47-4.7,10.47-10.47s-4.7-10.47-10.47-10.47Z"/>
          <path class="cls-2" d="M147.64,81.39c11.56,0,20.89-9.06,21.25-20.62.18-5.66-1.94-11.06-5.95-15.2-4.13-4.26-9.9-6.7-15.83-6.7h-19.25c-5.28,0-9.75,4.13-10.16,9.4l-2.99,38.41c-.46,5.9,3.8,11.07,9.5,11.53,2.8.23,5.51-.64,7.63-2.45,2.12-1.81,3.41-4.34,3.63-7.12l.42-5.37c.08-1.05.97-1.87,2.02-1.87h9.73ZM134.59,61.67c0-3.42,2.78-6.2,6.2-6.2s6.2,2.78,6.2,6.2-2.78,6.2-6.2,6.2-6.2-2.78-6.2-6.2Z"/>
          <path class="cls-2" d="M69.96,116.95c-5.98,0-10.99,4.67-11.42,10.64l-2.64,37.01c-.23,3.2.85,6.26,3.04,8.62,2.19,2.35,5.16,3.65,8.38,3.65,5.98,0,10.99-4.67,11.42-10.64l2.64-37.01c.23-3.2-.85-6.26-3.04-8.62-2.19-2.35-5.16-3.65-8.38-3.65Z"/>
          <path class="cls-2" d="M311.28,155.94h-10.34c-.21,0-.41-.09-.55-.24s-.21-.36-.2-.56l1.85-25.92c.23-3.2-.85-6.26-3.04-8.62-2.19-2.35-5.16-3.65-8.38-3.65-5.98,0-10.99,4.67-11.42,10.64l-2.63,37.01c-.23,3.19.84,6.23,3.01,8.58,2.17,2.35,5.12,3.65,8.32,3.68.06,0,.13,0,.18.02h23.21c5.77,0,10.47-4.7,10.47-10.47s-4.69-10.47-10.47-10.47Z"/>
          <path class="cls-2" d="M19.41,98.1h4.87c2.08,0,4.14-.32,6.11-.94,7.21-2.28,12.43-8.84,13.3-16.72l3.23-29.45c.26-3.19-.79-6.27-2.98-8.64s-5.17-3.68-8.39-3.68c-5.89,0-10.88,4.6-11.37,10.47l-2.16,26.24c-.16,1.92-1.79,3.42-3.71,3.42h-.9c-5.27,0-9.66,3.96-9.99,9.01-.18,2.85.58,5.27,2.22,7.01,2.04,2.18,5.33,3.28,9.77,3.28Z"/>
          <path class="cls-2" d="M350.92,71.28c.85-.3,1.74-.58,2.7-.79.4-.09.81.16.9.57.09.4-.16.81-.57.9-.96.22-1.86.49-2.7.8-.12.08-.25.14-.4.14-2.91,1.14-5.09,2.85-6.38,5.04-1.41,2.39-1.73,5.28-.9,8.14.87,3.01,3.41,5.75,7.15,7.72,6.35,3.34,14.69,3.83,22.31,1.31,6.93-2.29,12.49-6.8,15.25-12.37,1.98-3.99,2.34-8.27,1.04-12.07-1.99-5.78-7.07-9.07-15.11-9.79-.41-.04-.72-.4-.68-.81.04-.41.41-.71.81-.68,4.32.38,7.9,1.53,10.67,3.37,3.18-2.63,6.37-10.46,4.32-16.06-3.31-9.02-14.95-12.17-27.69-7.5-12.35,4.53-19.6,15.81-16.17,25.16,1.01,2.75,2.9,5.13,5.47,6.93Z"/>
          <path class="cls-2" d="M434.54,38.26h-26.07c-5.91,0-10.83,4.62-11.21,10.52l-2.41,37.66c-.2,3.13.87,6.11,3.02,8.4,2.15,2.29,5.06,3.55,8.19,3.55h22.66c.08-.03.17-.05.26-.05h2.77c5.77,0,10.58-4.51,10.96-10.27.2-3.06-.84-5.99-2.94-8.23-2.1-2.24-4.95-3.48-8.02-3.48l-1.07-.02h-6.99c-.41,0-.75-.34-.75-.75s.34-.75.75-.75h6.76s.01,0,.02,0h1.49c3.4,0,6.25-2.65,6.49-6.04.13-1.82-.51-3.63-1.77-4.98-1.25-1.34-2.92-2.07-4.72-2.07l-.58-.02s0,0,0,0h-4.33c-.41,0-.75-.34-.75-.75s.34-.75.75-.75h4.61s0,0,.01,0h2.85c5.77,0,10.58-4.51,10.96-10.27.2-3.06-.84-5.99-2.94-8.23-2.1-2.24-4.95-3.48-8.02-3.48Z"/>
          <path class="cls-2" d="M438.91,145.03c-.05-.15-.06-.31-.01-.47l1.4-4.64c1.61-5.31.7-10.98-2.49-15.54-3.04-4.36-7.77-7.03-12.98-7.33-.35-.02-.7-.03-1.06-.03h-26.38c-4.25,0-7.74,3.2-8.12,7.43l-3.49,39.65c-.29,3.27.82,6.54,3.04,8.97,2.22,2.42,5.38,3.82,8.67,3.82h18.37c.08-.03.16-.05.24-.05h1.64c9.18,0,17.68-5.35,21.65-13.63,2.18-4.55,2.41-10.05.62-15.09l-1.1-3.09ZM411.15,163.68c-3.73,0-6.77-3.04-6.77-6.77s3.04-6.77,6.77-6.77,6.77,3.04,6.77,6.77-3.04,6.77-6.77,6.77ZM412.79,141.8c-3.42,0-6.2-2.78-6.2-6.2s2.78-6.2,6.2-6.2,6.2,2.78,6.2,6.2-2.78,6.2-6.2,6.2Z"/>
          <path class="cls-2" d="M236.89,98.12c5.6,0,10.21-4.2,10.73-9.78l.8-8.64c.06-.6.46-1.08,1.04-1.24.58-.16,1.18.05,1.53.53l10.36,14.06c2.54,3.29,5.99,5,10.25,5.07,5.47.11,10.49-4.48,11-9.98l3.53-38.03c.28-3.05-.75-6.08-2.83-8.33-2.08-2.24-5.05-3.5-8.1-3.44-5.49.1-10.04,4.47-10.57,10.16l-.8,8.63c-.05.55-.42,1-.95,1.15-.52.15-1.08-.03-1.42-.47l-10.86-14.32c-2.79-3.41-6.22-5.15-10.18-5.15-5.6,0-10.21,4.2-10.73,9.78l-3.55,38.23c-.28,3.01.73,6.02,2.76,8.26s4.94,3.52,7.97,3.52Z"/>
          <path class="cls-2" d="M368.88,116.27c-5.69.32-10.36,5.2-10.62,11.11l-1.09,21.18c-.11,2.54-2.2,4.54-4.75,4.54-1.31,0-2.53-.52-3.44-1.47-.91-.95-1.37-2.19-1.31-3.5l1.04-20.11c.14-3.1-.97-6.04-3.11-8.29-2.15-2.24-5.04-3.48-8.14-3.48-6.04,0-10.98,4.73-11.25,10.76l-1.17,23.03c-.32,6.99,2.17,13.62,7.01,18.68s11.35,7.84,18.35,7.84h3.81c13.61,0,24.74-10.65,25.36-24.24l1.23-24.3c.14-3.17-1.07-6.28-3.33-8.51-2.29-2.27-5.34-3.42-8.57-3.24Z"/>
          <path class="cls-2" d="M62.1,98.51c6.14,0,8.7-3.83,9.52-5.48.41-.82,1.23-1.33,2.15-1.33h12.13c.94,0,1.8.56,2.19,1.43,1.59,3.56,5.2,5.29,11.03,5.29,2.84,0,5.58-1.48,7.32-3.95,1.73-2.46,2.17-5.42,1.19-8.14l-14.13-39.55c-1.63-4.56-5.98-7.63-10.82-7.63-4.29,0-8.19,2.36-10.18,6.16l-19.73,37.62c-1.74,3.31-1.62,7.2.29,10.41,1.92,3.21,5.3,5.14,9.03,5.17ZM80.9,65.62c3.42,0,6.2,2.78,6.2,6.2s-2.78,6.2-6.2,6.2-6.2-2.78-6.2-6.2,2.78-6.2,6.2-6.2Z"/>
        </g>
        <g>
          <path d="M19.41,99.6h4.87c2.24,0,4.45-.34,6.57-1.01,7.78-2.45,13.4-9.52,14.34-17.99l3.24-29.47c.3-3.58-.93-7.16-3.37-9.8-2.44-2.65-5.9-4.16-9.49-4.16-6.67,0-12.32,5.2-12.86,11.85l-2.16,26.24c-.09,1.14-1.07,2.04-2.22,2.04h-.9c-6.06,0-11.11,4.57-11.49,10.41-.21,3.27.69,6.08,2.62,8.14,2.34,2.49,5.99,3.76,10.87,3.76ZM7.43,87.8c.33-5.05,4.71-9.01,9.99-9.01h.9c1.92,0,3.55-1.5,3.71-3.42l2.16-26.24c.48-5.87,5.48-10.47,11.37-10.47,3.23,0,6.21,1.31,8.39,3.68s3.24,5.45,2.98,8.64l-3.23,29.45c-.87,7.88-6.09,14.45-13.3,16.72-1.97.62-4.03.94-6.11.94h-4.87c-4.44,0-7.73-1.11-9.77-3.28-1.63-1.74-2.4-4.17-2.22-7.01Z"/>
          <path d="M62.09,100.01c6.99,0,9.93-4.41,10.87-6.31.15-.31.46-.5.81-.5h12.13c.35,0,.67.21.82.54,1.86,4.16,5.91,6.18,12.4,6.18,3.33,0,6.53-1.72,8.55-4.59,2.01-2.86,2.52-6.32,1.38-9.51l-14.13-39.55c-1.84-5.16-6.76-8.62-12.24-8.62-4.85,0-9.26,2.67-11.51,6.96l-19.73,37.62c-1.98,3.78-1.85,8.21.34,11.87,2.19,3.66,6.04,5.86,10.31,5.9ZM52.77,82.93l19.73-37.62c1.99-3.8,5.89-6.16,10.18-6.16,4.84,0,9.19,3.06,10.82,7.63l14.13,39.55c.97,2.72.53,5.68-1.19,8.14-1.74,2.48-4.48,3.95-7.32,3.95-5.83,0-9.44-1.73-11.03-5.29-.39-.87-1.25-1.43-2.19-1.43h-12.13c-.92,0-1.74.51-2.15,1.33-.82,1.65-3.38,5.48-9.52,5.48-3.74-.03-7.11-1.97-9.03-5.17-1.92-3.21-2.03-7.1-.29-10.41Z"/>
          <path d="M80.9,78.01c3.42,0,6.2-2.78,6.2-6.2s-2.78-6.2-6.2-6.2-6.2,2.78-6.2,6.2,2.78,6.2,6.2,6.2ZM80.9,67.12c2.59,0,4.7,2.11,4.7,4.7s-2.11,4.7-4.7,4.7-4.7-2.11-4.7-4.7,2.11-4.7,4.7-4.7Z"/>
          <path d="M221.5,95.33c2.01-2.86,2.52-6.32,1.38-9.51l-14.13-39.55c-1.84-5.16-6.76-8.62-12.23-8.62-4.85,0-9.26,2.67-11.51,6.96l-19.73,37.62c-1.98,3.78-1.85,8.21.34,11.87,2.19,3.66,6.04,5.87,10.31,5.9,6.99,0,9.93-4.41,10.87-6.31.15-.31.46-.5.81-.5h12.13c.35,0,.67.21.82.54,1.86,4.16,5.91,6.18,12.4,6.18,3.33,0,6.53-1.72,8.55-4.59ZM212.95,98.42c-5.83,0-9.44-1.73-11.03-5.29-.39-.87-1.25-1.43-2.19-1.43h-12.13c-.92,0-1.74.51-2.15,1.33-.82,1.65-3.38,5.48-9.52,5.48-3.74-.03-7.11-1.97-9.03-5.17-1.92-3.21-2.03-7.1-.29-10.41l19.73-37.62c1.99-3.8,5.89-6.16,10.18-6.16,4.84,0,9.19,3.06,10.82,7.63l14.13,39.55c.97,2.72.53,5.68-1.2,8.14-1.74,2.48-4.48,3.95-7.32,3.95Z"/>
          <path d="M194.75,65.62c-3.42,0-6.2,2.78-6.2,6.2s2.78,6.2,6.2,6.2,6.2-2.78,6.2-6.2-2.78-6.2-6.2-6.2ZM194.75,76.51c-2.59,0-4.7-2.11-4.7-4.7s2.11-4.7,4.7-4.7,4.7,2.11,4.7,4.7-2.11,4.7-4.7,4.7Z"/>
          <path d="M146.99,61.67c0-3.42-2.78-6.2-6.2-6.2s-6.2,2.78-6.2,6.2,2.78,6.2,6.2,6.2,6.2-2.78,6.2-6.2ZM136.09,61.67c0-2.59,2.11-4.7,4.7-4.7s4.7,2.11,4.7,4.7-2.11,4.7-4.7,4.7-4.7-2.11-4.7-4.7Z"/>
          <path d="M137.38,83.37c.02-.27.25-.49.52-.49h9.73c12.37,0,22.36-9.69,22.75-22.07.19-6.07-2.08-11.86-6.38-16.29-4.41-4.55-10.57-7.15-16.91-7.15h-19.25c-6.06,0-11.18,4.73-11.65,10.78l-2.99,38.41c-.52,6.72,4.35,12.61,10.87,13.14.33.03.66.04.99.04,2.84,0,5.55-.99,7.73-2.85,2.43-2.07,3.91-4.97,4.15-8.15l.42-5.37ZM135.89,83.26l-.42,5.37c-.22,2.78-1.51,5.31-3.63,7.12-2.12,1.81-4.83,2.68-7.63,2.45-5.7-.46-9.96-5.63-9.5-11.53l2.99-38.41c.41-5.27,4.87-9.4,10.16-9.4h19.25c5.93,0,11.7,2.44,15.83,6.7,4.01,4.14,6.13,9.54,5.95,15.2-.36,11.56-9.69,20.62-21.25,20.62h-9.73c-1.05,0-1.94.82-2.02,1.87Z"/>
          <path d="M236.89,99.62c6.38,0,11.63-4.79,12.23-11.14l.78-8.45,10.26,13.92c2.84,3.69,6.69,5.59,11.42,5.66,6.3.14,11.93-4.99,12.52-11.34l3.53-38.03c.32-3.47-.85-6.93-3.23-9.49-2.37-2.56-5.73-3.99-9.23-3.92-6.26.11-11.43,5.06-12.03,11.52l-.76,8.17-10.6-13.97c-3.1-3.79-6.92-5.72-11.35-5.72-6.38,0-11.64,4.79-12.22,11.14l-3.55,38.23c-.32,3.43.83,6.86,3.15,9.41,2.32,2.55,5.63,4.01,9.07,4.01ZM226.16,86.35l3.55-38.23c.52-5.58,5.13-9.78,10.73-9.78,3.96,0,7.39,1.74,10.18,5.15l10.86,14.32c.33.44.89.62,1.42.47.53-.15.9-.6.95-1.15l.8-8.63c.53-5.69,5.07-10.06,10.57-10.16,3.05-.05,6.02,1.2,8.1,3.44,2.08,2.24,3.11,5.28,2.83,8.33l-3.53,38.03c-.51,5.49-5.53,10.09-11,9.98-4.26-.07-7.71-1.77-10.25-5.07l-10.36-14.06c-.35-.48-.95-.69-1.53-.53-.58.16-.98.65-1.04,1.24l-.8,8.64c-.52,5.58-5.13,9.78-10.73,9.78-3.02,0-5.93-1.28-7.97-3.52s-3.05-5.24-2.76-8.26Z"/>
          <path d="M301.17,99.88h22.92c.09,0,.18-.02.26-.05h2.52c6.56,0,12.03-5.12,12.46-11.67.23-3.48-.96-6.8-3.35-9.35-1.48-1.58-3.28-2.72-5.27-3.35,2.42-1.24,4.15-3.69,4.35-6.56.16-2.23-.63-4.46-2.16-6.1-.43-.46-.9-.86-1.41-1.21,5.71-.86,10.22-5.61,10.61-11.53.23-3.48-.96-6.8-3.35-9.35-2.39-2.55-5.62-3.95-9.11-3.95h-26.07c-6.7,0-12.28,5.24-12.71,11.92l-2.4,37.66c-.23,3.55.99,6.93,3.42,9.52,2.43,2.59,5.73,4.02,9.29,4.02ZM289.96,86.43l2.4-37.66c.38-5.9,5.3-10.52,11.21-10.52h26.07c3.07,0,5.92,1.23,8.02,3.48,2.1,2.24,3.14,5.16,2.94,8.23-.38,5.76-5.19,10.27-10.96,10.27h-2.85s0,0-.01,0h-4.61c-.41,0-.75.34-.75.75s.34.75.75.75h4.33s0,0,0,0l.58.02c1.8,0,3.48.74,4.72,2.07,1.25,1.34,1.89,3.16,1.76,4.97-.24,3.39-3.09,6.04-6.49,6.04h-1.49s-.02,0-.02,0h-7.11c-.41,0-.75.34-.75.75s.34.75.75.75h7.34l1.07.02c3.07,0,5.92,1.23,8.02,3.48,2.1,2.24,3.14,5.16,2.94,8.23-.38,5.76-5.19,10.27-10.96,10.27h-2.77c-.09,0-.18.02-.26.05h-22.66c-3.14,0-6.05-1.26-8.19-3.55-2.15-2.29-3.22-5.27-3.02-8.4Z"/>
          <path d="M434.54,36.76h-26.07c-6.7,0-12.28,5.24-12.71,11.92l-2.41,37.66c-.23,3.55.99,6.93,3.42,9.52,2.43,2.59,5.73,4.02,9.29,4.02h22.92c.09,0,.18-.02.26-.05h2.52c6.56,0,12.03-5.12,12.46-11.67.23-3.48-.96-6.8-3.35-9.35-1.48-1.58-3.28-2.72-5.27-3.36,2.42-1.24,4.15-3.69,4.35-6.56.16-2.23-.63-4.46-2.16-6.1-.43-.46-.9-.86-1.41-1.21,5.71-.86,10.22-5.61,10.61-11.53.23-3.48-.96-6.8-3.35-9.35-2.39-2.55-5.62-3.95-9.11-3.95ZM445.5,49.96c-.38,5.76-5.19,10.27-10.96,10.27h-2.85s0,0-.01,0h-4.61c-.41,0-.75.34-.75.75s.34.75.75.75h4.33s0,0,0,0l.58.02c1.8,0,3.48.74,4.72,2.07,1.25,1.34,1.89,3.16,1.77,4.98-.24,3.39-3.09,6.04-6.49,6.04h-1.49s-.02,0-.02,0h-6.76c-.41,0-.75.34-.75.75s.34.75.75.75h6.99l1.07.02c3.07,0,5.92,1.23,8.02,3.48,2.1,2.24,3.14,5.16,2.94,8.23-.38,5.76-5.19,10.27-10.96,10.27h-2.77c-.09,0-.18.02-.26.05h-22.66c-3.14,0-6.05-1.26-8.19-3.55-2.15-2.29-3.22-5.27-3.02-8.4l2.41-37.66c.38-5.9,5.3-10.52,11.21-10.52h26.07c3.07,0,5.92,1.23,8.02,3.48,2.1,2.24,3.14,5.16,2.94,8.23Z"/>
          <path d="M349.28,71.94c-2.72,1.26-4.81,3.01-6.11,5.22-1.62,2.75-2,6.06-1.05,9.32.98,3.4,3.79,6.47,7.89,8.63,3.87,2.04,8.44,3.08,13.15,3.08,3.44,0,6.95-.55,10.33-1.67,7.31-2.42,13.19-7.2,16.12-13.13,2.15-4.35,2.55-9.04,1.11-13.22-.9-2.63-2.43-4.81-4.51-6.51,3.81-3.42,6.62-11.72,4.5-17.49-3.61-9.83-16.06-13.36-29.61-8.39-13.12,4.81-20.78,16.96-17.07,27.08,1.01,2.75,2.81,5.18,5.24,7.08ZM361.62,39.18c12.74-4.67,24.38-1.52,27.69,7.5,2.05,5.6-1.14,13.43-4.32,16.06-2.77-1.84-6.35-2.98-10.67-3.37-.41-.03-.78.27-.81.68-.04.41.27.78.68.81,8.04.72,13.13,4.01,15.11,9.79,1.31,3.8.94,8.08-1.04,12.07-2.76,5.57-8.32,10.08-15.25,12.37-7.62,2.52-15.96,2.03-22.31-1.31-3.74-1.97-6.28-4.71-7.15-7.72-.83-2.86-.51-5.75.9-8.14,1.29-2.18,3.47-3.89,6.38-5.04.14,0,.28-.06.4-.14.85-.31,1.74-.59,2.7-.8.4-.09.66-.49.57-.9-.09-.4-.5-.66-.9-.57-.96.22-1.85.49-2.7.79-2.57-1.8-4.46-4.19-5.47-6.93-3.43-9.35,3.83-20.63,16.17-25.16Z"/>
          <path d="M51.18,136.2c2.28-2.32,3.5-5.4,3.45-8.66-.12-6.51-5.69-11.81-12.41-11.81h-12.56s-.09-.01-.14-.01h-14.27c-6.29,0-11.62,4.91-12.13,11.18L.05,164.46c-.6,7.39,4.74,13.89,11.91,14.49.38.03.76.05,1.13.05,3.11,0,6.08-1.08,8.46-3.1,2.68-2.27,4.31-5.44,4.6-8.94l.65-7.95c.02-.24.23-.43.47-.43h8.89c5.47,0,10.03-4.12,10.39-9.39.21-3.14-.67-5.94-2.48-7.88-.54-.58-1.17-1.08-1.86-1.49h.39c3.25,0,6.3-1.29,8.58-3.61ZM42.58,138.31l-6.06.08s0,0,0,0h-6.75c-.41,0-.75.34-.75.75s.34.75.75.75h6.81c2.7,0,4.91.85,6.4,2.44,1.53,1.63,2.26,4.03,2.08,6.75-.3,4.48-4.21,7.99-8.89,7.99h-8.89c-1.02,0-1.88.79-1.96,1.81l-.65,7.95c-.25,3.1-1.7,5.91-4.07,7.92-2.37,2.01-5.39,2.97-8.5,2.71-6.35-.53-11.07-6.31-10.54-12.88l3.07-37.55c.45-5.5,5.12-9.81,10.64-9.81h14.13s.09.01.14.01h12.69c5.91,0,10.8,4.64,10.91,10.34.05,2.85-1.02,5.54-3.02,7.58-2,2.03-4.67,3.15-7.52,3.15h-.01Z"/>
          <path d="M69.96,115.45c-6.76,0-12.43,5.28-12.92,12.03l-2.64,37.01c-.26,3.62.96,7.09,3.44,9.74,2.48,2.66,5.84,4.12,9.47,4.12,6.76,0,12.44-5.28,12.92-12.03l2.64-37.01c.26-3.62-.96-7.09-3.44-9.74-2.48-2.66-5.84-4.12-9.48-4.12ZM81.38,129.21l-2.64,37.01c-.42,5.96-5.44,10.64-11.42,10.64-3.21,0-6.19-1.3-8.38-3.65-2.19-2.35-3.27-5.41-3.04-8.62l2.64-37.01c.42-5.96,5.44-10.64,11.42-10.64,3.21,0,6.19,1.3,8.38,3.65,2.19,2.35,3.27,5.41,3.04,8.62Z"/>
          <path d="M120.55,154.44h-9.54l1.79-25.12c.26-3.62-.96-7.09-3.44-9.74-2.48-2.66-5.84-4.12-9.47-4.12-6.76,0-12.43,5.28-12.92,12.03l-2.64,37.01c-.26,3.6.95,7.05,3.4,9.7,2.41,2.61,5.67,4.08,9.21,4.16.06.02.13.03.2.03h23.4c6.6,0,11.97-5.37,11.97-11.97s-5.37-11.97-11.97-11.97ZM120.55,176.88h-23.21c-.06-.02-.12-.02-.18-.02-3.2-.03-6.15-1.33-8.32-3.68-2.17-2.35-3.23-5.39-3.01-8.58l2.64-37.01c.42-5.96,5.44-10.64,11.42-10.64,3.21,0,6.19,1.3,8.38,3.65,2.19,2.35,3.27,5.41,3.04,8.62l-1.85,25.92c-.01.21.06.41.2.56.14.15.34.24.55.24h10.34c5.77,0,10.47,4.7,10.47,10.47s-4.7,10.47-10.47,10.47Z"/>
          <path d="M311.28,154.44h-9.54l1.79-25.12c.26-3.62-.96-7.09-3.44-9.74s-5.84-4.12-9.47-4.12c-6.76,0-12.44,5.28-12.92,12.03l-2.63,37.01c-.26,3.6.95,7.05,3.4,9.7,2.41,2.61,5.67,4.08,9.21,4.16.06.02.13.03.2.03h23.4c6.6,0,11.97-5.37,11.97-11.97s-5.37-11.97-11.97-11.97ZM311.28,176.88h-23.21c-.06-.02-.12-.02-.18-.02-3.2-.03-6.15-1.33-8.32-3.68-2.17-2.34-3.24-5.39-3.01-8.58l2.63-37.01c.42-5.96,5.44-10.64,11.42-10.64,3.21,0,6.19,1.29,8.38,3.65,2.19,2.35,3.27,5.41,3.04,8.62l-1.85,25.92c-.01.21.06.41.2.56s.34.24.55.24h10.34c5.77,0,10.47,4.7,10.47,10.47s-4.69,10.47-10.47,10.47Z"/>
          <path d="M184.61,115.83c-3.93,0-7.55,1.63-10.47,4.71l-6.25,6.28c-.29.26-.72.26-.98.03l-6.93-6.93c-2.76-2.68-6.2-4.1-9.94-4.1-6.4,0-11.81,5-12.32,11.38l-3.03,38.19c-.27,3.43.91,6.84,3.24,9.37,2.33,2.52,5.64,3.97,9.08,3.97,6.4,0,11.81-5,12.32-11.38l.96-12.1c2.92,1.94,6.71,2.05,9.75.32l-.78,9.82c-.27,3.43.91,6.84,3.24,9.37s5.64,3.97,9.08,3.97c6.4,0,11.81-5,12.32-11.38l3.03-38.19c.27-3.43-.91-6.84-3.24-9.37s-5.64-3.97-9.08-3.97ZM195.44,129.05l-3.03,38.19c-.45,5.61-5.2,10-10.83,10-3.06,0-5.9-1.24-7.98-3.49s-3.09-5.17-2.85-8.23l.9-11.4c.02-.3-.14-.59-.4-.73-.11-.06-.23-.08-.34-.08-.17,0-.34.06-.48.18-2.99,2.5-7.4,2.41-10.27-.23-.21-.19-.52-.25-.78-.15-.27.1-.45.35-.47.64l-1.07,13.48c-.45,5.61-5.2,10-10.83,10-3.06,0-5.9-1.24-7.98-3.49s-3.09-5.17-2.85-8.23l3.03-38.19c.45-5.61,5.2-10,10.83-10,3.34,0,6.42,1.27,8.88,3.66l6.95,6.95c.86.77,2.16.76,3.04-.03l6.29-6.32c2.64-2.79,5.89-4.26,9.4-4.26,3.06,0,5.9,1.24,7.98,3.49,2.08,2.25,3.09,5.17,2.85,8.23Z"/>
          <path d="M368.8,114.77c-6.45.36-11.74,5.87-12.04,12.53l-1.09,21.19c-.08,1.74-1.51,3.11-3.25,3.11-.9,0-1.73-.36-2.35-1.01s-.94-1.5-.9-2.39l1.04-20.11c.16-3.52-1.09-6.85-3.53-9.4-2.43-2.54-5.71-3.94-9.23-3.94-6.84,0-12.44,5.35-12.75,12.19l-1.17,23.03c-.33,7.4,2.3,14.43,7.42,19.79,5.12,5.36,12.02,8.31,19.43,8.31h3.81c14.41,0,26.21-11.28,26.86-25.67l1.23-24.3c.16-3.6-1.21-7.12-3.78-9.65-2.56-2.53-6.11-3.87-9.71-3.67ZM379.55,152.33c-.61,13.59-11.75,24.24-25.36,24.24h-3.81c-7,0-13.51-2.79-18.35-7.84s-7.32-11.69-7.01-18.68l1.17-23.03c.27-6.03,5.21-10.76,11.25-10.76,3.11,0,6,1.24,8.14,3.48,2.15,2.25,3.25,5.19,3.11,8.29l-1.04,20.11c-.06,1.31.41,2.55,1.31,3.5.91.95,2.13,1.47,3.44,1.47,2.55,0,4.64-1.99,4.75-4.54l1.09-21.18c.27-5.91,4.93-10.79,10.62-11.11,3.23-.19,6.28.97,8.57,3.24,2.26,2.24,3.48,5.34,3.33,8.51l-1.23,24.3Z"/>
          <path d="M412.79,129.4c-3.42,0-6.2,2.78-6.2,6.2s2.78,6.2,6.2,6.2,6.2-2.78,6.2-6.2-2.78-6.2-6.2-6.2ZM412.79,140.3c-2.59,0-4.7-2.11-4.7-4.7s2.11-4.7,4.7-4.7,4.7,2.11,4.7,4.7-2.11,4.7-4.7,4.7Z"/>
          <path d="M411.15,150.14c-3.73,0-6.77,3.04-6.77,6.77s3.04,6.77,6.77,6.77,6.77-3.04,6.77-6.77-3.04-6.77-6.77-6.77ZM411.15,162.18c-2.91,0-5.27-2.36-5.27-5.27s2.36-5.27,5.27-5.27,5.27,2.36,5.27,5.27-2.36,5.27-5.27,5.27Z"/>
          <path d="M440.41,144.76l1.33-4.41c1.74-5.76.76-11.89-2.69-16.83-3.31-4.74-8.46-7.64-14.12-7.97-.38-.02-.76-.03-1.15-.03h-26.38c-5.04,0-9.17,3.78-9.61,8.8l-3.49,39.65c-.33,3.69.92,7.38,3.43,10.11,2.5,2.73,6.07,4.3,9.77,4.3h18.61c.08,0,.17-.02.24-.05h1.4c9.75,0,18.78-5.68,23-14.48,2.36-4.91,2.6-10.83.68-16.24l-1.02-2.86ZM439.39,163.22c-3.97,8.28-12.47,13.63-21.65,13.63h-1.64c-.08,0-.17.02-.24.05h-18.37c-3.29,0-6.45-1.39-8.67-3.82-2.22-2.42-3.33-5.69-3.04-8.97l3.49-39.65c.37-4.24,3.86-7.43,8.12-7.43h26.38c.36,0,.71.01,1.06.03,5.21.3,9.94,2.97,12.98,7.33,3.19,4.56,4.09,10.23,2.49,15.54l-1.4,4.64c-.05.15-.04.32.01.47l1.1,3.09c1.79,5.04,1.56,10.54-.62,15.09Z"/>
          <path d="M247.09,113.67c-17.98.33-31.54,14.15-31.54,32.15s14.18,31.73,32.29,31.73c7.43,0,14.75-2.82,20.63-7.93,2.92-2.54,4.31-6.35,3.72-10.19-.6-3.88-3.1-7.13-6.68-8.69,0,0-.1-.04-.1-.04-3.97-1.73-8.6-.99-12.07,1.94-1.2,1.01-3.13,2.21-5.49,2.21-5.55,0-9.58-3.79-9.58-9.02s3.8-9.35,9.24-9.45c2.03-.03,4.74.25,7.61,2.82,3.66,3.27,8.95,3.94,13.14,1.66,3.27-1.77,5.39-4.91,5.83-8.59.45-3.73-.9-7.32-3.7-9.85-6.49-5.88-14.55-8.92-23.31-8.74ZM272.6,132.08c-.38,3.2-2.23,5.91-5.06,7.45-3.64,1.98-8.24,1.39-11.43-1.46-3.3-2.95-6.54-3.24-8.64-3.2-6.31.12-10.71,4.62-10.71,10.95s4.66,10.52,11.08,10.52c2.23,0,4.46-.89,6.46-2.56,3.04-2.55,7.07-3.21,10.5-1.71,0,0,.1.04.1.04,3.12,1.36,5.28,4.18,5.8,7.55.51,3.33-.69,6.63-3.22,8.83-5.6,4.88-12.58,7.56-19.65,7.56-17.27,0-30.79-13.28-30.79-30.23s12.92-30.34,30.06-30.65c.22,0,.44,0,.66,0,8.11,0,15.57,2.88,21.61,8.36,2.43,2.2,3.6,5.32,3.21,8.56Z"/>
        </g>
      </g>
      <g>
        <g>
          <g>
            <path class="cls-1" d="M221.66,79.22l-14.13-39.55c-1.63-4.56-5.98-7.63-10.82-7.63-4.29,0-8.19,2.36-10.18,6.16l-19.73,37.62c-1.74,3.31-1.63,7.2.29,10.41,1.92,3.21,5.3,5.14,9.03,5.17,6.14,0,8.7-3.83,9.52-5.48.41-.82,1.23-1.33,2.15-1.33h12.13c.94,0,1.8.56,2.19,1.43,1.59,3.56,5.2,5.29,11.03,5.29,2.84,0,5.58-1.48,7.32-3.95,1.73-2.46,2.17-5.42,1.2-8.14ZM194.93,70.91c-3.42,0-6.2-2.78-6.2-6.2s2.78-6.2,6.2-6.2,6.2,2.78,6.2,6.2-2.78,6.2-6.2,6.2Z"/>
            <path class="cls-1" d="M301.36,91.28h22.66c.08-.03.17-.05.26-.05h2.77c5.77,0,10.58-4.51,10.96-10.27.2-3.06-.84-5.99-2.94-8.23-2.1-2.24-4.95-3.48-8.02-3.48l-1.07-.02h-7.34c-.41,0-.75-.34-.75-.75s.34-.75.75-.75h7.11s.01,0,.02,0h1.49c3.4,0,6.25-2.65,6.49-6.04.13-1.82-.51-3.63-1.76-4.97-1.25-1.34-2.92-2.07-4.72-2.07l-.58-.02s0,0,0,0h-4.33c-.41,0-.75-.34-.75-.75s.34-.75.75-.75h4.61s0,0,.01,0h2.85c5.77,0,10.58-4.51,10.96-10.27.2-3.06-.84-5.99-2.94-8.23-2.1-2.24-4.95-3.48-8.02-3.48h-26.07c-5.91,0-10.83,4.62-11.21,10.52l-2.4,37.66c-.2,3.13.87,6.11,3.02,8.4,2.15,2.29,5.05,3.55,8.19,3.55Z"/>
            <path class="cls-1" d="M247.96,108.06c-.22,0-.44,0-.66,0-17.14.31-30.06,13.49-30.06,30.65s13.52,30.23,30.79,30.23c7.06,0,14.04-2.69,19.65-7.56,2.53-2.2,3.73-5.5,3.22-8.83-.52-3.37-2.69-6.19-5.8-7.55,0,0-.1-.04-.1-.04-3.44-1.5-7.47-.84-10.5,1.71-1.99,1.68-4.23,2.56-6.46,2.56-6.42,0-11.08-4.42-11.08-10.52s4.41-10.83,10.71-10.95c2.1-.04,5.34.25,8.64,3.2,3.19,2.85,7.78,3.44,11.43,1.46,2.83-1.54,4.68-4.26,5.06-7.45.39-3.24-.78-6.36-3.21-8.56-6.04-5.47-13.5-8.36-21.61-8.36Z"/>
            <path class="cls-1" d="M184.8,110.23c-3.51,0-6.75,1.47-9.4,4.26l-6.29,6.32c-.89.8-2.18.8-3.04.03l-6.95-6.95c-2.47-2.39-5.54-3.66-8.88-3.66-5.63,0-10.38,4.39-10.83,10l-3.03,38.19c-.24,3.05.77,5.98,2.85,8.23s4.91,3.49,7.98,3.49c5.63,0,10.38-4.39,10.83-10l1.07-13.48c.02-.29.21-.53.47-.64.27-.1.57-.05.78.15,2.87,2.64,7.28,2.73,10.27.23.14-.12.31-.18.48-.18.12,0,.24.03.34.08.27.14.43.42.4.73l-.9,11.4c-.24,3.05.77,5.98,2.85,8.23s4.91,3.49,7.98,3.49c5.63,0,10.38-4.39,10.83-10l3.03-38.19c.24-3.05-.77-5.98-2.85-8.23-2.08-2.25-4.91-3.49-7.98-3.49Z"/>
            <path class="cls-1" d="M53.31,120.47c-.1-5.7-5-10.34-10.91-10.34h-12.69s-.09,0-.14-.01h-14.13c-5.52,0-10.19,4.31-10.64,9.81l-3.07,37.55c-.54,6.57,4.19,12.34,10.54,12.88,3.11.26,6.13-.7,8.5-2.71,2.37-2.01,3.82-4.82,4.07-7.92l.65-7.95c.08-1.01.95-1.81,1.96-1.81h8.89c4.68,0,8.58-3.51,8.89-7.99.19-2.72-.55-5.12-2.08-6.75-1.48-1.59-3.69-2.43-6.4-2.44h-6.81c-.41,0-.75-.34-.75-.75s.34-.75.75-.75h6.75s0,0,0,0l6.06-.08h.01c2.85,0,5.52-1.12,7.52-3.15,2-2.03,3.07-4.73,3.02-7.58Z"/>
            <path class="cls-1" d="M120.74,148.84h-10.34c-.21,0-.41-.09-.55-.24-.14-.15-.21-.36-.2-.56l1.85-25.92c.23-3.2-.85-6.26-3.04-8.62-2.19-2.35-5.16-3.65-8.38-3.65-5.98,0-10.99,4.67-11.42,10.64l-2.64,37.01c-.23,3.19.84,6.23,3.01,8.58,2.17,2.35,5.12,3.65,8.32,3.68.06,0,.13,0,.18.02h23.21c5.77,0,10.47-4.7,10.47-10.47s-4.7-10.47-10.47-10.47Z"/>
            <path class="cls-1" d="M147.83,74.29c11.56,0,20.89-9.06,21.25-20.62.18-5.66-1.94-11.06-5.95-15.2-4.13-4.26-9.9-6.7-15.83-6.7h-19.25c-5.28,0-9.75,4.13-10.16,9.4l-2.99,38.41c-.46,5.9,3.8,11.07,9.5,11.53,2.8.23,5.51-.64,7.63-2.45,2.12-1.81,3.41-4.34,3.63-7.12l.42-5.37c.08-1.05.97-1.87,2.02-1.87h9.73ZM134.78,54.57c0-3.42,2.78-6.2,6.2-6.2s6.2,2.78,6.2,6.2-2.78,6.2-6.2,6.2-6.2-2.78-6.2-6.2Z"/>
            <path class="cls-1" d="M70.15,109.85c-5.98,0-10.99,4.67-11.42,10.64l-2.64,37.01c-.23,3.2.85,6.26,3.04,8.62,2.19,2.35,5.16,3.65,8.38,3.65,5.98,0,10.99-4.67,11.42-10.64l2.64-37.01c.23-3.2-.85-6.26-3.04-8.62-2.19-2.35-5.16-3.65-8.38-3.65Z"/>
            <path class="cls-1" d="M311.47,148.84h-10.34c-.21,0-.41-.09-.55-.24s-.21-.36-.2-.56l1.85-25.92c.23-3.2-.85-6.26-3.04-8.62-2.19-2.35-5.16-3.65-8.38-3.65-5.98,0-10.99,4.67-11.42,10.64l-2.63,37.01c-.23,3.19.84,6.23,3.01,8.58,2.17,2.35,5.12,3.65,8.32,3.68.06,0,.13,0,.18.02h23.21c5.77,0,10.47-4.7,10.47-10.47s-4.69-10.47-10.47-10.47Z"/>
            <path class="cls-1" d="M19.6,91h4.87c2.08,0,4.14-.32,6.11-.94,7.21-2.28,12.43-8.84,13.3-16.72l3.23-29.45c.26-3.19-.79-6.27-2.98-8.64s-5.17-3.68-8.39-3.68c-5.89,0-10.88,4.6-11.37,10.47l-2.16,26.24c-.16,1.92-1.79,3.42-3.71,3.42h-.9c-5.27,0-9.66,3.96-9.99,9.01-.18,2.85.58,5.27,2.22,7.01,2.04,2.18,5.33,3.28,9.77,3.28Z"/>
            <path class="cls-1" d="M351.1,64.17c.85-.3,1.74-.58,2.7-.79.4-.09.81.16.9.57.09.4-.16.81-.57.9-.96.22-1.86.49-2.7.8-.12.08-.25.14-.4.14-2.91,1.14-5.09,2.85-6.38,5.04-1.41,2.39-1.73,5.28-.9,8.14.87,3.01,3.41,5.75,7.15,7.72,6.35,3.34,14.69,3.83,22.31,1.31,6.93-2.29,12.49-6.8,15.25-12.37,1.98-3.99,2.34-8.27,1.04-12.07-1.99-5.78-7.07-9.07-15.11-9.79-.41-.04-.72-.4-.68-.81.04-.41.41-.71.81-.68,4.32.38,7.9,1.53,10.67,3.37,3.18-2.63,6.37-10.46,4.32-16.06-3.31-9.02-14.95-12.17-27.69-7.5-12.35,4.53-19.6,15.81-16.17,25.16,1.01,2.75,2.9,5.13,5.47,6.93Z"/>
            <path class="cls-1" d="M434.73,31.15h-26.07c-5.91,0-10.83,4.62-11.21,10.52l-2.41,37.66c-.2,3.13.87,6.11,3.02,8.4,2.15,2.29,5.06,3.55,8.19,3.55h22.66c.08-.03.17-.05.26-.05h2.77c5.77,0,10.58-4.51,10.96-10.27.2-3.06-.84-5.99-2.94-8.23-2.1-2.24-4.95-3.48-8.02-3.48l-1.07-.02h-6.99c-.41,0-.75-.34-.75-.75s.34-.75.75-.75h6.76s.01,0,.02,0h1.49c3.4,0,6.25-2.65,6.49-6.04.13-1.82-.51-3.63-1.77-4.98-1.25-1.34-2.92-2.07-4.72-2.07l-.58-.02s0,0,0,0h-4.33c-.41,0-.75-.34-.75-.75s.34-.75.75-.75h4.61s0,0,.01,0h2.85c5.77,0,10.58-4.51,10.96-10.27.2-3.06-.84-5.99-2.94-8.23-2.1-2.24-4.95-3.48-8.02-3.48Z"/>
            <path class="cls-1" d="M439.1,137.93c-.05-.15-.06-.31-.01-.47l1.4-4.64c1.61-5.31.7-10.98-2.49-15.54-3.04-4.36-7.77-7.03-12.98-7.33-.35-.02-.7-.03-1.06-.03h-26.38c-4.25,0-7.74,3.2-8.12,7.43l-3.49,39.65c-.29,3.27.82,6.54,3.04,8.97,2.22,2.42,5.38,3.82,8.67,3.82h18.37c.08-.03.16-.05.24-.05h1.64c9.18,0,17.68-5.35,21.65-13.63,2.18-4.55,2.41-10.05.62-15.09l-1.1-3.09ZM411.33,156.57c-3.73,0-6.77-3.04-6.77-6.77s3.04-6.77,6.77-6.77,6.77,3.04,6.77,6.77-3.04,6.77-6.77,6.77ZM412.98,134.69c-3.42,0-6.2-2.78-6.2-6.2s2.78-6.2,6.2-6.2,6.2,2.78,6.2,6.2-2.78,6.2-6.2,6.2Z"/>
            <path class="cls-1" d="M237.08,91.02c5.6,0,10.21-4.2,10.73-9.78l.8-8.64c.06-.6.46-1.08,1.04-1.24.58-.16,1.18.05,1.53.53l10.36,14.06c2.54,3.29,5.99,5,10.25,5.07,5.47.11,10.49-4.48,11-9.98l3.53-38.03c.28-3.05-.75-6.08-2.83-8.33-2.08-2.24-5.05-3.5-8.1-3.44-5.49.1-10.04,4.47-10.57,10.16l-.8,8.63c-.05.55-.42,1-.95,1.15-.52.15-1.08-.03-1.42-.47l-10.86-14.32c-2.79-3.41-6.22-5.15-10.18-5.15-5.6,0-10.21,4.2-10.73,9.78l-3.55,38.23c-.28,3.01.73,6.02,2.76,8.26s4.94,3.52,7.97,3.52Z"/>
            <path class="cls-1" d="M369.07,109.17c-5.69.32-10.36,5.2-10.62,11.11l-1.09,21.18c-.11,2.54-2.2,4.54-4.75,4.54-1.31,0-2.53-.52-3.44-1.47-.91-.95-1.37-2.19-1.31-3.5l1.04-20.11c.14-3.1-.97-6.04-3.11-8.29-2.15-2.24-5.04-3.48-8.14-3.48-6.04,0-10.98,4.73-11.25,10.76l-1.17,23.03c-.32,6.99,2.17,13.62,7.01,18.68s11.35,7.84,18.35,7.84h3.81c13.61,0,24.74-10.65,25.36-24.24l1.23-24.3c.14-3.17-1.07-6.28-3.33-8.51-2.29-2.27-5.34-3.42-8.57-3.24Z"/>
            <path class="cls-1" d="M62.29,91.41c6.14,0,8.7-3.83,9.52-5.48.41-.82,1.23-1.33,2.15-1.33h12.13c.94,0,1.8.56,2.19,1.43,1.59,3.56,5.2,5.29,11.03,5.29,2.84,0,5.58-1.48,7.32-3.95,1.73-2.46,2.17-5.42,1.19-8.14l-14.13-39.55c-1.63-4.56-5.98-7.63-10.82-7.63-4.29,0-8.19,2.36-10.18,6.16l-19.73,37.62c-1.74,3.31-1.62,7.2.29,10.41,1.92,3.21,5.3,5.14,9.03,5.17ZM81.09,58.51c3.42,0,6.2,2.78,6.2,6.2s-2.78,6.2-6.2,6.2-6.2-2.78-6.2-6.2,2.78-6.2,6.2-6.2Z"/>
          </g>
          <g>
            <path d="M19.6,92.5h4.87c2.24,0,4.45-.34,6.57-1.01,7.78-2.45,13.4-9.52,14.34-17.99l3.24-29.47c.3-3.58-.93-7.16-3.37-9.8-2.44-2.65-5.9-4.16-9.49-4.16-6.67,0-12.32,5.2-12.86,11.85l-2.16,26.24c-.09,1.14-1.07,2.04-2.22,2.04h-.9c-6.06,0-11.11,4.57-11.49,10.41-.21,3.27.69,6.08,2.62,8.14,2.34,2.49,5.99,3.76,10.87,3.76ZM7.61,80.7c.33-5.05,4.71-9.01,9.99-9.01h.9c1.92,0,3.55-1.5,3.71-3.42l2.16-26.24c.48-5.87,5.48-10.47,11.37-10.47,3.23,0,6.21,1.31,8.39,3.68s3.24,5.45,2.98,8.64l-3.23,29.45c-.87,7.88-6.09,14.45-13.3,16.72-1.97.62-4.03.94-6.11.94h-4.87c-4.44,0-7.73-1.11-9.77-3.28-1.63-1.74-2.4-4.17-2.22-7.01Z"/>
            <path d="M62.28,92.91c6.99,0,9.93-4.41,10.87-6.31.15-.31.46-.5.81-.5h12.13c.35,0,.67.21.82.54,1.86,4.16,5.91,6.18,12.4,6.18,3.33,0,6.53-1.72,8.55-4.59,2.01-2.86,2.52-6.32,1.38-9.51l-14.13-39.55c-1.84-5.16-6.76-8.62-12.24-8.62-4.85,0-9.26,2.67-11.51,6.96l-19.73,37.62c-1.98,3.78-1.85,8.21.34,11.87,2.19,3.66,6.04,5.86,10.31,5.9ZM52.96,75.83l19.73-37.62c1.99-3.8,5.89-6.16,10.18-6.16,4.84,0,9.19,3.06,10.82,7.63l14.13,39.55c.97,2.72.53,5.68-1.19,8.14-1.74,2.48-4.48,3.95-7.32,3.95-5.83,0-9.44-1.73-11.03-5.29-.39-.87-1.25-1.43-2.19-1.43h-12.13c-.92,0-1.74.51-2.15,1.33-.82,1.65-3.38,5.48-9.52,5.48-3.74-.03-7.11-1.97-9.03-5.17-1.92-3.21-2.03-7.1-.29-10.41Z"/>
            <path d="M81.09,70.91c3.42,0,6.2-2.78,6.2-6.2s-2.78-6.2-6.2-6.2-6.2,2.78-6.2,6.2,2.78,6.2,6.2,6.2ZM81.09,60.01c2.59,0,4.7,2.11,4.7,4.7s-2.11,4.7-4.7,4.7-4.7-2.11-4.7-4.7,2.11-4.7,4.7-4.7Z"/>
            <path d="M221.69,88.23c2.01-2.86,2.52-6.32,1.38-9.51l-14.13-39.55c-1.84-5.16-6.76-8.62-12.23-8.62-4.85,0-9.26,2.67-11.51,6.96l-19.73,37.62c-1.98,3.78-1.85,8.21.34,11.87,2.19,3.66,6.04,5.87,10.31,5.9,6.99,0,9.93-4.41,10.87-6.31.15-.31.46-.5.81-.5h12.13c.35,0,.67.21.82.54,1.86,4.16,5.91,6.18,12.4,6.18,3.33,0,6.53-1.72,8.55-4.59ZM213.14,91.32c-5.83,0-9.44-1.73-11.03-5.29-.39-.87-1.25-1.43-2.19-1.43h-12.13c-.92,0-1.74.51-2.15,1.33-.82,1.65-3.38,5.48-9.52,5.48-3.74-.03-7.11-1.97-9.03-5.17-1.92-3.21-2.03-7.1-.29-10.41l19.73-37.62c1.99-3.8,5.89-6.16,10.18-6.16,4.84,0,9.19,3.06,10.82,7.63l14.13,39.55c.97,2.72.53,5.68-1.2,8.14-1.74,2.48-4.48,3.95-7.32,3.95Z"/>
            <path d="M194.93,58.51c-3.42,0-6.2,2.78-6.2,6.2s2.78,6.2,6.2,6.2,6.2-2.78,6.2-6.2-2.78-6.2-6.2-6.2ZM194.93,69.41c-2.59,0-4.7-2.11-4.7-4.7s2.11-4.7,4.7-4.7,4.7,2.11,4.7,4.7-2.11,4.7-4.7,4.7Z"/>
            <path d="M147.18,54.57c0-3.42-2.78-6.2-6.2-6.2s-6.2,2.78-6.2,6.2,2.78,6.2,6.2,6.2,6.2-2.78,6.2-6.2ZM136.28,54.57c0-2.59,2.11-4.7,4.7-4.7s4.7,2.11,4.7,4.7-2.11,4.7-4.7,4.7-4.7-2.11-4.7-4.7Z"/>
            <path d="M137.57,76.27c.02-.27.25-.49.52-.49h9.73c12.37,0,22.36-9.69,22.75-22.07.19-6.07-2.08-11.86-6.38-16.29-4.41-4.55-10.57-7.15-16.91-7.15h-19.25c-6.06,0-11.18,4.73-11.65,10.78l-2.99,38.41c-.52,6.72,4.35,12.61,10.87,13.14.33.03.66.04.99.04,2.84,0,5.55-.99,7.73-2.85,2.43-2.07,3.91-4.97,4.15-8.15l.42-5.37ZM136.07,76.15l-.42,5.37c-.22,2.78-1.51,5.31-3.63,7.12-2.12,1.81-4.83,2.68-7.63,2.45-5.7-.46-9.96-5.63-9.5-11.53l2.99-38.41c.41-5.27,4.87-9.4,10.16-9.4h19.25c5.93,0,11.7,2.44,15.83,6.7,4.01,4.14,6.13,9.54,5.95,15.2-.36,11.56-9.69,20.62-21.25,20.62h-9.73c-1.05,0-1.94.82-2.02,1.87Z"/>
            <path d="M237.08,92.52c6.38,0,11.63-4.79,12.23-11.14l.78-8.45,10.26,13.92c2.84,3.69,6.69,5.59,11.42,5.66,6.3.14,11.93-4.99,12.52-11.34l3.53-38.03c.32-3.47-.85-6.93-3.23-9.49-2.37-2.56-5.73-3.99-9.23-3.92-6.26.11-11.43,5.06-12.03,11.52l-.76,8.17-10.6-13.97c-3.1-3.79-6.92-5.72-11.35-5.72-6.38,0-11.64,4.79-12.22,11.14l-3.55,38.23c-.32,3.43.83,6.86,3.15,9.41,2.32,2.55,5.63,4.01,9.07,4.01ZM226.35,79.25l3.55-38.23c.52-5.58,5.13-9.78,10.73-9.78,3.96,0,7.39,1.74,10.18,5.15l10.86,14.32c.33.44.89.62,1.42.47.53-.15.9-.6.95-1.15l.8-8.63c.53-5.69,5.07-10.06,10.57-10.16,3.05-.05,6.02,1.2,8.1,3.44,2.08,2.24,3.11,5.28,2.83,8.33l-3.53,38.03c-.51,5.49-5.53,10.09-11,9.98-4.26-.07-7.71-1.77-10.25-5.07l-10.36-14.06c-.35-.48-.95-.69-1.53-.53-.58.16-.98.65-1.04,1.24l-.8,8.64c-.52,5.58-5.13,9.78-10.73,9.78-3.02,0-5.93-1.28-7.97-3.52s-3.05-5.24-2.76-8.26Z"/>
            <path d="M301.36,92.78h22.92c.09,0,.18-.02.26-.05h2.52c6.56,0,12.03-5.12,12.46-11.67.23-3.48-.96-6.8-3.35-9.35-1.48-1.58-3.28-2.72-5.27-3.35,2.42-1.24,4.15-3.69,4.35-6.56.16-2.23-.63-4.46-2.16-6.1-.43-.46-.9-.86-1.41-1.21,5.71-.86,10.22-5.61,10.61-11.53.23-3.48-.96-6.8-3.35-9.35-2.39-2.55-5.62-3.95-9.11-3.95h-26.07c-6.7,0-12.28,5.24-12.71,11.92l-2.4,37.66c-.23,3.55.99,6.93,3.42,9.52,2.43,2.59,5.73,4.02,9.29,4.02ZM290.15,79.33l2.4-37.66c.38-5.9,5.3-10.52,11.21-10.52h26.07c3.07,0,5.92,1.23,8.02,3.48,2.1,2.24,3.14,5.16,2.94,8.23-.38,5.76-5.19,10.27-10.96,10.27h-2.85s0,0-.01,0h-4.61c-.41,0-.75.34-.75.75s.34.75.75.75h4.33s0,0,0,0l.58.02c1.8,0,3.48.74,4.72,2.07,1.25,1.34,1.89,3.16,1.76,4.97-.24,3.39-3.09,6.04-6.49,6.04h-1.49s-.02,0-.02,0h-7.11c-.41,0-.75.34-.75.75s.34.75.75.75h7.34l1.07.02c3.07,0,5.92,1.23,8.02,3.48,2.1,2.24,3.14,5.16,2.94,8.23-.38,5.76-5.19,10.27-10.96,10.27h-2.77c-.09,0-.18.02-.26.05h-22.66c-3.14,0-6.05-1.26-8.19-3.55-2.15-2.29-3.22-5.27-3.02-8.4Z"/>
            <path d="M434.73,29.65h-26.07c-6.7,0-12.28,5.24-12.71,11.92l-2.41,37.66c-.23,3.55.99,6.93,3.42,9.52,2.43,2.59,5.73,4.02,9.29,4.02h22.92c.09,0,.18-.02.26-.05h2.52c6.56,0,12.03-5.12,12.46-11.67.23-3.48-.96-6.8-3.35-9.35-1.48-1.58-3.28-2.72-5.27-3.36,2.42-1.24,4.15-3.69,4.35-6.56.16-2.23-.63-4.46-2.16-6.1-.43-.46-.9-.86-1.41-1.21,5.71-.86,10.22-5.61,10.61-11.53.23-3.48-.96-6.8-3.35-9.35-2.39-2.55-5.62-3.95-9.11-3.95ZM445.69,42.86c-.38,5.76-5.19,10.27-10.96,10.27h-2.85s0,0-.01,0h-4.61c-.41,0-.75.34-.75.75s.34.75.75.75h4.33s0,0,0,0l.58.02c1.8,0,3.48.74,4.72,2.07,1.25,1.34,1.89,3.16,1.77,4.98-.24,3.39-3.09,6.04-6.49,6.04h-1.49s-.02,0-.02,0h-6.76c-.41,0-.75.34-.75.75s.34.75.75.75h6.99l1.07.02c3.07,0,5.92,1.23,8.02,3.48,2.1,2.24,3.14,5.16,2.94,8.23-.38,5.76-5.19,10.27-10.96,10.27h-2.77c-.09,0-.18.02-.26.05h-22.66c-3.14,0-6.05-1.26-8.19-3.55-2.15-2.29-3.22-5.27-3.02-8.4l2.41-37.66c.38-5.9,5.3-10.52,11.21-10.52h26.07c3.07,0,5.92,1.23,8.02,3.48,2.1,2.24,3.14,5.16,2.94,8.23Z"/>
            <path d="M349.47,64.84c-2.72,1.26-4.81,3.01-6.11,5.22-1.62,2.75-2,6.06-1.05,9.32.98,3.4,3.79,6.47,7.89,8.63,3.87,2.04,8.44,3.08,13.15,3.08,3.44,0,6.95-.55,10.33-1.67,7.31-2.42,13.19-7.2,16.12-13.13,2.15-4.35,2.55-9.04,1.11-13.22-.9-2.63-2.43-4.81-4.51-6.51,3.81-3.42,6.62-11.72,4.5-17.49-3.61-9.83-16.06-13.36-29.61-8.39-13.12,4.81-20.78,16.96-17.07,27.08,1.01,2.75,2.81,5.18,5.24,7.08ZM361.81,32.08c12.74-4.67,24.38-1.52,27.69,7.5,2.05,5.6-1.14,13.43-4.32,16.06-2.77-1.84-6.35-2.98-10.67-3.37-.41-.03-.78.27-.81.68-.04.41.27.78.68.81,8.04.72,13.13,4.01,15.11,9.79,1.31,3.8.94,8.08-1.04,12.07-2.76,5.57-8.32,10.08-15.25,12.37-7.62,2.52-15.96,2.03-22.31-1.31-3.74-1.97-6.28-4.71-7.15-7.72-.83-2.86-.51-5.75.9-8.14,1.29-2.18,3.47-3.89,6.38-5.04.14,0,.28-.06.4-.14.85-.31,1.74-.59,2.7-.8.4-.09.66-.49.57-.9-.09-.4-.5-.66-.9-.57-.96.22-1.85.49-2.7.79-2.57-1.8-4.46-4.19-5.47-6.93-3.43-9.35,3.83-20.63,16.17-25.16Z"/>
            <path d="M51.36,129.1c2.28-2.32,3.5-5.4,3.45-8.66-.12-6.51-5.69-11.81-12.41-11.81h-12.56s-.09-.01-.14-.01h-14.27c-6.29,0-11.62,4.91-12.13,11.18L.23,157.36c-.6,7.39,4.74,13.89,11.91,14.49.38.03.76.05,1.13.05,3.11,0,6.08-1.08,8.46-3.1,2.68-2.27,4.31-5.44,4.6-8.94l.65-7.95c.02-.24.23-.43.47-.43h8.89c5.47,0,10.03-4.12,10.39-9.39.21-3.14-.67-5.94-2.48-7.88-.54-.58-1.17-1.08-1.86-1.49h.39c3.25,0,6.3-1.29,8.58-3.61ZM42.76,131.21l-6.06.08s0,0,0,0h-6.75c-.41,0-.75.34-.75.75s.34.75.75.75h6.81c2.7,0,4.91.85,6.4,2.44,1.53,1.63,2.26,4.03,2.08,6.75-.3,4.48-4.21,7.99-8.89,7.99h-8.89c-1.02,0-1.88.79-1.96,1.81l-.65,7.95c-.25,3.1-1.7,5.91-4.07,7.92-2.37,2.01-5.39,2.97-8.5,2.71-6.35-.53-11.07-6.31-10.54-12.88l3.07-37.55c.45-5.5,5.12-9.81,10.64-9.81h14.13s.09.01.14.01h12.69c5.91,0,10.8,4.64,10.91,10.34.05,2.85-1.02,5.54-3.02,7.58-2,2.03-4.67,3.15-7.52,3.15h-.01Z"/>
            <path d="M70.15,108.35c-6.76,0-12.43,5.28-12.92,12.03l-2.64,37.01c-.26,3.62.96,7.09,3.44,9.74,2.48,2.66,5.84,4.12,9.47,4.12,6.76,0,12.44-5.28,12.92-12.03l2.64-37.01c.26-3.62-.96-7.09-3.44-9.74-2.48-2.66-5.84-4.12-9.48-4.12ZM81.57,122.11l-2.64,37.01c-.42,5.96-5.44,10.64-11.42,10.64-3.21,0-6.19-1.3-8.38-3.65-2.19-2.35-3.27-5.41-3.04-8.62l2.64-37.01c.42-5.96,5.44-10.64,11.42-10.64,3.21,0,6.19,1.3,8.38,3.65,2.19,2.35,3.27,5.41,3.04,8.62Z"/>
            <path d="M120.74,147.34h-9.54l1.79-25.12c.26-3.62-.96-7.09-3.44-9.74-2.48-2.66-5.84-4.12-9.47-4.12-6.76,0-12.43,5.28-12.92,12.03l-2.64,37.01c-.26,3.6.95,7.05,3.4,9.7,2.41,2.61,5.67,4.08,9.21,4.16.06.02.13.03.2.03h23.4c6.6,0,11.97-5.37,11.97-11.97s-5.37-11.97-11.97-11.97ZM120.74,169.77h-23.21c-.06-.02-.12-.02-.18-.02-3.2-.03-6.15-1.33-8.32-3.68-2.17-2.35-3.23-5.39-3.01-8.58l2.64-37.01c.42-5.96,5.44-10.64,11.42-10.64,3.21,0,6.19,1.3,8.38,3.65,2.19,2.35,3.27,5.41,3.04,8.62l-1.85,25.92c-.01.21.06.41.2.56.14.15.34.24.55.24h10.34c5.77,0,10.47,4.7,10.47,10.47s-4.7,10.47-10.47,10.47Z"/>
            <path d="M311.47,147.34h-9.54l1.79-25.12c.26-3.62-.96-7.09-3.44-9.74s-5.84-4.12-9.47-4.12c-6.76,0-12.44,5.28-12.92,12.03l-2.63,37.01c-.26,3.6.95,7.05,3.4,9.7,2.41,2.61,5.67,4.08,9.21,4.16.06.02.13.03.2.03h23.4c6.6,0,11.97-5.37,11.97-11.97s-5.37-11.97-11.97-11.97ZM311.47,169.77h-23.21c-.06-.02-.12-.02-.18-.02-3.2-.03-6.15-1.33-8.32-3.68-2.17-2.34-3.24-5.39-3.01-8.58l2.63-37.01c.42-5.96,5.44-10.64,11.42-10.64,3.21,0,6.19,1.29,8.38,3.65,2.19,2.35,3.27,5.41,3.04,8.62l-1.85,25.92c-.01.21.06.41.2.56s.34.24.55.24h10.34c5.77,0,10.47,4.7,10.47,10.47s-4.69,10.47-10.47,10.47Z"/>
            <path d="M184.8,108.73c-3.93,0-7.55,1.63-10.47,4.71l-6.25,6.28c-.29.26-.72.26-.98.03l-6.93-6.93c-2.76-2.68-6.2-4.1-9.94-4.1-6.4,0-11.81,5-12.32,11.38l-3.03,38.19c-.27,3.43.91,6.84,3.24,9.37,2.33,2.52,5.64,3.97,9.08,3.97,6.4,0,11.81-5,12.32-11.38l.96-12.1c2.92,1.94,6.71,2.05,9.75.32l-.78,9.82c-.27,3.43.91,6.84,3.24,9.37s5.64,3.97,9.08,3.97c6.4,0,11.81-5,12.32-11.38l3.03-38.19c.27-3.43-.91-6.84-3.24-9.37s-5.64-3.97-9.08-3.97ZM195.63,121.95l-3.03,38.19c-.45,5.61-5.2,10-10.83,10-3.06,0-5.9-1.24-7.98-3.49s-3.09-5.17-2.85-8.23l.9-11.4c.02-.3-.14-.59-.4-.73-.11-.06-.23-.08-.34-.08-.17,0-.34.06-.48.18-2.99,2.5-7.4,2.41-10.27-.23-.21-.19-.52-.25-.78-.15-.27.1-.45.35-.47.64l-1.07,13.48c-.45,5.61-5.2,10-10.83,10-3.06,0-5.9-1.24-7.98-3.49s-3.09-5.17-2.85-8.23l3.03-38.19c.45-5.61,5.2-10,10.83-10,3.34,0,6.42,1.27,8.88,3.66l6.95,6.95c.86.77,2.16.76,3.04-.03l6.29-6.32c2.64-2.79,5.89-4.26,9.4-4.26,3.06,0,5.9,1.24,7.98,3.49,2.08,2.25,3.09,5.17,2.85,8.23Z"/>
            <path d="M368.99,107.67c-6.45.36-11.74,5.87-12.04,12.53l-1.09,21.19c-.08,1.74-1.51,3.11-3.25,3.11-.9,0-1.73-.36-2.35-1.01s-.94-1.5-.9-2.39l1.04-20.11c.16-3.52-1.09-6.85-3.53-9.4-2.43-2.54-5.71-3.94-9.23-3.94-6.84,0-12.44,5.35-12.75,12.19l-1.17,23.03c-.33,7.4,2.3,14.43,7.42,19.79,5.12,5.36,12.02,8.31,19.43,8.31h3.81c14.41,0,26.21-11.28,26.86-25.67l1.23-24.3c.16-3.6-1.21-7.12-3.78-9.65-2.56-2.53-6.11-3.87-9.71-3.67ZM379.74,145.23c-.61,13.59-11.75,24.24-25.36,24.24h-3.81c-7,0-13.51-2.79-18.35-7.84s-7.32-11.69-7.01-18.68l1.17-23.03c.27-6.03,5.21-10.76,11.25-10.76,3.11,0,6,1.24,8.14,3.48,2.15,2.25,3.25,5.19,3.11,8.29l-1.04,20.11c-.06,1.31.41,2.55,1.31,3.5.91.95,2.13,1.47,3.44,1.47,2.55,0,4.64-1.99,4.75-4.54l1.09-21.18c.27-5.91,4.93-10.79,10.62-11.11,3.23-.19,6.28.97,8.57,3.24,2.26,2.24,3.48,5.34,3.33,8.51l-1.23,24.3Z"/>
            <path d="M412.98,122.3c-3.42,0-6.2,2.78-6.2,6.2s2.78,6.2,6.2,6.2,6.2-2.78,6.2-6.2-2.78-6.2-6.2-6.2ZM412.98,133.19c-2.59,0-4.7-2.11-4.7-4.7s2.11-4.7,4.7-4.7,4.7,2.11,4.7,4.7-2.11,4.7-4.7,4.7Z"/>
            <path d="M411.33,143.03c-3.73,0-6.77,3.04-6.77,6.77s3.04,6.77,6.77,6.77,6.77-3.04,6.77-6.77-3.04-6.77-6.77-6.77ZM411.33,155.07c-2.91,0-5.27-2.36-5.27-5.27s2.36-5.27,5.27-5.27,5.27,2.36,5.27,5.27-2.36,5.27-5.27,5.27Z"/>
            <path d="M440.6,137.66l1.33-4.41c1.74-5.76.76-11.89-2.69-16.83-3.31-4.74-8.46-7.64-14.12-7.97-.38-.02-.76-.03-1.15-.03h-26.38c-5.04,0-9.17,3.78-9.61,8.8l-3.49,39.65c-.33,3.69.92,7.38,3.43,10.11s6.07,4.3,9.77,4.3h18.61c.08,0,.17-.02.24-.05h1.4c9.75,0,18.78-5.68,23-14.48,2.36-4.91,2.6-10.83.68-16.24l-1.02-2.86ZM439.58,156.11c-3.97,8.28-12.47,13.63-21.65,13.63h-1.64c-.08,0-.17.02-.24.05h-18.37c-3.29,0-6.45-1.39-8.67-3.82-2.22-2.42-3.33-5.69-3.04-8.97l3.49-39.65c.37-4.24,3.86-7.43,8.12-7.43h26.38c.36,0,.71.01,1.06.03,5.21.3,9.94,2.97,12.98,7.33,3.19,4.56,4.09,10.23,2.49,15.54l-1.4,4.64c-.05.15-.04.32.01.47l1.1,3.09c1.79,5.04,1.56,10.54-.62,15.09Z"/>
            <path d="M247.27,106.57c-17.98.33-31.54,14.15-31.54,32.15s14.18,31.73,32.29,31.73c7.43,0,14.75-2.82,20.63-7.93,2.92-2.54,4.31-6.35,3.72-10.19-.6-3.88-3.1-7.13-6.68-8.69,0,0-.1-.04-.1-.04-3.97-1.73-8.6-.99-12.07,1.94-1.2,1.01-3.13,2.21-5.49,2.21-5.55,0-9.58-3.79-9.58-9.02s3.8-9.35,9.24-9.45c2.03-.03,4.74.25,7.61,2.82,3.66,3.27,8.95,3.94,13.14,1.66,3.27-1.77,5.39-4.91,5.83-8.59.45-3.73-.9-7.32-3.7-9.85-6.49-5.88-14.55-8.92-23.31-8.74ZM272.79,124.98c-.38,3.2-2.23,5.91-5.06,7.45-3.64,1.98-8.24,1.39-11.43-1.46-3.3-2.95-6.54-3.24-8.64-3.2-6.31.12-10.71,4.62-10.71,10.95s4.66,10.52,11.08,10.52c2.23,0,4.46-.89,6.46-2.56,3.04-2.55,7.07-3.21,10.5-1.71,0,0,.1.04.1.04,3.12,1.36,5.28,4.18,5.8,7.55.51,3.33-.69,6.63-3.22,8.83-5.6,4.88-12.58,7.56-19.65,7.56-17.27,0-30.79-13.28-30.79-30.23s12.92-30.34,30.06-30.65c.22,0,.44,0,.66,0,8.11,0,15.57,2.88,21.61,8.36,2.43,2.2,3.6,5.32,3.21,8.56Z"/>
          </g>
        </g>
        <g>
          <path class="cls-3" d="M14.86,24.02c-.4,0-.75-.14-1.05-.43-.3-.29-.45-.63-.45-1.04V2.68c0-.4.15-.75.45-1.05s.65-.45,1.05-.45h16.43c.4,0,.75.15,1.05.45.3.3.45.65.45,1.05v19.87c0,.4-.15.75-.45,1.04-.3.29-.65.43-1.05.43h-.71c-.35,0-.65-.13-.91-.38s-.38-.56-.38-.91c0-.12-.07-.18-.21-.18h-12.02c-.14,0-.21.06-.21.18,0,.35-.13.65-.38.91-.25.25-.56.38-.91.38h-.71ZM16.85,4.38v5.59c0,.16.08.24.24.24h11.97c.16,0,.24-.08.24-.24v-5.59c0-.14-.08-.21-.24-.21h-11.97c-.16,0-.24.07-.24.21ZM16.85,13.31v6.12c0,.16.08.24.24.24h11.97c.16,0,.24-.08.24-.24v-6.12c0-.14-.08-.21-.24-.21h-11.97c-.16,0-.24.07-.24.21Z"/>
          <path class="cls-3" d="M49.14,24.55c-.4,0-.75-.14-1.05-.43-.3-.29-.45-.63-.45-1.04v-2.44c0-.16-.07-.24-.21-.24h-3.99c-.4,0-.75-.15-1.04-.45-.29-.3-.43-.65-.43-1.05v-.71s-.02-.07-.07-.09c-.04-.03-.07-.02-.09.01-.79.86-1.53,1.62-2.23,2.28-.28.26-.61.37-1,.31-.39-.05-.67-.24-.87-.58l-.29-.45c-.23-.37-.31-.77-.25-1.19.06-.43.25-.78.56-1.06,3.59-3.29,6.3-6.63,8.14-10.03.07-.14.03-.21-.1-.21h-6.62c-.4,0-.75-.15-1.05-.45-.3-.3-.45-.65-.45-1.05s.15-.75.45-1.05.65-.45,1.05-.45h8.27c.14,0,.21-.07.21-.21V1.71c0-.4.15-.75.45-1.04.3-.29.65-.43,1.05-.43h.52c.4,0,.75.14,1.05.43.3.29.45.63.45,1.04v2.28c0,.14.07.21.21.21h8.27c.4,0,.75.15,1.05.45.3.3.45.65.45,1.05s-.15.75-.45,1.05-.65.45-1.05.45h-6.62c-.16,0-.2.07-.13.21,1.82,3.36,4.54,6.7,8.16,10.03.32.28.5.63.56,1.06.06.43-.02.83-.25,1.19l-.29.45c-.19.33-.48.53-.85.58-.38.05-.71-.05-1.01-.31-.63-.59-1.37-1.35-2.23-2.26-.02-.03-.05-.04-.09-.03-.04.02-.07.04-.07.08v.71c0,.4-.14.75-.43,1.05-.29.3-.63.45-1.04.45h-3.99c-.14,0-.21.08-.21.24v2.44c0,.4-.15.75-.45,1.04-.3.29-.65.43-1.05.43h-.52ZM47.43,17.51c.14,0,.21-.08.21-.24v-6.83s-.01-.05-.04-.05-.05,0-.07.03c-1.49,2.49-3.17,4.8-5.04,6.93-.04.07,0,.12.1.16h4.83ZM51.16,10.45v6.83c0,.16.07.24.21.24h4.83s.07-.02.09-.07.03-.07.01-.09c-1.87-2.13-3.55-4.44-5.04-6.93-.02-.02-.04-.03-.07-.03s-.04.02-.04.05Z"/>
          <path class="cls-3" d="M65.52,23.5c-.4,0-.75-.14-1.05-.43-.3-.29-.45-.63-.45-1.04V2.94c0-.4.15-.75.45-1.05s.65-.45,1.05-.45h4.73c.4,0,.75.15,1.04.45.29.3.43.65.43,1.05v9.56s.02.06.07.08c.04.02.07,0,.09-.03.23-.19.48-.29.76-.29.1,0,.16-.06.16-.18v-6.98c0-.4.15-.75.45-1.05s.65-.45,1.05-.45h3.68c.14,0,.21-.08.21-.24v-1.73c0-.4.15-.75.45-1.05s.65-.45,1.05-.45h.45c.4,0,.75.15,1.04.45.29.3.43.65.43,1.05v1.73c0,.16.08.24.24.24h3.7c.4,0,.75.15,1.05.45.3.3.45.65.45,1.05v7.04c0,.09.04.13.13.13.26,0,.49.09.68.28.19.18.29.41.29.67v.5c0,.39-.14.72-.42,1.01-.28.29-.62.43-1.02.43h-4.38c-.14,0-.19.07-.16.21.72,2.1,2.32,3.87,4.8,5.3.37.19.62.49.75.88.13.39.11.77-.07,1.14l-.13.26c-.19.37-.48.62-.87.75-.38.13-.75.09-1.1-.12-2.35-1.44-4.17-3.4-5.46-5.88-.07-.1-.14-.11-.21-.03-1.51,2.57-3.57,4.57-6.2,5.99-.37.19-.75.22-1.14.08-.39-.14-.69-.39-.88-.76l-.16-.31c-.18-.35-.2-.71-.07-1.09.13-.38.38-.66.75-.85,2.78-1.4,4.58-3.19,5.41-5.36.03-.14,0-.21-.13-.21h-4.52c-.44,0-.8-.16-1.08-.47-.04-.03-.07-.04-.09-.03-.03.02-.04.04-.04.08v5.8c0,.4-.14.75-.43,1.05-.29.3-.63.45-1.04.45h-2.86c-.12,0-.18.06-.18.18,0,.35-.13.65-.38.91-.25.25-.56.38-.91.38h-.39ZM67.2,4.65v5.2c0,.16.07.24.21.24h1.18c.16,0,.24-.08.24-.24v-5.2c0-.14-.08-.21-.24-.21h-1.18c-.14,0-.21.07-.21.21ZM67.2,13.18v5.72c0,.16.07.24.21.24h1.18c.16,0,.24-.08.24-.24v-5.72c0-.14-.08-.21-.24-.21h-1.18c-.14,0-.21.07-.21.21ZM76.07,6.8v5.22c0,.16.07.24.21.24h1.65c.16,0,.24-.08.24-.24v-5.22c0-.16-.07-.24-.21-.24h-1.68c-.14,0-.21.08-.21.24ZM81.59,6.8v5.22c0,.16.08.24.24.24h1.68c.14,0,.21-.08.21-.24v-5.22c0-.16-.07-.24-.21-.24h-1.68c-.16,0-.24.08-.24.24Z"/>
          <path class="cls-3" d="M91.54,4.07c-.38,0-.72-.14-1.01-.43s-.43-.63-.43-1.01.14-.72.43-1.01c.29-.29.63-.43,1.01-.43h20.58c.38,0,.72.14,1.01.43.29.29.43.63.43,1.01s-.14.72-.43,1.01-.63.43-1.01.43h-8.45c-.14,0-.21.08-.21.24v1.58c0,.14.07.21.21.21h3.33c.4,0,.75.15,1.04.45.29.3.43.65.43,1.05v9.69c0,.4-.14.75-.43,1.05-.29.3-.63.45-1.04.45h-10.34c-.4,0-.75-.15-1.04-.45-.29-.3-.43-.65-.43-1.05V7.59c0-.4.14-.75.43-1.05.29-.3.63-.45,1.04-.45h3.33c.14,0,.21-.07.21-.21v-1.58c0-.16-.07-.24-.21-.24h-8.45ZM92.43,6.88c.4,0,.75.15,1.04.45.29.3.43.65.43,1.05v11.5c0,.14.08.21.24.21h15.38c.16,0,.24-.07.24-.21v-11.5c0-.4.14-.75.43-1.05.29-.3.63-.45,1.04-.45h.26c.4,0,.75.15,1.05.45.3.3.45.65.45,1.05v14.18c0,.4-.15.75-.45,1.04-.3.29-.65.43-1.05.43h-.68c-.28,0-.52-.1-.73-.3s-.31-.45-.31-.75c0-.1-.05-.16-.16-.16h-15.54c-.1,0-.16.05-.16.16,0,.3-.1.55-.31.75s-.46.3-.73.3h-.68c-.4,0-.75-.14-1.05-.43-.3-.29-.45-.63-.45-1.04v-14.18c0-.4.15-.75.45-1.05.3-.3.65-.45,1.05-.45h.26ZM100.2,10.97v-2.15c0-.14-.07-.21-.21-.21h-1.65c-.16,0-.24.07-.24.21v2.15c0,.16.08.24.24.24h1.65c.14,0,.21-.08.21-.24ZM100.2,16.01v-2.34c0-.14-.07-.21-.21-.21h-1.65c-.16,0-.24.07-.24.21v2.34c0,.16.08.24.24.24h1.65c.14,0,.21-.08.21-.24ZM103.46,8.82v2.15c0,.16.07.24.21.24h1.65c.16,0,.24-.08.24-.24v-2.15c0-.14-.08-.21-.24-.21h-1.65c-.14,0-.21.07-.21.21ZM103.46,13.68v2.34c0,.16.07.24.21.24h1.65c.16,0,.24-.08.24-.24v-2.34c0-.14-.08-.21-.24-.21h-1.65c-.14,0-.21.07-.21.21Z"/>
          <path class="cls-3" d="M119.6,24.28c-.4,0-.75-.14-1.05-.43-.3-.29-.45-.63-.45-1.04v-9.21s-.01-.06-.04-.07-.05,0-.07.01l-.63.94c-.17.25-.41.33-.7.26-.29-.07-.47-.25-.54-.55l-.26-1.16c-.21-.91-.04-1.8.52-2.68,1.49-2.33,2.62-5.16,3.41-8.51.09-.4.31-.72.66-.96s.73-.32,1.13-.25l.29.05c.4.09.72.29.96.62s.32.69.25,1.09c-.4,1.94-.91,3.66-1.52,5.15-.05.14-.08.29-.08.45v14.81c0,.4-.15.75-.45,1.04-.3.29-.65.43-1.05.43h-.39ZM139.34,15.99c.38,0,.71.14.98.41.27.27.41.6.41.98s-.14.71-.41.98-.6.41-.98.41h-15.59c-.39,0-.71-.14-.98-.41-.27-.27-.41-.6-.41-.98s.14-.71.41-.98.6-.41.98-.41h15.59ZM127.71,19.16c.33-.21.7-.28,1.1-.22.4.06.72.26.95.59.24.33.34.71.28,1.13-.06.42-.26.74-.59.97-1.35.93-2.78,1.7-4.31,2.31-.38.16-.77.16-1.17,0-.39-.16-.69-.43-.88-.81l-.08-.13c-.17-.35-.18-.71-.03-1.09.16-.38.42-.63.79-.77,1.45-.58,2.76-1.23,3.94-1.97ZM124.06,2.42c0-.4.15-.75.45-1.05s.65-.45,1.05-.45h12.08c.4,0,.75.15,1.04.45.29.3.43.65.43,1.05v10.97c0,.4-.14.75-.43,1.05-.29.3-.63.45-1.04.45h-12.08c-.4,0-.75-.15-1.05-.45-.3-.3-.45-.65-.45-1.05V2.42ZM127.48,3.86v1.02c0,.16.08.24.24.24h7.77c.14,0,.21-.08.21-.24v-1.02c0-.16-.07-.24-.21-.24h-7.77c-.16,0-.24.08-.24.24ZM127.48,7.51v1.08c0,.16.08.24.24.24h7.77c.14,0,.21-.08.21-.24v-1.08c0-.14-.07-.21-.21-.21h-7.77c-.16,0-.24.07-.24.21ZM127.48,11.24v1.1c0,.16.08.24.24.24h7.77c.14,0,.21-.08.21-.24v-1.1c0-.16-.07-.24-.21-.24h-7.77c-.16,0-.24.08-.24.24ZM137.71,23.81c-1.3-.82-2.66-1.58-4.1-2.28-.35-.17-.58-.44-.68-.8-.1-.36-.06-.7.13-1.04.21-.35.5-.59.88-.72.38-.13.76-.12,1.14.04,1.52.67,2.95,1.38,4.28,2.15.35.21.57.52.67.93.1.41.03.79-.2,1.14l-.1.16c-.23.33-.54.54-.93.63-.39.09-.76.02-1.09-.21Z"/>
          <path class="cls-3" d="M144.57,12.89c-.37.16-.74.15-1.13-.03-.39-.17-.66-.46-.81-.84-.16-.38-.16-.76,0-1.12.16-.36.43-.62.81-.77.75-.3,1.69-.72,2.81-1.26.35-.17.71-.2,1.09-.07.38.13.64.38.8.75.17.38.2.77.07,1.15-.13.39-.38.67-.75.84-1.14.58-2.1,1.02-2.89,1.34ZM152.78,19.53c0-.14-.07-.17-.21-.08-2.07,1.47-4.66,2.81-7.77,4.02-.39.16-.77.15-1.17-.01-.39-.17-.68-.44-.85-.83l-.05-.13c-.16-.35-.16-.7,0-1.06.16-.36.42-.6.79-.72,3.12-1.03,5.66-2.16,7.64-3.39.02-.02.02-.04.01-.08,0-.03-.03-.05-.07-.05h-6.64c-.4,0-.74-.14-1.02-.43-.28-.29-.42-.63-.42-1.01s.14-.72.42-1.01c.28-.29.62-.43,1.02-.43h8.09c.16,0,.24-.07.24-.21v-.81c0-.16-.08-.24-.24-.24h-2.62c-.4,0-.75-.15-1.04-.45-.29-.3-.43-.65-.43-1.05V3.52c0-.4.14-.75.43-1.05.29-.3.63-.45,1.04-.45h2.05c.16,0,.25-.08.29-.24,0-.03.02-.1.05-.18.04-.09.05-.16.05-.21.1-.42.32-.76.66-1.01.33-.25.72-.37,1.15-.35l.6.05c.4.04.72.2.94.5.23.3.3.64.21,1.02,0,.02,0,.05-.03.1-.02.05-.03.09-.03.1-.04.14.03.21.18.21h3.15c.4,0,.75.15,1.04.45.29.3.43.65.43,1.05v8.03c0,.4-.14.75-.43,1.05-.29.3-.63.45-1.04.45h-2.62c-.16,0-.24.08-.24.24v.81c0,.14.08.21.24.21h8.09c.4,0,.74.14,1.02.43.28.29.42.63.42,1.01s-.14.72-.42,1.01c-.28.29-.62.43-1.02.43h-6.64s-.06.02-.07.05c0,.04,0,.06.01.08,2,1.24,4.53,2.36,7.61,3.36.38.12.66.37.83.74.17.37.16.73-.01,1.08l-.05.13c-.18.38-.46.66-.84.81-.39.16-.77.17-1.15.03-3.08-1.17-5.69-2.52-7.82-4.04-.12-.09-.18-.05-.18.1v3.28c0,.4-.14.75-.43,1.04-.29.29-.63.43-1.04.43h-.63c-.4,0-.75-.14-1.04-.43s-.43-.63-.43-1.04v-3.28ZM143.2,2.52c.26-.31.6-.5,1.02-.55.42-.05.8.05,1.13.31.8.63,1.5,1.2,2.07,1.71.31.28.49.63.51,1.04.03.41-.09.77-.35,1.09l-.03.03c-.26.31-.6.49-1,.51-.4.03-.76-.09-1.08-.35-.65-.56-1.35-1.13-2.1-1.71-.31-.24-.49-.57-.54-.97-.04-.4.07-.75.33-1.05l.03-.05ZM151.81,4.88v1.29c0,.16.08.24.24.24h5.04c.16,0,.24-.08.24-.24v-1.29c0-.16-.08-.24-.24-.24h-5.04c-.16,0-.24.08-.24.24ZM152.05,10.61h5.04c.16,0,.24-.08.24-.24v-1.39c0-.14-.08-.21-.24-.21h-5.04c-.16,0-.24.07-.24.21v1.39c0,.16.08.24.24.24ZM165.78,9.98c.37.17.62.46.75.87.13.4.1.79-.09,1.16l-.03.08c-.17.37-.46.62-.84.75-.39.13-.75.1-1.1-.09-.79-.38-1.73-.81-2.84-1.29-.37-.16-.62-.43-.76-.81-.14-.38-.12-.75.05-1.1.19-.38.49-.66.88-.81.39-.16.78-.16,1.17,0,.75.3,1.69.72,2.81,1.26ZM165.88,2.49l.03.03c.28.3.42.65.41,1.06,0,.41-.17.76-.49,1.04-.58.51-1.27,1.08-2.07,1.71-.35.26-.73.37-1.14.33-.41-.04-.77-.22-1.06-.54l-.05-.05c-.26-.3-.38-.64-.34-1.04.03-.39.21-.71.52-.96.94-.74,1.64-1.29,2.07-1.68.31-.26.68-.38,1.09-.37.41.02.76.18,1.04.47Z"/>
          <path class="cls-3" d="M180.72,9.42c.4,0,.74.14,1.02.43.28.29.42.63.42,1.01s-.14.72-.42,1.01c-.28.29-.62.43-1.02.43h-10.82c-.4,0-.74-.14-1.02-.43-.28-.29-.42-.63-.42-1.01s.14-.72.42-1.01c.28-.29.62-.43,1.02-.43h1.02c.14,0,.19-.07.16-.21-.37-1.56-.71-2.88-1.02-3.96-.02-.1-.09-.16-.21-.16-.32,0-.58-.11-.8-.33-.22-.22-.33-.49-.33-.8v-.29c0-.38.14-.71.42-.98.28-.27.61-.41,1-.41h3.1c.14,0,.21-.08.21-.24v-.55c0-.4.15-.75.45-1.05s.65-.45,1.05-.45h.52c.4,0,.75.15,1.05.45.3.3.45.65.45,1.05v.55c0,.16.07.24.21.24h3.33c.38,0,.71.14.98.41.27.27.41.6.41.98v.37c0,.28-.1.52-.31.74-.21.21-.46.31-.73.31-.09,0-.15.04-.18.13-.26,1.21-.61,2.54-1.05,3.99-.04.14.03.21.18.21h.92ZM172.13,24.2h-1.08c-.4,0-.75-.15-1.05-.45s-.45-.65-.45-1.05v-7.3c0-.4.15-.75.45-1.05s.65-.45,1.05-.45h8.69c.4,0,.75.15,1.05.45.3.3.45.65.45,1.05v7.3c0,.4-.15.75-.45,1.05-.3.3-.65.45-1.05.45h-.94c-.25,0-.45-.08-.6-.24-.16-.16-.24-.36-.24-.6,0-.09-.04-.13-.13-.13h-4.73c-.09,0-.13.04-.13.13,0,.25-.08.45-.24.6-.16.16-.36.24-.6.24ZM172.97,16.96v3.36c0,.14.08.21.24.21h4.54c.14,0,.21-.07.21-.21v-3.36c0-.16-.07-.24-.21-.24h-4.54c-.16,0-.24.08-.24.24ZM176.54,9.21c.37-1.16.71-2.46,1.02-3.91.03-.14-.03-.21-.18-.21h-3.96c-.16,0-.22.06-.18.18.49,1.79.82,3.1,1,3.94.03.14.12.21.26.21h1.76c.14,0,.24-.07.29-.21ZM190.27,10.74c.88.82,1.56,1.78,2.05,2.86.49,1.09.74,2.2.74,3.33,0,1.63-.32,2.8-.97,3.5-.65.71-1.68,1.06-3.1,1.06h-.18c-.42,0-.8-.14-1.14-.43s-.56-.64-.64-1.06c-.07-.37.01-.7.25-1,.24-.3.55-.46.93-.5.6-.07.99-.23,1.19-.49.2-.25.3-.69.3-1.3,0-1.52-.72-3.15-2.15-4.88-.3-.35-.47-.74-.52-1.18-.05-.44.02-.86.21-1.26.82-1.68,1.53-3.47,2.13-5.36.03-.16-.02-.24-.16-.24h-2.7c-.14,0-.21.08-.21.24v18.67c0,.4-.15.75-.45,1.05-.3.3-.65.45-1.05.45h-.34c-.4,0-.75-.15-1.05-.45s-.45-.65-.45-1.05V2.6c0-.4.15-.75.45-1.05.3-.3.65-.45,1.05-.45h7.04c.38,0,.71.13.97.39.26.26.39.59.39.97,0,.88-.15,1.76-.45,2.65-.67,1.96-1.4,3.72-2.21,5.28-.07.14-.04.25.08.34Z"/>
        </g>
      </g>
    </g>
  </g>
</svg>