<svg viewBox="0 0 141.65 74.2" xmlns="http://www.w3.org/2000/svg" xmlns:xlink="http://www.w3.org/1999/xlink"><clipPath id="a"><path d="m47.22 0h47.22v40.92h-47.22z"/></clipPath><clipPath id="b"><path d="m94.43 0h47.22v40.92h-47.22z"/></clipPath><g clip-path="url(#a)" opacity=".6"><path d="m70.82 0-23.6 13.63v27.26l.04.03 4.22-2.44-.04-.03v-22.38l19.38-11.19 19.39 11.19v.02l4.22 2.44v-4.9z" fill="#fff"/></g><path d="m23.61 0-23.61 13.63v27.26l.04.03 4.23-2.44-.05-.03v-22.38l19.39-11.19 19.38 11.19v.02l4.23 2.44v-4.9z" fill="#fff"/><g clip-path="url(#b)" opacity=".4"><path d="m118.04 0-23.61 13.63v27.26l.05.03 4.22-2.44-.04-.03v-22.38l19.38-11.19 19.39 11.19v22.38l-.05.03 4.23 2.44.04-.03v-27.26z" fill="#fff"/></g><path d="m6.46 61.25h-2.27v-11.24h-4.19v-2h10.63v2h-4.17zm16.34-13.24h2.27v13.24h-2.27v-5.66h-6.85v5.66h-2.27v-13.24h2.27v5.57h6.85zm14.86 11.23v2.01h-8.22v-13.24h8.09v2h-5.84v3.57h5.41v1.96h-5.41v3.7zm9.07 2.01v-13.24h7.35v2h-5.08v3.86h4.59v2.01h-4.59v5.37zm16.89-13.46c3.81 0 6.86 2.78 6.86 6.84s-3.05 6.84-6.86 6.84-6.86-2.79-6.86-6.84 3.03-6.84 6.86-6.84m0 2.05c-2.54 0-4.53 1.89-4.53 4.79s1.98 4.79 4.53 4.79 4.52-1.89 4.52-4.79-1.98-4.79-4.52-4.79m10.2-1.83h2.27v8.31c0 2.54 1.34 3.21 3.3 3.21 1.02 0 1.83-.09 2.61-.22v-11.3h2.27v12.86c-1.23.33-3.3.6-4.88.6-3.01 0-5.57-1.07-5.57-4.75zm23.8 9.78v-9.78h2.21v13.24h-2.19l-6.8-9.7v9.7h-2.2v-13.24h2.32zm6.57-9.76c.98-.13 2.32-.25 3.52-.25 5.28 0 7.78 2.74 7.78 6.62 0 4.23-2.61 7.04-7.73 7.04-1.34 0-2.59-.09-3.57-.25v-13.17zm2.27 11.34c.49.07 1 .09 1.49.09 3.05 0 5.17-1.6 5.17-5.06 0-2.85-1.83-4.53-5.33-4.53-.42 0-.89.02-1.34.07v9.43zm14.89 1.88h-2.27v-13.22c.8-.13 2.23-.25 3.3-.25 3.48 0 5.37 1.54 5.37 4.32 0 1.94-1.09 3.34-2.63 3.92l3.99 5.22h-2.74l-3.52-4.7h-1.49v4.7zm0-6.58h1.11c1.81 0 2.96-.78 2.96-2.5 0-1.52-1.05-2.41-3.05-2.41-.27 0-.78.02-1.03.04v4.86zm17.78-6.66h2.52l-4.79 8.18v5.06h-2.28v-5.06l-4.79-8.18h2.52l3.43 6.04zm-135.48 23.96-.79 2.1h-.82l2.94-7.6h1.01l2.98 7.6h-.85l-.79-2.1h-3.69zm1.83-4.86-1.59 4.2h3.19zm11.14 6.96h-.79v-7.61c.35-.05.9-.12 1.34-.12 2.1 0 2.98.97 2.98 2.41 0 1.63-1.14 2.51-3.05 2.51-.14 0-.32-.01-.49-.03v2.84zm0-3.51c.14.01.28.01.41.01 1.57 0 2.32-.6 2.32-1.83 0-.99-.58-1.73-2.21-1.73-.15 0-.33.01-.51.03v3.52zm6.42-4.09h.79v6.91h3.28v.69h-4.07zm8.03 5.5-.79 2.1h-.82l2.94-7.6h1.01l2.98 7.6h-.85l-.79-2.1h-3.69zm1.83-4.86-1.59 4.2h3.19zm11.51.73c-.55-.52-1.3-.78-2.11-.78-1.71 0-3.11 1.26-3.11 3.21s1.4 3.21 3.11 3.21c.81 0 1.6-.24 2.15-.76v.91c-.6.36-1.37.56-2.14.56-2.3 0-3.93-1.6-3.93-3.93s1.74-3.93 3.93-3.93c.77 0 1.48.21 2.1.58v.92zm7.55 5.54v.69h-4.38v-7.6h4.33v.69h-3.54v2.69h3.31v.69h-3.31v2.84zm7.35.69v-7.6h3.9v.69h-3.1v2.75h2.81v.7h-2.81v3.46zm10.35-7.73c2.19 0 3.93 1.6 3.93 3.93s-1.74 3.93-3.93 3.93-3.93-1.6-3.93-3.93 1.74-3.93 3.93-3.93m0 .72c-1.72 0-3.12 1.25-3.12 3.21s1.41 3.21 3.12 3.21 3.12-1.25 3.12-3.21-1.41-3.21-3.12-3.21m7.94 7.01h-.79v-7.62c.35-.05 1-.11 1.45-.11 2.05 0 2.96.95 2.96 2.36 0 1.13-.64 1.96-1.65 2.25l2.52 3.12h-.98l-2.35-2.94h-1.14v2.94zm0-3.6h.79c1.25 0 2-.59 2-1.75 0-.97-.6-1.69-2.15-1.69-.15 0-.46.01-.64.03v3.42zm16.72-2.63c-.55-.52-1.3-.78-2.11-.78-1.71 0-3.11 1.26-3.11 3.21s1.4 3.21 3.11 3.21c.81 0 1.6-.24 2.15-.76v.91c-.6.36-1.37.56-2.14.56-2.3 0-3.93-1.6-3.93-3.93s1.74-3.93 3.93-3.93c.77 0 1.48.21 2.1.58v.92zm8.65-1.37h.79v7.6h-.79v-3.52h-4.68v3.52h-.8v-7.6h.8v3.38h4.68zm5.18 5.5-.79 2.1h-.82l2.94-7.6h1.01l2.98 7.6h-.85l-.79-2.1h-3.69zm1.83-4.86-1.59 4.2h3.19zm11.58 5.81v-6.45h.77v7.6h-.79l-4.53-6.44v6.44h-.77v-7.6h.82zm10-5.1c-.55-.51-1.29-.77-2.1-.77-1.7 0-3.11 1.27-3.11 3.21s1.41 3.23 3.11 3.23c.72 0 1.09-.08 1.56-.28v-2.57h.79v2.99c-.6.36-1.37.56-2.34.56-2.29 0-3.93-1.61-3.93-3.93s1.75-3.93 3.93-3.93c.77 0 1.47.2 2.09.58zm8.05 5.56v.69h-4.38v-7.6h4.33v.69h-3.53v2.69h3.3v.69h-3.3v2.84z" fill="#fff"/></svg>