<?xml version="1.0" encoding="UTF-8"?>
<svg xmlns="http://www.w3.org/2000/svg" width="45" height="70" viewBox="0 0 45 70" fill="none">
  <path d="M42.3281 21.4208H40.2117C41.1737 21.4208 42.1357 22.1858 42.1357 23.3333V61.3934L39.0573 59.6721C39.0573 59.2896 39.0573 23.3333 39.0573 23.1421C39.0573 22.1858 38.2877 21.4208 37.5181 21.4208H35.2093C36.1713 21.4208 37.1333 22.1858 37.1333 23.3333V58.5246L34.0548 56.8033V7.0765C34.0548 6.88525 34.0548 6.88525 33.8624 6.88525C33.8624 6.88525 32.708 6.31148 32.708 6.12022C32.5156 5.92896 32.1308 5.92896 31.9384 5.92896C31.5536 5.92896 31.3612 5.92896 31.1688 6.12022L22.3184 11.2842C21.9336 11.6667 21.5488 12.0492 21.5488 12.623V50.3005C21.5488 50.4918 21.3564 50.6831 21.3564 50.6831L18.4704 52.4044V10.3279C18.4704 10.1366 18.4704 9.94536 18.6628 9.94536L28.2828 4.39891C28.4752 4.20765 28.86 4.20765 29.0524 4.20765C29.4372 4.20765 29.822 4.39891 30.0144 4.39891L27.7056 3.06011C27.5132 2.86885 27.1284 2.86885 26.7436 2.86885C26.5512 2.86885 26.1664 2.86885 25.974 3.06011L17.1236 8.22404C16.7388 8.60656 16.354 8.98907 16.354 9.56284V53.5519L12.6984 55.4645V7.26776C12.6984 7.0765 12.8908 6.88525 12.8908 6.88525L22.3184 1.53005C22.5108 1.3388 22.8956 1.3388 23.088 1.3388C23.4728 1.3388 23.8576 1.53005 24.05 1.53005L21.7412 0.191257C21.7412 0 21.3564 0 20.9716 0C20.5868 0 20.3944 0 20.0096 0.191257L11.1592 5.16393C10.7744 5.54645 10.3896 5.92896 10.3896 6.50273V56.4208L7.31121 58.1421C7.31121 51.8306 7.31121 22.9508 7.31121 22.9508C7.31121 21.9945 8.08081 21.0383 9.23521 21.0383H7.11881C6.15681 21.0383 5.19481 21.8033 5.19481 22.9508V59.2896L2.1164 61.0109V23.3333C2.1164 22.377 2.886 21.4208 4.0404 21.4208H1.924C0.962001 21.4208 0 22.1858 0 23.3333V62.541C0 62.7322 -2.93866e-06 62.7322 0.192397 62.7322C0.192397 62.7322 1.3468 63.306 1.3468 63.4973C1.5392 63.6885 1.924 63.6885 2.1164 63.6885C2.5012 63.6885 2.6936 63.6885 2.886 63.4973L22.5108 52.2131C22.8956 52.0219 23.088 51.4481 23.088 51.0656V13.1967C23.088 13.0055 23.088 12.8142 23.2804 12.8142L26.1664 11.0929V53.3607C26.1664 53.5519 25.974 53.7432 25.974 53.7432L5.96441 65.2186C5.772 65.4098 5.3872 65.4098 5.0024 65.4098C4.6176 65.4098 4.2328 65.2186 4.0404 65.2186L6.34921 66.5574C6.54161 66.7486 6.92641 66.7486 7.31121 66.7486C7.69601 66.7486 8.27321 66.5574 8.27321 66.5574L27.7056 55.4645C28.2828 55.082 28.4752 54.3169 28.4752 54.1257C28.4752 54.1257 28.4752 10.3279 28.4752 10.1366L31.5536 8.4153V56.612C31.5536 56.8033 31.3612 56.9945 31.3612 56.9945L11.3516 68.4699C11.1592 68.6612 10.7744 68.6612 10.3896 68.6612C10.0048 68.6612 9.62002 68.4699 9.42762 68.4699L11.7364 69.8087C11.9288 70 12.3136 70 12.6984 70C12.8908 70 13.2756 70 13.468 69.8087L22.126 64.8361L30.5916 69.8087C30.784 70 31.1688 70 31.5536 70C31.9384 70 32.1308 70 32.5156 69.8087L34.8244 68.4699C34.4396 68.6612 34.2472 68.6612 33.8624 68.6612C33.4776 68.6612 33.2852 68.6612 32.9004 68.4699L24.4348 63.4973L27.5132 61.776L35.9788 66.7486C36.1712 66.9399 36.556 66.9399 36.9408 66.9399C37.3256 66.9399 37.518 66.9399 37.9028 66.7486L40.2117 65.4098C39.8269 65.6011 39.6345 65.6011 39.2497 65.6011C38.8649 65.6011 38.6725 65.6011 38.2877 65.4098L29.822 60.4372L32.9004 58.7159L41.5585 63.6885C41.7509 63.8798 42.1357 63.8798 42.3281 63.8798C42.5205 63.8798 42.9053 63.8798 43.0977 63.6885L44.2521 62.9235L44.4445 62.7322V23.5246C44.2521 22.3771 43.2901 21.4208 42.3281 21.4208Z" fill="#100C08"></path>
</svg>
