<svg enable-background="new 0 0 211.9 45.5" height="45.5" viewBox="0 0 211.9 45.5" width="211.9" xmlns="http://www.w3.org/2000/svg" xmlns:xlink="http://www.w3.org/1999/xlink"><clipPath id="a"><path d="m21.3 17.9s4.9-6.4 6.8-9c.6 2.8 1.8 8.9 1.8 8.9h9.5c-3 2.2-9 6.6-9 6.6s.5 8.9.7 12.1c-2.5-1.8-9.3-6.7-9.3-6.7s-7.8 4.2-11.9 6.4c2.4-3.9 7-11.1 7-11.1s-3.8-5-5.5-7.2m38.5-3.7h-16.5c-.3-1.5-3-14.2-3-14.2s-10.3 13.5-10.9 14.3h-15.9s7.6 10.3 8.4 11.3c-.7 1.1-12 19.9-12 19.9s19.7-10.5 20.8-11.1c1 .7 14.6 10.7 14.6 10.7s-.9-18.2-1-19.3c.9-.6 15.5-11.6 15.5-11.6"/></clipPath><clipPath id="b"><path d="m0-.5h212v46h-212z"/></clipPath><clipPath id="c"><path d="m183.6 13.6v28h3.9v-28h-.3z"/></clipPath><clipPath id="d"><path d="m-50-22.5h1040v266h-1040z"/></clipPath><clipPath id="e"><path d="m173.7 23.6v-1.6h-3.8v19.6h3.9v-11.3c0-1.5.5-2.8 1.5-3.7 1.1-1 2.7-1.4 4.5-1.3h.3v-3.7h-.3c-2.3-.3-4.6.5-6.1 2"/></clipPath><clipPath id="f"><path d="m-50-22.5h1040v266h-1040z"/></clipPath><clipPath id="g"><path d="m144 22h-3.7s-3.4 11.6-3.9 13.4c-.5-1.8-4-13.4-4-13.4h-3.9s-3.4 11.6-4 13.4c-.5-1.8-4-13.4-4-13.4h-4.1l6.1 19.6h3.9s3.4-11.8 4-13.6c.5 1.9 4 13.6 4 13.6h3.9l6.1-19.6z"/></clipPath><clipPath id="h"><path d="m-50-22.5h1040v266h-1040z"/></clipPath><clipPath id="i"><path d="m71.9 15.7h-3.6l-.5 4.3h3.9l.5-4.3z"/></clipPath><clipPath id="j"><path d="m-50-22.5h1040v266h-1040z"/></clipPath><clipPath id="k"><path d="m84.9 21.8c-2.1 0-4.1.8-5.6 2.1.1-.6.2-1.6.2-1.6h-3.8l-2.5 19.6h3.8l1.5-11.9c.3-2.7 2.7-4.7 5.5-4.7 1.3 0 2.3.4 3 1.1.8.8 1.1 2.1.9 3.6l-1.5 11.9h3.9l1.5-11.7c.3-2.6-.2-4.8-1.6-6.3-1.3-1.4-3.1-2.1-5.3-2.1"/></clipPath><clipPath id="l"><path d="m-50-22.5h1040v266h-1040z"/></clipPath><clipPath id="m"><path d="m67.5 22.3-2.5 19.5h3.9l2.5-19.5h-.4z"/></clipPath><clipPath id="n"><path d="m-50-22.5h1040v266h-1040z"/></clipPath><clipPath id="o"><path d="m55.1 25.3c2.3 0 4.1 1.2 5 3.3l.1.2h4.1l-.1-.4c-.9-4.1-4.2-6.6-8.7-6.6-5.6 0-10.8 4.6-11.5 10.3-.4 2.8.4 5.5 2.2 7.4 1.7 1.8 4.1 2.8 6.7 2.8 4.5 0 8.4-2.5 10.3-6.5l.2-.4h-4.2l-.1.2c-1.4 2.1-3.5 3.3-5.9 3.3-1.5 0-2.9-.6-4-1.7-1.2-1.3-1.7-3.1-1.4-5 .6-3.9 3.8-6.9 7.3-6.9"/></clipPath><clipPath id="p"><path d="m-50-22.5h1040v266h-1040z"/></clipPath><clipPath id="q"><path d="m211.9 41.6v-28h-.3-3.6v10.7c-1.4-1.5-3.6-2.8-6.4-2.8-5.7 0-10.2 4.5-10.2 10.3 0 5.7 4.5 10.3 10.2 10.3 2.9 0 5.1-1.4 6.5-2.9v2.4zm-3.7-9.8c0 3.7-3 6.9-6.5 6.9-3.6 0-6.5-3.1-6.5-6.9 0-3.9 2.8-6.9 6.5-6.9 3.6-.1 6.5 3.1 6.5 6.9z"/></clipPath><clipPath id="r"><path d="m-50-22.5h1040v266h-1040z"/></clipPath><clipPath id="s"><path d="m166 31.8c0-5.8-4.5-10.3-10.3-10.3-5.7 0-10.3 4.5-10.3 10.3 0 5.7 4.5 10.2 10.3 10.2s10.3-4.5 10.3-10.2m-3.7 0c0 3.8-2.9 6.8-6.5 6.8s-6.5-3.1-6.5-6.8c0-3.9 2.9-7 6.5-7 3.5 0 6.5 3.1 6.5 7"/></clipPath><clipPath id="t"><path d="m-50-22.5h1040v266h-1040z"/></clipPath><clipPath id="u"><path d="m114.7 31.2c0-2.6-.8-4.9-2.4-6.6-1.7-1.8-4-2.8-6.7-2.8-5.6 0-10.8 4.6-11.5 10.3-.4 2.8.4 5.4 2.2 7.4 1.7 1.9 4.2 2.9 7 2.9 4.7 0 8.5-2.4 10.4-6.5l.2-.4h-4.1l-.1.2c-1.3 2.2-3.4 3.3-6 3.3-1.6 0-3-.6-4.1-1.6-1-1-1.6-2.4-1.6-4h16.5v-.3c.2-.8.2-1.4.2-1.9m-3.9-1.3h-12.3c1.3-3.2 4.4-4.8 6.8-4.8 2.8-.1 5 1.9 5.5 4.8"/></clipPath><clipPath id="v"><path d="m-50-22.5h1040v266h-1040z"/></clipPath><g clip-path="url(#a)"><path clip-path="url(#b)" d="m-5-5h59.9v55.5h-59.9z" fill="#e32313"/></g><g clip-path="url(#c)"><path clip-path="url(#d)" d="m178.6 8.6h13.9v38h-13.9z" fill="#fefefe"/></g><g clip-path="url(#e)"><path clip-path="url(#f)" d="m164.9 16.5h20.2v30.1h-20.2z" fill="#fefefe"/></g><g clip-path="url(#g)"><path clip-path="url(#h)" d="m111.5 17h37.9v29.6h-37.9z" fill="#fefefe"/></g><g clip-path="url(#i)"><path clip-path="url(#j)" d="m62.8 10.7h14.5v14.3h-14.5z" fill="#fefefe"/></g><g clip-path="url(#k)"><path clip-path="url(#l)" d="m68.1 16.8h28.7v30.1h-28.7z" fill="#fefefe"/></g><g clip-path="url(#m)"><path clip-path="url(#n)" d="m60 17.3h16.4v29.6h-16.4z" fill="#fefefe"/></g><g clip-path="url(#o)"><path clip-path="url(#p)" d="m38.9 16.8h30.4v30.5h-30.4z" fill="#fefefe"/></g><g clip-path="url(#q)"><path clip-path="url(#r)" d="m186.4 8.6h30.5v38.5h-30.5z" fill="#fefefe"/></g><g clip-path="url(#s)"><path clip-path="url(#t)" d="m140.5 16.5h30.5v30.5h-30.5z" fill="#fefefe"/></g><g clip-path="url(#u)"><path clip-path="url(#v)" d="m89 16.8h30.6v30.5h-30.6z" fill="#fefefe"/></g></svg>