<svg fill="none" height="44" viewBox="0 0 57 44" width="57" xmlns="http://www.w3.org/2000/svg"><path d="m55.9801 36.5084h-1.8437c-2.0671 0-3.6873-1.6574-3.6873-3.6463 0-.0553 0-.1105 0-.221v-17.9c0-.7182-.1117-1.2154-.3911-1.8231-.8938-1.8232-3.1286-2.5414-4.9722-1.6574l-4.3019 2.1546c-.8939.442-1.3967 1.3259-1.3967 2.2651v20.8833h-1.8437c-2.0671 0-3.6873-1.6574-3.6873-3.6463 0-.0552 0-.1105 0-.221v-17.9552c.0559-.6077-.1117-1.2154-.3911-1.8231-.8938-1.8232-3.1286-2.5414-4.9722-1.6574l-11.2854 5.5799v-12.98301c.0558-.60771-.1118-1.21543-.3911-1.82314-.8939-1.823146-3.1287-2.541355-4.9723-1.657406l-11.8441 5.800916.558684 1.10493h1.843656c2.06713 0 3.68731 1.65741 3.68731 3.64631v.221 16.1873 12.5963c0 .7182.11174 1.2154.39108 1.8231.89389 1.8231 3.12863 2.5414 4.97227 1.6574l4.3019-2.0994c.8939-.4419 1.3967-1.3259 1.3967-2.2651v-11.6571-9.1709h1.8436c2.0672 0 3.6874 1.6574 3.6874 3.6463v.2209 17.9c-.0559.6077.1117 1.2154.391 1.8231.8939 1.8232 3.1287 2.5414 4.9723 1.6575l11.2854-5.58v2.0994c-.0558.6077.1118 1.2154.3911 1.8231.8939 1.8232 3.1286 2.5414 4.9723 1.6575l11.8441-5.801z" fill="#ee2a24"/></svg>