<svg viewBox="0 0 826.62 356.85" xmlns="http://www.w3.org/2000/svg"><path d="m42.64 295.6q0-7.41-3.22-11t-9.8-3.6q-6.81 0-10.45 3.76t-3.64 10.84zm-34.46 28.13q-8.18-7.59-8.18-22.28 0-15.52 7.76-23.29t22.1-7.77q13.86 0 21.08 7.71t7.23 20.84v5.61h-42.64q0 8.37 3.94 12.25t11.35 3.88q7.4 0 11.82-1.91v-4.18h13.5v9.08q-9.07 7.63-25.44 7.64-14.34 0-22.52-7.58" fill="#299ea6"/><path d="m76.27 326.24q-5.56-5.08-5.56-14.76v-28.9h-9.08v-10.39h9.08v-12.31l15.65-4.65v17h16.36v10.39h-16.36v30.1c0 2.95.61 5.09 1.85 6.45a7.14 7.14 0 0 0 5.55 2q4.55 0 7-2.15v-5.14h12.66v10q-7.41 7.41-20.66 7.4-11 0-16.54-5.07" fill="#299ea6"/><path d="m120 319.13h3.1a4.79 4.79 0 0 0 3.59-1.14 5 5 0 0 0 1.07-3.52v-48.61a6.45 6.45 0 0 0 -.89-3.82c-.6-.8-1.78-1.2-3.53-1.2h-3.34v-10.39h21.85v27.11a27.58 27.58 0 0 1 8.9-5.61 32.43 32.43 0 0 1 10.81-1.56q9.55 0 14 5.08t4.44 14.87v24.37a4.75 4.75 0 0 0 1 3.34 4.53 4.53 0 0 0 3.41 1.08h3.11v10.39h-23.19v-39.06q0-5.25-2.21-7.58t-7-2.33a12.19 12.19 0 0 0 -8.42 2.92 10.41 10.41 0 0 0 -3.28 8.19v23a4.7 4.7 0 0 0 1 3.34 4.5 4.5 0 0 0 3.4 1.08h3.18v10.39h-31z" fill="#299ea6"/><path d="m199.93 250.93h16.48v12.66h-16.48zm-7.17 68.2h3.1a4.77 4.77 0 0 0 3.59-1.14 4.94 4.94 0 0 0 1.07-3.52v-26.87a6.44 6.44 0 0 0 -.89-3.83c-.6-.79-1.78-1.19-3.52-1.19h-3.35v-10.39h23.41v42.52a4.7 4.7 0 0 0 1 3.34 4.5 4.5 0 0 0 3.4 1.08h3.11v10.39h-30.92z" fill="#299ea6"/><path d="m245.37 327.91a25.69 25.69 0 0 1 -11.16-10.16q-4.07-6.74-4.06-16.3 0-14.81 8.36-22.93t22.93-8.12a43.14 43.14 0 0 1 13.5 1.79 36 36 0 0 1 10.51 5.73v12.54h-13.45v-6.93a20.42 20.42 0 0 0 -4.72-1.91 24.16 24.16 0 0 0 -5.79-.59 14.31 14.31 0 0 0 -11.35 5.13q-4.41 5.13-4.42 15.29 0 9.68 5.14 14.45t13.62 4.78a30 30 0 0 0 8.77-1.19 26.65 26.65 0 0 0 7.35-3.59l5.26 8.6a35.17 35.17 0 0 1 -10.63 5.32 51.44 51.44 0 0 1 -13.62 1.49 37 37 0 0 1 -16.19-3.4" fill="#299ea6"/><path d="m326.87 318.41q3.47-2.75 3.47-8.12v-4.9l-13.26 1c-3.34.23-5.66.93-6.93 2.09s-1.91 3-1.91 5.67q0 7 9 7.05 6.21 0 9.67-2.75m-28.25 8.72q-5.07-4.19-5.07-11.94 0-8.73 5.67-13t16.43-4.83l14.69-1v-7.05q0-4.53-2-6.44c-1.36-1.28-3.63-1.91-6.81-1.91a18.7 18.7 0 0 0 -9.32 2.15v4.65h-13.5v-11a43.36 43.36 0 0 1 23.3-6.45q12.54 0 18.33 5.5t5.79 15.05v23.77a5.13 5.13 0 0 0 .9 3.34 3.6 3.6 0 0 0 2.93 1.08h2.26v10.39h-14.88l-1.55-7.17a23.21 23.21 0 0 1 -9.08 7q-4.89 2-13.13 2-9.93 0-15-4.18" fill="#299ea6"/><path d="m361.13 319.13h3.11a4.76 4.76 0 0 0 3.58-1.14 4.94 4.94 0 0 0 1.08-3.52v-48.61a6.37 6.37 0 0 0 -.9-3.86c-.6-.8-1.77-1.2-3.52-1.2h-3.35v-10.35h23.41v64.26a4.7 4.7 0 0 0 1 3.34 4.5 4.5 0 0 0 3.4 1.08h3.11v10.39h-30.92z" fill="#299ea6"/><g fill="#41364d"><path d="m454.53 300.37q0-12.42-4.95-18.69t-14.75-6.27a20.48 20.48 0 0 0 -18.4 11 24.21 24.21 0 0 0 -2.74 11.59v6.7a22.3 22.3 0 0 0 2.8 11.4 19.7 19.7 0 0 0 7.47 7.47 20.06 20.06 0 0 0 10 2.62q20.53 0 20.54-25.8m-54 49h2.51c2 0 3.26-.42 3.81-1.26s.84-2.37.84-4.59v-62a5.92 5.92 0 0 0 -.89-3.7 3.61 3.61 0 0 0 -2.93-1.07h-3.34v-4.54h12.54l1.19 9.07q6.93-10.86 21.38-10.87 11.7 0 18.34 7.83t6.62 22.15q0 14.46-6.68 22.7t-18.4 8.24a28.24 28.24 0 0 1 -12.24-2.51 23.28 23.28 0 0 1 -9.26-8.36v23.02c0 2.22.28 3.76.84 4.59s1.83 1.26 3.82 1.26h2.51v5h-20.61z"/><path d="m465.09 324.14h4.18a4.2 4.2 0 0 0 3.16-.95 4.86 4.86 0 0 0 .9-3.34v-38a4.86 4.86 0 0 0 -.9-3.34 4.2 4.2 0 0 0 -3.16-1h-3.11v-5.37h11.11l1.79 7.16a13 13 0 0 1 6.27-5.67 27.1 27.1 0 0 1 9.86-1.49h4.06v5.37h-3.83q-8.48 0-12.12 3.77c-2.43 2.5-3.64 6.39-3.64 11.64v26.88a4.91 4.91 0 0 0 .89 3.34 4.23 4.23 0 0 0 3.17.95h4.18v5.38h-22.81z"/><path d="m543.78 322.09q5.57-6.19 5.56-18.63t-5.56-18.75q-5.55-6.33-16.3-6.33t-16.3 6.33q-5.56 6.33-5.56 18.75t5.56 18.63q5.55 6.23 16.3 6.21t16.3-6.21m-37.5 3.59q-6.75-8.13-6.75-22.22t6.81-22.4q6.81-8.18 21.14-8.18t21.14 8.18q6.81 8.19 6.81 22.4t-6.75 22.22q-6.75 8.11-21.2 8.12t-21.2-8.12"/><path d="m612.68 302.86q0-12.42-4.95-18.69t-14.73-6.27a20.48 20.48 0 0 0 -18.4 11 24.19 24.19 0 0 0 -2.75 11.58v6.69a22.37 22.37 0 0 0 2.81 11.41 19.74 19.74 0 0 0 7.44 7.42 20.12 20.12 0 0 0 10 2.62q20.54 0 20.54-25.8m-54 49h2.5c2 0 3.27-.41 3.82-1.25s.84-2.37.84-4.6v-61.97a5.84 5.84 0 0 0 -.9-3.7 3.58 3.58 0 0 0 -2.92-1.07h-3.28v-4.54h12.54l1.19 9.07q6.93-10.86 21.38-10.87 11.7 0 18.33 7.83t6.63 22.15q0 14.46-6.68 22.7t-18.4 8.24a28.38 28.38 0 0 1 -12.24-2.51 23.28 23.28 0 0 1 -9.26-8.36v23.06c0 2.23.28 3.77.84 4.6s1.83 1.25 3.82 1.25h2.51v5h-20.66z"/><path d="m674.91 300.59q0-11.22-4.72-16.72t-14.87-5.49q-10.4 0-15.83 6t-5.43 16.24zm-33.44 29.92a23.94 23.94 0 0 1 -10-9.91q-3.71-6.63-3.71-16.3 0-15.53 7.23-23.47t20.48-7.95q12.66 0 19 7.35t6.34 20.36v5.41h-46.63q0 11.58 6.15 17.14a22.06 22.06 0 0 0 15.35 5.55 45.35 45.35 0 0 0 9.92-.89 21.57 21.57 0 0 0 6.8-2.81v-4.09h6.34v6.81a38.48 38.48 0 0 1 -10.52 4.66 49.17 49.17 0 0 1 -12.54 1.43 30.4 30.4 0 0 1 -14.21-3.29"/><path d="m687.71 326.63h4.19a4.22 4.22 0 0 0 3.16-.95 4.87 4.87 0 0 0 .9-3.35v-38a4.86 4.86 0 0 0 -.9-3.34 4.22 4.22 0 0 0 -3.16-1h-3.11v-5.37h11.11l1.79 7.16a12.87 12.87 0 0 1 6.27-5.67 27 27 0 0 1 9.85-1.49h4.06v5.37h-3.82q-8.47 0-12.12 3.76t-3.64 11.65v26.87a4.93 4.93 0 0 0 .89 3.35 4.23 4.23 0 0 0 3.17.95h4.18v5.43h-22.82z"/><path d="m743.49 329.2q-4.05-4.59-4.06-13.44v-35.71h-9.79v-5.37h9.79v-14l6.33-3v17h18.76v5.37h-18.76v35.83q0 6.57 2.33 9.5t7.35 2.92a24.71 24.71 0 0 0 5.61-.53 10.25 10.25 0 0 0 4.06-2v-5.14h6.21v7a22.7 22.7 0 0 1 -7.16 4.66 25.8 25.8 0 0 1 -9.2 1.43q-7.41 0-11.47-4.6"/><path d="m793.18 353.86a27.1 27.1 0 0 1 -8.84-6v-7.76h6.21v5.13q4.79 5.14 14.1 5.14 7.88 0 11.76-4.54c2.59-3 3.88-7.28 3.88-12.78v-10.6a21.61 21.61 0 0 1 -8.12 6.93c-2.94 1.35-6.85 2-11.7 2q-9.21 0-14.16-5.14t-4.95-14.45v-27.44a4.91 4.91 0 0 0 -.9-3.35 4.27 4.27 0 0 0 -3.17-.95h-4.17v-5.37h14.57v37q0 14.58 14.57 14.57a18.06 18.06 0 0 0 13-4.83q5.07-4.85 5.07-13.44v-23.63a5 5 0 0 0 -.89-3.35 4.29 4.29 0 0 0 -3.17-.95h-4.18v-5.37h14.57v57.93q0 10.5-5.79 16.9t-15.71 6.38a31.07 31.07 0 0 1 -11.94-2"/><path d="m575.18 45.48a74.06 74.06 0 0 0 -104.63 0l-109.55 109.77a81 81 0 1 1 0-114.56l5.6 5.6-55.6 55.63 12.85 12.86 67.51-67.51-18.42-18.49a97.79 97.79 0 1 0 0 138.36l109.52-109.76a57.15 57.15 0 1 1 0 80.82l-18.74-18.57-67.5 67.5 12.85 12.87 55.68-55.68 5.8 5.8a74 74 0 1 0 104.63-104.64"/></g><path d="m592.05 28.61a98 98 0 0 0 -138.39 0l-109.49 109.77a57.15 57.15 0 1 1 0-80.82l5.6 5.6 11.9-11.9-5.6-5.61a74 74 0 1 0 0 104.64l109.51-109.78a81 81 0 1 1 0 114.56l-5.8-5.8-11.9 11.91 5.8 5.8a97.84 97.84 0 0 0 138.37-138.37" fill="#299ea6"/></svg>