<svg viewBox="0 0 1507.03 882.48" xmlns="http://www.w3.org/2000/svg"><path d="m1100.68 519.44-.15.04-6.11 31.65c-.35 1.8.53 2.66 2.44 2.07l5.53-1.68-1.07 5.54-24.39 7.42 1.07-5.54 5.16-1.57c2.29-.69 3.25-2.12 3.6-3.91l6.34-32.85c.38-1.95-.22-2.47-2.5-1.77l-5.16 1.57 1.07-5.54 21.74-6.62 14.55 29.16.15-.05 5.14-26.64c.43-2.25-.5-3.16-3.15-2.35l-4.49 1.37 1.07-5.54 24.02-7.31-1.07 5.54-4.35 1.32c-2.65.81-3.9 2.24-4.19 3.74l-8.01 41.45-10.91 3.32-16.34-32.85zm-61.38 18.68-.15.04-6.11 31.65c-.35 1.8.53 2.66 2.44 2.07l5.53-1.68-1.07 5.54-24.39 7.42 1.07-5.54 5.16-1.57c2.28-.69 3.25-2.12 3.6-3.91l6.34-32.85c.38-1.95-.22-2.47-2.5-1.77l-5.16 1.57 1.07-5.54 21.74-6.62 14.55 29.17.15-.04 5.14-26.64c.43-2.25-.5-3.16-3.15-2.35l-4.49 1.37 1.07-5.54 24.02-7.31-1.07 5.54-4.35 1.32c-2.65.81-3.9 2.24-4.19 3.74l-8.01 41.45-10.91 3.32-16.34-32.85zm-52.49 53.79 1.07-5.54 3.69-1.12c3.02-.92 4.34-2.03 4.72-3.97l6.27-32.47c.36-1.87-.23-3.1-3.11-2.22l-4.13 1.25 1.07-5.54 26.09-7.94-1.07 5.54-3.24.99c-2.36.72-4.79 2.16-5.34 5l-6.04 31.28c-.46 2.39.4 3.33 2.9 2.57l4.27-1.3-1.07 5.54-26.09 7.94zm-134.89-424.74 1.07-5.54 4.13-1.26c2.51-.76 4.05-1.94 4.92-6.43l5.62-29.11c.62-3.22-.08-3.92-3.91-2.75l-3.32 1.01 1.07-5.54 48.64-14.8-3.82 19.75-5.45 1.66c.86-9.84.76-13.61-9.12-10.61l-12.97 3.95-3.01 15.56 3.9-1.19c4.42-1.35 6.85-4.2 8.02-10.26l.19-.97 5.45-1.66-4.83 24.99-5.45 1.66.35-1.8c1.17-6.06-.37-7.77-4.79-6.43l-3.9 1.19-3.37 17.43 14.74-4.49c6.78-2.06 10.26-7.14 13.07-18.49l5.45-1.66-4.05 20.95-48.64 14.8zm-61.09 18.59 1.07-5.54 4.86-1.48c2.29-.7 3.17-1.67 3.54-3.61l6.4-33.15c.38-1.95-.22-2.47-2.5-1.77l-4.86 1.48 1.07-5.54 26.82-8.16-1.07 5.54-5.6 1.7c-2.29.7-3.17 1.67-3.54 3.61l-2.56 13.24 21.59-6.57 2.56-13.24c.37-1.95-.22-2.47-2.5-1.77l-5.6 1.71 1.07-5.54 26.82-8.16-1.07 5.54-4.86 1.48c-2.28.69-3.17 1.67-3.54 3.61l-6.4 33.15c-.38 1.95.22 2.47 2.5 1.77l4.86-1.48-1.07 5.54-26.82 8.16 1.07-5.54 5.6-1.7c2.29-.69 3.17-1.67 3.54-3.61l2.77-14.37-21.59 6.57-2.77 14.37c-.38 1.95.22 2.47 2.5 1.77l5.6-1.7-1.07 5.54-26.83 8.16zm6.19-48.58-3.95 20.43-5.45 1.66.65-3.37c1.53-7.93-1.83-10.29-10.01-7.8l-6.92 35.84c-.38 1.95.22 2.47 2.5 1.77l5.6-1.71-1.07 5.54-27.56 8.39 1.07-5.54 5.6-1.7c2.29-.69 3.17-1.67 3.54-3.61l6.92-35.84c-8.18 2.49-12.93 7.31-14.46 15.25l-.65 3.37-5.45 1.66 3.95-20.43zm486.47 81.69c-6.41 16.42-15.1 39.84-23.48 65 5.73-4.97 12.7-9.79 21.22-14.32 17.42-9.25 36.44-14.87 55.82-20.6.76-2.79 1.52-5.63 2.26-8.52 23.73-92.06-5.11-105.7-55.82-21.57m49.7 43.59c-3.39.91-6.79 1.81-10.24 2.69-80.22 20.54-76.16 101.21-59.04 108.14 15.71 6.36 45.83-32.24 69.28-110.83m-341.07 145.57c-.53-11.91-4.47-27.7-9.33-44.42-7.72 9.33-14.72 17.87-20.51 25.08-26.31 32.73-25.99 92.41-3.85 90.49 22.14-1.93 34.98-42.36 33.69-71.15m101.47-200.28c7.3-11.42 14.67-23.85 22.39-37.91 41.07-74.77 36.58-106.21 31.77-106.53s-19.57 34.01-49.42 129c-1.64 5.23-3.22 10.37-4.75 15.44m403.61-64.22c-24.85 62.38-74.47 91.35-137.39 111.21-15.87 56.36-29.83 92.06-63.49 117.9-31.28 24.02-52.58 7.45-58.85-11.64-12.45 47.04-27.52 103.53-62.44 183.31-43.96 100.44-94.98 118.41-142.47 121.94s-96.91-34.98-92.74-97.23c.93-13.79 2.59-24.79 4.62-33.56 6.21-23.84 15.48-27.09 28.71-23 13.24 4.09 1.18 7.89-4.22 26.39-2 6.66-3.85 14.39-5.37 23.43-8.66 51.33 25.03 96.27 70.27 95.31 45.25-.96 93.38-38.51 122.9-116.48 29.52-77.98 45.57-140.87 45.57-140.87-18.61 25.99-21.82 20.54-33.37 13.8s-5.46-34.01-5.46-34.01-13.48 26.95-22.46 41.07c-8.99 14.12-10.27 12.84-25.35 5.13-15.08-7.7-21.5-21.82 2.25-101.4s43.64-106.21 36.58-105.57-68.67 102.04-85.68 155.31-18.93 89.53-24.39 90.17c-5.45.64-24.71-6.42-23.75-21.82.73-11.76 7.84-73.7 31.02-162.07-15.25 18.41-32.56 39.07-48.72 58.46 6.37 17.31 12.15 36.94 12.88 58.68 1.93 57.44-21.5 80.22-46.85 88.24s-45.57 1.6-50.38-34.66c-4.8-36.17 21.2-56.12 60.05-101.72-5.95-19.51-12.23-39.18-15.12-54.55-6.1-32.41 36.26-51.02 53.91-34.01 1.78 1.71 3.24 3.37 4.46 4.97 6.17 9.16-7.25 12.7-11.67 7.31-7.39-8.24-17.29-15.01-23.59.2-5.26 12.71 2.68 30.68 11.62 53.28 23.89-27.6 42.87-48.86 59.94-70.19 5.77-20.52 12.36-42.23 19.89-64.88 44.6-134.13 54.23-132.53 71.24-133.81s23.1 12.19 2.89 62.25c-17.18 42.53-42 84.8-67.97 119.79-19.09 69.86-26.05 117.67-26.05 117.67 67.39-151.46 96.27-156.91 114.88-152.74s-17.01 87.28-29.52 128.35-17.01 71.24-15.72 71.24 8.66-7.06 22.78-34.98 27.92-60.65 43.96-110.71 23.12-78.6 42.55-67.28c10.36 6.03 5.09 8.61-.23 19.27-4.65 9.31-9.74 24.35-16.32 43.2-14.12 40.43-25.99 98.83-32.73 123.54s.32 23.42 19.25-11.23 24.07-74.77 46.53-135.09c22.46-60.33 22.46-54.23 35.62-54.23 3.88 0 6.22.65 7.44 1.91 25.92-24.98 40.64-28.61 56.73-21.16 17.11 7.92 26.69 21.51 10.25 82.72 26.16-8.87 51.98-21.01 74.47-45.5 46.85-51.02 61.29-121.29 21.5-163.97s-121.61-19.89-169.43 24.39c-26.33 24.39-37.27 47.41-42.12 65.64 17.78 4.43 11.19 28.79-3.12 33.36-14.32 4.57-28.16-4.93-23.26-25.19 0 0 0 0 0-.01 1.05-3.99 2.36-8.35 4-13.14 23.09-67.69 101.06-119.03 181.61-116.14 80.54 2.89 119.37 69.31 89.85 143.44m-759.47 298.23c-7.42 2.96-15.89 4.64-26.18 4.51-14.21-.18-21.84-12.37-25.79-22.98-3.56 10.57-6.89 23.48-9.7 39.35-8.18 46.21-2.57 81.29 5.77 85.68 8.35 4.39 12.03 1.44 19.91-10.11 6.25-9.17 27.32-50.79 35.99-96.45m-37.21-49.83c.52 14.2 3.94 31.03 16.44 37.02 8.07 3.87 15.79 2.2 23.16-2.47.83-6.89 1.33-13.8 1.39-20.63.48-57.76-24.07-45.78-24.07-45.78s6.74 5.83 0 13.05c-3.13 3.35-9.63 7.93-16.92 18.81m-95.51 110.97c5.19-44.47 15.02-110.27 33.98-199.58 4.74-22.33 9.89-43.3 15.48-62.92-10.13-1.62-20.39-3.21-30.67-4.76-8.89 32.16-18.51 72.25-29.09 120.63-25.99 118.89-31.77 181.94-33.21 208.9-1.44 26.95-.48 27.92 13 6.84 9.54-14.91 19.31-40.34 30.52-69.11m-131.01 16.57c14.32 3.44 24.97-5.52 39.84-43.35 15.88-40.43 13-64.02 3.85-66.42-8.87-2.33-36.73 54.14-43.69 109.77m206.47-284.82c10.1 2.02 20.43 4.06 31.07 6.1 125.5 24.07 174.85 21.66 217.68-14.44 39.65-33.41 41.87-132.85-10.59-167.02-51.41-33.49-117.44-17.33-157.39 15.4-30.8 25.23-58.16 82.24-80.77 159.96m228.54 207.78c-12.03 35.62-31.29 81.83-65.46 72.33-13.55-3.76-22.28-13.45-26.84-27.97-10.42 31.58-17.72 36.57-37.66 37.46-20.23.9-29.21-36.15-18.07-97.76-2.77 2.5-5.58 4.84-8.51 6.98-1.36 8.8-3.22 18.49-5.68 29.16-22.14 96.27-51.5 103-70.27 98.67-8.82-2.03-17.52-8.43-22.94-22.59-6.04 19.67-12.03 32.65-18.94 43.77-8.66 13.96-13.96 14.92-23.59 10.59s-13-4.33-12.03-21.08c.16-2.86.4-7.71.86-14.61-8.17 16.69-15.88 33.48-26.86 44.83-13.96 14.44-21.66 4.81-28.88 0-2.47-1.65-5.59-6.19-6.66-20.09-11.98 25.59-23.51 41.45-49.17 45.12-30.32 4.33-50.85-37.11-36.58-120.33 14.44-84.23 48.13-103.97 65.94-104.93s38.51 13.96 21.18 69.31-31.29 64.5-47.65 62.9c-6.24-.61-12.96-3.81-18.02-7.24-5.28 55.97 5.18 91.12 17.05 89.69 10.95-1.31 30.27-37.7 48.53-75.43 3.49-36.51 13.08-94.75 34.26-187.85 10.15-44.61 19.96-85.83 30.01-120.77-58.37-8.27-115.73-14.08-155.21-11.11-62.4 4.69-129.18 39.96-145.97 80.48 0 0-.01-.02-.01-.02-4.05 10.49 5.3 18.05-6.65 16.67s-22.85-8.09-18.11-22.75c9.09-28.3 36.11-70.03 116.4-84.49 74.49-13.42 138.7-5.55 213.28 8.6 14.08-46.38 28.78-79.93 45.68-92.83 14.37-10.98 30.28-15.23 41.97-16.45 8.07-.84 7.57 3.12 2.1 4.58-11.53 3.69-24.92 11.78-37.81 29.19-9.65 13.04-20.01 39.27-31.62 79.45 9.92 1.96 20.03 4 30.4 6.1 45.74-152.35 119.61-218.88 236.59-199.59 79.73 13.15 122.74 121.75 64.45 190.1-58.28 68.35-163.13 43.32-249.29 28.88-10.19-1.71-20.74-3.47-31.5-5.24-5.71 20.37-11.1 42.06-16.15 64.92-25.51 115.52-36.1 212.27-37.27 232.48s-.75 26.95 2.14 22.14c2.27-3.79 12.01-27.58 21.68-57.49-.34-13.48.9-29.97 4.31-50.1 17.39-102.73 53.43-106.6 72.2-106.6 14.96 0 34.21 10.71 30.19 63.81 4.2-4.66 8.26-9.8 12.2-14.86 9.82-39.26 21.46-61.71 31.85-73.75 10.48-12.75 29.23-3.37 27.17-.2-.47.71-1.09 1.27-1.78 1.76-1.24.9-2.44 1.76-3.46 2.91-3.26 3.66-5.62 8.35-7.95 12.65-3.52 6.53-6.62 13.28-9.43 20.14-3.26 7.96-6.13 16.08-8.67 24.3-2.77 8.97-5.13 18.06-7.07 27.24-8.57 40.43-10.59 98.67-2.31 97.71 6.41-.75 18.7-26.87 27.49-51.81-.24-19.16 3.26-42.48 9.95-69 5.82-23.08 13.08-40.98 20.33-53.78 5.5-9.84 15.85-11.52 23.79-8.31 1.17.47 2.82 1.22 2.95 2.66.11 1.17-.76 2.33-1.37 3.25-2.34 3.54-3.8 7.45-5.34 11.39-1.39 3.57-2.8 7.13-4.19 10.69-3.45 8.88-6.8 17.8-9.71 26.87-11.55 36.1-16.85 79.42-8.18 103.83 8.66 24.41 24.08 26.06 41.39-23.93 16.25-46.9 18.11-97.32 12.71-141.88-2.24-18.51-13.55-20.21-4.16-27.07s22.84-11.2 28.03 13.53c.03.13.04.23.06.36 10.7 46.61 1.67 99.33-10.16 134.36m-463.53 65.72c-1.03 2.82-2.3 5.55-3.72 8.19-.71 1.31-1.46 2.61-2.24 3.88-.61 1-2.04 2.45-2.31 3.57-4.85 20.55-8 46.4-5.68 60.63 3.37 20.7 6.74 21.18-9.5 19.73-14.67-1.31-17.97-15.36-14.12-50.58-.31.17-.61.35-.93.52-8.66 4.61-17.26 8.64-26.6 11.72-14.27 82.02-33.88 183.67-68.71 235.21-47.17 69.79-105.41 102.52-170.87 66.91-59.89-32.59-75.46-116.34-74.36-164.27-48.01-22.12-68.93-68.14-66.15-139.89 5.12-131.78 89.05-184.35 170.87-211.78 81.83-27.44 246.44-17.81 339.82-47.17 34.67-10.9 37.69-20.54 27.78-28.36-1.83-1.45-.12-2.81 1.47-3.22 3-.78 6.48.08 9.2 1.37 1.62.77 3.13 1.81 4.51 3.04 3.95 3.51 6.9 8.56 8.68 13.2 2.12 5.54 1.79 11.31-1.9 16.1-5.18 6.72-13.95 10.41-21.65 13.3-14.32 5.38-29.47 8.62-44.46 11.51-67.39 13-222.85 2.89-318.64 31.77s-142.95 100.31-146.81 198.21c-2.2 55.95 14.04 94.66 39.41 118.03 6.01-42.85 23.24-96.63 55.41-126.6l1.11-1.02c8.75-7.39 18.44-2.18 24.55 0s14.06 8.09 6.48 8.27c-6.41.16-8.34 2.16-11.04 5.19l.09.07c-34.71 34.31-49.23 90.04-52.65 130.48 13.75 6.76 28.87 10.4 44.46 11.03 53.94 2.19 107.87-49.15 109.75-83.78.41-10.25-11.61-10.81.78-14.69 12.4-3.89 28.93 15.39 18.17 33.88-.04.07-.08.13-.13.2-23.83 41.61-77.29 79.24-131.95 75.94-15.36-.93-29.3-3.01-41.91-6.23-.03 2.22-.02 4.38.03 6.43 2.53 103.26 65.94 151.9 98.19 151.9s117.93-27.92 141.51-174.72c7.84-48.8 14.51-89.66 20.61-124.57-7.85.65-16.38.67-25.9-.09-36.1-2.89-39.47-11.55-23.1-9.15 16.36 2.41 22.14 3.85 46.69 1.44 1.28-.13 2.54-.27 3.76-.42 11.6-65.55 21.26-109.49 33.3-145.9 18.77-56.8 51.5-55.35 66.9-51.5s-10.11 5.29-19.73 12.03c-9.63 6.74-24.07 30.81-39.95 111.19-3.68 18.62-7.54 41.62-11.89 66.82 13.75-5.92 21.21-13.54 27.87-18.38.72-4.8 1.58-9.58 2.63-14.32 1.88-8.42 4.33-16.86 8.22-24.59 2.24-4.45 5.03-8.88 8.92-12.07 3.99-3.28 9.97-4.87 14.55-1.56 1.77 1.28 2.94 3.28 3.5 5.39 1.5 5.64-.36 12.43-2.31 17.74" fill="#fff"/></svg>