<svg viewBox="0 0 726.54 153.11" xmlns="http://www.w3.org/2000/svg"><path d="m591.62 107.33c.03-3.96-1.87-7.54-7.85-7.58l-11.04-.07-.1 15.25 10.64.07c5.98.04 8.34-3.8 8.36-7.66z" fill="none"/><path d="m295.22 54.83c2.39-3.5 3.59-8.61 3.59-15.33s-1.34-11.52-4-14.81c-2.67-3.29-7.49-4.94-14.47-4.94h-8.62v40.33h9.44c6.98 0 11.66-1.75 14.06-5.25z" fill="none"/><path d="m585.32 124.95-12.77-.09-.11 16.4 12.46.08c6.89.05 8.95-4.19 8.97-8.24.03-4.15-2.48-8.12-8.56-8.16z" fill="none"/><path d="m290.7 123.66c2.4-1.24 4.21-2.95 5.44-5.15s1.98-4.8 2.26-7.82c.27-3.02.41-6.31.41-9.88 0-3.7-.21-6.93-.62-9.67s-1.23-5.08-2.46-7c-1.37-1.92-3.22-3.32-5.54-4.22-2.33-.89-5.41-1.34-9.24-1.34h-9.24v46.91h9.03c4.24 0 7.56-.61 9.95-1.85z" fill="none"/><path d="m465.13 54.57c11.75.08 17.79-8.47 17.85-17.83.07-9.36-5.86-17.8-17.61-17.88-11.55-.08-17.69 8.28-17.75 17.64-.06 9.46 5.96 17.99 17.51 18.07z" fill="none"/><path d="m209.95 25.52c-2.6-3.84-7.53-5.76-14.78-5.76h-10.88v45.68h11.9c3.7 0 6.64-.52 8.83-1.55s3.9-2.5 5.13-4.42c1.09-1.92 1.85-4.29 2.26-7.1s.62-6.07.62-9.78-.21-6.96-.61-9.77c-.41-2.81-1.23-5.25-2.46-7.31z" fill="none"/><path d="m281.41 0c6.68 0 12.38 1.03 17.09 3.08 4.72 2.06 8.59 4.8 11.6 8.23s5.17 7.37 6.47 11.83 1.95 9.08 1.95 13.89v5.35c0 3.98-.31 7.34-.92 10.08-.62 2.75-1.54 5.15-2.77 7.2-2.33 3.84-5.88 7.14-10.67 9.88 4.92 2.33 8.55 5.76 10.88 10.29s3.49 10.7 3.49 18.51v8.23c0 12.89-3.12 22.77-9.34 29.63-6.23 6.86-16.18 10.29-29.86 10.29h-28.53s0-146.5 0-146.5h21.22s-272.02.01-272.02.01v97.7-97.67s20.94 0 20.94 0v66.87s.41 0 .41 0l30.58-66.88h20.93s-28.53 58.64-28.53 58.64l33.86 87.86h-22.17s-23.81-65.01-23.81-65.01l-11.29 21.19v43.83h-20.92v6.58h726.54v-153.11zm-131.59 19.77h-41.46v43.01h36.12s0 19.75 0 19.75h-36.12s0 43.01 0 43.01h41.46s0 20.98 0 20.98h-62.4s0-146.49 0-146.49h62.4s0 19.75 0 19.75zm66.49 126.74-19.5-62.55h-12.52v62.55s-20.94 0-20.94 0v-146.5s33.66 0 33.66 0c24.63 0 36.95 14.33 36.95 43 0 8.64-1.34 15.98-4 22.02-2.67 6.04-7.36 10.91-14.06 14.61l22.58 66.87zm354.22-140.73 19.76.14-.43 63.3-19.76-.13zm-105.16-2.35c20.57.14 37.2 12.99 37.06 33.45-.14 20.55-16.94 33.27-37.51 33.14-20.57-.14-36.9-13.08-36.76-33.64.14-20.46 16.64-33.09 37.21-32.95zm-50.23 100.58-17.02-.12c-12.67-.09-18.69 6.53-18.75 15.41-.06 9.07 5.98 15.48 18.54 15.57l17.02.12-.11 16.11-18.34-.13c-21.58-.15-36.71-11.25-36.56-32.19.14-20.94 15.92-31.25 37.81-31.1l17.53.12-.11 16.21zm-15.46-36.09-36.58-.25.09-13.8 30.4.21c4.76.03 7.41-2.27 7.44-6.51.03-3.76-2.59-6.29-7.35-6.32l-11.25-.08c-15.1-.1-22.55-7.78-22.48-17.62.08-11.68 7.83-19.16 23.74-19.05l35.36.24-.09 13.8-28.17-.19c-4.86-.03-7.41 2.46-7.44 6.22s2.39 6.39 7.35 6.42l9.73.07c15.2.11 22.95 7.78 22.88 18.3-.07 11-8.54 18.66-23.64 18.56zm74.01 83.58-51.48-.35.43-63.3 19.76.13-.32 47.57 31.71.22-.11 15.73zm69.3-28.48c-.14 20.65-13.38 30.21-32.33 30.08-19.25-.13-32.15-9.87-32.01-30.52l.23-34.35 19.76.13-.25 36.67c-.05 6.75 4.58 11.8 12.28 11.85 7.8.05 12.5-4.93 12.54-11.69l.25-36.67 19.76.14-.23 34.35zm-35.19-86.3c.14-20.94 15.92-31.26 37.81-31.11l17.53.12-.11 16.21-17.02-.11c-12.67-.09-18.69 6.53-18.75 15.41-.06 9.07 5.98 15.48 18.54 15.57l17.02.11-.11 16.11-18.34-.12c-21.58-.15-36.71-11.25-36.56-32.19zm82.5 115.57-37.19-.25.43-63.3 37.09.25c12.56.09 19.51 7.08 19.45 15.96-.04 5.41-2.8 10.31-8.29 12.88 9.71 2.67 12.6 9.93 12.55 16.39-.06 8.88-7.32 18.19-24.04 18.07zm74.23-82.56-19.76-.14.12-18.04-24.82-.17-.12 18.04-19.76-.14.23-34.45c.14-20.55 13.18-30.21 32.23-30.08 19.15.13 32.26 9.87 32.12 30.52l-.24 34.45zm61.9.42-51.47-.35.43-63.31 19.76.13-.32 47.58 31.72.22-.11 15.73z" fill="none"/><path d="m632.75 20.2c-7.8-.05-12.5 4.93-12.54 11.69l-.04 6.08 24.83.17.04-6.08c.05-6.76-4.58-11.8-12.28-11.85z" fill="none"/><g fill="#12110c"><path d="m400.44 31.06-9.73-.07c-4.96-.03-7.38-2.65-7.35-6.42.03-3.76 2.58-6.26 7.44-6.22l28.17.19.09-13.8-35.36-.24c-15.91-.11-23.66 7.37-23.74 19.05-.07 9.84 7.38 17.52 22.48 17.62l11.25.08c4.76.03 7.38 2.56 7.35 6.32-.03 4.25-2.68 6.55-7.44 6.51l-30.4-.21-.09 13.8 36.58.25c15.1.1 23.56-7.56 23.64-18.56.07-10.52-7.68-18.2-22.88-18.3z"/><path d="m464.92 70.01c20.57.14 37.37-12.58 37.51-33.14.14-20.46-16.49-33.31-37.06-33.45s-37.07 12.49-37.21 32.95c-.14 20.55 16.19 33.5 36.76 33.64zm.45-51.15c11.75.08 17.67 8.52 17.61 17.88s-6.1 17.91-17.85 17.83c-11.55-.08-17.58-8.61-17.51-18.07.07-9.36 6.2-17.72 17.75-17.64z"/><path d="m562.81 52.92-17.02-.11c-12.56-.09-18.6-6.5-18.54-15.57.06-8.88 6.08-15.49 18.75-15.41l17.02.11.11-16.21-17.53-.12c-21.89-.15-37.67 10.17-37.81 31.11s14.98 32.05 36.56 32.19l18.34.12.11-16.11z"/><path d="m548.54 27.62h63.31v19.76h-63.31z" transform="matrix(.00680673 -.99997683 .99997683 .00680673 538.73 617.42)"/><path d="m632.65 4.76c-19.05-.13-32.09 9.52-32.23 30.08l-.23 34.45 19.76.14.12-18.04 24.82.17-.12 18.04 19.76.14.24-34.45c.14-20.65-12.97-30.39-32.12-30.52zm12.34 33.37-24.83-.17.04-6.08c.05-6.75 4.74-11.74 12.54-11.69 7.7.05 12.33 5.1 12.28 11.85l-.04 6.08z"/><path d="m695.15 6.63-19.76-.14-.43 63.31 51.47.35.11-15.73-31.71-.22z"/><path d="m359.92 118.78c-.14 20.94 14.98 32.05 36.56 32.19l18.34.13.11-16.11-17.02-.12c-12.56-.09-18.6-6.49-18.54-15.57.06-8.88 6.08-15.5 18.75-15.41l17.02.12.11-16.21-17.53-.12c-21.89-.15-37.66 10.16-37.81 31.1z"/><path d="m442.4 87.98-19.76-.13-.43 63.3 51.48.35.1-15.73-31.71-.21z"/><path d="m523.21 125.2c-.05 6.75-4.74 11.74-12.54 11.69-7.7-.05-12.33-5.1-12.28-11.85l.25-36.67-19.76-.13-.23 34.35c-.14 20.65 12.76 30.39 32.01 30.52 18.95.13 32.19-9.43 32.33-30.08l.23-34.35-19.76-.14-.25 36.67z"/><path d="m601.79 117.83c5.49-2.57 8.26-7.47 8.29-12.88.06-8.88-6.88-15.87-19.45-15.96l-37.09-.25-.43 63.3 37.19.25c16.72.11 23.97-9.2 24.04-18.07.04-6.47-2.84-13.72-12.55-16.39zm-29.06-18.15 11.04.07c5.98.04 7.88 3.63 7.85 7.58-.02 3.86-2.38 7.7-8.36 7.66l-10.64-.07.1-15.25zm12.18 41.67-12.46-.08.11-16.4 12.77.09c6.08.04 8.59 4.01 8.56 8.16-.03 4.05-2.08 8.29-8.97 8.24z"/></g><path d="m20.94 102.7 11.28-21.19 23.81 65.02 22.17-.01-33.86-87.85 28.52-58.65h-20.93l-30.58 66.88h-.41v-66.87h-20.94v97.67 48.83h20.94z"/><path d="m87.42 146.52h62.4v-20.99h-41.46v-43l36.12-.01v-19.75h-36.12v-43h41.46v-19.75h-62.39z"/><path d="m229.96 65.03c2.67-6.03 4-13.38 4-22.02.01-28.67-12.31-43.01-36.94-43.01h-33.66s0 146.5 0 146.5h20.94s0-62.55 0-62.55h12.52l19.5 62.55h22.17s-22.58-66.87-22.58-66.87c6.71-3.7 11.39-8.57 14.06-14.61zm-17.55-12.65c-.41 2.81-1.16 5.18-2.26 7.1-1.23 1.92-2.94 3.39-5.13 4.42s-5.13 1.54-8.83 1.54h-11.9s0-45.68 0-45.68h10.88c7.25 0 12.18 1.92 14.78 5.75 1.23 2.06 2.05 4.5 2.46 7.31s.61 6.07.61 9.77-.21 6.96-.62 9.78z"/><path d="m250.78 146.5h28.53c13.68 0 23.64-3.43 29.86-10.29 6.23-6.86 9.34-16.74 9.34-29.63v-8.23c0-7.82-1.16-13.99-3.49-18.51-2.33-4.53-5.96-7.96-10.88-10.29 4.79-2.74 8.35-6.03 10.67-9.88 1.23-2.05 2.16-4.46 2.77-7.2.62-2.74.92-6.1.92-10.08v-5.35c0-4.8-.65-9.43-1.95-13.89s-3.46-8.4-6.47-11.83-6.87-6.17-11.6-8.23c-4.71-2.05-10.4-3.08-17.09-3.08h-30.63s0 146.5 0 146.5zm20.94-126.75h8.62c6.98 0 11.8 1.65 14.47 4.94s4 8.23 4 14.81-1.2 11.83-3.59 15.33c-2.4 3.5-7.08 5.25-14.06 5.25h-9.44zm0 58.85h9.24c3.83 0 6.91.44 9.24 1.33s4.17 2.3 5.54 4.22c1.23 1.92 2.05 4.25 2.46 7 .41 2.74.62 5.97.62 9.67 0 3.57-.14 6.86-.41 9.88-.28 3.02-1.03 5.63-2.26 7.82-1.23 2.2-3.04 3.91-5.44 5.15-2.39 1.24-5.71 1.85-9.95 1.85h-9.03v-46.91z"/></svg>