<svg enable-background="new 0 0 457.6 149.3" viewBox="0 0 457.6 149.3" xmlns="http://www.w3.org/2000/svg"><path d="m365.8 33.6 7.4-2c1.1-.3 2-.7 2.7-1.3s1.1-1.3 1.4-2c.2-.8.2-1.6 0-2.5s-.6-1.6-1.2-2.1-1.3-.9-2.1-1.1-1.7-.1-2.7.2l-7.9 2.2zm47.2-6-.7 1.7-12.7-5.5-3.1 7.1 12 5.2-.7 1.7-12-5.2-3.6 8.4 12.8 5.5-.7 1.7-14.8-6.2 8.9-20.7zm-29.1 13-3 .8-14.8-6.9 2.8 10.2-2 .5-5.9-21.7 10.2-2.8c1.3-.3 2.5-.4 3.6-.2s2.1.8 2.9 1.5c.8.8 1.3 1.7 1.7 2.9.3 1.2.3 2.3.1 3.4-.3 1.1-.9 2-1.8 2.8s-2.1 1.4-3.6 1.8l-4.3 1.2zm-23.5 65.3c1.3-1 2.7-1.5 4.4-1.6 1.6-.1 3.3.2 5.1 1s3.2 1.8 4.2 3c1 1.3 1.6 2.7 1.8 4.3s-.1 3.3-.9 5.1l-5.5 12.6-1.9-.8 5.4-12.6c.6-1.5.9-2.9.8-4.1-.1-1.3-.6-2.4-1.4-3.4s-1.9-1.8-3.3-2.4-2.7-.9-4-.8-2.4.5-3.4 1.3-1.8 1.9-2.5 3.4l-5.4 12.6-1.9-.8 5.5-12.6c.7-1.9 1.7-3.3 3-4.2m-2.5-53.7c-.2 1.6-.8 3.2-1.8 4.8-1.1 1.6-2.3 2.8-3.7 3.6s-2.9 1.1-4.5 1-3.2-.7-4.8-1.8l-11.5-7.6 1.1-1.7 11.4 7.5c1.4.9 2.7 1.4 3.9 1.5 1.3.1 2.5-.2 3.6-.8s2.1-1.6 2.9-2.9 1.3-2.6 1.5-3.8c.1-1.3-.1-2.5-.7-3.6s-1.6-2.1-2.9-3l-11.6-7.4 1.1-1.7 11.5 7.6c1.6 1.1 2.8 2.3 3.5 3.7.8 1.4 1.1 2.9 1 4.6m-8.3 21.8.1 2.1-20.6 1 .4 8.3-1.9.1-.9-18.6 1.9-.1.4 8.3zm-13.6 31.4 17.7-10.4-6.7-11.3 1.6-1 7.7 13.1-19.3 11.4zm48.7 6.8c1.5-2.5 3.9-4.2 7-5.4 2.3-.8 4.6-1.1 6.7-.7s4 1.2 5.5 2.6c1.6 1.4 2.7 3.1 3.4 5.1.8 2.1.9 4.2.5 6.3s-1.4 3.9-2.8 5.5c-1.5 1.6-3.4 2.8-5.7 3.6-1.5.5-3 .9-4.4.9-1.4.1-2.7-.1-3.9-.4l-.7-2.1c1.3.4 2.6.6 4 .6s2.8-.3 4.3-.8c2-.7 3.6-1.7 4.8-3.1 1.2-1.3 2-2.9 2.3-4.6s.2-3.4-.4-5.2-1.6-3.2-2.9-4.4c-1.3-1.1-2.9-1.9-4.7-2.1-1.8-.3-3.7-.1-5.6.6-1.5.5-2.8 1.3-4 2.2-1.1.9-2.1 2-2.8 3.2zm72.9-55.8c-2.8-27.1-34.9-56.4-73.9-56.4-41.6 0-75.4 33.4-75.4 74.6s33.7 74.6 75.4 74.6c39 0 71.1-29.3 73.9-56.4.6-5.8-3.7-10.6-9.6-10.6h-57.2s0 0-.1 0c-4.3 0-7.8-3.4-7.8-7.7 0-4.2 3.5-7.7 7.8-7.7h.1 57.2c5.9.1 10.2-4.6 9.6-10.4"/><path d="m211.4 46.4c.9-1.5 1.3-3.2 1.3-5.1s-.4-3.6-1.3-5.1-2.1-2.7-3.6-3.6-3.3-1.3-5.2-1.3c-2 0-3.7.4-5.3 1.3-1.5.9-2.7 2-3.6 3.6-.9 1.5-1.3 3.2-1.3 5.1s.4 3.6 1.3 5.1 2 2.7 3.6 3.6c1.5.9 3.3 1.3 5.3 1.3 1.9 0 3.7-.4 5.2-1.3s2.7-2.1 3.6-3.6m68.6 6.1h-2.8l-14.8-20.7v20.7h-2v-22.4h3.1l14.6 20.3v-20.3h1.9zm-27.5-22.4-6.7 22.6h-2.6l-6.5-20.8-6.6 20.8h-2.6l-6.4-22.6h2.2l5.6 20.4 6.4-20.4h2.8l6.3 20.4 5.8-20.4zm-37.7 11.2c0 2.2-.5 4.2-1.6 6.1-1.1 1.8-2.5 3.2-4.4 4.3-1.9 1-4 1.6-6.3 1.6-2.4 0-4.5-.5-6.3-1.6-1.9-1-3.3-2.5-4.4-4.3s-1.6-3.8-1.6-6.1.5-4.2 1.6-6.1c1.1-1.8 2.5-3.2 4.4-4.3 1.9-1 4-1.6 6.3-1.6s4.4.5 6.3 1.6c1.9 1 3.3 2.5 4.4 4.3 1.1 1.9 1.6 3.9 1.6 6.1m-29-9.4h-8.3v20.6h-2.1v-20.6h-8.3v-1.9h18.6v1.9zm110.3 27.4v-38.9c0-8.8-7.2-16.1-16.1-16.1h-109.8c-8.8 0-16.1 7.2-16.1 16.1v38.8c0 8.8 7.2 16.1 16.1 16.1h31.1c8.8 0 16.1 7.2 16.1 16.1v31 16.1c0 4.3 3.5 7.8 7.8 7.8s7.8-3.5 7.8-7.8 0-7.2 0-16.1v-31c0-8.8 7.2-16.1 16.1-16.1h31.1c8.7-0 15.9-7.2 15.9-16"/><path d="m123.1 56.7-22.6 6.4v-2.2l20.4-5.6-20.4-6.4v-2.9l20.4-6.3-20.4-5.8v-2.2l22.6 6.7v2.6l-20.8 6.5 20.8 6.6zm-22.5 13h1.9v13.8h7.8v-13.1h1.8v13.1h9.2v-14h1.9v16h-22.5v-15.8zm0 26.4h22.5v2.8l-20.7 14.8h20.7v2h-22.5v-3.1l20.2-14.6h-20.3v-1.9zm41.4 34v-109.9c0-8.8-7.2-16.1-16.1-16.1h-109.8c-8.9.1-16.1 7.3-16.1 16.1v109.8c0 8.8 7.2 16.1 16.1 16.1h31.1c8.8 0 16.1-7.2 16.1-16.1v-102.5s0 0 0 0c0-4.3 3.5-7.8 7.8-7.8s7.8 3.5 7.8 7.8v102.5c0 8.8 7.2 16.1 16.1 16.1h31.1c8.6 0 15.9-7.2 15.9-16"/></svg>