<svg height="146" viewBox="0 0 483 146" width="483" xmlns="http://www.w3.org/2000/svg" xmlns:xlink="http://www.w3.org/1999/xlink"><mask id="a" fill="#fff"><path d="m.06.87539589h77.1075117v125.76160411h-77.1075117z" fill="#fff" fill-rule="evenodd"/></mask><g fill="none" fill-rule="evenodd"><g fill="#273971"><path d="m168.884 84.177c.075-2.035.118-4.115.118-6.23v-8.233c0-2.107-.043-4.172-.118-6.202-.084-2.024-.268-6.197-.268-6.197h4.702s-.188 4.167-.269 6.189c-.081 2.028-.12 4.094-.12 6.199v2.63c0 .26.096.376.288.376.129 0 .351-.135.67-.423 1.113-.954 2.29-2.042 3.516-3.259 1.229-1.208 2.464-2.466 3.707-3.774 1.242-1.308 2.472-2.638 3.683-3.995 1.212-1.355 3.491-3.943 3.491-3.943s3.878.069 4.258 0c-1.117.956-2.374 2.084-3.776 3.394-1.402 1.313-2.816 2.654-4.238 4.025-1.417 1.376-2.772 2.729-4.063 4.049-1.293 1.322-2.371 2.482-3.23 3.475 2.584 2.904 5.189 5.863 7.818 8.883 2.635 3.016 8.019 9.075 8.019 9.075h-5.504s-2.413-2.805-3.801-4.5c-1.39-1.684-2.748-3.319-4.068-4.9-1.324-1.577-2.52-2.995-3.586-4.255-1.071-1.26-1.86-2.145-2.369-2.66-.255-.257-.449-.379-.575-.379-.159 0-.24.099-.24.285v4.162c0 2.104.039 4.18.12 6.221.081 2.043.269 6.026.269 6.026h-4.702s.184-3.99.268-6.039"/><path d="m199.79 63.441c-.082-2.047-.17-4.086-.266-6.126 1.429.069 2.852.131 4.267.189 1.417.048 2.844.084 4.28.084s2.852-.036 4.258-.084c1.406-.058 4.257-.189 4.257-.189v2.876s-1.957-.126-2.801-.198c-.844-.05-1.739-.117-2.677-.184-.94-.056-1.971-.115-3.087-.158-1.114-.054-2.455-.072-4.018-.072-.025 1.021-.061 1.999-.104 2.916-.042.926-.062 1.981-.062 3.153 0 1.251.009 2.461.029 3.641.016 1.18.025 2.074.025 2.68 1.402 0 2.665-.014 3.781-.054 1.119-.031 2.138-.061 3.061-.114.924-.044 1.777-.097 2.562-.145.778-.046 2.223-.166 2.223-.166v2.922s-1.792-.179-2.894-.237c-1.098-.07-2.201-.107-3.302-.125-1.101-.015-2.136-.036-3.108-.046-.973-.014-1.746-.024-2.323-.024 0 .293-.009.6-.025.938-.02.331-.029.752-.029 1.263v4.752c0 1.817.009 3.313.029 4.5.016 1.18.044 2.075.085 2.684h3.344c1.215 0 2.399-.027 3.564-.076 1.167-.045 2.265-.111 3.304-.195 1.035-.075 2.698-.362 2.698-.362v2.732s-2.861-.115-4.28-.115-2.862 0-4.328 0c-1.467 0-2.922 0-4.359 0-1.439 0-2.894.039-4.37.115.096-2.043.184-4.079.266-6.107.079-2.025.121-4.092.121-6.201v-8.236c0-2.108-.042-4.19-.121-6.231"/><path d="m240.717 77.781c-4.152-4.447-8.298-8.879-12.446-13.281-.035.895-.072 2.093-.106 3.594-.039 1.497-.059 3.54-.059 6.126 0 .669.009 1.497.025 2.49.015.984.034 2.023.048 3.109.014 1.084.042 2.183.07 3.304.037 1.111.068 2.151.098 3.11.031.956.061 1.793.098 2.505.028.723.096 1.466.096 1.466h-3.429s.137-.906.215-1.768c.078-.863.148-1.892.217-3.092.062-1.193.133-2.495.211-3.9.081-1.402.146-2.808.192-4.21.046-1.403.091-2.776.122-4.12.03-1.339.047-2.53.047-3.581 0-3.067-.008-5.696-.029-7.9-.018-2.208-.063-3.848-.135-4.933h.766c1.949 2.106 4.032 4.361 6.247 6.772 2.221 2.413 4.424 4.786 6.607 7.131 2.19 2.34 4.261 4.563 6.229 6.657 1.962 2.085 3.679 3.864 5.149 5.332v-6.508c0-3.351-.024-6.611-.076-9.79-.048-3.165-.314-8.968-.314-8.968h3.153s-.138 1.754-.216 3.155c-.084 1.406-.165 2.903-.244 4.497-.078 1.596-.157 3.161-.215 4.694-.068 1.529-.099 2.762-.099 3.686v2.865c0 1.088.009 2.222.028 3.405.02 1.178.034 2.374.056 3.568.018 1.2.034 2.306.054 3.348.016 1.034.028 1.94.028 2.703v1.578h-.672c-3.668-4.239-7.572-8.589-11.716-13.044"/><path d="m264.412 85.716c.428.585.952 1.123 1.576 1.608.621.474 1.349.861 2.179 1.17.828.3 1.753.45 2.779.45 1.053 0 2.001-.184 2.846-.55.849-.368 1.565-.856 2.156-1.481.594-.622 1.047-1.357 1.363-2.207.323-.841.481-1.735.481-2.698 0-1.461-.377-2.639-1.126-3.491-.746-.864-1.687-1.574-2.806-2.15-1.12-.577-2.323-1.099-3.614-1.58-1.299-.483-2.503-1.076-3.622-1.799-1.118-.713-2.052-1.632-2.805-2.744-.748-1.121-1.126-2.624-1.126-4.498 0-1.345.237-2.561.714-3.664.473-1.094 1.165-2.05 2.068-2.842.904-.797 1.991-1.422 3.268-1.87 1.279-.446 2.713-.67 4.307-.67 1.532 0 2.854.186 3.97.555 1.118.362 2.153.928 3.107 1.702-.285.539-1.1 3.084-1.291 4.01h-.573c-.16-.446-.374-.931-.644-1.456-.274-.523-.638-1.021-1.104-1.458-.463-.448-1.013-.826-1.647-1.123-.638-.307-1.406-.455-2.296-.455-.893 0-1.717.148-2.463.428-.748.292-1.405.694-1.963 1.219-.557.528-.988 1.157-1.294 1.896-.302.726-.453 1.529-.453 2.387 0 1.502.372 2.678 1.125 3.54.754.862 1.686 1.598 2.806 2.184 1.117.579 2.323 1.12 3.619 1.575 1.294.461 2.501 1.029 3.617 1.703 1.121.667 2.056 1.53 2.804 2.583.753 1.051 1.13 2.455 1.13 4.212 0 1.468-.263 2.853-.791 4.159-.525 1.313-1.295 2.455-2.297 3.423-1.002.976-2.232 1.729-3.682 2.252-1.45.524-3.099.789-4.946.789-1.98 0-3.577-.265-4.804-.794-1.227-.539-2.256-1.131-3.085-1.805.285-.73.814-3.333.907-4.255h.576c.258.578.599 1.151 1.034 1.745"/><path d="m290.329 63.512c-.081-2.024-.263-6.197-.263-6.197h4.695s-.182 4.173-.267 6.197c-.081 2.03-.118 4.095-.118 6.202v8.233c0 2.115.037 4.195.118 6.23.085 2.049.267 6.039.267 6.039h-4.695s.182-3.99.263-6.039c.081-2.035.118-4.115.118-6.23v-8.233c0-2.107-.037-4.172-.118-6.202"/><path d="m320.628 77.781c-4.145-4.447-8.291-8.879-12.439-13.281-.035.895-.076 2.093-.109 3.594-.038 1.497-.053 3.54-.053 6.126 0 .669.002 1.497.021 2.49.015.984.032 2.023.05 3.109.013 1.084.034 2.183.069 3.304.034 1.111.065 2.151.098 3.11.031.956.059 1.793.091 2.505.038.723.096 1.466.096 1.466h-3.426s.137-.906.215-1.768c.081-.863.152-1.892.218-3.092.062-1.193.134-2.495.214-3.9.08-1.402.144-2.808.194-4.21.046-1.403.088-2.776.119-4.12.031-1.339.051-2.53.051-3.581 0-3.067-.015-5.696-.031-7.9-.02-2.208-.064-3.848-.139-4.933h.765c1.95 2.106 4.03 4.361 6.25 6.772 2.219 2.413 4.419 4.786 6.605 7.131 2.19 2.34 4.264 4.563 6.224 6.657 1.968 2.085 3.681 3.864 5.148 5.332v-6.508c0-3.351-.023-6.611-.067-9.79-.05-3.165-.314-8.968-.314-8.968h3.147s-.133 1.754-.217 3.155c-.075 1.406-.158 2.903-.237 4.497-.084 1.596-.157 3.161-.223 4.694-.063 1.529-.096 2.762-.096 3.686v2.865c0 1.088.006 2.222.027 3.405.018 1.178.041 2.374.057 3.568.018 1.2.033 2.306.051 3.348.023 1.034.033 1.94.033 2.703v1.578h-.672c-3.667-4.239-7.571-8.589-11.72-13.044"/><path d="m368.583 61.437c-.715-.577-1.509-1.071-2.389-1.506-.875-.429-1.847-.78-2.924-1.049-1.062-.27-2.2-.407-3.412-.407-1.979 0-3.82.301-5.528.906-1.706.605-3.191 1.539-4.455 2.8-1.255 1.26-2.246 2.856-2.958 4.783-.721 1.934-1.08 4.219-1.08 6.86 0 2.329.318 4.439.956 6.32.639 1.88 1.57 3.465 2.795 4.76 1.233 1.29 2.73 2.285 4.502 2.991 1.767.7 3.775 1.049 5.995 1.049.672 0 1.373-.031 2.113-.094.727-.065 1.437-.159 2.12-.286.689-.128 1.328-.288 1.917-.479.586-.19 1.09-.416 1.499-.667.039-.963.071-1.916.09-2.869.016-.958.028-1.927.028-2.916 0-1.115-.023-2.234-.068-3.345-.05-1.118-.096-2.182-.156-3.206.791.158 3.998.09 4.31 0-.049.732-.094 1.891-.123 3.466-.027 1.583-.039 3.665-.039 6.248 0 .637.012 1.286.023 1.934.022.656.034 1.302.034 1.94-.672.259-1.512.518-2.521.791-1 .276-2.072.496-3.206.67-1.128.175-2.264.334-3.395.48-1.136.143-2.16.214-3.09.214-2.839 0-5.397-.341-7.688-1.028-2.277-.684-4.222-1.752-5.81-3.184-1.597-1.435-2.828-3.218-3.691-5.357-.867-2.141-1.293-4.615-1.293-7.425 0-2.713.449-5.123 1.338-7.249.891-2.111 2.149-3.913 3.779-5.373 1.624-1.477 3.601-2.586 5.913-3.36 2.318-.765 4.873-1.149 7.684-1.149 1.622 0 3.061.091 4.326.262 1.26.177 2.38.408 3.353.697.97.285 1.83.593 2.559.912.734.311 1.388.624 1.96.907-.252.446-1.036 3.075-1.098 3.68h-.577c-.475-.572-1.08-1.148-1.793-1.721"/><path d="m389.25 59.853c-.829 0-1.697.015-2.609.023-.911.016-1.814.048-2.725.085-.907.046-1.782.092-2.632.154-.845.057-2.266.212-2.266.212v-3.012s4.159.131 6.162.189c2.011.048 4.081.084 6.197.084 2.122 0 4.19-.036 6.201-.084 2.007-.058 6.167-.189 6.167-.189v3.012s-1.426-.155-2.273-.212c-.84-.062-1.719-.108-2.625-.154-.912-.037-1.819-.069-2.725-.085-.914-.008-1.782-.023-2.61-.023-.102 3.287-.145 6.581-.145 9.898v8.229c0 2.098.033 4.175.117 6.21.077 2.043.247 6.026.247 6.026h-4.704s.188-3.983.27-6.026c.084-2.035.12-4.112.12-6.21v-8.229c0-3.317-.054-6.611-.167-9.898"/><path d="m437.176 66.977c-.665-1.934-1.601-3.53-2.793-4.796-1.193-1.256-2.603-2.195-4.216-2.8-1.595-.605-3.347-.906-5.231-.906-1.85 0-3.582.301-5.193.906-1.61.605-3.02 1.544-4.211 2.8-1.198 1.266-2.133 2.862-2.811 4.796-.672 1.925-1.001 4.219-1.001 6.868 0 2.647.329 4.946 1.001 6.874.678 1.931 1.613 3.527 2.811 4.795 1.191 1.256 2.601 2.188 4.211 2.802 1.611.597 3.343.912 5.193.912 1.884 0 3.636-.315 5.231-.912 1.613-.614 3.023-1.546 4.216-2.802 1.192-1.268 2.128-2.864 2.793-4.795.672-1.928 1.015-4.227 1.015-6.874 0-2.649-.343-4.943-1.015-6.868zm-28.84-.395c.881-2.111 2.112-3.913 3.693-5.373 1.576-1.477 3.475-2.586 5.675-3.36 2.207-.765 4.615-1.149 7.232-1.149 2.643 0 5.074.384 7.269 1.149 2.207.774 4.098 1.883 5.671 3.36 1.58 1.46 2.806 3.262 3.679 5.373.885 2.126 1.321 4.536 1.321 7.249 0 2.72-.436 5.131-1.321 7.25-.873 2.128-2.099 3.927-3.679 5.39-1.573 1.465-3.464 2.563-5.671 3.278-2.195.716-4.626 1.076-7.269 1.076-2.617 0-5.025-.36-7.232-1.076-2.2-.715-4.099-1.813-5.675-3.278-1.581-1.463-2.812-3.262-3.693-5.39-.873-2.119-1.316-4.53-1.316-7.25 0-2.713.443-5.123 1.316-7.249z"/><path d="m465.944 77.781c-4.138-4.447-8.274-8.879-12.412-13.281-.045.895-.079 2.093-.111 3.594-.04 1.497-.059 3.54-.059 6.126 0 .669 0 1.497.024 2.49.017.984.035 2.023.055 3.109.007 1.084.036 2.183.068 3.304.028 1.111.062 2.151.088 3.11.036.956.07 1.793.103 2.505.027.723.089 1.466.089 1.466h-3.415s.14-.906.218-1.768c.072-.863.145-1.892.207-3.092.067-1.193.138-2.495.213-3.9.084-1.402.146-2.808.196-4.21.044-1.403.089-2.776.116-4.12.029-1.339.052-2.53.052-3.581 0-3.067-.011-5.696-.028-7.9-.017-2.208-.068-3.848-.14-4.933h.768c1.947 2.106 4.02 4.361 6.235 6.772 2.211 2.413 4.419 4.786 6.597 7.131 2.182 2.34 4.259 4.563 6.22 6.657 1.959 2.085 3.674 3.864 5.144 5.332v-6.508c0-3.351-.026-6.611-.078-9.79-.044-3.165-.308-8.968-.308-8.968h3.147s-.134 1.754-.219 3.155c-.078 1.406-.156 2.903-.24 4.497-.084 1.596-.148 3.161-.213 4.694-.066 1.529-.101 2.762-.101 3.686v2.865c0 1.088.005 2.222.035 3.405.011 1.178.033 2.374.05 3.568.016 1.2.032 2.306.055 3.348.019 1.034.031 1.94.031 2.703v1.578h-.672c-3.669-4.239-7.574-8.589-11.715-13.044"/><path d="m174.301 130.518c.825 0 1.689.017 2.581.062.893.032 1.756.05 2.584.05.893 0 1.786-.013 2.679-.028.893-.017 1.789-.039 2.68-.084l-5.311-12.154zm21.192 14.881h-5.073s-.523-1.628-.907-2.654c-.381-1.04-.805-2.126-1.267-3.249-.465-1.136-.935-2.286-1.414-3.444-.477-1.158-.925-2.274-1.336-3.32-1.022-.042-2.061-.065-3.113-.092-1.05-.01-2.105-.024-3.155-.024-.988 0-1.962.014-2.92.024-.954.027-1.929.05-2.916.092-1.019 2.479-1.946 4.851-2.775 7.095-.831 2.248-1.867 5.572-1.867 5.572h-3.539s5.104-11.151 7.559-16.665c2.455-5.527 4.927-11.144 7.415-16.857h.911c.764 1.852 1.592 3.859 2.486 6.013.892 2.157 1.799 4.329 2.724 6.537.923 2.2 1.853 4.385 2.778 6.563.921 2.167 1.792 4.185 2.605 6.05.814 1.87 1.548 3.534 2.202 5.003.653 1.468 1.602 3.356 1.602 3.356z"/><path d="m215.791 132.961c-4.143-4.448-8.291-8.877-12.437-13.275-.036.888-.076 2.084-.111 3.587-.037 1.501-.054 3.541-.054 6.12 0 .67.005 1.498.019 2.49.019.996.035 2.028.05 3.112.017 1.081.04 2.192.073 3.301.028 1.116.062 2.159.095 3.115.034.959.066 1.796.093 2.507.033.716.098 1.463.098 1.463h-3.427s.135-.913.216-1.77c.078-.858.155-1.894.214-3.088.066-1.2.136-2.496.216-3.904.079-1.398.142-2.804.195-4.205.047-1.408.084-2.78.117-4.12.034-1.339.047-2.535.047-3.586 0-3.064-.008-5.698-.028-7.902-.017-2.197-.064-3.837-.136-4.929h.763c1.95 2.108 4.031 4.36 6.248 6.772 2.22 2.408 4.423 4.788 6.61 7.13 2.186 2.349 4.262 4.565 6.229 6.658 1.962 2.087 3.675 3.87 5.149 5.335v-6.508c0-3.352-.026-6.614-.076-9.788-.049-3.169-.314-8.973-.314-8.973h3.152s-.136 1.749-.215 3.153c-.082 1.408-.165 2.91-.244 4.506-.082 1.588-.154 3.159-.218 4.686-.062 1.53-.096 2.761-.096 3.69v2.866c0 1.093.012 2.22.027 3.401.022 1.179.037 2.369.054 3.569.024 1.192.037 2.309.057 3.343.02 1.041.028 1.939.028 2.707v1.576h-.669c-3.668-4.239-7.575-8.583-11.725-13.039"/><path d="m241.254 143.314c.67.158 1.579.273 2.73.358 1.148.083 2.327.12 3.539.12 1.755 0 3.511-.205 5.266-.625 1.754-.414 3.325-1.202 4.713-2.354 1.387-1.149 2.52-2.723 3.397-4.725.878-1.998 1.315-4.573 1.315-7.741 0-2.782-.341-5.071-1.028-6.871-.685-1.784-1.626-3.202-2.823-4.237-1.196-1.046-2.623-1.762-4.281-2.161-1.663-.397-3.48-.594-5.457-.594-1.435 0-2.777.041-4.019.14-1.246.098-2.363.203-3.352.332-.09 1.537-.159 3.145-.204 4.824-.048 1.682-.072 3.382-.072 5.113v8.246c0 3.453.092 6.843.276 10.175zm-4.321-24.624c-.081-2.023-.172-4.092-.269-6.201 1.211.072 2.419.135 3.614.195 1.197.05 6.033.035 7.231-.06 1.192-.095 2.402-.135 3.614-.135 2.805 0 5.21.368 7.203 1.099 1.993.735 3.628 1.78 4.904 3.142 1.274 1.351 2.212 3.011 2.8 4.976.594 1.967.887 4.18.887 6.641 0 3.19-.548 5.878-1.648 8.067-1.103 2.184-2.507 3.95-4.217 5.291-1.704 1.344-3.589 2.298-5.649 2.855-2.058.552-4.028.839-5.909.839-1.087 0-2.156-.025-3.209-.061-1.052-.032-2.118-.052-3.207-.052-1.085 0-2.151 0-3.205 0s-2.128.035-3.209.113c.097-1.982.188-4.002.269-6.036.081-2.051.123-4.122.123-6.224v-8.246c0-2.106-.042-4.174-.123-6.203z"/><path d="m310.059 144.259c-.618.301-1.368.568-2.247.816-.876.238-1.857.448-2.939.64-1.087.189-2.217.285-3.399.285-2.519 0-4.849-.358-6.982-1.072-2.139-.715-3.981-1.806-5.532-3.282-1.548-1.466-2.759-3.262-3.642-5.38-.879-2.124-1.318-4.537-1.318-7.249 0-2.715.439-5.132 1.318-7.251.883-2.126 2.11-3.921 3.689-5.386 1.582-1.47 3.474-2.588 5.678-3.352 2.194-.769 4.622-1.151 7.267-1.151 2.105 0 4.029.213 5.765.646 1.738.433 3.278.952 4.617 1.558-.256.444-.909 3.222-1.006 3.733l-.286.096c-.319-.385-.763-.816-1.337-1.295-.579-.478-1.244-.939-2.012-1.387-.767-.444-1.625-.823-2.583-1.121-.957-.305-2.01-.462-3.158-.462-1.883 0-3.628.307-5.238.916-1.612.614-3.011 1.535-4.211 2.799-1.191 1.258-2.127 2.86-2.795 4.792-.669 1.932-1.005 4.22-1.005 6.869 0 2.655.336 4.941 1.005 6.882.668 1.928 1.604 3.524 2.795 4.786 1.2 1.267 2.599 2.192 4.211 2.796 1.61.606 3.355.913 5.238.913 1.148 0 2.209-.139 3.183-.427.971-.294 1.867-.637 2.677-1.041.815-.402 1.55-.833 2.203-1.301.652-.461 1.2-.874 1.65-1.226l.192.191-.432 2.823c-.288.255-.742.534-1.366.842"/><path d="m343.744 118.702c-.079-2.031-.269-6.213-.269-6.213h4.701s-.184 4.178-.261 6.201c-.084 2.029-.125 4.097-.125 6.203v8.246c0 2.102.041 4.173.125 6.224.077 2.034.261 6.036.261 6.036h-4.701s.19-3.981.269-6.022c.078-2.045.123-4.111.123-6.22v-4.298c-1.72-.033-3.389-.067-4.994-.078-1.607-.02-3.27-.036-4.99-.036-1.719 0-3.386.016-4.994.036-1.601.011-3.27.045-4.989.078v4.298c0 2.109.037 4.175.121 6.22.081 2.041.266 6.022.266 6.022h-4.706s.19-4.002.268-6.036c.078-2.051.123-4.122.123-6.224v-8.246c0-2.106-.045-4.174-.123-6.203-.078-2.023-.268-6.201-.268-6.201h4.706s-.185 4.182-.266 6.213c-.084 2.03-.121 4.106-.121 6.21v1.68c1.719.035 3.388.078 4.989.106 1.608.044 3.275.058 4.994.058 1.72 0 3.383-.014 4.99-.058 1.605-.028 3.274-.071 4.994-.106v-1.68c0-2.104-.045-4.18-.123-6.21"/><path d="m357.868 118.618c-.078-2.033-.165-4.093-.269-6.129 1.434.072 2.859.135 4.278.195 1.411.05 2.839.08 4.272.08 1.434 0 2.856-.03 4.256-.08 1.406-.06 4.261-.195 4.261-.195v2.874s-1.954-.122-2.798-.183c-.846-.072-1.738-.122-2.677-.187-.948-.062-1.972-.12-3.092-.166-1.113-.043-2.457-.068-4.015-.068-.027 1.013-.067 1.989-.105 2.917-.042.922-.062 1.969-.062 3.151 0 1.243.006 2.459.027 3.639.018 1.178.03 2.073.03 2.676 1.404 0 2.664-.017 3.778-.039 1.121-.042 2.139-.077 3.064-.122.917-.05 1.773-.095 2.557-.15.781-.044 2.23-.161 2.23-.161v2.919s-1.804-.178-2.902-.24c-1.096-.065-2.199-.105-3.302-.116-1.092-.016-2.133-.038-3.104-.052-.977-.018-1.744-.025-2.321-.025 0 .288-.012.601-.03.939-.021.333-.027.753-.027 1.27v4.742c0 1.821.006 3.32.027 4.5.018 1.187.047 2.082.086 2.685h3.342c1.221 0 2.401-.017 3.571-.075 1.158-.044 2.257-.1 3.298-.191 1.037-.081 2.698-.364 2.698-.364v2.737s-2.853-.113-4.276-.113-2.862 0-4.334 0c-1.461 0-2.917 0-4.355 0-1.44 0-2.9.035-4.375.113.104-2.046.191-4.083.269-6.114.085-2.026.117-4.09.117-6.204v-8.24c0-2.105-.032-4.18-.117-6.223"/><path d="m383.469 118.69c-.088-2.023-.269-6.201-.269-6.201h4.702s-.192 4.178-.27 6.201c-.073 2.029-.117 4.104-.117 6.209 0 4.023.017 7.505.056 10.468.04 2.949.073 5.588.112 7.925 2.262 0 4.435-.017 6.501-.075 2.075-.044 6.701-.555 6.701-.555v2.737s-2.932-.113-4.403-.113c-1.465 0-2.931 0-4.399 0-1.528 0-3.011 0-4.434 0-1.422 0-2.911.035-4.449.113.098-1.982.181-4.002.269-6.036.077-2.051.119-4.122.119-6.224v-8.246c0-2.106-.042-4.174-.119-6.203"/><path d="m406.871 140.895c.425.591.957 1.12 1.573 1.601.626.478 1.355.875 2.188 1.176.824.299 1.748.453 2.772.453 1.054 0 2.004-.187 2.85-.55.851-.368 1.562-.862 2.156-1.487.587-.621 1.042-1.354 1.364-2.202.319-.842.478-1.744.478-2.699 0-1.461-.381-2.631-1.131-3.493-.745-.859-1.684-1.576-2.8-2.15-1.125-.576-2.322-1.103-3.616-1.583-1.3-.478-2.503-1.072-3.622-1.792-1.126-.72-2.051-1.63-2.801-2.751-.756-1.113-1.125-2.61-1.125-4.494 0-1.343.237-2.56.711-3.66.469-1.095 1.164-2.055 2.066-2.852.908-.798 1.993-1.417 3.269-1.861 1.279-.444 2.71-.674 4.306-.674 1.53 0 2.855.186 3.97.56 1.12.352 2.151.929 3.105 1.689-.282.543-1.096 3.095-1.285 4.021h-.578c-.163-.449-.369-.934-.642-1.456-.276-.522-.646-1.015-1.104-1.463-.46-.444-1.01-.823-1.651-1.121-.639-.305-1.401-.462-2.291-.462-.895 0-1.713.147-2.464.436-.747.293-1.404.689-1.97 1.225-.548.515-.979 1.152-1.282 1.882-.302.734-.46 1.541-.46 2.403 0 1.489.376 2.676 1.126 3.534.75.868 1.684 1.587 2.805 2.176 1.12.593 2.324 1.123 3.623 1.585 1.288.463 2.496 1.026 3.617 1.695 1.119.663 2.049 1.53 2.799 2.584.751 1.048 1.126 2.459 1.126 4.211 0 1.473-.258 2.856-.79 4.166-.518 1.308-1.288 2.448-2.288 3.419-1.004.977-2.231 1.722-3.681 2.245-1.455.533-3.101.794-4.943.794-1.981 0-3.588-.261-4.811-.794-1.232-.526-2.254-1.127-3.09-1.806.293-.726.818-3.331.913-4.255h.577c.258.581.601 1.155 1.031 1.75"/><path d="m431.444 118.618c-.078-2.033-.168-4.093-.263-6.129 1.422.072 2.844.135 4.261.195 1.41.05 2.843.08 4.265.08 1.433 0 2.857-.03 4.256-.08 1.398-.06 4.25-.195 4.25-.195v2.874s-1.948-.122-2.795-.183c-.839-.072-1.741-.122-2.68-.187-.936-.062-1.962-.12-3.075-.166-1.115-.043-2.447-.068-4.017-.068-.021 1.013-.064 1.989-.099 2.917-.04.922-.061 1.969-.061 3.151 0 1.243.007 2.459.028 3.639.018 1.178.022 2.073.022 2.676 1.406 0 2.662-.017 3.773-.039 1.12-.042 2.136-.077 3.06-.122.923-.05 1.774-.095 2.557-.15.778-.044 2.215-.161 2.215-.161v2.919s-1.792-.178-2.882-.24c-1.109-.065-2.2-.105-3.299-.116-1.094-.016-2.126-.038-3.105-.052-.975-.018-1.741-.025-2.319-.025 0 .288-.004.601-.022.939-.021.333-.028.753-.028 1.27v4.742c0 1.821.007 3.32.028 4.5.018 1.187.045 2.082.084 2.685h3.336c1.211 0 2.402-.017 3.562-.075 1.161-.044 2.262-.1 3.292-.191 1.041-.081 2.701-.364 2.701-.364v2.737s-2.857-.113-4.274-.113-2.854 0-4.322 0c-1.461 0-2.918 0-4.357 0-1.433 0-2.882.035-4.355.113.095-2.046.185-4.083.263-6.114.078-2.026.118-4.09.118-6.204v-8.24c0-2.105-.04-4.18-.118-6.223"/><path d="m460.883 130.518c.823 0 1.684.017 2.575.062.883.032 1.747.05 2.582.05.883 0 1.782-.013 2.67-.028.895-.017 1.785-.039 2.675-.084l-5.302-12.154zm21.175 14.881h-5.078s-.522-1.628-.909-2.654c-.384-1.04-.805-2.126-1.264-3.249-.466-1.136-.935-2.286-1.412-3.444-.478-1.158-.926-2.274-1.343-3.32-1.014-.042-2.055-.065-3.107-.092-1.042-.01-2.101-.024-3.141-.024-.996 0-1.967.014-2.924.024-.952.027-1.921.05-2.911.092-1.019 2.479-1.942 4.851-2.765 7.095-.833 2.248-1.864 5.572-1.864 5.572h-3.533s5.09-11.151 7.548-16.665c2.451-5.527 4.916-11.144 7.395-16.857h.911c.762 1.852 1.591 3.859 2.477 6.013.9 2.157 1.802 4.329 2.727 6.537.925 2.2 1.846 4.385 2.776 6.563.925 2.167 1.798 4.185 2.604 6.05.817 1.87 1.55 3.534 2.201 5.003.655 1.468 1.612 3.356 1.612 3.356z"/><path d="m170.355 18.504c-.451 0-.922 0-1.418.011-.493.02-.985.033-1.48.065-.494.025-.966.057-1.429.095-.455.034-1.231.14-1.231.14v-1.633s2.256.051 3.351.072c1.089.031 2.2.034 3.34.034 1.136 0 2.248-.003 3.34-.034 1.091-.021 3.35-.072 3.35-.072v1.633s-.775-.106-1.234-.14c-.459-.038-.935-.07-1.428-.095-.493-.032-.988-.045-1.48-.065-.494-.011-.967-.011-1.415-.011-.053 1.787-.078 3.581-.078 5.386v4.469c0 1.14.023 2.272.068 3.381.041 1.106.092 2.199.147 3.276-.397-.04-2.147-.04-2.544 0 .05-1.077.095-2.17.134-3.276.04-1.109.06-2.241.06-3.381v-4.469c0-1.805-.02-3.599-.053-5.386"/><path d="m194.309 20.541c-.048-1.094-.098-2.216-.154-3.359.226.032 2.321.032 2.545 0-.048 1.143-.093 2.265-.135 3.359-.039 1.102-.059 2.217-.059 3.361v4.468c0 1.136.02 2.267.059 3.378.042 1.103.087 2.195.135 3.268-.398-.04-2.145-.04-2.545 0 .056-1.077.106-2.165.154-3.276.045-1.103.067-2.234.067-3.37v-2.342c-.933-.019-1.836-.032-2.707-.038-.875-.014-1.778-.02-2.712-.02-.933 0-1.84.006-2.711.02-.872.006-1.775.019-2.709.038v2.342c0 1.136.019 2.267.058 3.37.042 1.111.087 2.199.135 3.276-.397-.04-2.148-.04-2.546 0 .056-1.073.108-2.165.155-3.268.044-1.111.068-2.242.068-3.378v-4.468c0-1.144-.024-2.259-.068-3.361-.047-1.094-.155-3.359-.155-3.359h2.546s-.093 2.265-.135 3.359c-.039 1.102-.058 2.217-.058 3.361v.907c.934.02 1.837.04 2.709.059.871.011 1.778.025 2.711.025.934 0 1.837-.014 2.712-.025.871-.019 1.774-.039 2.707-.059v-.907c0-1.144-.022-2.259-.067-3.361"/><path d="m201.638 20.501c-.046-1.108-.096-2.216-.151-3.319.783.032 1.565.051 2.338.072.774.031 1.55.034 2.328.034.781 0 1.551-.003 2.313-.034.764-.021 1.531-.04 2.312-.072-.056.255-.056 1.289 0 1.543-.557-.036-1.062-.069-1.52-.107-.46-.038-.943-.077-1.456-.114-.51-.033-1.069-.068-1.675-.097-.603-.025-1.332-.036-2.176-.036-.023.552-.045 1.092-.071 1.587-.028.506-.043 1.081-.043 1.729 0 .673.003 1.337.015 1.98.008.637.014 1.122.014 1.456.761 0 1.441-.006 2.05-.027.61-.02 1.161-.037 1.662-.064.502-.024.966-.051 1.388-.075.429-.025.826-.06 1.21-.098-.053.264-.053 1.329 0 1.59-.451-.049-.974-.093-1.571-.134-.599-.032-1.194-.05-1.794-.061-.597-.009-1.159-.02-1.688-.029-.526-.005-.949-.011-1.257-.011 0 .159-.006.325-.014.504-.012.183-.015.41-.015.696v2.565c0 .988.003 1.805.015 2.452.008.638.02 1.122.039 1.45h1.819c.657 0 1.305-.013 1.932-.042.636-.024 1.233-.056 1.795-.105.56-.04 1.05-.11 1.467-.198-.036.119-.053 1.306 0 1.48-.779-.04-1.554-.059-2.327-.059-.767 0-1.55 0-2.348 0-.799 0-1.585 0-2.369 0-.78 0-1.572.019-2.373.059.055-1.111.105-2.215.151-3.312.044-1.1.07-2.222.07-3.359v-4.459c0-1.152-.026-2.274-.07-3.385"/><path d="m225.096 25.498c.284.02.601.02.947.02.535 0 1.091-.056 1.668-.18.581-.121 1.109-.33 1.596-.63.482-.307.882-.716 1.2-1.224.324-.513.48-1.158.48-1.937 0-.677-.124-1.231-.373-1.671-.248-.442-.576-.791-.968-1.053-.4-.262-.831-.434-1.299-.538-.465-.094-.924-.139-1.372-.139-.604 0-1.108.011-1.505.04-.399.024-.731.055-1.006.09-.036.956-.07 1.9-.103 2.831-.036.939-.054 1.872-.054 2.804v1.48c.241.05.502.09.789.107zm-2.989-4.957c-.042-1.094-.081-2.216-.135-3.359.504.032 3.95.09 4.435.051.487-.039.979-.051 1.478-.051.729 0 1.422.072 2.076.206.657.139 1.236.369 1.729.689.492.318.882.738 1.167 1.257.283.523.429 1.167.429 1.945 0 .832-.191 1.552-.561 2.145-.37.595-.823 1.091-1.363 1.48-.531.393-1.109.692-1.725.906-.612.218-1.17.36-1.672.431.209.259.497.618.861 1.091.358.465.766.981 1.219 1.544.447.561.917 1.148 1.398 1.761.488.619.954 1.206 1.406 1.766.447.57.87 1.082 1.271 1.546.399.469.718.819.963 1.067-.264-.04-2.823-.04-3.063 0-.264-.364-.658-.913-1.187-1.635-.523-.728-1.109-1.507-1.752-2.336-.642-.836-1.293-1.665-1.96-2.481-.672-.818-1.283-1.522-1.834-2.089h-.994v1.895c0 1.136.029 2.267.071 3.37.044 1.111.1 2.199.153 3.276-.394-.04-2.146-.04-2.545 0 .054-1.073.093-2.165.135-3.268.04-1.111.061-2.242.061-3.378v-4.468c0-1.144-.021-2.259-.061-3.361z"/><path d="m253.071 22.417c-.363-1.05-.873-1.908-1.517-2.59-.653-.678-1.417-1.19-2.29-1.521-.879-.325-1.828-.493-2.849-.493-1.006 0-1.946.168-2.823.493-.87.331-1.634.843-2.287 1.521-.649.682-1.156 1.54-1.519 2.59-.365 1.046-.546 2.291-.546 3.718 0 1.438.181 2.678.546 3.729.363 1.041.87 1.911 1.519 2.592.653.675 1.417 1.187 2.287 1.518.877.328 1.817.488 2.823.488 1.021 0 1.97-.16 2.849-.488.873-.331 1.637-.843 2.29-1.518.644-.681 1.154-1.551 1.517-2.592.366-1.051.549-2.291.549-3.729 0-1.427-.183-2.672-.549-3.718zm-15.659-.211c.475-1.147 1.142-2.119 2.004-2.918.856-.797 1.877-1.405 3.077-1.819 1.194-.414 2.502-.62 3.922-.62 1.438 0 2.757.206 3.952.62 1.196.414 2.222 1.022 3.079 1.819.857.799 1.523 1.771 1.999 2.918.479 1.146.717 2.457.717 3.929 0 1.471-.238 2.786-.717 3.934-.476 1.148-1.142 2.125-1.999 2.917-.857.797-1.883 1.392-3.079 1.782-1.195.387-2.514.582-3.952.582-1.42 0-2.728-.195-3.922-.582-1.2-.39-2.221-.985-3.077-1.782-.862-.792-1.529-1.769-2.004-2.917-.476-1.148-.717-2.463-.717-3.934 0-1.472.241-2.783.717-3.929z"/><path d="m262.528 26.439c-.336-.563-.705-1.188-1.111-1.871-.413-.682-.84-1.405-1.289-2.158-.451-.753-.878-1.467-1.285-2.15-.409-.691-.775-1.306-1.105-1.853-.328-.54-.583-.957-.753-1.225.243.032 2.615.032 2.855 0 .784 1.498 1.577 2.979 2.38 4.435s1.654 2.967 2.555 4.547c.401-.628.815-1.31 1.243-2.057.435-.741.868-1.498 1.299-2.281.434-.782.85-1.559 1.247-2.353.399-.784 1.122-2.291 1.122-2.291h2.023s-1.576 2.406-2.236 3.423c-.653 1.027-1.238 1.951-1.736 2.775-.5.835-.946 1.584-1.326 2.25-.379.673-.712 1.271-.984 1.802 0 .647 0 1.329.012 2.05.008.733.022 1.44.036 2.143.018.705.043 1.348.067 1.942.026.605.09 1.449.09 1.449h-2.545s.166-1.991.182-3.268c.017-1.285.026-2.623.026-4.034-.171-.288-.425-.715-.767-1.275"/><path d="m275.391 26.943c.45 0 .919.011 1.402.024.488.02.956.032 1.404.032.486 0 .97-.007 1.455-.012.48-.012.97-.026 1.455-.044l-2.885-6.593zm11.505 8.073c-.242-.04-2.511-.04-2.754 0-.117-.404-.283-.873-.492-1.449-.205-.556-.438-1.144-.687-1.762-.255-.614-.509-1.239-.766-1.87-.258-.638-.501-1.238-.731-1.806-.551-.02-1.115-.034-1.683-.044-.571-.006-2.78-.006-3.299 0-.519.01-1.045.024-1.586.044-.552 1.353-1.059 2.634-1.506 3.86-.451 1.226-1.011 3.027-1.011 3.027h-1.923s2.769-6.039 4.105-9.031c1.33-2.994 2.673-6.039 4.021-9.136h.495c.419 1.003.867 2.089 1.351 3.257.485 1.166.981 2.348 1.481 3.541.501 1.195 1.002 2.381 1.504 3.555.502 1.177.973 2.267 1.418 3.287.44 1.01.84 1.909 1.191 2.706.354.8.646 1.406.872 1.821z"/><path d="m289.94 20.541c-.045-1.094-.157-3.359-.157-3.359h2.548s-.093 2.265-.135 3.359c-.042 1.102-.062 2.227-.062 3.37 0 2.175.012 4.069.029 5.673.019 1.601.039 3.033.058 4.297 1.229 0 2.405-.013 3.53-.042 1.125-.024 3.637-.303 3.637-.303v1.48s-1.594-.059-2.39-.059c-.798 0-1.594 0-2.389 0-.834 0-1.635 0-2.407 0-.771 0-1.578.019-2.419.059.058-1.073.112-2.165.157-3.268.044-1.111.067-2.242.067-3.378v-4.468c0-1.144-.023-2.259-.067-3.361"/><path d="m312.651 31.378c.037.861.073 1.736.109 2.61.33.04.721.071 1.169.095.449.031.906.045 1.377.045.551 0 1.089-.088 1.596-.289.51-.184.954-.469 1.338-.842.378-.36.68-.823.907-1.372.224-.542.336-1.162.336-1.85 0-.752-.135-1.36-.403-1.839-.269-.469-.656-.849-1.158-1.109-.5-.268-1.104-.454-1.808-.562-.697-.101-1.483-.155-2.348-.155h-1.17v2.651c0 .873.019 1.748.055 2.617zm3.153-6.414c.595-.122 1.128-.327 1.597-.614.466-.28.842-.665 1.128-1.137.285-.47.425-1.073.425-1.8 0-.708-.129-1.278-.385-1.696-.263-.422-.59-.754-.987-.982-.395-.24-.846-.399-1.346-.467-.501-.082-1.003-.122-1.501-.122-.448 0-.829.011-1.145.04-.309.024-.585.055-.83.09-.036.827-.072 1.651-.109 2.463-.036.813-.055 1.632-.055 2.464v1.939h1.401c.606 0 1.211-.059 1.807-.178zm-5.401-4.463c-.038-1.108-.08-2.216-.128-3.319.448.032.904.051 1.372.072.47.031 2.286.018 2.754-.021.465-.039.925-.051 1.37-.051.751 0 1.449.051 2.105.167.66.108 1.237.304 1.741.599.501.282.901.662 1.192 1.155.291.485.445 1.086.445 1.804 0 1.285-.403 2.296-1.212 3.015-.807.726-1.856 1.245-3.157 1.54v.044c1.535.069 2.751.439 3.637 1.108.896.685 1.336 1.765 1.336 3.257 0 .971-.195 1.78-.595 2.438-.398.664-.913 1.195-1.556 1.605-.635.405-1.341.687-2.114.854-.763.164-1.532.248-2.293.248-.408 0-.831-.015-1.255-.025-.421-.026-.842-.034-1.256-.034s-.834 0-1.258 0-.844.019-1.256.059c.048-1.111.09-2.215.128-3.312.046-1.1.066-2.222.066-3.359v-4.459c0-1.152-.02-2.274-.066-3.385z"/><path d="m340.983 22.417c-.371-1.05-.872-1.908-1.523-2.59-.644-.678-1.417-1.19-2.285-1.521-.873-.325-1.825-.493-2.855-.493-1.002 0-1.938.168-2.812.493-.879.331-1.639.843-2.296 1.521-.642.682-1.153 1.54-1.515 2.59-.365 1.046-.549 2.291-.549 3.718 0 1.438.184 2.678.549 3.729.362 1.041.873 1.911 1.515 2.592.657.675 1.417 1.187 2.296 1.518.874.328 1.81.488 2.812.488 1.03 0 1.982-.16 2.855-.488.868-.331 1.641-.843 2.285-1.518.651-.681 1.152-1.551 1.523-2.592.359-1.051.543-2.291.543-3.729 0-1.427-.184-2.672-.543-3.718zm-15.661-.211c.473-1.147 1.142-2.119 1.999-2.918.862-.797 1.887-1.405 3.08-1.819 1.198-.414 2.503-.62 3.919-.62 1.444 0 2.76.206 3.96.62 1.191.414 2.221 1.022 3.078 1.819.855.799 1.523 1.771 2.004 2.918.471 1.146.713 2.457.713 3.929 0 1.471-.242 2.786-.713 3.934-.481 1.148-1.149 2.125-2.004 2.917-.857.797-1.887 1.392-3.078 1.782-1.2.387-2.516.582-3.96.582-1.416 0-2.721-.195-3.919-.582-1.193-.39-2.218-.985-3.08-1.782-.857-.792-1.526-1.769-1.999-2.917-.476-1.148-.717-2.463-.717-3.934 0-1.472.241-2.783.717-3.929z"/><path d="m350.367 25.498c.28.02.598.02.946.02.532 0 1.092-.056 1.674-.18.571-.121 1.103-.33 1.591-.63.481-.307.883-.716 1.204-1.224.317-.513.475-1.158.475-1.937 0-.677-.124-1.231-.377-1.671-.246-.442-.563-.791-.963-1.053-.402-.262-.832-.434-1.298-.538-.469-.094-.924-.139-1.378-.139-.603 0-1.102.011-1.498.04-.4.024-.736.055-1.01.09-.033.956-.066 1.9-.1 2.831-.04.939-.055 1.872-.055 2.804v1.48c.239.05.505.09.789.107zm-2.99-4.957c-.047-1.094-.084-2.216-.128-3.359.501.032.99.051 1.471.072.487.031 2.475.018 2.962-.021.481-.039.979-.051 1.473-.051.728 0 1.423.072 2.077.206.66.139 1.239.369 1.73.689.493.318.879.738 1.165 1.257.285.523.424 1.167.424 1.945 0 .832-.178 1.552-.554 2.145-.374.595-.829 1.091-1.362 1.48-.536.393-1.113.692-1.727.906-.617.218-1.17.36-1.669.431.207.259.486.618.851 1.091.365.465.772.981 1.227 1.544.446.561.912 1.148 1.398 1.761.486.619.946 1.206 1.402 1.766.446.57.873 1.082 1.276 1.546.396.469.71.819.957 1.067-.265-.04-2.821-.04-3.063 0-.263-.364-.652-.913-1.181-1.635-.527-.728-1.116-1.507-1.753-2.336-.64-.836-1.293-1.665-1.965-2.481-.667-.818-1.283-1.522-1.833-2.089h-.989v1.895c0 1.136.022 2.267.067 3.37.05 1.111.156 3.276.156 3.276h-2.54s.081-2.165.128-3.268c.044-1.111.062-2.242.062-3.378v-4.468c0-1.144-.018-2.259-.062-3.361z"/><path d="m377.951 22.417c-.363-1.05-.872-1.908-1.517-2.59-.649-.678-1.417-1.19-2.288-1.521-.872-.325-1.827-.493-2.851-.493-1.003 0-1.942.168-2.822.493-.879.331-1.64.843-2.286 1.521-.647.682-1.158 1.54-1.526 2.59-.366 1.046-.544 2.291-.544 3.718 0 1.438.178 2.678.544 3.729.368 1.041.879 1.911 1.526 2.592.646.675 1.407 1.187 2.286 1.518.88.328 1.819.488 2.822.488 1.024 0 1.979-.16 2.851-.488.871-.331 1.639-.843 2.288-1.518.645-.681 1.154-1.551 1.517-2.592.365-1.051.547-2.291.547-3.729 0-1.427-.182-2.672-.547-3.718zm-15.659-.211c.476-1.147 1.143-2.119 2-2.918.857-.797 1.887-1.405 3.079-1.819 1.19-.414 2.503-.62 3.924-.62 1.439 0 2.756.206 3.953.62 1.198.414 2.223 1.022 3.08 1.819.855.799 1.52 1.771 1.997 2.918.482 1.146.719 2.457.719 3.929 0 1.471-.237 2.786-.719 3.934-.477 1.148-1.142 2.125-1.997 2.917-.857.797-1.882 1.392-3.08 1.782-1.197.387-2.514.582-3.953.582-1.421 0-2.734-.195-3.924-.582-1.192-.39-2.222-.985-3.079-1.782-.857-.792-1.524-1.769-2-2.917-.481-1.148-.717-2.463-.717-3.934 0-1.472.236-2.783.717-3.929z"/><path d="m397.906 19.927c-.018-1.326-.067-2.248-.139-2.745.196.032 1.555.072 1.846 0-.049.602-.099 1.322-.15 2.166-.05.841-.096 1.735-.13 2.698-.038.962-.072 1.946-.105 2.957-.033 1.012-.061 1.996-.077 2.947-.019 1.163-.198 2.195-.534 3.107-.34.922-.817 1.705-1.445 2.343-.621.64-1.386 1.123-2.295 1.451-.907.324-1.949.499-3.125.499-2.596 0-4.484-.591-5.659-1.765-1.176-1.182-1.763-3.036-1.763-5.584 0-.808.022-1.533.066-2.17.051-.624.068-1.272.068-1.929 0-1.452-.017-2.743-.055-3.865-.034-1.123-.112-2.855-.112-2.855h2.467s-.07.873-.105 1.493c-.03.613-.069 1.311-.101 2.089-.034.778-.058 1.621-.079 2.514-.018.899-.021 1.839-.021 2.808 0 .588.003 1.201.021 1.825.021.632.079 1.256.18 1.854.112.598.273 1.166.51 1.71.239.538.57 1.019 1 1.426.432.405.982.729 1.635.958.655.239 1.475.354 2.443.354.958 0 1.751-.135 2.4-.418.644-.266 1.175-.639 1.592-1.088.425-.449.75-.967.984-1.559.223-.586.398-1.198.499-1.837.106-.646.166-1.285.184-1.93.016-.639.029-1.227.029-1.76 0-2.465-.013-4.36-.029-5.694"/><path d="m417.836 19.423c-.39-.308-.825-.582-1.308-.818-.469-.234-.996-.428-1.578-.567-.582-.147-1.203-.225-1.865-.225-1.081 0-2.078.168-3.001.493-.93.331-1.742.843-2.424 1.521-.688.682-1.226 1.54-1.624 2.59-.38 1.046-.578 2.282-.578 3.718 0 1.259.175 2.403.517 3.424.347 1.014.857 1.877 1.524 2.579.669.696 1.483 1.232 2.445 1.615.964.381 2.05.574 3.269.574.366 0 .745-.019 1.143-.06.392-.03.782-.088 1.157-.153.373-.068.717-.151 1.045-.255.317-.106.592-.229.817-.364.015-.522.032-1.039.043-1.556.006-.517.011-1.047.011-1.576 0-.608-.011-1.213-.039-1.82-.028-.599-.1-1.735-.1-1.735h2.377s-.064 1.028-.082 1.889c-.017.85-.028 1.986-.028 3.382 0 .344.005.697.011 1.048.012.358.017.701.017 1.052-.371.14-.812.283-1.359.427-.548.147-1.132.269-1.749.359-.614.101-1.232.19-1.847.261-.617.078-1.175.124-1.672.124-1.546 0-2.94-.195-4.185-.558-1.237-.374-2.288-.953-3.158-1.731-.862-.778-1.538-1.745-2.004-2.902-.462-1.161-.699-2.503-.699-4.024 0-1.472.242-2.783.727-3.929.487-1.147 1.171-2.119 2.054-2.918.886-.797 1.96-1.405 3.215-1.819 1.26-.414 2.66-.62 4.182-.62.88 0 1.669.046 2.358.141.683.096 1.287.224 1.821.379.526.158.988.324 1.387.498.396.176.757.343 1.065.495-.136.239-.56 1.667-.594 1.998h-.31c-.267-.312-.587-.623-.981-.937"/><path d="m437.195 20.541c-.045-1.094-.158-3.359-.158-3.359h2.544s-.1 2.265-.134 3.359c-.041 1.102-.065 2.217-.065 3.361v4.468c0 1.136.024 2.267.065 3.378.034 1.103.134 3.268.134 3.268h-2.544s.113-2.165.158-3.276c.044-1.103.065-2.234.065-3.37v-2.342c-.93-.019-1.837-.032-2.697-.038-.879-.014-1.787-.02-2.716-.02-.937 0-1.83.006-2.704.02-.872.006-1.775.019-2.704.038v2.342c0 1.136.018 2.267.056 3.37.047 1.111.133 3.276.133 3.276h-2.534s.106-2.165.151-3.268c.042-1.111.067-2.242.067-3.378v-4.468c0-1.144-.025-2.259-.067-3.361-.045-1.094-.151-3.359-.151-3.359h2.534s-.086 2.265-.133 3.359c-.038 1.102-.056 2.217-.056 3.361v.907c.929.02 1.832.04 2.704.059.874.011 1.767.025 2.704.025.929 0 1.837-.014 2.716-.025.86-.019 1.767-.039 2.697-.059v-.907c0-1.144-.021-2.259-.065-3.361"/><path d="m465.509 22.417c-.372-1.05-.876-1.908-1.524-2.59-.652-.678-1.411-1.19-2.291-1.521-.867-.325-1.819-.493-2.831-.493-1.011 0-1.951.168-2.823.493-.868.331-1.636.843-2.278 1.521-.656.682-1.154 1.54-1.525 2.59-.362 1.046-.541 2.291-.541 3.718 0 1.438.179 2.678.541 3.729.371 1.041.869 1.911 1.525 2.592.642.675 1.41 1.187 2.278 1.518.872.328 1.812.488 2.823.488 1.012 0 1.964-.16 2.831-.488.88-.331 1.639-.843 2.291-1.518.648-.681 1.152-1.551 1.524-2.592.358-1.051.541-2.291.541-3.729 0-1.427-.183-2.672-.541-3.718zm-15.639-.211c.476-1.147 1.142-2.119 2-2.918.85-.797 1.874-1.405 3.072-1.819 1.191-.414 2.498-.62 3.921-.62 1.432 0 2.748.206 3.94.62 1.194.414 2.217 1.022 3.072 1.819.864.799 1.524 1.771 1.999 2.918.477 1.146.714 2.457.714 3.929 0 1.471-.237 2.786-.714 3.934-.475 1.148-1.135 2.125-1.999 2.917-.855.797-1.878 1.392-3.072 1.782-1.192.387-2.508.582-3.94.582-1.423 0-2.73-.195-3.921-.582-1.198-.39-2.222-.985-3.072-1.782-.858-.792-1.524-1.769-2-2.917s-.717-2.463-.717-3.934c0-1.472.241-2.783.717-3.929z"/><path d="m471.878 20.541c-.045-1.094-.092-2.216-.15-3.359.782.032 1.561.051 2.334.072.784.031 1.545.034 2.336.034.772 0 1.561-.003 2.357-.034.799-.021 2.591-.072 2.591-.072v1.558s-1.023-.11-1.684-.16c-.656-.045-1.328-.085-2.01-.109-.684-.03-1.338-.056-1.979-.076-.626-.013-1.146-.024-1.566-.024-.024.611-.033 1.191-.045 1.745-.007.557-.011 1.127-.011 1.681 0 .607.004 1.167.011 1.68.012.515.012 1.053.012 1.606 1.148 0 2.285-.007 3.393-.051 1.119-.039 3.314-.223 3.314-.223v1.564s-.93-.095-1.466-.119c-.543-.02-1.12-.045-1.709-.066-.587-.012-1.181-.024-1.791-.024-.607 0-1.183 0-1.741 0v2.206c0 1.149.021 2.267.065 3.378.042 1.103.085 2.195.131 3.268-.398-.04-2.144-.04-2.542 0 .058-1.073.105-2.165.15-3.268.05-1.111.074-2.242.074-3.378v-4.468c0-1.144-.024-2.259-.074-3.361"/></g><path d="m83.23 121.314c-2.926 3.042-6.391 6.411-9.066 8.967 23.407 1.478 44.631 14.174 44.631 14.174l5.793-9.094s-21.255-10.535-41.358-14.047zm-26.607-.022c-20.191 3.495-41.684 14.069-41.684 14.069l5.589 8.901s22.389-12.542 45.117-13.987c-2.629-2.599-6.073-6.017-9.022-8.983z" stroke="#273971" stroke-width=".914"/><path d="m69.942 88.744c1.67 0 2.858-1.076 2.858-1.076l.83-5.867-1.964.951-1.753-2.291-1.765 2.291-1.955-.951.821 5.867s1.256 1.076 2.928 1.076" fill="#273971"/><path d="m80.435 88.744c1.671 0 2.859-1.076 2.859-1.076l.829-5.867-1.962.951-1.755-2.291-1.765 2.291-1.954-.951.819 5.867s1.258 1.076 2.929 1.076" fill="#273971"/><path d="m59.465 88.744c1.67 0 2.86-1.076 2.86-1.076l.829-5.867-1.964.951-1.753-2.291-1.766 2.291-1.954-.951.822 5.867s1.255 1.076 2.926 1.076" fill="#273971"/><path d="m52.544 90.71h34.798v-12.341h-34.798zm19.938 4.144v1.919h-1.579v1.579h-1.919v-1.579h-1.581v-1.919h1.581v-1.58h1.919v1.58zm4.719 19.041c-.876-5.559-4.027-8.649-5.88-10.023v8.62c-1.205-.045-1.558-.055-2.756 0v-8.629c-1.851 1.369-5.015 4.459-5.893 10.032 0 0-1.535.658-2.837 1.689.527-11.652 10.11-15.674 10.11-15.674s9.566 4.022 10.093 15.674c-1.302-1.031-2.837-1.689-2.837-1.689zm.014 5.185s-3.432-1.671-7.279-1.671c-3.848 0-7.265 1.672-7.265 1.672l-.039-2.765s3.163-1.705 7.375-1.705c4.213 0 7.208 1.709 7.208 1.709zm-26.771-42.816v24.676c0 6.32 1.067 10.724 4.136 13.916 4.086 4.267 15.29 15.283 15.29 15.283s13.142-12.168 16.126-16.477c2.963-4.3 3.221-8.227 3.221-12.722v-24.676z" fill="#273971"/><path d="m61.153 134.643.806 7.896c2.304-.306 4.962-.517 7.911-.517 3.018 0 5.773.234 8.167.565l.808-7.934c-2.753-.389-5.8-.668-8.909-.668-3.032 0-6.036.271-8.783.658zm-12.166 2.668 3.356 7.468s2.71-1.111 7.451-1.922l-1.301-7.794c-5.545.971-9.506 2.248-9.506 2.248zm32.517-2.233-1.307 7.836c4.596.805 7.335 1.865 7.335 1.865l2.947-7.558s-3.685-1.203-8.975-2.143z" stroke="#273971" stroke-width=".914"/><path d="m69.13 1.17s-.87 25.344 0 33.529c.035.321.362.791.808.791.444 0 .761-.401.807-.791.952-8.155 0-33.529 0-33.529 0-.438-.363-.792-.807-.792-.446 0-.808.354-.808.792" fill="#273971"/><path d="m65.301 6.463c-3.542 13.076-3.378 17.2.003 28.842.122.419.569.663.998.544.428-.119.676-.558.555-.978-2.384-8.204-2.382-19.197.003-28.001.115-.423-.142-.856-.572-.968-.431-.112-.872.14-.987.561" fill="#273971"/><path d="m58.928 16.015c-1.342 9.899-1.178 11.617 2.558 20.045.178.402.66.576 1.066.398.407-.18.588-.648.406-1.047-2.427-5.281-3.382-12.806-2.433-19.167.064-.433-.241-.834-.681-.896-.441-.064-.857.234-.916.667" fill="#273971"/><path d="m81.013 16.015c1.341 9.899 1.178 11.617-2.557 20.045-.179.402-.662.576-1.068.398-.406-.18-.587-.648-.404-1.047 2.427-5.281 3.381-12.806 2.433-19.167-.065-.433.241-.834.681-.896.441-.064.856.234.915.667" fill="#273971"/><g fill="#273971" transform="translate(0 5)"><path d="m74.573 1.463c3.542 13.076 3.377 17.2-.004 28.842-.121.419-.568.663-.997.544s-.677-.558-.555-.978c2.384-8.204 2.382-19.197-.003-28.001-.115-.423.142-.856.571-.968.431-.112.874.14.988.561" mask="url(#a)"/><path d="m30.35 55.613c-2.119-1.595-.469-4.026 2.893-4.026.446 0 .922.013 1.415.029-.21 1.691-.558 2.997-.77 3.689-1.523.437-2.891.792-3.538.308zm3.901-14.278c2.982 3.301 3.739 6.799 3.739 9.493 0 1.563-.251 2.844-.469 3.662-.841.054-1.788.291-2.719.554.349-1.263.834-3.513.834-6.236 0-2.267-.349-4.858-1.385-7.473zm-29.833 56.335c-2.648-.096-3.333-7.732.01-7.732s2.365 7.818-.01 7.732zm43.163-18.94c-.425-.794-1.63-2.846-3.905-3.899 1.299-1.196 2.523-1.753 4.553-2.643v-3.039h6.832c-1.091-1.751-2.31-2.688-4.422-2.826-2.949 0-6.299 2.553-11.1 3.578-1.052-4.043-4.379-6.493-4.594-6.665-3.484-2.777-2.742-4.45-1.763-4.903 1.903-.885 7.02-1.28 7.02-1.28s.814-1.514-1.14-2.361c-.223-.096-.468-.156-.731-.187.166-.7.336-1.66.396-2.793 1.859-.035 3.461-.267 4.094-1.081 1.235-1.573.478-4.889-.575-4.533-.926.291-1.529 1.099-4.019.802-.681-2.5-2.138-5.213-4.995-7.689-.147-.128-.364-.132-.516-.011-.152.123-.195.336-.102.507 1.11 2.043 1.713 4.121 1.999 6.077-1.327-.843-1.872-1.977-4.218-3.109-1.927-.936-6.431-.37-6.431-.37-2.154-4.283-10-4.645-10-4.645l1.895 4.645h-7.313c3.048 1.152 2.772 6.002 5.746 6.053 0 0-3.032 2.711-1.158 13.476 2.907 16.699 1.158 23.58-.56 30.526-.701 2.833-2.156 4.053-4.872 4.963 1.673-1.757 1.767-10.156-3.342-10.022-5.013.131-6.274 10.957-.739 12.802-.75 1.817-1.095 3.198.372 5.777 1.882 3.31-.436 6.012-.436 6.012s4.762-.968 4.651-5.501c-.094-3.827-2.878-3.35-2.519-6.063 3.925-.046 5.475-1.183 5.475-1.183s.102 2.711 1.226 6.466c1.432 4.777-4.889 5.932-4.745 8.668.07 1.578 1.997 2.053 5.349 6.549 2.095 2.809 3.79 5.809 3.79 5.809l5.265-2.304c-1.762-4.292-10.99-4.788-6.166-8.714 2.076-1.687 11.044-1.361 9.223-10.865-.639-3.327 6.703-2.514 5.771 4.697-.242 1.879-1.833 3.662-.561 4.582 1.537 1.098 4.106-1.797 9.894 3.76l5.661-1.619c-3.242-5.557-8.646-3.218-9.175-5.511-.523-2.296 6.643-10.677 2.869-15.093-3.871-4.528-9.56-.166-10.223-2.013-.656-1.829 3.613-4.774 6.042-7.104 2.554-2.445 4.05-5.592 4.235-6.308.245-.988 1.419-.309 3.494.588 1.481.641-1.274 5.752-1.52 6.542-.284.909.898 1.317.738 2.376-.408 2.724 3.877 3.906 3.877 3.906s-.483-3.475-.358-4.375c.837-6.054 2.245-9.482 1.731-10.452z" mask="url(#a)"/></g><path d="m133.946 79.701c-2.889.056-5.629 2.078-4.846 7.785 1.033 7.541 8.537 18.446 5.252 19.157-5.363 1.163-3.766-13.573-10.293-20.198-2.076-2.111-.68-4.552-.317-4.522 1.142.181 2.423.088 3.091-1.226.343-.675.13-1.509-.413-2.196.039.017.079.033.12.049 1.531.555 3.107.077 3.522-1.066.277-.767-.039-1.636-.737-2.295 1.603.445 3.174-.104 3.608-1.309.382-1.062-.237-2.299-1.423-3.054 1.875.053 3.446-.959 3.596-2.38.098-.923-.43-1.806-1.315-2.408 1.612-.328 2.801-1.385 2.84-2.67.04-1.468-1.442-2.717-3.394-2.943 1.582-2.03 4.732-7.464 3.181-17.206-.526 2.597-2.675 4.475-2.675 4.475.898-3.247 1.609-7.571-2.123-13.991.783 3.135.302 5.242-1.489 8.49 0 0 1.041-5.952-3.775-11.402 1.01 2.24.674 5.988.078 8.89 0 0-1.532-5.232-5.025-8.194 1.28 9.132.724 13.831-.778 17.061-1.455-2.816-4.765-2.816-2.324-11.463-3.938 1.265-4.417 4.832-4.417 7.355-1.149-.917-2.38-3.523-1.388-6.09-3.443 1.614-2.625 6.825-1.166 7.758-.916-.005-3.56.467-4.58 1.868-1.703 2.338-6.984 3.267-8.111 3.857-1.66.866-1.214 3.177-.894 4.108.337.924.928 1.862 1.8 1.951 1.513.15 3.286.474 4.78 1.622 1.394 1.07 4.483.495 3.906 1.562-.346.641-4.668 2.46-7.811 7.862-1.193 2.057-2.41 3.428-3.102 3.442-3.216.067-6.51-1.514-8.99-.926-1.595.334-2.671 1.558-3.073 2.81l6.929.025v2.586c2.358.84 4.424 1.932 6.303 2.174-2.717.852-5.532 3.221-6.033 4.168-.508.961 1.679 4.404 2.605 11.08.12.875 2.5 4.389 2.5 4.389s1.954-2.01 2.303-3.707c.121-.586-1.064-.847-1.133-1.366-.075-.566.229-.627.21-1.441-.023-.989-2.963-5.187-2.259-6.393.477-.812 3.606-1.97 3.822-.75.837 4.694 5.221 11.034 5.221 11.034-2.705.89-4.866 1.392-5.314 5.424-.417 3.757 3.009 7.994 2.427 11.767-.623 4.042-6.396 3.699-8.599 7.884l4.357 1.239c5.429-6.267 8.733-5.09 10.231-6.164 1.253-.902.067-2.498-.438-4.283-1.51-5.315 3.69-5.919 5.078-5.698 1.928.311.049 4.424 4.295 6.754 2.838 1.556 7.592 3.265 7.713 5.671.203 4.044-4.365 6.476-6.068 11.169l4.031 1.732c1.165-3.344 4.269-8.667 7.539-12.124 1.156-1.227.65-3.586-1.076-5.298-1.719-1.729-2.846-4.284-2.846-6.862 0-2.584 0-2.584 0-2.584s2.408 7.807 8.893 5.677c9.736-3.195-11.295-26.146-2.42-28.683 1.602-.458 2.906 1.615 1.799 5.713-2.235 8.263 7.199 10.467 7.199 10.467-5.594-6.369.11-18.331-8.584-18.163" fill="#273971"/><path d="m114.336 27.165c1.475-1.524 1.665-4.65-2.119-6.267.465 3.4-1.637 6.117-3.88 4.853-4.469-2.21-7.554-.496-9.221 1.646-3.682-5.753-3.715-8.72-1.901-9.901 1.717-1.116 4.285-.414 5.209 2.89 2.694-2.984 2.069-5.322.308-6.335 2.307-2.21.882-3.872 1.993-5.836-2.24.893-3.895-1.387-6.65 1.793-.891-1.3-3.299-2.929-6.512.606 3.449.701 5.111 2.958 3.545 4.554-1.649 1.682-2.199 3.212-2.223 5.714-1.215-.364-1.943-1.214-2.369-2.61-1.092 4.98 1.598 4.228 3.541 7.73.978 1.759 1.538 3.463 1.691 5.093.176 1.851-.109 3.473-.695 4.881-2.265.275-4.408-2.272-3.033-5.22-1.934.872-3.34 2.749-2.125 5.721-2.662-1.961-4.849-1.02-6.155.686 4.284-.895 6.412 4.244 2.512 6.019-1.039.412-1.725.408-2.265.408h-28.108c-.541 0-1.227.004-2.265-.408-3.899-1.775-1.771-6.914 2.513-6.019-1.306-1.706-3.495-2.647-6.156-.686 1.216-2.972-.191-4.849-2.125-5.721 1.375 2.948-.766 5.495-3.032 5.22-.586-1.408-.871-3.03-.696-4.881.154-1.63.716-3.334 1.692-5.093 1.942-3.502 4.633-2.75 3.539-7.73-.425 1.396-1.153 2.246-2.368 2.61-.021-2.502-.572-4.032-2.223-5.714-1.564-1.596.096-3.853 3.546-4.554-3.212-3.535-5.622-1.906-6.512-.606-2.755-3.18-4.409-.9-6.651-1.793 1.114 1.964-.313 3.626 1.992 5.836-1.759 1.013-2.384 3.351.31 6.335.923-3.304 3.493-4.006 5.209-2.89 1.814 1.181 1.781 4.148-1.9 9.901-1.667-2.142-4.753-3.856-9.223-1.646-2.24 1.264-4.345-1.453-3.879-4.853-3.784 1.617-3.595 4.743-2.119 6.267-3.885 1.619-2.237 3.904-3.789 5.754 2.214-.443 3.343 1.434 6.167-.063.414 2.148 2.372 3.501 6.051 1.878-2.309-2.034-3.169-4.762-1.493-5.798 2.402-1.484 7.074-.652 7.664 6.896.903 11.525 9.875 10.482 10.609 18.504 9.666-1.646 11.004 5.896 7.7 6.81-1.64.453-3.278-1.288-2.267-2.982-1.165-.091-2.236.293-2.238 1.532-1.555-.243-2.52.108-3.938.375-2.042.384-3.783-.82-3.402-3.543-3.494 1.71-2.777 4.105-1.571 5.248-3.114 1.432-1.707 3.244-2.915 4.794 1.789-.424 2.765 1.071 5.017-.231.396 1.791 2.035 2.779 4.981 1.35-1.939-1.588-2.403-4.132-.634-4.764 1.9-.677 3.746.336 3.143 3.866 2.764.423 5.854 1.793 6.842 6.883h16.952c.987-5.09 4.076-6.46 6.842-6.883-.605-3.53 1.243-4.543 3.141-3.866 1.77.632 1.305 3.176-.634 4.764 2.949 1.429 4.586.441 4.983-1.35 2.252 1.302 3.227-.193 5.016.231-1.209-1.55.2-3.362-2.915-4.794 1.206-1.143 1.923-3.538-1.572-5.248.383 2.723-1.358 3.927-3.402 3.543-1.419-.267-2.382-.618-3.938-.375-.002-1.239-1.072-1.623-2.238-1.532 1.012 1.694-.628 3.435-2.267 2.982-3.303-.914-1.964-8.456 7.701-6.81.734-8.022 9.708-6.979 10.608-18.504.592-7.548 5.264-8.38 7.664-6.896 1.678 1.036.818 3.764-1.492 5.798 3.678 1.623 5.636.27 6.052-1.878 2.823 1.497 3.952-.38 6.166.063-1.552-1.85.096-4.135-3.789-5.754z" stroke="#273971" stroke-linejoin="round" stroke-width=".914"/><path d="m77.454 38.387 1.214 2.904c2.158-.075 3.483-.272 3.483-.764 0-.578-1.833-1.482-4.697-2.14zm-7.049-.816 1.568 3.748c1.421.006 2.754.016 3.96.013l-1.452-3.471c-1.266-.165-2.638-.271-4.076-.29zm-12.819 2.956c0 .587 1.943.755 4.929.795l-1.126-2.693c-2.339.624-3.803 1.389-3.803 1.898zm6.326-2.446 1.359 3.25c1.231-.004 2.56-.013 3.948-.015l-1.538-3.676c-1.344.085-2.613.24-3.769.441z" fill="#273971"/></g></svg>