<?xml version="1.0" encoding="utf-8"?>
<!-- Generator: Adobe Illustrator 26.3.1, SVG Export Plug-In . SVG Version: 6.00 Build 0)  -->
<svg version="1.1" id="Layer_1" xmlns="http://www.w3.org/2000/svg" xmlns:xlink="http://www.w3.org/1999/xlink" x="0px" y="0px"
	 viewBox="0 0 2000 1000" style="enable-background:new 0 0 2000 1000;" xml:space="preserve">
<style type="text/css">
	.st0{fill:#13211A;}
	.st1{fill:#FFFFFF;}
	.st2{fill:#5F7A75;}
	.st3{fill:#A6D7D9;}
	.st4{fill:none;}
	.st5{fill:#333333;}
</style>
<g>
	<g>
		<g>
			<path class="st0" d="M1901.03,386.56c0.67,0,1.33-0.07,1.97-0.2c4.51-0.9,7.87-4.85,7.87-9.64V259.83c0-2.46-0.92-4.68-2.4-6.4
				l0.12-0.01l-33.52-35.52l-8.67,32.09h-336.8c-2.95,0-5.24,1.31-6.74,3.34c-1.27,1.73-1.99,3.98-1.99,6.49v671.25l-31.29,1.88
				l33.53,35.07c0.14,0.18,0.31,0.33,0.47,0.49l0.33,0.35l0.01-0.02c1.45,1.34,3.36,2.18,5.69,2.18h371.44
				c1.52,0,2.94-0.37,4.22-0.97c3.32-1.57,5.62-4.92,5.62-8.86V844.3c0-2.96-1.31-5.56-3.35-7.36l-32.45-34.38l-8.63,31.91h-198.48
				h-2.9V673.88h183.54c2.89,0,5.15-1.25,6.65-3.21c1.34-1.74,2.09-4.05,2.09-6.62V544.97c0-2.93-0.97-5.51-2.68-7.31l-33.34-35.32
				l-8.87,32.8H1666.9h-1.84V386.56H1901.03z"/>
			<path class="st0" d="M1393.55,252.05l-31.83-34.07l-8.65,32.01h-91.13c-2.91,0-5.49,1.27-7.29,3.26
				c-1.57,1.74-2.55,4.03-2.55,6.58v348.5l-0.16-0.37l-152.79-352.5c-0.57-1.14-1.46-2.55-2.78-3.67l-32.08-34.28l-8.16,32.49H962.6
				c-3.04,0-5.37,1.38-6.87,3.52c-1.19,1.71-1.87,3.89-1.87,6.31v671.29l-30.65,1.91l32.68,34.7c1.5,2.01,3.78,3.3,6.72,3.3h124.54
				c3.41,0,6.4-1.71,8.16-4.32c1.06-1.57,1.67-3.46,1.67-5.51V620.51v-14.37l144.61,325.86l-16.35,1.02l32.46,34.51
				c1.85,2.14,5.21,3.49,8.61,3.49h121.26c3.01,0,5.66-1.36,7.46-3.46c1.46-1.72,2.38-3.92,2.38-6.37V259.83
				C1397.4,256.64,1395.88,253.85,1393.55,252.05z"/>
			<path class="st0" d="M830.69,251.85l-32.13-34.34L790.39,250h-89.98c-2.54,0-4.59,0.97-6.07,2.54c-1.71,1.8-2.67,4.38-2.67,7.3
				v671.29l-30.66,1.85l32.79,34.93c1.51,1.92,3.75,3.14,6.61,3.14h124.54c3.07,0,5.77-1.41,7.57-3.6c1.4-1.7,2.27-3.85,2.27-6.23
				V259.83C834.79,256.52,833.17,253.63,830.69,251.85z"/>
			<path class="st0" d="M619.18,252.04l-32.23-34.45l-8.14,32.4h-90.34c-2.82,0-4.7,1.42-6.28,3.27c-0.87,1.02-1.68,2.12-2.46,3.28
				L356.66,707.43l-0.14,0.5l-0.42,0.28l-120-451.65c-1.17-1.75-2.36-3.45-3.85-4.7L200.2,217.6l-8.14,32.4h-90.33
				c-3.14,0-5.75,1.28-7.53,3.3c-1.94,2.2-2.87,5.3-2.31,8.72L272.05,931.6l-22.58,1.36l34.13,36.21l0.02-0.1
				c1.42,1.27,3.16,1.95,4.92,1.95h135.47c2.55,0,4.32-0.83,5.81-2.32c1.07-1.06,2.01-2.41,2.93-4.23l189-702.46
				C623.12,257.9,621.9,254.21,619.18,252.04z"/>
		</g>
	</g>
	<g>
		<polygon class="st1" points="97.93,261.7 161.3,253.25 330.31,741.25 488.75,251.14 541.56,255.37 359.88,893.35 288.05,897.58 		
			"/>
		<rect x="706.34" y="253.25" class="st1" width="48.59" height="642.21"/>
		<rect x="976.74" y="246.92" class="st1" width="46.48" height="654.89"/>
		<rect x="1266.16" y="246.92" class="st1" width="46.48" height="652.78"/>
		<rect x="1536.57" y="259.59" class="st1" width="38.03" height="621.09"/>
		<rect x="1523.89" y="538.45" class="st1" width="270.41" height="59.15"/>
		<rect x="1538.68" y="840.54" class="st1" width="285.19" height="57.04"/>
		<rect x="1551.36" y="253.25" class="st1" width="276.74" height="50.7"/>
		<polygon class="st1" points="1234.48,870.12 1323.2,848.99 1023.22,246.92 951.39,263.82 957.73,369.44 1076.03,532.11 		"/>
	</g>
	<g>
		<g>
			<path class="st2" d="M1811.48,289.43h-245.81v269.7l68.48-58.85h-1.84V351.7h235.97c0.68,0,1.33-0.07,1.97-0.2l-53.74-65.01
				C1815.38,288.18,1813.7,289.43,1811.48,289.43z"/>
			<path class="st2" d="M1766.69,575.66h-201.02v283.72l69.54-59.76h-2.9V639.02h183.54c2.89,0,5.15-1.25,6.65-3.21l-51.99-62.9
				C1769.7,574.52,1768.45,575.66,1766.69,575.66z"/>
			<path class="st2" d="M1811.48,873.9h-251.27c-4.37,0-8.74-2.18-8.74-8.74v-581.2c0-2.22,0.75-4.06,1.9-5.49l-63.27-60
				c-1.28,1.73-2,3.98-2,6.49v701.37c0,5.46,3.28,9.83,8.74,9.83h371.44c1.52,0,2.94-0.37,4.22-0.97l-54.63-66.09
				C1817.42,871.7,1815.49,873.9,1811.48,873.9z"/>
			<path class="st3" d="M1565.67,560.36h201.02c4.8,0,6.05,8.15,3.82,12.55l51.99,62.9c1.34-1.74,2.09-4.05,2.09-6.62V510.11
				c0-5.46-3.28-9.83-8.74-9.83h-181.7l-68.48,58.85V560.36z"/>
			<path class="st3" d="M1878.12,926.34v-116.9c0-5.46-4.37-9.83-9.83-9.83h-233.07l-69.54,59.76v1.42h245.81
				c4.52,0,7.05,4.57,6.39,8.32l54.63,66.09C1875.83,933.63,1878.12,930.28,1878.12,926.34z"/>
			<path class="st3" d="M1560.21,275.23h251.27c6.98,0,7.83,7.11,5.03,11.27l53.74,65.01c4.51-0.9,7.87-4.85,7.87-9.64V224.97
				c0-5.46-4.37-9.83-9.83-9.83h-371.44c-2.95,0-5.24,1.31-6.74,3.34l63.27,60C1555.05,276.4,1557.62,275.23,1560.21,275.23z"/>
		</g>
		<g>
			<path class="st2" d="M1283.81,842.22V280.69c0-1.88,0.62-3.19,1.46-4.24l-63.37-58.05c-1.57,1.74-2.55,4.03-2.55,6.58v348.5
				l-0.16-0.37l-53.65,35.3L1283.81,842.22z"/>
			<path class="st2" d="M986.66,869.53V280.69c0-2,0.87-3.33,2.1-4.17l-65.77-57.86c-1.19,1.71-1.87,3.89-1.87,6.31v701.37
				c0,5.46,3.28,9.83,8.74,9.83h124.54c3.41,0,6.4-1.71,8.16-4.32l-64.87-56.76C993.99,878.73,986.66,876.88,986.66,869.53z"/>
			<path class="st2" d="M1283.81,871.72L999.77,309.09v304.98l64.25-41.89l0.2,13.47v-14.37l159.5,359.42
				c1.09,3.28,5.46,5.46,9.83,5.46h121.26c3.01,0,5.66-1.36,7.46-3.46l-66.6-57.56C1292.5,877.53,1286.85,877.05,1283.81,871.72z"/>
			<path class="st3" d="M1364.66,224.97c0-5.46-4.37-9.83-9.83-9.83h-125.63c-2.91,0-5.49,1.27-7.29,3.26l63.37,58.05
				c3.55-4.43,12.75-1.94,12.75,4.24v589.94c0,1.98-0.96,3.5-2.34,4.53l66.6,57.56c1.46-1.72,2.38-3.92,2.38-6.37V224.97z"/>
			<path class="st3" d="M998.67,278.5l166.86,329.9l53.65-35.3l-152.79-352.5c-1.09-2.19-3.28-5.46-7.65-5.46H929.85
				c-3.04,0-5.37,1.38-6.87,3.52l65.77,57.86C991.54,274.61,996.4,275.47,998.67,278.5z"/>
			<path class="st3" d="M999.77,614.07v255.46c0,2.48-0.84,4.33-2.08,5.55l64.87,56.76c1.05-1.57,1.67-3.46,1.67-5.51V585.65
				l-0.2-13.47L999.77,614.07z"/>
		</g>
		<g>
			<path class="st2" d="M724.48,869.53V280.69c0-1.25,0.4-2.22,0.93-3.06l-63.82-59.95c-1.71,1.8-2.67,4.38-2.67,7.3v701.37
				c0,5.46,3.28,9.83,8.74,9.83h124.54c3.07,0,5.77-1.41,7.57-3.6l-65-57.78C731.46,878.77,724.48,877.05,724.48,869.53z"/>
			<path class="st3" d="M802.04,224.97c0-5.46-4.37-9.83-9.83-9.83H667.67c-2.54,0-4.59,0.97-6.07,2.54l63.82,59.95
				c2.75-4.31,11.08-3.34,11.08,3.06v588.84c0,2.32-0.7,4.04-1.72,5.26l65,57.78c1.4-1.7,2.27-3.85,2.27-6.23V224.97z"/>
		</g>
		<g>
			<polygon class="st4" points="323.53,673.98 323.78,673.07 323.36,673.34 			"/>
			<path class="st4" d="M133.57,278.08l-3.91-3.24c-2.56,1.3-4.26,3.97-2.78,6.94l181.35,583.38c4.37,16.39,21.85,17.48,27.31,0
				l174.8-583.38c2.18-6.55-9.83-10.92-12.02-3.28L321.35,860.79L273,706.48l-2.65,1.74L133.57,278.08z"/>
			<polygon class="st5" points="324,672.92 323.92,672.57 323.78,673.07 			"/>
			<path class="st3" d="M138.9,278.5L273,706.48l50.37-33.13l-120-451.65c-2.18-3.28-4.37-6.56-8.74-6.56H68.99
				c-3.14,0-5.75,1.28-7.53,3.3l68.21,56.4C132.75,273.27,137.11,273.72,138.9,278.5z"/>
		</g>
		<g>
			<path class="st2" d="M446.98,221.7L323.92,672.57l0.09,0.35l-0.22,0.15l-0.25,0.91l-0.17-0.64L273,706.48l48.35,154.32
				L498.33,278.5c0.3-1.06,0.83-1.85,1.45-2.47l-50.33-57.62C448.57,219.43,447.76,220.53,446.98,221.7z"/>
			<path class="st2" d="M308.24,865.16L126.88,281.78c-1.48-2.97,0.22-5.64,2.78-6.94l-68.21-56.4c-1.94,2.2-2.87,5.3-2.31,8.72
				l189,702.46c1.09,4.37,4.37,6.55,7.65,6.55h135.47c2.55,0,4.32-0.83,5.81-2.32l-65.13-61.58
				C324.64,881.81,311.88,878.84,308.24,865.16z"/>
			<path class="st3" d="M589,227.16c2.18-6.55-2.18-12.02-8.74-12.02H455.72c-2.82,0-4.69,1.42-6.28,3.27l50.33,57.62
				c3.84-3.87,12.45,0.11,10.57,5.75l-174.8,583.38c-0.9,2.89-2.16,5.22-3.6,7.11l65.13,61.58c1.07-1.06,2.01-2.41,2.93-4.23
				L589,227.16z"/>
		</g>
	</g>
</g>
<g>
	<g>
		<path class="st3" d="M889.19,48.01v91.74h-25.32V48.01h-35.02V24.66h95.36v23.35H889.19z"/>
		<path class="st3" d="M1015.62,139.74v-46.2h-46.69v46.2h-25.32V24.66h25.32V70.2h46.69V24.66h25.32v115.08H1015.62z"/>
		<path class="st3" d="M1068.56,139.74V24.66h86.64v22.52h-61.65v23.35h54.25v22.52h-54.25v24.17h62.47v22.52H1068.56z"/>
	</g>
</g>
</svg>
