<svg height="464" viewBox="0 0 707.8 464" width="707.8" xmlns="http://www.w3.org/2000/svg"><g fill="#fff"><path d="m41.1 411v-.4c3.9-.7 6.9-2.2 8.9-4.6s3.1-5.4 3.1-9c0-5.3-1.8-9.2-5.5-11.6s-9.6-3.7-17.8-3.7h-17.4v61.7h21.5c6.7 0 11.9-1.5 15.6-4.6s5.6-7.4 5.6-12.9c0-8.2-4.7-13.2-14-14.8zm-21.5-23.2h10.5c5.4 0 9.3.8 11.8 2.3s3.7 4 3.7 7.5-1.1 6.4-3.3 8-5.9 2.4-10.9 2.4h-11.8zm24.1 46.5c-2.5 1.9-6.3 2.9-11.2 2.9h-12.9v-23.1h12.3c5.3 0 9.2.9 11.7 2.7 2.6 1.8 3.9 4.6 3.9 8.4s-1.3 7.1-3.8 9z"/><path d="m85.1 396.3c-2.7 0-5.4.4-8.2 1.1-2.7.7-5.2 1.7-7.5 2.9l2.2 5.4c4.9-2.4 9.2-3.5 13.1-3.5s5.9.9 7.5 2.6 2.3 4.4 2.3 8v2.9l-7.8.3c-14.9.5-22.4 5.3-22.4 14.7s1.3 7.7 3.9 10.1 6.2 3.5 10.8 3.5 6.3-.5 8.6-1.5 4.6-3 6.9-5.9h.3l1.4 6.6h5.2v-31.6c0-5.4-1.3-9.3-4-11.8-2.7-2.4-6.7-3.7-12.3-3.7zm9.3 28.4c0 4.3-1.2 7.7-3.7 10-2.5 2.4-5.9 3.6-10.3 3.6s-4.9-.7-6.4-2-2.3-3.2-2.3-5.8 1.2-5.6 3.7-7.2c2.5-1.5 6.5-2.4 12-2.6l7-.3z"/><path d="m129.4 398.6c-2.4 1.6-4.5 4-6.2 7h-.3l-.8-8.6h-5.8v46.2h7v-24.8c0-4.5 1.3-8.3 4-11.3s5.9-4.6 9.6-4.6 3.1.2 5.1.6l1-6.5c-1.6-.3-3.5-.5-5.5-.5s-5.6.8-8 2.4z"/><path d="m187.6 397h-8.3l-14.9 15.8c-2.5 2.8-4.3 5-5.5 6.8h-.3c.2-3.2.3-5.6.3-7.2v-34.8h-6.9v65.6h6.9v-17.3l5.3-4.6 16.3 21.9h8.5l-20-26.5 18.7-19.7z"/><path d="m201.3 379.9c-1.2 0-2.2.4-3 1.1s-1.2 1.9-1.2 3.5.4 2.7 1.2 3.5 1.8 1.2 3 1.2 2.1-.4 2.9-1.2 1.2-1.9 1.2-3.5-.4-2.7-1.2-3.5-1.8-1.1-2.9-1.1z"/><path d="m197.7 397h7v46.2h-7z"/><path d="m241.9 396.2c-3.2 0-6.1.6-8.6 1.9-2.6 1.3-4.6 3-6 5.3h-.3l-1.1-6.3h-5.7v46.2h7v-24.3c0-6 1.1-10.3 3.4-13 2.3-2.6 5.8-3.9 10.6-3.9s6.3.9 8.1 2.8c1.7 1.9 2.6 4.7 2.6 8.4v29.9h7v-30.2c0-5.9-1.4-10.2-4.2-12.9s-7-4-12.6-4z"/><path d="m288.8 396.2c-5.6 0-9.9 1.4-12.9 4.1s-4.6 6.6-4.6 11.7.8 5.7 2.3 8.1 3.5 4 5.8 5c-1.9 1.2-3.4 2.4-4.3 3.7s-1.3 2.7-1.3 4.4.4 2.8 1.2 3.9 1.8 2 3 2.5c-3.3.7-5.8 2.1-7.6 4.2s-2.7 4.5-2.7 7.3c0 4.1 1.6 7.3 4.9 9.5s7.9 3.4 14 3.4 13.9-1.3 18-4 6.2-6.6 6.2-11.7-1.3-7.1-4-9.2-6.5-3.2-11.5-3.2h-8.2c-2.5 0-4.3-.3-5.4-.9-1-.6-1.6-1.5-1.6-2.8 0-2.4 1.5-4.4 4.5-5.9 1.2.2 2.5.3 3.9.3 5.4 0 9.6-1.3 12.7-4s4.6-6.3 4.6-10.8-.3-3.8-.9-5.4-1.3-2.9-2.1-3.9l8.6-1v-4.4h-16c-1.9-.6-4.1-.8-6.5-.8zm-4.3 46h8.4c4.3 0 7.2.5 8.7 1.5s2.3 2.7 2.3 5.2-1.4 5.4-4.2 7.2-7.2 2.6-13.1 2.6-7-.6-9.1-1.9-3.2-3.2-3.2-5.7.9-5 2.7-6.5 4.2-2.3 7.4-2.3zm14.4-30.5c0 6.6-3.4 10-10.3 10s-5.8-.8-7.6-2.5-2.7-4.1-2.7-7.3.9-6.1 2.7-7.9 4.3-2.7 7.6-2.7c6.9 0 10.4 3.5 10.4 10.4z"/><path d="m384.3 399c0-5.8-1.8-10.2-5.4-13.1s-9.2-4.3-16.8-4.3h-16.9v61.7h7.2v-25.7h12.9l14.9 25.7h8.5l-16.7-27.7c8.3-2.9 12.4-8.4 12.4-16.5zm-22.1 12.5h-9.8v-23.6h9.3c5.3 0 9.2.9 11.6 2.7s3.6 4.7 3.6 8.8-1.2 7-3.5 9c-2.4 2-6.1 3-11.1 3z"/><path d="m398 397h7v46.2h-7z"/><path d="m401.5 379.9c-1.2 0-2.2.4-3 1.1s-1.2 1.9-1.2 3.5.4 2.7 1.2 3.5 1.8 1.2 3 1.2 2.1-.4 2.9-1.2 1.2-1.9 1.2-3.5-.4-2.7-1.2-3.5-1.8-1.1-2.9-1.1z"/><path d="m437.5 427.7c-1.6 4.7-2.6 7.8-2.9 9.3h-.3c-.4-1.9-1.7-6.1-4-12.5l-10-27.4h-7.5l17.6 46.2h8.2l17.6-46.2h-7.5c-5.7 15.8-9.4 26-11.1 30.7z"/><path d="m481.7 396.2c-6.2 0-11.1 2.2-14.8 6.6s-5.5 10.3-5.5 17.8 2 13.2 5.9 17.3c4 4.2 9.3 6.2 16.2 6.2s5.8-.2 8-.7 4.5-1.2 7-2.3v-6.2c-4.9 2.1-9.8 3.1-14.8 3.1s-8.4-1.4-11-4.2-4-6.9-4.1-12.4h31.9v-4.4c0-6.2-1.7-11.3-5.1-15.1s-8-5.7-13.8-5.7zm-12.9 19.5c.4-4.3 1.7-7.6 3.9-10s5.2-3.6 8.9-3.6 6.5 1.2 8.4 3.5c2 2.3 3 5.7 3 10.1z"/><path d="m526 398.6c-2.4 1.6-4.5 4-6.2 7h-.3l-.8-8.6h-5.8v46.2h7v-24.8c0-4.5 1.3-8.3 4-11.3s5.9-4.6 9.6-4.6 3.1.2 5.1.6l1-6.5c-1.6-.3-3.5-.5-5.5-.5s-5.6.8-8 2.4z"/><path d="m564.4 417c-4-1.5-6.7-2.6-8.1-3.4s-2.4-1.6-3.1-2.5c-.6-.9-.9-1.9-.9-3.2 0-1.8.8-3.3 2.5-4.3s4.2-1.6 7.5-1.6 8 1 12.6 2.9l2.5-5.7c-4.8-2-9.6-3-14.6-3s-9.5 1.1-12.6 3.3-4.6 5.2-4.6 8.9.4 3.9 1.3 5.4 2.2 2.9 4.1 4.1c1.8 1.2 4.9 2.6 9.2 4.2 4.5 1.7 7.6 3.3 9.1 4.5 1.6 1.3 2.3 2.8 2.3 4.6s-1 4.2-3 5.3c-2 1.2-4.8 1.8-8.4 1.8s-4.8-.3-7.4-1c-2.5-.6-4.9-1.5-7.2-2.7v6.5c3.4 1.9 8.2 2.9 14.3 2.9s10.3-1.2 13.5-3.5 4.8-5.7 4.8-10-1-5.6-2.9-7.6-5.6-4-11.1-6z"/><path d="m593.8 379.9c-1.2 0-2.2.4-3 1.1s-1.2 1.9-1.2 3.5.4 2.7 1.2 3.5 1.8 1.2 3 1.2 2.1-.4 2.9-1.2 1.2-1.9 1.2-3.5-.4-2.7-1.2-3.5-1.8-1.1-2.9-1.1z"/><path d="m590.2 397h7v46.2h-7z"/><path d="m643.6 396.5.2 3.2.3 3.3h-.5c-3.3-4.6-8.2-6.8-14.4-6.8s-10.7 2.1-14.1 6.3-5.1 10.1-5.1 17.8 1.7 13.5 5 17.6c3.4 4.1 8.1 6.2 14.1 6.2s11.3-2.3 14.5-7h.4l.9 6.2h5.7v-65.6h-7zm0 25.3c0 5.8-1.1 10-3.2 12.6-2.2 2.6-5.6 3.9-10.4 3.9s-7.4-1.5-9.5-4.5c-2.2-3-3.2-7.5-3.2-13.4s1.1-10.3 3.3-13.5 5.3-4.8 9.4-4.8 8.3 1.4 10.4 4.2c2.2 2.8 3.3 7.5 3.3 14v1.5z"/><path d="m683.6 396.2c-6.2 0-11.1 2.2-14.8 6.6s-5.5 10.3-5.5 17.8 2 13.2 5.9 17.3c4 4.2 9.3 6.2 16.2 6.2s5.8-.2 8-.7 4.6-1.2 7-2.3v-6.2c-4.9 2.1-9.8 3.1-14.8 3.1s-8.4-1.4-11-4.2-4-6.9-4.1-12.4h31.9v-4.4c0-6.2-1.7-11.3-5.1-15.1s-8-5.7-13.8-5.7zm-12.9 19.5c.4-4.3 1.7-7.6 3.9-10s5.2-3.6 8.9-3.6 6.5 1.2 8.4 3.5c2 2.3 3 5.7 3 10.1z"/><path d="m296.4 194.4v-20.3h-67.2v20.3h20.9v105.6h-20.9v20.2h67.2v-20.2h-20.9v-105.6z"/><path d="m179.4 82h64.5v64.1h25.4v-146.1h-25.4v59h-64.5v-59h-25.4v146.1h25.4z"/><path d="m411.6 123.1h-76.4v-41.1h68.8v-23h-68.8v-36.1h74.9l-15.6-22.9h-84.7v146.1h101.8z"/><path d="m54 146.3h25.4v-107.9l-25.4-38.4h-47.2v23h47.2z"/><path d="m178.1 188.1-27.4 107.9-33.4-121.9h-26.3l-33.4 121.9-30.9-121.9h-26.7l39.6 146.1h33.2l30.9-111 31 111h33.8l28.1-104.1-10.2-15.5z"/><path d="m707.8 279.9c0-25.5-19.6-35.5-42.7-43l-11.4-3.8c-17.6-5.6-27.4-10-27.4-21.3s11.4-18 30.1-18 28.9 2.9 41.4 9.2v-23.4c-9.6-5.4-23.8-8.3-41-8.3-31.8 0-55.9 15-55.9 41.3s17.6 33.2 43.4 41.7l12 4c17.1 5.4 26 10.4 26 22.3s-10.5 19.6-32.1 19.6-39.2-6.7-51.2-13.8v23.8c9.6 6.5 29.8 12.5 51.6 12.5 33.4 0 57-15.9 57-43z"/><path d="m572.5 270.7-24-35.2c.3 2.6.5 5.4.5 8.2v7.1c0 26.7-12.7 47-42.3 47h-26.9v-100.6h26.9c6.8 0 12.7 1.1 17.8 3.1l-17.7-26h-52.3v146.1h52.3c37.7 0 59.4-20.2 65.8-49.5z"/><path d="m425.9 297.2h-70.5v-123.1h-25.4v146.1h95.9z"/></g></svg>