<?xml version="1.0" encoding="UTF-8"?>
<svg version="1.1" viewBox="0 0 262.6 262.6" xmlns="http://www.w3.org/2000/svg"><g transform="translate(-310.61 -160.69)"><g><circle cx="441.9" cy="291.99" r="131.3" fill="#808080"/><circle cx="441.38" cy="291.28" r="120.2" stroke="#fff" stroke-width="9.1547"/><circle cx="405.89" cy="355.12" r="38.613" fill="#808080" stroke="#fff" stroke-width="8"/><path d="m496.68 244.6a48.428 48.428 75 0 0-31.146 58.238 48.428 48.428 75 0 0 21.113 28.427 48.428 48.428 75 0 0 31.049-58.206 48.428 48.428 75 0 0-21.016-28.46z" fill="#c55f3d"/></g><ellipse cx="509.81" cy="293.64" rx="48.428" ry="48.428" fill="none" stroke="#fff" stroke-width="8"/><ellipse cx="407.67" cy="229.6" rx="63.367" ry="63.367" fill="#808080" stroke="#fff" stroke-width="8"/><ellipse cx="471.04" cy="278.38" rx="48.428" ry="48.428" fill="none"/><g stroke="#000" stroke-width="8"><path d="m406.79 174.53c-13.488 0.18451-26.827 5.5474-36.663 14.785-8.065 7.476-13.784 17.428-16.171 28.164-3.0104 13.067-0.96384 27.2 5.5871 38.896 6.0994 11.016 16.097 19.811 27.82 24.418 12.36 4.95 26.525 5.1657 39.033 0.60335 14.326-5.1105 26.286-16.464 32.076-30.536 4.626-11.011 5.5568-23.533 2.5336-35.093-3.2944-12.997-11.627-24.577-22.769-32.005-9.2094-6.1904-20.357-9.4391-31.447-9.233z" fill="#808080"/><path d="m405.29 324.52c-10.855 0.16757-21.419 6.5642-26.416 16.233-3.9248 7.3919-4.7305 16.424-1.9056 24.331 2.8422 8.3172 9.4138 15.304 17.636 18.468 8.1455 3.2478 17.702 2.8302 25.448-1.3278 7.0929-3.713 12.675-10.267 15.016-17.944 2.6907-8.5272 1.4787-18.241-3.4538-25.731-4.974-7.8057-13.662-13.114-22.895-13.897-1.1402-0.10551-2.2855-0.1473-3.4305-0.13214z" fill="#808080"/><path d="m508.7 253.97c-11.002 0.30394-21.799 5.3798-28.942 13.773-6.7353 7.7664-10.282 18.222-9.5312 28.487 0.56459 8.968 4.2505 17.721 10.4 24.29 6.7072 7.3097 16.224 11.983 26.132 12.684 10.608 0.82604 21.511-2.78 29.424-9.9198 8.1878-7.2429 13.153-17.988 13.294-28.926 0.23561-10.135-3.6189-20.297-10.565-27.69-6.5116-7.0662-15.658-11.648-25.238-12.519-1.6524-0.15868-3.3153-0.21564-4.975-0.17878z" fill="none"/></g></g></svg>
