<svg xmlns="http://www.w3.org/2000/svg" width="314" height="317" viewBox="0 0 314 317">
<g>
<path d="M 286.46 303.23 L 281.50 305.95 L 162.50 305.97 L 43.50 305.98 L 38.50 303.62 C32.68,300.88 29.70,297.93 27.55,292.77 C26.20,289.55 26.00,280.42 26.00,223.53 L 26.00 158.00 L 44.75 157.98 C55.06,157.97 99.28,157.93 143.00,157.88 C186.73,157.84 239.50,157.84 260.28,157.90 L 298.05 158.00 L 297.78 224.91 L 297.50 291.83 L 294.46 296.16 C292.72,298.66 289.31,301.66 286.46,303.23 ZM 41.67 241.34 C42.04,241.71 96.38,241.89 162.42,241.75 L 282.50 241.50 L 282.82 238.76 L 283.13 236.02 L 232.82 235.76 L 182.50 235.50 L 182.23 208.26 L 181.97 181.02 L 232.23 180.76 L 282.50 180.50 L 282.50 174.50 L 41.50 174.50 L 41.16 176.89 C40.98,178.20 41.43,179.66 42.16,180.12 C42.90,180.59 73.32,180.98 109.77,180.98 L 176.03 181.00 L 175.77 208.25 L 175.50 235.50 L 41.00 236.01 L 41.00 238.34 C41.00,239.62 41.30,240.97 41.67,241.34 ZM 75.25 142.02 C73.19,142.03 64.75,142.19 56.50,142.37 C48.25,142.55 37.00,142.43 31.50,142.10 L 21.50 141.50 L 21.23 118.57 C21.08,105.96 21.33,95.27 21.77,94.83 C22.21,94.39 27.69,94.32 33.95,94.67 L 45.32 95.32 L 53.94 103.41 C58.68,107.86 66.26,114.94 70.78,119.14 L 79.00 126.78 L 79.00 142.00 ZM 42.25 272.34 C42.94,272.62 97.14,272.88 162.70,272.92 C274.55,273.00 281.96,272.89 282.87,271.28 C283.46,270.22 283.48,268.89 282.91,267.84 C282.06,266.25 276.40,266.13 200.75,266.13 C156.06,266.14 101.84,266.39 80.25,266.70 L 41.00 267.26 L 41.00 269.55 C41.00,270.80 41.56,272.06 42.25,272.34 ZM 250.00 136.72 L 240.50 150.95 L 228.75 150.97 C222.29,150.99 217.00,150.77 217.00,150.49 C217.00,150.22 221.35,143.47 226.66,135.49 L 236.31 121.00 L 248.24 121.00 C254.80,121.00 260.02,121.34 259.83,121.75 C259.65,122.16 255.23,128.90 250.00,136.72 ZM 194.50 137.31 L 185.50 150.98 L 174.25 150.99 C168.06,151.00 163.00,150.66 163.00,150.25 C163.00,149.84 167.36,143.09 172.69,135.25 L 182.38 121.00 L 193.74 121.00 C202.90,121.00 204.94,121.26 204.30,122.32 C203.86,123.05 199.45,129.80 194.50,137.31 ZM 135.04 147.21 L 132.50 150.92 L 121.64 150.96 C112.50,150.99 110.87,150.77 111.35,149.53 C111.66,148.72 116.10,141.98 121.21,134.54 L 130.50 121.02 L 141.81 121.01 L 153.12 121.00 L 145.35 132.25 C141.08,138.44 136.43,145.17 135.04,147.21 ZM 111.65 91.53 C106.62,93.06 102.05,94.44 101.50,94.61 C100.42,94.94 73.94,72.60 73.89,71.32 C73.87,70.66 83.39,67.37 90.58,65.57 C92.46,65.10 95.47,67.19 106.84,76.87 L 120.80 88.74 ZM 205.75 63.04 C201.76,64.19 197.52,65.53 196.32,66.02 C194.68,66.68 193.44,66.36 191.32,64.73 C186.35,60.90 166.50,43.58 166.50,43.07 C166.50,42.27 184.40,36.94 185.57,37.39 C186.85,37.88 213.00,59.94 213.00,60.53 C213.00,60.76 209.74,61.89 205.75,63.04 ZM 247.11 36.09 L 259.71 46.69 L 249.92 49.68 L 240.13 52.68 L 226.03 40.71 C218.27,34.13 212.06,28.63 212.21,28.49 C212.37,28.36 216.70,27.04 221.84,25.58 C229.63,23.35 231.46,23.13 232.84,24.21 C233.75,24.92 240.17,30.27 247.11,36.09 ZM 157.00 77.93 C152.88,79.13 148.82,80.29 148.00,80.49 C146.45,80.88 120.36,58.75 120.67,57.31 C120.77,56.86 124.82,55.28 129.67,53.78 L 138.50 51.07 L 142.50 54.25 C152.43,62.15 165.90,74.50 165.23,75.09 C164.83,75.45 161.12,76.73 157.00,77.93 ZM 303.00 121.00 L 303.00 151.00 L 287.89 151.00 C275.10,151.00 272.87,150.78 273.34,149.55 C273.65,148.75 277.98,142.00 282.97,134.55 L 292.04 121.00 L 303.00 121.00 ZM 291.13 36.84 C289.01,37.48 287.01,38.00 286.70,38.00 C285.92,38.00 259.57,15.99 259.21,15.03 C258.77,13.86 267.23,12.00 273.04,12.00 C282.71,12.00 288.34,16.47 292.43,27.37 C293.84,31.15 295.00,34.56 295.00,34.96 C295.00,35.36 293.26,36.20 291.13,36.84 ZM 72.28 103.07 C71.85,103.46 70.15,104.05 68.50,104.36 C65.81,104.87 64.53,104.05 56.26,96.46 L 47.01 88.00 L 36.26 87.93 C24.93,87.86 19.28,86.85 24.03,85.74 C25.39,85.43 30.93,83.79 36.34,82.11 L 46.18 79.04 L 59.62 90.69 C67.01,97.10 72.71,102.67 72.28,103.07 ZM 116.00 191.00 L 116.00 214.00 L 118.45 214.00 C120.79,214.00 120.92,213.67 121.20,207.25 L 121.50 200.50 L 126.03 207.00 C129.45,211.92 131.22,213.58 133.28,213.82 L 136.00 214.13 L 136.00 192.00 L 133.50 192.00 C131.11,192.00 131.00,192.27 131.00,198.00 C131.00,201.30 130.66,204.00 130.25,204.00 C129.84,204.00 127.71,201.07 125.53,197.50 C122.18,192.01 121.13,191.00 118.78,191.00 L 116.00 191.00 ZM 211.45 212.25 C210.44,215.29 215.84,214.56 217.00,211.50 C217.80,209.40 218.60,209.00 222.00,209.00 C225.40,209.00 226.20,209.40 227.00,211.50 C227.68,213.29 228.70,214.00 230.58,214.00 C232.27,214.00 233.05,213.55 232.74,212.75 C232.49,212.06 230.75,207.10 228.89,201.71 L 225.50 191.93 L 222.01 192.21 C218.59,192.49 218.47,192.66 215.28,201.50 C213.49,206.45 211.77,211.29 211.45,212.25 ZM 96.67 213.33 C97.03,213.70 100.63,214.00 104.67,214.00 C111.33,214.00 112.00,213.82 112.00,212.00 C112.00,210.27 111.33,210.00 107.00,210.00 C102.33,210.00 102.00,209.83 102.00,207.50 C102.00,205.25 102.40,205.00 106.00,205.00 C109.60,205.00 110.00,204.75 110.00,202.50 C110.00,200.25 109.60,200.00 106.00,200.00 C102.70,200.00 102.00,199.66 102.00,198.05 C102.00,196.44 102.82,196.06 106.75,195.80 C110.80,195.54 111.55,195.17 111.82,193.25 C112.10,191.29 111.69,191.00 108.71,191.00 C106.82,191.00 103.19,191.29 100.64,191.64 L 96.00 192.27 L 96.00 202.47 C96.00,208.08 96.30,212.97 96.67,213.33 ZM 236.00 203.11 L 236.00 214.00 L 238.50 214.00 C240.75,214.00 241.00,213.60 241.00,210.00 C241.00,204.86 242.66,204.86 246.31,210.02 C248.50,213.12 249.78,214.00 252.06,214.00 C253.68,214.00 255.00,213.74 255.00,213.42 C255.00,213.11 253.01,210.26 250.57,207.10 L 246.15 201.34 L 250.03 196.92 C252.17,194.49 253.93,192.15 253.96,191.73 C254.07,189.66 248.07,192.68 244.78,196.35 L 241.06 200.50 L 241.03 195.75 C241.00,191.00 240.55,190.47 237.58,191.61 C236.27,192.11 236.00,194.10 236.00,203.11 ZM 141.00 192.00 L 141.00 214.00 L 149.00 214.00 C156.26,214.00 157.00,213.82 157.00,212.05 C157.00,210.41 156.18,210.06 151.75,209.80 C147.22,209.54 146.46,209.20 146.19,207.31 C145.91,205.39 146.40,205.08 150.19,204.81 C153.78,204.55 154.55,204.13 154.82,202.25 C155.11,200.20 154.74,200.00 150.57,200.00 C146.71,200.00 146.00,199.70 146.00,198.05 C146.00,196.44 146.82,196.06 150.75,195.80 C154.89,195.54 155.54,195.19 155.84,193.11 C156.10,191.22 155.82,190.85 154.51,191.36 C153.59,191.71 150.17,192.00 146.92,192.00 L 141.00 192.00 ZM 257.61 203.34 L 258.29 214.00 L 265.65 214.00 C272.33,214.00 273.00,213.82 273.00,212.00 C273.00,210.27 272.33,210.00 268.00,210.00 C263.36,210.00 263.00,209.82 263.00,207.56 C263.00,205.40 263.49,205.08 267.24,204.81 C270.27,204.59 271.57,204.02 271.80,202.81 C272.06,201.47 271.23,201.06 267.81,200.81 C264.25,200.55 263.45,200.12 263.19,198.31 C262.91,196.34 263.38,196.08 267.69,195.81 C271.73,195.55 272.50,195.18 272.50,193.50 C272.50,191.72 271.73,191.47 265.60,191.20 C261.80,191.04 258.30,191.30 257.81,191.79 C257.31,192.29 257.22,197.39 257.61,203.34 ZM 58.19 213.88 C64.85,215.85 71.00,212.85 71.00,207.63 C71.00,203.87 68.96,201.58 64.13,199.90 C59.58,198.31 60.27,195.50 65.22,195.50 C69.58,195.50 72.34,193.46 69.99,191.97 C69.17,191.46 66.57,191.02 64.20,191.02 C60.96,191.00 59.31,191.60 57.45,193.45 C56.10,194.80 55.00,196.50 55.00,197.23 C55.00,199.68 57.82,202.62 61.97,204.49 C67.79,207.11 67.08,209.50 60.49,209.50 C56.62,209.50 55.46,209.87 55.20,211.20 C54.97,212.40 55.86,213.20 58.19,213.88 ZM 71.45 260.55 C73.00,262.09 75.05,263.00 77.00,263.00 C83.87,263.00 87.44,254.37 82.93,248.63 C80.24,245.22 74.69,245.00 71.31,248.17 C68.06,251.23 68.13,257.22 71.45,260.55 ZM 65.75 295.22 C69.18,295.94 75.44,294.17 77.21,291.98 C79.76,288.84 79.48,284.39 76.55,281.45 C74.59,279.50 73.07,279.00 69.05,279.00 L 64.00 279.00 L 64.00 286.93 C64.00,293.67 64.26,294.91 65.75,295.22 ZM 81.27 213.55 C84.51,214.99 90.63,214.68 92.38,212.99 C92.87,212.52 92.99,211.41 92.65,210.52 C92.17,209.27 91.24,209.05 88.51,209.56 C83.27,210.55 80.00,208.07 80.00,203.13 C80.00,198.11 82.80,195.50 88.03,195.64 C92.05,195.74 94.32,193.45 91.78,191.85 C89.66,190.50 83.10,190.90 79.87,192.57 C76.75,194.18 74.00,199.18 74.00,203.22 C74.01,206.73 77.68,211.95 81.27,213.55 ZM 239.69 295.35 C241.21,296.88 242.53,295.11 243.00,290.92 L 243.50 286.50 L 245.17 290.75 C246.09,293.09 247.32,295.00 247.91,295.00 C248.49,295.00 249.73,293.31 250.66,291.25 L 252.36 287.50 L 252.93 291.50 C253.30,294.13 254.01,295.50 255.00,295.50 C256.71,295.50 257.57,287.86 256.51,282.19 C256.00,279.49 255.48,278.93 253.69,279.19 C252.13,279.41 251.08,280.71 250.03,283.75 C249.22,286.09 248.31,288.00 248.00,288.00 C247.69,288.00 246.78,286.09 245.97,283.75 C244.05,278.20 240.59,277.28 239.64,282.07 C238.79,286.29 238.82,294.49 239.69,295.35 ZM 94.90 130.71 C89.75,138.13 87.58,141.36 86.66,141.04 C85.94,140.78 86.00,138.31 86.00,133.94 C86.00,127.87 85.56,124.81 84.44,123.22 L 82.89 121.00 L 91.94 121.00 C96.92,121.00 101.00,121.21 101.00,121.46 C101.00,121.72 98.25,125.88 94.90,130.71 ZM 89.67 295.33 C91.33,296.99 93.00,295.82 93.00,293.00 C93.00,289.13 95.00,289.14 97.20,293.01 C98.14,294.65 99.60,296.00 100.45,296.00 C102.44,296.00 102.41,294.56 100.37,291.44 C98.86,289.14 98.86,288.81 100.37,287.15 C104.10,283.02 100.88,279.00 93.85,279.00 L 89.00 279.00 L 89.00 286.83 C89.00,291.14 89.30,294.97 89.67,295.33 ZM 54.69 262.35 C55.98,263.65 57.50,262.35 57.82,259.67 C58.22,256.23 59.11,256.30 61.84,260.00 C63.06,261.65 64.98,263.00 66.11,263.00 C68.15,263.00 68.15,262.98 65.97,259.45 C63.84,256.01 63.83,255.85 65.61,253.88 C67.27,252.04 67.30,251.62 65.93,249.18 C64.65,246.89 63.68,246.46 59.22,246.20 L 54.00 245.90 L 54.00 253.78 C54.00,258.12 54.31,261.98 54.69,262.35 ZM 202.00 205.06 C202.00,213.93 202.02,214.00 204.50,214.00 C206.98,214.00 207.00,213.93 207.00,205.00 L 207.00 196.00 L 210.50 196.00 C213.33,196.00 214.00,195.62 214.00,194.00 C214.00,192.14 213.33,192.00 204.43,192.00 C195.85,192.00 194.89,192.18 195.18,193.75 C195.40,194.90 196.62,195.61 198.76,195.81 L 202.00 196.13 ZM 221.75 295.42 C222.98,296.64 224.89,295.92 225.50,294.00 C225.97,292.53 227.01,292.00 229.45,292.00 C231.93,292.00 232.90,292.51 233.29,294.00 C233.77,295.85 236.99,296.93 237.01,295.25 C237.02,294.84 235.79,291.01 234.28,286.75 C231.99,280.29 231.17,279.00 229.35,279.00 C227.66,279.00 226.77,280.07 225.42,283.75 C224.46,286.36 223.11,289.93 222.42,291.67 C221.73,293.41 221.43,295.10 221.75,295.42 ZM 30.00 110.29 C32.54,111.23 33.01,111.08 35.55,108.55 C39.95,104.14 37.60,98.00 31.50,98.00 C23.88,98.00 22.71,107.61 30.00,110.29 ZM 26.65 137.17 C29.11,139.88 33.46,139.50 35.93,136.37 C37.07,134.92 38.00,133.10 38.00,132.32 C38.00,130.20 33.38,126.00 31.05,126.00 C26.07,126.00 23.18,133.33 26.65,137.17 ZM 64.65 137.17 C68.27,141.17 75.00,138.24 75.00,132.67 C75.00,126.87 68.98,123.90 64.83,127.65 C62.55,129.72 62.46,134.74 64.65,137.17 ZM 209.99 293.14 C212.31,295.46 213.70,296.06 216.23,295.81 C218.45,295.60 219.60,294.91 219.83,293.65 C220.11,292.17 219.76,291.94 218.04,292.49 C216.73,292.90 214.95,292.54 213.45,291.56 C208.67,288.43 211.47,281.40 217.16,282.24 C219.40,282.56 220.00,282.26 220.00,280.83 C220.00,279.36 219.21,279.00 215.95,279.00 C207.58,279.00 204.10,287.25 209.99,293.14 ZM 82.00 150.00 C82.00,150.64 71.19,151.00 51.56,151.00 C32.34,151.00 20.89,150.63 20.50,150.00 C20.09,149.34 30.49,149.00 50.94,149.00 C70.98,149.00 82.00,149.35 82.00,150.00 ZM 88.71 262.38 C89.90,263.57 99.31,262.61 99.75,261.25 C100.04,260.39 98.90,260.00 96.08,260.00 L 92.00 260.00 L 92.00 253.00 C92.00,246.67 91.81,246.00 90.00,246.00 C88.17,246.00 88.00,246.67 88.00,253.83 C88.00,258.14 88.32,261.99 88.71,262.38 ZM 101.71 262.38 C102.90,263.57 112.31,262.61 112.75,261.25 C113.01,260.47 112.22,260.00 110.67,260.00 C105.58,260.00 105.00,259.22 105.00,252.39 C105.00,247.65 104.65,246.00 103.63,246.00 C101.53,246.00 99.83,260.50 101.71,262.38 ZM 79.48 258.37 C77.52,260.34 76.90,260.38 74.61,258.71 C72.36,257.06 72.77,251.16 75.25,249.61 C79.35,247.04 83.08,254.77 79.48,258.37 ZM 82.69 295.35 C84.55,297.22 85.52,294.65 85.79,287.17 C86.06,279.52 85.95,279.00 84.04,279.00 C82.16,279.00 82.00,279.61 82.00,286.83 C82.00,291.14 82.31,294.98 82.69,295.35 ZM 73.44 289.78 C72.59,291.00 71.01,292.00 69.94,292.00 C68.28,292.00 68.00,291.28 68.00,287.00 C68.00,282.73 68.28,282.00 69.93,282.00 C72.08,282.00 75.00,284.50 75.00,286.35 C75.00,287.01 74.30,288.56 73.44,289.78 ZM 15.00 93.70 C15.00,98.03 13.61,97.91 12.24,93.45 C11.22,90.12 11.32,89.83 13.64,88.95 C16.96,87.69 17.65,87.75 16.20,89.20 C15.54,89.86 15.00,91.89 15.00,93.70 ZM 223.99 203.75 C224.00,205.01 220.84,205.50 219.75,204.41 C218.99,203.65 220.96,198.00 221.98,198.00 C222.77,198.00 223.96,201.41 223.99,203.75 ZM 105.05 294.56 C105.94,295.64 106.61,295.74 107.57,294.94 C109.12,293.66 108.36,291.00 106.45,291.00 C104.43,291.00 103.68,292.91 105.05,294.56 ZM 97.50 284.00 C97.50,284.83 96.49,285.64 95.25,285.82 C93.52,286.07 93.00,285.65 93.00,284.00 C93.00,282.35 93.52,281.93 95.25,282.18 C96.49,282.36 97.50,283.17 97.50,284.00 ZM 62.00 251.00 C62.00,252.33 61.33,253.00 60.00,253.00 C58.67,253.00 58.00,252.33 58.00,251.00 C58.00,249.67 58.67,249.00 60.00,249.00 C61.33,249.00 62.00,249.67 62.00,251.00 ZM 261.10 295.06 C261.88,295.54 262.87,295.53 263.37,295.03 C264.47,293.93 263.46,291.00 262.00,291.00 C260.28,291.00 259.58,294.13 261.10,295.06 ZM 230.26 288.40 C229.06,289.61 228.00,288.95 228.00,287.00 C228.00,285.90 228.40,285.00 228.89,285.00 C230.02,285.00 231.07,287.60 230.26,288.40 Z" fill="rgba(1,1,12,1)"/>
<path d="M 304.30 157.14 L 304.30 157.00 L 298.05 157.00 L 298.05 158.00 L 260.28 157.90 C239.50,157.84 186.73,157.84 143.00,157.88 C99.28,157.93 55.06,157.97 44.75,157.98 L 26.00 158.00 L 26.00 157.00 L 19.00 157.00 L 19.00 157.47 L 16.75 156.49 C14.56,155.53 14.48,154.98 13.92,136.50 L 13.33 117.50 L 9.12 105.00 C6.80,98.12 4.81,90.95 4.70,89.05 L 4.50 85.60 L 12.50 82.87 C16.90,81.36 57.62,68.79 103.00,54.94 C262.74,6.16 269.24,4.30 276.29,5.43 C284.11,6.68 292.31,12.74 295.96,19.95 C299.37,26.70 302.49,37.91 301.29,39.11 C299.40,41.00 225.55,64.00 106.12,99.89 C87.76,105.41 72.46,110.21 72.12,110.55 C71.78,110.89 72.33,111.77 73.35,112.51 C74.86,113.62 95.82,113.92 191.05,114.18 C282.72,114.43 307.16,114.76 308.16,115.76 C309.68,117.28 310.59,139.65 309.54,149.49 C308.93,155.14 308.54,156.08 306.57,156.57 L 304.30 157.14 ZM 72.28 103.07 C72.60,102.77 69.46,99.54 64.74,95.24 C69.90,99.70 73.78,102.96 74.00,103.00 C75.18,103.19 99.99,95.44 99.99,94.88 C100.00,94.63 95.79,90.85 90.72,86.42 C96.22,90.97 101.05,94.75 101.50,94.61 C102.05,94.44 106.62,93.06 111.65,91.53 L 120.80 88.74 L 120.80 88.74 L 133.40 85.12 C140.33,83.13 146.00,81.21 146.00,80.86 C146.00,80.56 141.75,76.63 136.02,71.59 C141.87,76.46 147.32,80.66 148.00,80.49 C148.82,80.29 152.88,79.13 157.00,77.93 C161.12,76.73 164.83,75.45 165.23,75.09 C165.60,74.76 161.53,70.73 156.13,65.86 C161.96,70.95 166.79,74.97 167.10,74.98 C167.43,74.99 169.01,74.57 170.60,74.06 C172.20,73.54 178.14,71.71 183.81,69.99 L 194.12 66.88 L 191.66 64.98 C193.57,66.39 194.77,66.64 196.32,66.02 C197.52,65.53 201.76,64.19 205.75,63.04 C209.74,61.89 213.00,60.76 213.00,60.53 C213.00,60.36 210.76,58.35 207.56,55.57 C211.41,58.67 214.15,60.67 214.50,60.57 C225.12,57.53 237.78,53.64 238.72,53.13 C239.38,52.76 235.84,49.15 229.18,43.39 L 240.13 52.68 L 249.92 49.68 L 259.71 46.69 L 251.76 40.01 C256.12,43.51 259.43,45.93 260.00,45.95 C262.16,46.04 286.01,38.82 285.94,38.10 C285.92,37.93 284.01,36.21 281.20,33.80 C284.27,36.29 286.48,38.00 286.70,38.00 C287.01,38.00 289.01,37.48 291.13,36.84 C293.26,36.20 295.00,35.36 295.00,34.96 C295.00,34.56 293.84,31.15 292.43,27.37 C288.34,16.47 282.71,12.00 273.04,12.00 C267.23,12.00 258.77,13.86 259.21,15.03 C259.32,15.32 261.81,17.54 265.26,20.50 C263.26,18.88 261.54,17.52 260.34,16.61 C257.87,14.74 257.75,14.75 244.90,18.53 C237.77,20.62 232.07,22.65 232.22,23.03 C232.35,23.35 236.57,27.13 242.15,31.94 C237.34,27.91 233.53,24.74 232.84,24.21 C231.46,23.13 229.63,23.35 221.84,25.58 C216.70,27.04 212.37,28.36 212.21,28.49 C212.07,28.62 217.20,33.17 223.96,38.95 C217.55,33.56 212.29,29.31 211.79,29.13 C210.40,28.62 185.89,36.20 186.23,37.03 C186.34,37.30 189.62,40.27 194.25,44.31 C189.72,40.54 186.03,37.57 185.57,37.39 C184.40,36.94 166.50,42.27 166.50,43.07 C166.50,43.37 173.61,49.71 180.39,55.56 C179.32,54.64 178.23,53.71 177.14,52.77 C170.89,47.40 165.33,43.00 164.78,43.00 C163.11,43.00 140.56,50.15 139.70,50.96 C139.39,51.24 139.62,51.82 140.22,52.43 L 138.50 51.07 L 129.67 53.78 C124.82,55.28 120.77,56.86 120.67,57.31 C120.58,57.73 122.77,59.94 125.94,62.84 L 119.00 56.83 L 108.35 60.00 C99.77,62.55 95.39,63.39 94.99,65.14 C94.68,66.52 96.83,68.46 101.33,72.23 C94.39,66.50 92.11,65.19 90.58,65.57 C83.39,67.37 73.87,70.66 73.89,71.32 C73.91,71.68 75.97,73.67 78.97,76.35 C76.68,74.43 74.85,72.94 73.94,72.29 C72.58,71.30 69.91,71.76 59.65,74.79 C52.71,76.83 47.15,78.90 47.31,79.39 C47.42,79.75 50.61,82.75 55.08,86.76 L 46.18 79.04 L 36.34 82.11 C30.93,83.79 25.39,85.43 24.03,85.74 C19.28,86.85 24.93,87.86 36.26,87.93 L 47.01 88.00 L 56.26 96.46 C64.53,104.05 65.81,104.87 68.50,104.36 C70.15,104.05 71.85,103.46 72.28,103.07 ZM 135.04 147.21 C135.30,146.82 135.69,146.27 136.16,145.57 C134.22,148.46 133.00,150.35 133.00,150.49 C133.00,150.77 139.64,150.96 147.75,150.92 L 162.50 150.84 L 163.24 149.72 C163.08,150.01 163.00,150.19 163.00,150.25 C163.00,150.66 168.06,151.00 174.25,150.99 L 185.50 150.98 L 188.31 146.72 C186.87,148.97 186.00,150.40 186.00,150.52 C186.00,150.78 192.86,150.99 201.25,150.98 L 216.50 150.96 L 219.13 146.98 C217.80,149.07 217.00,150.38 217.00,150.49 C217.00,150.77 222.29,150.99 228.75,150.97 L 240.50 150.95 L 242.23 148.36 C241.45,149.60 241.00,150.36 241.00,150.45 C241.00,150.75 248.09,150.97 256.75,150.93 L 272.50 150.86 L 273.33 149.59 C272.92,150.78 275.23,151.00 287.89,151.00 L 303.00 151.00 L 303.00 121.00 L 292.04 121.00 L 289.50 124.79 L 291.97 121.00 L 260.44 121.00 L 258.19 124.35 C259.17,122.84 259.77,121.90 259.83,121.75 C260.02,121.34 254.80,121.00 248.24,121.00 L 236.31 121.00 L 231.78 127.80 C233.02,125.91 233.95,124.49 234.35,123.87 L 236.20 121.00 L 205.22 121.00 L 202.83 124.61 C203.64,123.37 204.16,122.55 204.30,122.32 C204.94,121.26 202.90,121.00 193.74,121.00 L 182.38 121.00 L 178.38 126.88 C179.32,125.46 180.02,124.39 180.35,123.88 L 182.20 121.00 L 153.15 121.00 L 149.28 126.56 L 153.12 121.00 L 141.81 121.01 L 130.50 121.02 L 126.27 127.17 C128.53,123.81 130.00,121.56 130.00,121.43 C130.00,121.19 123.59,121.01 115.75,121.03 C102.39,121.06 101.45,121.17 99.98,123.19 C100.62,122.19 101.00,121.56 101.00,121.46 C101.00,121.21 96.92,121.00 91.94,121.00 L 82.89 121.00 L 84.44 123.22 C85.56,124.81 86.00,127.87 86.00,133.94 C86.00,138.31 85.94,140.78 86.66,141.04 C87.29,141.26 88.52,139.79 90.91,136.43 C86.29,143.35 82.00,149.96 82.00,150.30 C82.00,150.69 88.53,151.00 96.50,151.00 C104.47,151.00 111.00,150.64 111.00,150.20 C111.00,150.11 111.19,149.74 111.55,149.14 C111.45,149.32 111.38,149.45 111.35,149.53 C110.87,150.77 112.50,150.99 121.64,150.96 L 132.50 150.92 ZM 75.25 142.02 L 79.00 142.00 L 79.00 126.78 L 70.78 119.14 C66.26,114.94 58.68,107.86 53.94,103.41 L 45.32 95.32 L 33.95 94.67 C27.69,94.32 22.21,94.39 21.77,94.83 C21.33,95.27 21.08,105.96 21.23,118.57 L 21.50 141.50 L 31.50 142.10 C37.00,142.43 48.25,142.55 56.50,142.37 C64.75,142.19 73.19,142.03 75.25,142.02 ZM 30.00 110.29 C22.71,107.61 23.88,98.00 31.50,98.00 C37.60,98.00 39.95,104.14 35.55,108.55 C33.01,111.08 32.54,111.23 30.00,110.29 ZM 26.65 137.17 C23.18,133.33 26.07,126.00 31.05,126.00 C33.38,126.00 38.00,130.20 38.00,132.32 C38.00,133.10 37.07,134.92 35.93,136.37 C33.46,139.50 29.11,139.88 26.65,137.17 ZM 64.65 137.17 C62.46,134.74 62.55,129.72 64.83,127.65 C68.98,123.90 75.00,126.87 75.00,132.67 C75.00,138.24 68.27,141.17 64.65,137.17 ZM 82.00 150.00 C82.00,149.35 70.98,149.00 50.94,149.00 C30.49,149.00 20.09,149.34 20.50,150.00 C20.89,150.63 32.34,151.00 51.56,151.00 C71.19,151.00 82.00,150.64 82.00,150.00 ZM 15.00 93.70 C15.00,91.89 15.54,89.86 16.20,89.20 C17.65,87.75 16.96,87.69 13.64,88.95 C11.32,89.83 11.22,90.12 12.24,93.45 C13.61,97.91 15.00,98.03 15.00,93.70 ZM 68.00 132.00 C68.00,132.55 68.45,133.00 69.00,133.00 C69.55,133.00 70.00,132.55 70.00,132.00 C70.00,131.45 69.55,131.00 69.00,131.00 C68.45,131.00 68.00,131.45 68.00,132.00 ZM 141.47 53.43 C142.04,53.85 143.07,54.68 144.41,55.79 C143.76,55.26 143.12,54.75 142.50,54.25 L 141.47 53.43 Z" fill="rgba(11,192,229,1)"/>
<path d="M 68.00 132.00 C68.00,131.45 68.45,131.00 69.00,131.00 C69.55,131.00 70.00,131.45 70.00,132.00 C70.00,132.55 69.55,133.00 69.00,133.00 C68.45,133.00 68.00,132.55 68.00,132.00 Z" fill="rgba(100,117,131,1)"/>
<path d="M 39.36 310.92 C29.91,308.15 20.94,297.90 19.64,288.39 C19.29,285.82 19.00,255.21 19.00,220.36 L 19.00 157.00 L 26.00 157.00 L 26.00 223.03 C26.00,280.37 26.20,289.55 27.55,292.77 C29.70,297.93 32.68,300.88 38.50,303.62 L 43.50 305.98 L 162.50 305.97 L 281.50 305.95 L 286.46 303.23 C289.31,301.66 292.72,298.66 294.46,296.16 L 297.50 291.83 L 297.78 224.41 L 298.05 157.00 L 304.30 157.00 L 303.57 224.73 C302.96,280.75 302.58,293.07 301.37,295.98 C299.50,300.47 293.64,306.55 288.50,309.33 L 284.50 311.50 L 163.50 311.67 C92.17,311.77 41.21,311.47 39.36,310.92 ZM 41.67 241.34 C41.30,240.97 41.00,239.62 41.00,238.34 L 41.00 236.01 L 175.50 235.50 L 175.77 208.25 L 176.03 181.00 L 109.77 180.98 C73.32,180.98 42.90,180.59 42.16,180.12 C41.43,179.66 40.98,178.20 41.16,176.89 L 41.50 174.50 L 282.50 174.50 L 282.50 180.50 L 232.23 180.76 L 181.97 181.02 L 182.23 208.26 L 182.50 235.50 L 232.82 235.76 L 283.13 236.02 L 282.82 238.76 L 282.50 241.50 L 162.42 241.75 C96.38,241.89 42.04,241.71 41.67,241.34 ZM 42.25 272.34 C41.56,272.06 41.00,270.80 41.00,269.55 L 41.00 267.26 L 80.25 266.70 C101.84,266.39 156.06,266.14 200.75,266.13 C276.40,266.13 282.06,266.25 282.91,267.84 C283.48,268.89 283.46,270.22 282.87,271.28 C281.96,272.89 274.55,273.00 162.70,272.92 C97.14,272.88 42.94,272.62 42.25,272.34 ZM 116.00 191.00 L 118.78 191.00 C121.13,191.00 122.18,192.01 125.53,197.50 C127.71,201.07 129.84,204.00 130.25,204.00 C130.66,204.00 131.00,201.30 131.00,198.00 C131.00,192.27 131.11,192.00 133.50,192.00 L 136.00 192.00 L 136.00 214.13 L 133.28 213.82 C131.22,213.58 129.45,211.92 126.03,207.00 L 121.50 200.50 L 121.20 207.25 C120.92,213.67 120.79,214.00 118.45,214.00 L 116.00 214.00 L 116.00 191.00 ZM 211.45 212.25 C211.77,211.29 213.49,206.45 215.28,201.50 C218.47,192.66 218.59,192.49 222.01,192.21 L 225.50 191.93 L 228.89 201.71 C230.75,207.10 232.49,212.06 232.74,212.75 C233.05,213.55 232.27,214.00 230.58,214.00 C228.70,214.00 227.68,213.29 227.00,211.50 C226.20,209.40 225.40,209.00 222.00,209.00 C218.60,209.00 217.80,209.40 217.00,211.50 C215.84,214.56 210.44,215.29 211.45,212.25 ZM 96.67 213.33 C96.30,212.97 96.00,208.08 96.00,202.47 L 96.00 192.27 L 100.64 191.64 C103.19,191.29 106.82,191.00 108.71,191.00 C111.69,191.00 112.10,191.29 111.82,193.25 C111.55,195.17 110.80,195.54 106.75,195.80 C102.82,196.06 102.00,196.44 102.00,198.05 C102.00,199.66 102.70,200.00 106.00,200.00 C109.60,200.00 110.00,200.25 110.00,202.50 C110.00,204.75 109.60,205.00 106.00,205.00 C102.40,205.00 102.00,205.25 102.00,207.50 C102.00,209.83 102.33,210.00 107.00,210.00 C111.33,210.00 112.00,210.27 112.00,212.00 C112.00,213.82 111.33,214.00 104.67,214.00 C100.63,214.00 97.03,213.70 96.67,213.33 ZM 236.00 203.11 C236.00,194.10 236.27,192.11 237.58,191.61 C240.55,190.47 241.00,191.00 241.03,195.75 L 241.06 200.50 L 244.78 196.35 C248.07,192.68 254.07,189.66 253.96,191.73 C253.93,192.15 252.17,194.49 250.03,196.92 L 246.15 201.34 L 250.57 207.10 C253.01,210.26 255.00,213.11 255.00,213.42 C255.00,213.74 253.68,214.00 252.06,214.00 C249.78,214.00 248.50,213.12 246.31,210.02 C242.66,204.86 241.00,204.86 241.00,210.00 C241.00,213.60 240.75,214.00 238.50,214.00 L 236.00 214.00 ZM 141.00 192.00 L 146.92 192.00 C150.17,192.00 153.59,191.71 154.51,191.36 C155.82,190.85 156.10,191.22 155.84,193.11 C155.54,195.19 154.89,195.54 150.75,195.80 C146.82,196.06 146.00,196.44 146.00,198.05 C146.00,199.70 146.71,200.00 150.57,200.00 C154.74,200.00 155.11,200.20 154.82,202.25 C154.55,204.13 153.78,204.55 150.19,204.81 C146.40,205.08 145.91,205.39 146.19,207.31 C146.46,209.20 147.22,209.54 151.75,209.80 C156.18,210.06 157.00,210.41 157.00,212.05 C157.00,213.82 156.26,214.00 149.00,214.00 L 141.00 214.00 L 141.00 192.00 ZM 257.61 203.34 C257.22,197.39 257.31,192.29 257.81,191.79 C258.30,191.30 261.80,191.04 265.60,191.20 C271.73,191.47 272.50,191.72 272.50,193.50 C272.50,195.18 271.73,195.55 267.69,195.81 C263.38,196.08 262.91,196.34 263.19,198.31 C263.45,200.12 264.25,200.55 267.81,200.81 C271.23,201.06 272.06,201.47 271.80,202.81 C271.57,204.02 270.27,204.59 267.24,204.81 C263.49,205.08 263.00,205.40 263.00,207.56 C263.00,209.82 263.36,210.00 268.00,210.00 C272.33,210.00 273.00,210.27 273.00,212.00 C273.00,213.82 272.33,214.00 265.65,214.00 L 258.29 214.00 ZM 58.19 213.88 C55.86,213.20 54.97,212.40 55.20,211.20 C55.46,209.87 56.62,209.50 60.49,209.50 C67.08,209.50 67.79,207.11 61.97,204.49 C57.82,202.62 55.00,199.68 55.00,197.23 C55.00,196.50 56.10,194.80 57.45,193.45 C59.31,191.60 60.96,191.00 64.20,191.02 C66.57,191.02 69.17,191.46 69.99,191.97 C72.34,193.46 69.58,195.50 65.22,195.50 C60.27,195.50 59.58,198.31 64.13,199.90 C68.96,201.58 71.00,203.87 71.00,207.63 C71.00,212.85 64.85,215.85 58.19,213.88 ZM 71.45 260.55 C68.13,257.22 68.06,251.23 71.31,248.17 C74.69,245.00 80.24,245.22 82.93,248.63 C87.44,254.37 83.87,263.00 77.00,263.00 C75.05,263.00 73.00,262.09 71.45,260.55 ZM 65.75 295.22 C64.26,294.91 64.00,293.67 64.00,286.93 L 64.00 279.00 L 69.05 279.00 C73.07,279.00 74.59,279.50 76.55,281.45 C79.48,284.39 79.76,288.84 77.21,291.98 C75.44,294.17 69.18,295.94 65.75,295.22 ZM 81.27 213.55 C77.68,211.95 74.01,206.73 74.00,203.22 C74.00,199.18 76.75,194.18 79.87,192.57 C83.10,190.90 89.66,190.50 91.78,191.85 C94.32,193.45 92.05,195.74 88.03,195.64 C82.80,195.50 80.00,198.11 80.00,203.13 C80.00,208.07 83.27,210.55 88.51,209.56 C91.24,209.05 92.17,209.27 92.65,210.52 C92.99,211.41 92.87,212.52 92.38,212.99 C90.63,214.68 84.51,214.99 81.27,213.55 ZM 239.69 295.35 C238.82,294.49 238.79,286.29 239.64,282.07 C240.59,277.28 244.05,278.20 245.97,283.75 C246.78,286.09 247.69,288.00 248.00,288.00 C248.31,288.00 249.22,286.09 250.03,283.75 C251.08,280.71 252.13,279.41 253.69,279.19 C255.48,278.93 256.00,279.49 256.51,282.19 C257.57,287.86 256.71,295.50 255.00,295.50 C254.01,295.50 253.30,294.13 252.93,291.50 L 252.36 287.50 L 250.66 291.25 C249.73,293.31 248.49,295.00 247.91,295.00 C247.32,295.00 246.09,293.09 245.17,290.75 L 243.50 286.50 L 243.00 290.92 C242.53,295.11 241.21,296.88 239.69,295.35 ZM 89.67 295.33 C89.30,294.97 89.00,291.14 89.00,286.83 L 89.00 279.00 L 93.85 279.00 C100.88,279.00 104.10,283.02 100.37,287.15 C98.86,288.81 98.86,289.14 100.37,291.44 C102.41,294.56 102.44,296.00 100.45,296.00 C99.60,296.00 98.14,294.65 97.20,293.01 C95.00,289.14 93.00,289.13 93.00,293.00 C93.00,295.82 91.33,296.99 89.67,295.33 ZM 54.69 262.35 C54.31,261.98 54.00,258.12 54.00,253.78 L 54.00 245.90 L 59.22 246.20 C63.68,246.46 64.65,246.89 65.93,249.18 C67.30,251.62 67.27,252.04 65.61,253.88 C63.83,255.85 63.84,256.01 65.97,259.45 C68.15,262.98 68.15,263.00 66.11,263.00 C64.98,263.00 63.06,261.65 61.84,260.00 C59.11,256.30 58.22,256.23 57.82,259.67 C57.50,262.35 55.98,263.65 54.69,262.35 ZM 202.00 205.06 L 202.00 196.13 L 198.76 195.81 C196.62,195.61 195.40,194.90 195.18,193.75 C194.89,192.18 195.85,192.00 204.43,192.00 C213.33,192.00 214.00,192.14 214.00,194.00 C214.00,195.62 213.33,196.00 210.50,196.00 L 207.00 196.00 L 207.00 205.00 C207.00,213.93 206.98,214.00 204.50,214.00 C202.02,214.00 202.00,213.93 202.00,205.06 ZM 221.75 295.42 C221.43,295.10 221.73,293.41 222.42,291.67 C223.11,289.93 224.46,286.36 225.42,283.75 C226.77,280.07 227.66,279.00 229.35,279.00 C231.17,279.00 231.99,280.29 234.28,286.75 C235.79,291.01 237.02,294.84 237.01,295.25 C236.99,296.93 233.77,295.85 233.29,294.00 C232.90,292.51 231.93,292.00 229.45,292.00 C227.01,292.00 225.97,292.53 225.50,294.00 C224.89,295.92 222.98,296.64 221.75,295.42 ZM 209.99 293.14 C204.10,287.25 207.58,279.00 215.95,279.00 C219.21,279.00 220.00,279.36 220.00,280.83 C220.00,282.26 219.40,282.56 217.16,282.24 C211.47,281.40 208.67,288.43 213.45,291.56 C214.95,292.54 216.73,292.90 218.04,292.49 C219.76,291.94 220.11,292.17 219.83,293.65 C219.60,294.91 218.45,295.60 216.23,295.81 C213.70,296.06 212.31,295.46 209.99,293.14 ZM 88.71 262.38 C88.32,261.99 88.00,258.14 88.00,253.83 C88.00,246.67 88.17,246.00 90.00,246.00 C91.81,246.00 92.00,246.67 92.00,253.00 L 92.00 260.00 L 96.08 260.00 C98.90,260.00 100.04,260.39 99.75,261.25 C99.31,262.61 89.90,263.57 88.71,262.38 ZM 101.71 262.38 C99.83,260.50 101.53,246.00 103.63,246.00 C104.65,246.00 105.00,247.65 105.00,252.39 C105.00,259.22 105.58,260.00 110.67,260.00 C112.22,260.00 113.01,260.47 112.75,261.25 C112.31,262.61 102.90,263.57 101.71,262.38 ZM 79.48 258.37 C83.08,254.77 79.35,247.04 75.25,249.61 C72.77,251.16 72.36,257.06 74.61,258.71 C76.90,260.38 77.52,260.34 79.48,258.37 ZM 82.69 295.35 C82.31,294.98 82.00,291.14 82.00,286.83 C82.00,279.61 82.16,279.00 84.04,279.00 C85.95,279.00 86.06,279.52 85.79,287.17 C85.52,294.65 84.55,297.22 82.69,295.35 ZM 73.44 289.78 C74.30,288.56 75.00,287.01 75.00,286.35 C75.00,284.50 72.08,282.00 69.93,282.00 C68.28,282.00 68.00,282.73 68.00,287.00 C68.00,291.28 68.28,292.00 69.94,292.00 C71.01,292.00 72.59,291.00 73.44,289.78 ZM 223.99 203.75 C223.96,201.41 222.77,198.00 221.98,198.00 C220.96,198.00 218.99,203.65 219.75,204.41 C220.84,205.50 224.00,205.01 223.99,203.75 ZM 105.05 294.56 C103.68,292.91 104.43,291.00 106.45,291.00 C108.36,291.00 109.12,293.66 107.57,294.94 C106.61,295.74 105.94,295.64 105.05,294.56 ZM 97.50 284.00 C97.50,283.17 96.49,282.36 95.25,282.18 C93.52,281.93 93.00,282.35 93.00,284.00 C93.00,285.65 93.52,286.07 95.25,285.82 C96.49,285.64 97.50,284.83 97.50,284.00 ZM 62.00 251.00 C62.00,249.67 61.33,249.00 60.00,249.00 C58.67,249.00 58.00,249.67 58.00,251.00 C58.00,252.33 58.67,253.00 60.00,253.00 C61.33,253.00 62.00,252.33 62.00,251.00 ZM 261.10 295.06 C259.58,294.13 260.28,291.00 262.00,291.00 C263.46,291.00 264.47,293.93 263.37,295.03 C262.87,295.53 261.88,295.54 261.10,295.06 ZM 230.26 288.40 C231.07,287.60 230.02,285.00 228.89,285.00 C228.40,285.00 228.00,285.90 228.00,287.00 C228.00,288.95 229.06,289.61 230.26,288.40 Z" fill="rgba(245,245,245,1)"/>
<path d="M 82.00 150.30 C82.00,149.72 94.67,130.61 99.91,123.28 C101.42,121.17 102.19,121.06 115.75,121.03 C123.59,121.01 130.00,121.19 130.00,121.43 C130.00,121.66 125.72,128.05 120.50,135.63 C115.28,143.21 111.00,149.77 111.00,150.20 C111.00,150.64 104.47,151.00 96.50,151.00 C88.53,151.00 82.00,150.69 82.00,150.30 ZM 133.00 150.49 C133.00,150.21 137.53,143.46 143.07,135.49 L 153.15 121.00 L 167.67 121.00 L 182.20 121.00 L 180.35 123.88 C179.33,125.46 174.90,132.17 170.50,138.80 L 162.50 150.84 L 147.75 150.92 C139.64,150.96 133.00,150.77 133.00,150.49 ZM 186.00 150.52 C186.00,150.25 190.32,143.50 195.61,135.52 L 205.22 121.00 L 220.71 121.00 L 236.20 121.00 L 234.35 123.87 C233.33,125.45 228.90,132.20 224.50,138.85 L 216.50 150.96 L 201.25 150.98 C192.86,150.99 186.00,150.78 186.00,150.52 ZM 241.00 150.45 C241.00,150.15 245.37,143.40 250.72,135.45 L 260.44 121.00 L 276.20 121.00 L 291.97 121.00 L 282.24 135.93 L 272.50 150.86 L 256.75 150.93 C248.09,150.97 241.00,150.75 241.00,150.45 ZM 60.55 91.60 C53.42,85.37 47.47,79.88 47.31,79.39 C47.15,78.90 52.71,76.83 59.65,74.79 C69.91,71.76 72.58,71.30 73.94,72.29 C77.95,75.19 100.00,94.31 99.99,94.88 C99.99,95.44 75.18,103.19 74.00,103.00 C73.72,102.95 67.67,97.82 60.55,91.60 ZM 106.84 76.87 C90.85,63.26 90.67,65.25 108.35,60.00 L 119.00 56.83 L 132.50 68.52 C139.93,74.95 146.00,80.50 146.00,80.86 C146.00,81.21 140.33,83.13 133.40,85.12 L 120.80 88.74 L 106.84 76.87 ZM 155.00 64.87 C148.68,59.32 142.46,54.08 141.20,53.24 C139.93,52.39 139.26,51.37 139.70,50.96 C140.56,50.15 163.11,43.00 164.78,43.00 C165.33,43.00 170.89,47.40 177.14,52.77 C183.39,58.15 189.76,63.52 191.31,64.71 L 194.12 66.88 L 183.81 69.99 C178.14,71.71 172.20,73.54 170.60,74.06 C169.01,74.57 167.43,74.99 167.10,74.98 C166.77,74.97 161.32,70.42 155.00,64.87 ZM 200.00 49.28 C192.57,42.91 186.38,37.40 186.23,37.03 C185.89,36.20 210.40,28.62 211.79,29.13 C212.35,29.33 218.91,34.67 226.37,40.98 C234.83,48.14 239.47,52.71 238.72,53.13 C237.78,53.64 225.12,57.53 214.50,60.57 C213.95,60.73 207.43,55.65 200.00,49.28 ZM 245.50 34.81 C238.35,28.71 232.38,23.41 232.22,23.03 C232.07,22.65 237.77,20.62 244.90,18.53 C257.75,14.75 257.87,14.74 260.34,16.61 C266.39,21.19 285.89,37.56 285.94,38.10 C286.01,38.82 262.16,46.04 260.00,45.95 C259.17,45.92 252.65,40.90 245.50,34.81 Z" fill="rgba(249,218,11,1)"/>
</g>
</svg>