<svg xmlns="http://www.w3.org/2000/svg" width="344" height="192" viewBox="0 0 344 192">
<g>
<path d="M 311.23 175.25 L 309.53 180.00 L 34.32 180.00 L 33.17 176.16 C30.83,168.36 20.36,158.00 14.80,158.00 C13.08,158.00 13.00,155.09 13.00,96.12 L 13.00 34.23 L 18.47 31.56 C24.77,28.48 30.22,22.62 32.61,16.35 L 34.27 12.00 L 309.73 12.00 L 311.51 16.68 C313.77,22.59 320.19,29.06 326.28,31.56 L 330.99 33.50 L 331.00 156.88 L 324.93 160.12 C317.86,163.88 313.62,168.58 311.23,175.25 ZM 39.32 171.25 C39.90,172.90 47.12,173.00 171.83,173.00 L 303.73 173.00 L 305.51 168.35 C307.88,162.13 312.77,156.92 318.93,154.03 L 324.00 151.66 L 324.00 39.06 L 319.02 36.91 C313.19,34.40 306.77,27.86 305.05,22.67 L 303.84 19.00 L 39.93 19.00 L 38.06 23.35 C35.41,29.54 30.95,34.21 25.08,36.96 L 20.00 39.34 L 20.00 151.94 L 25.01 154.10 C32.02,157.11 36.04,161.94 39.32,171.25 ZM 82.36 164.50 C81.88,165.76 78.82,166.00 63.41,166.00 L 45.04 166.00 L 43.07 162.13 C40.17,156.46 36.36,152.30 31.39,149.39 L 27.00 146.81 L 27.00 44.05 L 30.06 42.47 C34.99,39.92 40.52,34.38 42.48,30.04 L 44.30 26.00 L 81.87 26.00 L 82.18 28.65 C82.85,34.19 89.00,33.95 89.00,28.38 L 89.00 26.00 L 267.87 26.00 L 268.18 28.65 C268.85,34.19 275.00,33.95 275.00,28.38 C275.00,26.01 275.03,26.00 286.98,26.00 L 298.96 26.00 L 300.91 29.82 C303.07,34.05 309.23,40.03 313.94,42.47 L 317.00 44.05 L 317.00 146.96 L 313.21 148.90 C308.61,151.24 301.93,158.30 300.10,162.75 L 298.76 166.00 L 286.99 166.00 C277.44,166.00 275.10,165.72 274.64,164.50 C274.32,163.68 272.97,163.00 271.64,163.00 C270.30,163.00 268.95,163.68 268.64,164.50 C268.13,165.82 257.20,166.00 178.64,166.00 C100.07,166.00 89.14,165.82 88.64,164.50 C88.32,163.68 86.91,163.00 85.50,163.00 C84.09,163.00 82.68,163.68 82.36,164.50 ZM 96.93 149.42 C98.11,150.84 106.49,151.00 178.50,151.00 C249.17,151.00 260.19,151.11 260.97,148.34 C261.14,147.73 260.81,146.97 260.51,146.04 C259.86,143.99 259.80,143.99 178.79,144.24 C104.39,144.48 97.63,144.64 96.67,146.17 C95.90,147.38 95.98,148.27 96.93,149.42 ZM 96.97 45.94 C98.07,48.00 98.26,48.00 178.41,48.00 C250.50,48.00 258.89,47.84 260.07,46.42 C261.02,45.27 261.10,44.38 260.33,43.17 C259.37,41.64 252.65,41.48 178.77,41.24 C108.79,41.02 96.70,40.89 96.07,43.51 C95.92,44.15 96.43,44.94 96.97,45.94 ZM 140.60 132.79 C145.36,135.59 152.70,135.36 156.82,132.29 C166.07,125.39 165.58,109.70 155.97,104.69 C151.49,102.36 143.04,102.85 139.21,105.66 C133.24,110.03 131.19,120.12 134.85,127.02 C135.87,128.93 138.46,131.53 140.60,132.79 ZM 139.44 87.70 C140.30,89.94 153.56,89.39 158.72,86.89 C168.96,81.94 169.90,66.57 160.35,60.31 C158.23,58.92 155.58,58.51 148.56,58.51 L 139.50 58.50 L 139.22 72.45 C139.07,80.13 139.17,86.99 139.44,87.70 ZM 173.01 81.75 L 173.00 89.00 L 176.00 89.00 C178.90,89.00 179.00,88.84 179.07,84.25 C179.11,81.64 179.46,77.47 179.84,75.00 L 180.53 70.50 L 183.52 78.00 C186.29,84.96 186.72,85.50 189.45,85.50 C192.19,85.50 192.62,84.95 195.56,77.72 L 198.73 69.94 L 199.35 73.72 C199.70,75.80 199.98,80.09 199.99,83.25 L 200.00 89.00 L 207.09 89.00 L 206.51 78.75 C206.19,73.11 205.68,66.11 205.38,63.20 L 204.84 57.89 L 196.82 58.50 L 193.79 66.50 C192.11,70.90 190.43,74.85 190.05,75.27 C189.67,75.70 187.99,72.10 186.32,67.27 L 183.28 58.50 L 178.79 58.20 L 174.30 57.90 L 173.66 66.20 C173.30,70.77 173.01,77.76 173.01,81.75 ZM 169.92 134.58 C170.15,134.81 171.59,135.00 173.13,135.00 L 175.93 135.00 L 176.22 124.83 L 176.50 114.67 L 183.00 124.58 C188.84,133.49 189.81,134.50 192.50,134.50 L 195.50 134.50 L 196.05 104.00 L 190.00 104.00 L 190.00 112.50 C190.00,117.18 189.59,121.00 189.08,121.00 C188.57,121.00 185.76,117.18 182.83,112.50 C177.68,104.30 177.37,104.00 173.75,104.00 C170.34,104.00 169.99,104.25 169.93,106.75 C169.58,119.45 169.58,134.24 169.92,134.58 ZM 106.06 87.75 C106.02,88.52 107.32,89.00 109.42,89.00 C112.45,89.00 112.98,88.59 114.00,85.50 C115.13,82.09 115.29,82.00 120.43,82.00 C125.53,82.00 125.74,82.11 126.64,85.25 C127.44,88.08 128.05,88.54 131.28,88.81 C133.33,88.98 135.00,88.77 135.00,88.35 C135.00,87.93 132.64,80.91 129.75,72.76 L 124.50 57.93 L 116.57 58.50 L 111.34 72.50 C108.47,80.20 106.09,87.06 106.06,87.75 ZM 204.70 134.37 C205.09,134.75 209.70,134.94 214.95,134.78 L 224.50 134.50 L 224.81 131.80 C225.12,129.12 225.06,129.09 218.31,128.80 L 211.50 128.50 L 211.19 125.30 L 210.88 122.10 L 216.69 121.80 C222.17,121.52 222.52,121.35 222.81,118.80 C223.11,116.17 222.97,116.10 217.31,115.80 C211.80,115.52 211.48,115.36 211.18,112.75 L 210.87 110.00 L 224.00 110.00 L 224.00 104.00 L 204.00 104.00 L 204.00 118.83 C204.00,126.99 204.32,133.98 204.70,134.37 ZM 235.00 64.11 L 235.00 89.00 L 242.00 89.00 L 242.00 64.00 L 246.50 64.00 C250.84,64.00 251.00,63.89 251.00,60.97 L 251.00 57.94 L 225.50 58.50 L 225.50 61.00 C225.50,63.27 225.93,63.53 230.25,63.80 L 235.00 64.11 ZM 44.59 143.14 C45.36,144.39 46.47,144.21 49.87,142.26 C52.77,140.60 53.05,140.60 55.96,142.32 C59.97,144.69 61.15,143.78 60.37,138.93 C59.82,135.48 60.07,134.73 62.37,132.92 C66.12,129.97 65.73,128.18 61.25,127.81 C58.08,127.55 57.19,126.92 55.50,123.75 C53.02,119.11 51.48,119.01 50.03,123.39 C48.91,126.79 46.93,127.96 42.25,127.99 C39.18,128.00 39.43,129.51 43.02,132.76 C45.78,135.26 45.96,135.79 45.05,138.89 C44.50,140.76 44.30,142.67 44.59,143.14 ZM 44.57 105.11 C45.36,106.40 46.46,106.22 49.87,104.26 C52.76,102.60 53.05,102.60 55.86,104.26 C60.58,107.05 61.32,106.60 60.54,101.45 C59.93,97.34 60.11,96.70 62.43,94.88 C66.12,91.97 65.71,90.18 61.25,89.81 C58.08,89.55 57.19,88.92 55.50,85.75 C54.40,83.69 53.17,82.00 52.76,82.00 C52.35,82.00 51.22,83.69 50.26,85.75 C48.87,88.70 47.86,89.56 45.50,89.79 C39.70,90.36 39.45,90.83 42.96,94.46 C46.00,97.59 46.16,98.09 45.14,101.04 C44.52,102.79 44.27,104.63 44.57,105.11 ZM 44.59 67.14 C45.29,68.28 45.37,68.27 49.49,66.30 C52.85,64.70 53.23,64.70 55.93,66.30 C60.52,69.01 61.31,68.57 60.58,63.70 C60.02,59.95 60.26,59.11 62.47,57.03 C66.18,53.54 65.73,52.00 60.99,52.00 C57.25,52.00 56.88,51.74 55.38,48.00 C54.50,45.80 53.39,44.00 52.91,44.00 C52.43,44.00 51.12,45.80 50.00,48.00 C48.24,51.45 47.50,52.00 44.65,52.00 C39.91,52.00 39.56,52.95 42.97,56.47 C45.68,59.27 45.89,59.91 45.02,62.93 C44.49,64.78 44.30,66.67 44.59,67.14 ZM 283.38 84.56 C283.81,85.67 286.03,86.00 292.97,86.00 C301.33,86.00 302.00,85.85 302.00,84.00 C302.00,82.30 301.33,82.00 297.50,82.00 C291.85,82.00 291.76,80.87 297.25,78.97 C303.25,76.90 303.58,73.84 298.01,72.00 C293.51,70.52 294.43,68.74 299.20,69.69 C301.70,70.19 302.00,69.97 302.00,67.62 L 302.00 65.00 L 283.00 65.00 L 283.00 67.87 C283.00,70.46 283.57,70.94 289.08,72.95 C292.43,74.17 294.98,75.36 294.74,75.59 C294.51,75.82 291.89,76.84 288.91,77.85 C283.58,79.66 282.16,81.38 283.38,84.56 ZM 153.55 126.55 C150.56,129.54 147.13,129.68 143.67,126.96 C140.50,124.46 139.39,119.37 140.98,114.56 C143.00,108.43 150.14,106.82 153.93,111.63 C157.01,115.55 156.81,123.28 153.55,126.55 ZM 156.69 80.59 C154.75,82.26 152.67,83.00 149.94,83.00 L 146.00 83.00 L 146.00 64.00 L 149.94 64.00 C155.98,64.00 159.50,67.50 159.50,73.50 C159.50,77.38 159.02,78.58 156.69,80.59 ZM 214.00 58.00 L 214.00 89.00 L 221.00 89.00 L 221.00 58.00 L 214.00 58.00 ZM 283.38 119.55 C283.81,120.67 286.00,121.00 292.97,121.00 C301.33,121.00 302.00,120.85 302.00,119.00 C302.00,117.27 301.33,117.00 297.00,117.00 C294.25,117.00 292.00,116.64 292.00,116.21 C292.00,115.77 294.24,114.08 296.98,112.46 C300.58,110.32 301.97,108.88 301.98,107.25 C302.00,105.07 301.69,105.00 292.50,105.00 C283.67,105.00 283.00,105.14 283.00,107.00 C283.00,108.77 283.67,109.00 288.74,109.00 L 294.47 109.00 L 289.31 112.48 C283.49,116.40 282.58,117.47 283.38,119.55 ZM 292.25 59.18 C300.08,62.17 301.56,62.47 301.87,61.14 C302.07,60.27 301.28,58.93 300.12,58.16 C297.27,56.27 297.19,51.02 300.00,50.29 C301.29,49.95 302.00,48.93 302.00,47.38 C302.00,46.07 301.67,45.00 301.27,45.00 C300.87,45.00 296.59,46.41 291.77,48.14 C284.37,50.78 283.00,51.62 283.00,53.46 C283.00,55.30 284.47,56.22 292.25,59.18 ZM 283.67 101.33 C284.03,101.70 288.31,102.00 293.17,102.00 L 302.00 102.00 L 302.00 95.50 C302.00,90.51 301.67,89.00 300.56,89.00 C299.62,89.00 299.01,90.30 298.81,92.75 C298.56,95.73 298.09,96.50 296.50,96.50 C294.97,96.50 294.43,95.73 294.19,93.25 C293.77,88.94 291.23,88.93 290.81,93.24 C290.61,95.38 289.90,96.60 288.75,96.82 C287.35,97.08 287.00,96.44 287.00,93.57 C287.00,90.67 286.63,90.00 285.00,90.00 C283.25,90.00 283.00,90.67 283.00,95.33 C283.00,98.27 283.30,100.97 283.67,101.33 ZM 285.92 145.08 C290.91,150.06 299.00,148.64 301.64,142.31 C303.04,138.97 303.04,138.30 301.61,135.31 C300.74,133.49 299.60,132.00 299.08,132.00 C297.37,132.00 296.88,133.91 298.02,136.05 C298.90,137.67 298.80,138.66 297.60,140.49 C295.44,143.78 292.42,144.51 289.33,142.48 C287.11,141.02 286.83,140.28 287.29,136.90 C287.73,133.62 287.52,133.00 286.01,133.00 C281.92,133.00 281.86,141.01 285.92,145.08 ZM 83.06 120.57 C86.01,124.12 89.00,121.20 89.00,114.77 C89.00,109.58 87.23,107.74 84.11,109.69 C82.13,110.93 81.39,118.56 83.06,120.57 ZM 83.75 138.92 C84.71,139.48 85.78,139.95 86.13,139.97 C89.43,140.13 89.99,127.80 86.70,127.18 C83.70,126.61 82.00,128.92 82.00,133.57 C82.00,136.64 82.51,138.20 83.75,138.92 ZM 83.24 66.84 C83.92,67.52 85.38,67.95 86.49,67.79 C88.16,67.55 88.55,66.63 88.80,62.41 C89.15,56.42 87.47,54.14 84.06,55.97 C82.47,56.82 82.00,58.05 82.00,61.34 C82.00,63.68 82.56,66.16 83.24,66.84 ZM 83.20 102.80 C86.30,105.90 89.25,102.82 88.81,96.93 C88.21,88.79 82.00,89.25 82.00,97.42 C82.00,99.72 82.54,102.14 83.20,102.80 ZM 269.20 84.80 C272.30,87.90 275.25,84.82 274.81,78.93 C274.21,70.79 268.00,71.25 268.00,79.42 C268.00,81.72 268.54,84.14 269.20,84.80 ZM 269.20 102.80 C272.30,105.90 275.25,102.82 274.81,96.93 C274.21,88.79 268.00,89.25 268.00,97.42 C268.00,99.72 268.54,102.14 269.20,102.80 ZM 82.63 84.47 C83.04,85.54 84.17,86.00 85.88,85.80 C88.35,85.52 88.50,85.18 88.50,80.11 C88.50,74.03 86.50,71.51 83.58,73.93 C81.98,75.26 81.43,81.34 82.63,84.47 ZM 268.63 137.47 C269.04,138.54 270.17,139.00 271.88,138.80 C274.05,138.55 274.56,137.92 274.82,135.11 C275.35,129.64 274.29,127.00 271.59,127.00 C270.28,127.00 268.94,127.71 268.61,128.58 C267.82,130.64 267.83,135.39 268.63,137.47 ZM 283.00 127.00 C283.00,128.86 283.67,129.00 292.50,129.00 C301.33,129.00 302.00,128.86 302.00,127.00 C302.00,125.14 301.33,125.00 292.50,125.00 C283.67,125.00 283.00,125.14 283.00,127.00 ZM 269.20 66.80 C272.32,69.92 275.24,66.81 274.81,60.82 C274.55,57.14 274.15,56.45 272.11,56.16 C270.80,55.98 269.34,56.43 268.88,57.16 C267.62,59.15 267.83,65.43 269.20,66.80 ZM 268.63 155.47 C269.04,156.54 270.17,157.00 271.88,156.80 C274.35,156.52 274.50,156.19 274.50,151.00 C274.50,145.96 274.30,145.47 272.11,145.16 C270.80,144.98 269.34,145.43 268.88,146.16 C267.88,147.74 267.73,153.14 268.63,155.47 ZM 268.43 48.68 C268.78,49.59 270.03,50.01 271.74,49.82 C274.38,49.51 274.50,49.26 274.50,44.00 C274.50,38.56 274.47,38.50 271.50,38.50 C268.67,38.50 268.48,38.75 268.19,42.86 C268.01,45.26 268.12,47.88 268.43,48.68 ZM 82.43 155.68 C82.78,156.59 84.03,157.01 85.74,156.82 C88.38,156.51 88.50,156.26 88.50,151.00 C88.50,145.56 88.47,145.50 85.50,145.50 C82.67,145.50 82.48,145.75 82.19,149.86 C82.01,152.26 82.12,154.88 82.43,155.68 ZM 82.46 47.70 C82.95,49.64 83.62,50.06 85.78,49.81 C88.37,49.51 88.50,49.24 88.50,44.00 C88.50,38.56 88.47,38.50 85.50,38.50 C82.82,38.50 82.47,38.86 82.18,41.89 C82.00,43.75 82.13,46.37 82.46,47.70 ZM 268.71 120.38 C269.10,120.77 270.57,120.96 271.96,120.80 C274.29,120.52 274.50,120.10 274.50,115.61 C274.50,110.03 272.40,107.60 269.58,109.93 C267.97,111.27 267.32,118.99 268.71,120.38 ZM 123.25 76.42 C122.34,77.32 118.18,77.10 117.57,76.11 C116.99,75.18 118.76,69.07 120.02,67.67 C120.42,67.21 121.45,68.87 122.29,71.34 C123.13,73.82 123.56,76.10 123.25,76.42 ZM 293.60 52.26 C293.92,52.58 294.02,53.50 293.84,54.30 C293.58,55.43 292.94,55.53 291.00,54.77 L 288.50 53.79 L 290.76 52.74 C292.00,52.16 293.28,51.95 293.60,52.26 Z" fill="rgba(3,1,18,1)"/>
<path d="M 35.35 186.26 C29.47,185.92 29.16,185.77 28.04,182.70 C24.05,171.71 20.09,167.27 11.78,164.44 L 7.28 162.91 L 6.65 156.20 C5.84,147.61 5.80,38.72 6.61,32.84 C7.20,28.55 7.40,28.33 12.36,26.58 C19.07,24.21 24.38,18.63 26.58,11.67 L 28.27 6.30 L 41.79 5.65 C59.45,4.80 283.62,4.80 301.29,5.65 L 314.89 6.30 L 317.04 11.61 C319.56,17.81 327.42,25.73 331.96,26.64 C333.61,26.97 335.53,27.93 336.23,28.77 C337.22,29.96 337.57,43.14 337.83,87.90 C338.00,119.58 337.85,149.23 337.48,153.78 L 336.82 162.06 L 331.16 164.94 C324.03,168.57 319.83,172.97 316.70,180.09 L 314.25 185.68 L 301.38 186.34 C288.49,186.99 46.94,186.93 35.35,186.26 ZM 311.23 175.25 C313.62,168.58 317.86,163.88 324.93,160.12 L 331.00 156.88 L 330.99 33.50 L 326.28 31.56 C320.19,29.06 313.77,22.59 311.51,16.68 L 309.73 12.00 L 34.27 12.00 L 32.61 16.35 C30.22,22.62 24.77,28.48 18.47,31.56 L 13.00 34.23 L 13.00 96.12 C13.00,155.09 13.08,158.00 14.80,158.00 C20.36,158.00 30.83,168.36 33.17,176.16 L 34.32 180.00 L 309.53 180.00 Z" fill="rgba(10,189,226,1)"/>
<path d="M 39.32 171.25 C36.04,161.94 32.02,157.11 25.01,154.10 L 20.00 151.94 L 20.00 39.34 L 25.08 36.96 C30.95,34.21 35.41,29.54 38.06,23.35 L 39.93 19.00 L 303.84 19.00 L 305.05 22.67 C306.77,27.86 313.19,34.40 319.02,36.91 L 324.00 39.06 L 324.00 151.66 L 318.93 154.03 C312.77,156.92 307.88,162.13 305.51,168.35 L 303.73 173.00 L 171.83 173.00 C47.12,173.00 39.90,172.90 39.32,171.25 ZM 82.36 164.50 C82.68,163.68 84.09,163.00 85.50,163.00 C86.91,163.00 88.32,163.68 88.64,164.50 C89.14,165.82 100.07,166.00 178.64,166.00 C257.20,166.00 268.13,165.82 268.64,164.50 C268.95,163.68 270.30,163.00 271.64,163.00 C272.97,163.00 274.32,163.68 274.64,164.50 C275.10,165.72 277.44,166.00 286.99,166.00 L 298.76 166.00 L 300.10 162.75 C301.93,158.30 308.61,151.24 313.21,148.90 L 317.00 146.96 L 317.00 44.05 L 313.94 42.47 C309.23,40.03 303.07,34.05 300.91,29.82 L 298.96 26.00 L 286.98 26.00 C275.03,26.00 275.00,26.01 275.00,28.38 C275.00,33.95 268.85,34.19 268.18,28.65 L 267.87 26.00 L 89.00 26.00 L 89.00 28.38 C89.00,33.95 82.85,34.19 82.18,28.65 L 81.87 26.00 L 44.30 26.00 L 42.48 30.04 C40.52,34.38 34.99,39.92 30.06,42.47 L 27.00 44.05 L 27.00 146.81 L 31.39 149.39 C36.36,152.30 40.17,156.46 43.07,162.13 L 45.04 166.00 L 63.41 166.00 C78.82,166.00 81.88,165.76 82.36,164.50 ZM 96.93 149.42 C95.98,148.27 95.90,147.38 96.67,146.17 C97.63,144.64 104.39,144.48 178.79,144.24 C259.80,143.99 259.86,143.99 260.51,146.04 C260.81,146.97 261.14,147.73 260.97,148.34 C260.19,151.11 249.17,151.00 178.50,151.00 C106.49,151.00 98.11,150.84 96.93,149.42 ZM 96.97 45.94 C96.43,44.94 95.92,44.15 96.07,43.51 C96.70,40.89 108.79,41.02 178.77,41.24 C252.65,41.48 259.37,41.64 260.33,43.17 C261.10,44.38 261.02,45.27 260.07,46.42 C258.89,47.84 250.50,48.00 178.41,48.00 C98.26,48.00 98.07,48.00 96.97,45.94 ZM 83.06 120.57 C81.39,118.56 82.13,110.93 84.11,109.69 C87.23,107.74 89.00,109.58 89.00,114.77 C89.00,121.20 86.01,124.12 83.06,120.57 ZM 83.75 138.92 C82.51,138.20 82.00,136.64 82.00,133.57 C82.00,128.92 83.70,126.61 86.70,127.18 C89.99,127.80 89.43,140.13 86.13,139.97 C85.78,139.95 84.71,139.48 83.75,138.92 ZM 83.24 66.84 C82.56,66.16 82.00,63.68 82.00,61.34 C82.00,58.05 82.47,56.82 84.06,55.97 C87.47,54.14 89.15,56.42 88.80,62.41 C88.55,66.63 88.16,67.55 86.49,67.79 C85.38,67.95 83.92,67.52 83.24,66.84 ZM 83.20 102.80 C82.54,102.14 82.00,99.72 82.00,97.42 C82.00,89.25 88.21,88.79 88.81,96.93 C89.25,102.82 86.30,105.90 83.20,102.80 ZM 269.20 84.80 C268.54,84.14 268.00,81.72 268.00,79.42 C268.00,71.25 274.21,70.79 274.81,78.93 C275.25,84.82 272.30,87.90 269.20,84.80 ZM 269.20 102.80 C268.54,102.14 268.00,99.72 268.00,97.42 C268.00,89.25 274.21,88.79 274.81,96.93 C275.25,102.82 272.30,105.90 269.20,102.80 ZM 82.63 84.47 C81.43,81.34 81.98,75.26 83.58,73.93 C86.50,71.51 88.50,74.03 88.50,80.11 C88.50,85.18 88.35,85.52 85.88,85.80 C84.17,86.00 83.04,85.54 82.63,84.47 ZM 268.63 137.47 C267.83,135.39 267.82,130.64 268.61,128.58 C268.94,127.71 270.28,127.00 271.59,127.00 C274.29,127.00 275.35,129.64 274.82,135.11 C274.56,137.92 274.05,138.55 271.88,138.80 C270.17,139.00 269.04,138.54 268.63,137.47 ZM 269.20 66.80 C267.83,65.43 267.62,59.15 268.88,57.16 C269.34,56.43 270.80,55.98 272.11,56.16 C274.15,56.45 274.55,57.14 274.81,60.82 C275.24,66.81 272.32,69.92 269.20,66.80 ZM 268.63 155.47 C267.73,153.14 267.88,147.74 268.88,146.16 C269.34,145.43 270.80,144.98 272.11,145.16 C274.30,145.47 274.50,145.96 274.50,151.00 C274.50,156.19 274.35,156.52 271.88,156.80 C270.17,157.00 269.04,156.54 268.63,155.47 ZM 268.43 48.68 C268.12,47.88 268.01,45.26 268.19,42.86 C268.48,38.75 268.67,38.50 271.50,38.50 C274.47,38.50 274.50,38.56 274.50,44.00 C274.50,49.26 274.38,49.51 271.74,49.82 C270.03,50.01 268.78,49.59 268.43,48.68 ZM 82.43 155.68 C82.12,154.88 82.01,152.26 82.19,149.86 C82.48,145.75 82.67,145.50 85.50,145.50 C88.47,145.50 88.50,145.56 88.50,151.00 C88.50,156.26 88.38,156.51 85.74,156.82 C84.03,157.01 82.78,156.59 82.43,155.68 ZM 82.46 47.70 C82.13,46.37 82.00,43.75 82.18,41.89 C82.47,38.86 82.82,38.50 85.50,38.50 C88.47,38.50 88.50,38.56 88.50,44.00 C88.50,49.24 88.37,49.51 85.78,49.81 C83.62,50.06 82.95,49.64 82.46,47.70 ZM 268.71 120.38 C267.32,118.99 267.97,111.27 269.58,109.93 C272.40,107.60 274.50,110.03 274.50,115.61 C274.50,120.10 274.29,120.52 271.96,120.80 C270.57,120.96 269.10,120.77 268.71,120.38 Z" fill="rgba(228,37,103,1)"/>
<path d="M 44.59 143.14 C44.30,142.67 44.50,140.76 45.05,138.89 C45.96,135.79 45.78,135.26 43.02,132.76 C39.43,129.51 39.18,128.00 42.25,127.99 C46.93,127.96 48.91,126.79 50.03,123.39 C51.48,119.01 53.02,119.11 55.50,123.75 C57.19,126.92 58.08,127.55 61.25,127.81 C65.73,128.18 66.12,129.97 62.37,132.92 C60.07,134.73 59.82,135.48 60.37,138.93 C61.15,143.78 59.97,144.69 55.96,142.32 C53.05,140.60 52.77,140.60 49.87,142.26 C46.47,144.21 45.36,144.39 44.59,143.14 ZM 44.57 105.11 C44.27,104.63 44.52,102.79 45.14,101.04 C46.16,98.09 46.00,97.59 42.96,94.46 C39.45,90.83 39.70,90.36 45.50,89.79 C47.86,89.56 48.87,88.70 50.26,85.75 C51.22,83.69 52.35,82.00 52.76,82.00 C53.17,82.00 54.40,83.69 55.50,85.75 C57.19,88.92 58.08,89.55 61.25,89.81 C65.71,90.18 66.12,91.97 62.43,94.88 C60.11,96.70 59.93,97.34 60.54,101.45 C61.32,106.60 60.58,107.05 55.86,104.26 C53.05,102.60 52.76,102.60 49.87,104.26 C46.46,106.22 45.36,106.40 44.57,105.11 ZM 44.59 67.14 C44.30,66.67 44.49,64.78 45.02,62.93 C45.89,59.91 45.68,59.27 42.97,56.47 C39.56,52.95 39.91,52.00 44.65,52.00 C47.50,52.00 48.24,51.45 50.00,48.00 C51.12,45.80 52.43,44.00 52.91,44.00 C53.39,44.00 54.50,45.80 55.38,48.00 C56.88,51.74 57.25,52.00 60.99,52.00 C65.73,52.00 66.18,53.54 62.47,57.03 C60.26,59.11 60.02,59.95 60.58,63.70 C61.31,68.57 60.52,69.01 55.93,66.30 C53.23,64.70 52.85,64.70 49.49,66.30 C45.37,68.27 45.29,68.28 44.59,67.14 Z" fill="rgba(243,214,12,1)"/>
<path d="M 285.92 145.08 C281.86,141.01 281.92,133.00 286.01,133.00 C287.52,133.00 287.73,133.62 287.29,136.90 C286.83,140.28 287.11,141.02 289.33,142.48 C292.42,144.51 295.44,143.78 297.60,140.49 C298.80,138.66 298.90,137.67 298.02,136.05 C296.88,133.91 297.37,132.00 299.08,132.00 C299.60,132.00 300.74,133.49 301.61,135.31 C303.04,138.30 303.04,138.97 301.64,142.31 C299.00,148.64 290.91,150.06 285.92,145.08 ZM 140.60 132.79 C138.46,131.53 135.87,128.93 134.85,127.02 C131.19,120.12 133.24,110.03 139.21,105.66 C143.04,102.85 151.49,102.36 155.97,104.69 C165.58,109.70 166.07,125.39 156.82,132.29 C152.70,135.36 145.36,135.59 140.60,132.79 ZM 153.55 126.55 C156.81,123.28 157.01,115.55 153.93,111.63 C150.14,106.82 143.00,108.43 140.98,114.56 C139.39,119.37 140.50,124.46 143.67,126.96 C147.13,129.68 150.56,129.54 153.55,126.55 ZM 169.92 134.58 C169.58,134.24 169.58,119.45 169.93,106.75 C169.99,104.25 170.34,104.00 173.75,104.00 C177.37,104.00 177.68,104.30 182.83,112.50 C185.76,117.18 188.57,121.00 189.08,121.00 C189.59,121.00 190.00,117.18 190.00,112.50 L 190.00 104.00 L 193.03 104.00 L 196.05 104.00 L 195.78 119.25 L 195.50 134.50 L 192.50 134.50 C189.81,134.50 188.84,133.49 183.00,124.58 L 176.50 114.67 L 176.22 124.83 L 175.93 135.00 L 173.13 135.00 C171.59,135.00 170.15,134.81 169.92,134.58 ZM 204.70 134.37 C204.32,133.98 204.00,126.99 204.00,118.83 L 204.00 104.00 L 214.00 104.00 L 224.00 104.00 L 224.00 107.00 L 224.00 110.00 L 217.43 110.00 L 210.87 110.00 L 211.18 112.75 C211.48,115.36 211.80,115.52 217.31,115.80 C222.97,116.10 223.11,116.17 222.81,118.80 C222.52,121.35 222.17,121.52 216.69,121.80 L 210.88 122.10 L 211.19 125.30 L 211.50 128.50 L 218.31 128.80 C225.06,129.09 225.12,129.12 224.81,131.80 L 224.50 134.50 L 214.95 134.78 C209.70,134.94 205.09,134.75 204.70,134.37 ZM 283.00 127.00 C283.00,125.14 283.67,125.00 292.50,125.00 C301.33,125.00 302.00,125.14 302.00,127.00 C302.00,128.86 301.33,129.00 292.50,129.00 C283.67,129.00 283.00,128.86 283.00,127.00 ZM 283.38 119.55 C282.58,117.47 283.49,116.40 289.31,112.48 L 294.47 109.00 L 288.74 109.00 C283.67,109.00 283.00,108.77 283.00,107.00 C283.00,105.14 283.67,105.00 292.50,105.00 C301.69,105.00 302.00,105.07 301.98,107.25 C301.97,108.88 300.58,110.32 296.98,112.46 C294.24,114.08 292.00,115.77 292.00,116.21 C292.00,116.64 294.25,117.00 297.00,117.00 C301.33,117.00 302.00,117.27 302.00,119.00 C302.00,120.85 301.33,121.00 292.97,121.00 C286.00,121.00 283.81,120.67 283.38,119.55 ZM 283.67 101.33 C283.30,100.97 283.00,98.27 283.00,95.33 C283.00,90.67 283.25,90.00 285.00,90.00 C286.63,90.00 287.00,90.67 287.00,93.57 C287.00,96.44 287.35,97.08 288.75,96.82 C289.90,96.60 290.61,95.38 290.81,93.24 C291.23,88.93 293.77,88.94 294.19,93.25 C294.43,95.73 294.97,96.50 296.50,96.50 C298.09,96.50 298.56,95.73 298.81,92.75 C299.01,90.30 299.62,89.00 300.56,89.00 C301.67,89.00 302.00,90.51 302.00,95.50 L 302.00 102.00 L 293.17 102.00 C288.31,102.00 284.03,101.70 283.67,101.33 ZM 106.06 87.75 C106.09,87.06 108.47,80.20 111.34,72.50 L 116.57 58.50 L 120.53 58.22 L 124.50 57.93 L 129.75 72.76 C132.64,80.91 135.00,87.93 135.00,88.35 C135.00,88.77 133.33,88.98 131.28,88.81 C128.05,88.54 127.44,88.08 126.64,85.25 C125.74,82.11 125.53,82.00 120.43,82.00 C115.29,82.00 115.13,82.09 114.00,85.50 C112.98,88.59 112.45,89.00 109.42,89.00 C107.32,89.00 106.02,88.52 106.06,87.75 ZM 123.25 76.42 C123.56,76.10 123.13,73.82 122.29,71.34 C121.45,68.87 120.42,67.21 120.02,67.67 C118.76,69.07 116.99,75.18 117.57,76.11 C118.18,77.10 122.34,77.32 123.25,76.42 ZM 139.44 87.70 C139.17,86.99 139.07,80.13 139.22,72.45 L 139.50 58.50 L 148.56 58.51 C155.58,58.51 158.23,58.92 160.35,60.31 C169.90,66.57 168.96,81.94 158.72,86.89 C153.56,89.39 140.30,89.94 139.44,87.70 ZM 156.69 80.59 C159.02,78.58 159.50,77.38 159.50,73.50 C159.50,67.50 155.98,64.00 149.94,64.00 L 146.00 64.00 L 146.00 73.50 L 146.00 83.00 L 149.94 83.00 C152.67,83.00 154.75,82.26 156.69,80.59 ZM 173.01 81.75 C173.01,77.76 173.30,70.77 173.66,66.20 L 174.30 57.90 L 178.79 58.20 L 183.28 58.50 L 186.32 67.27 C187.99,72.10 189.67,75.70 190.05,75.27 C190.43,74.85 192.11,70.90 193.79,66.50 L 196.82 58.50 L 200.83 58.20 L 204.84 57.89 L 205.38 63.20 C205.68,66.11 206.19,73.11 206.51,78.75 L 207.09 89.00 L 203.55 89.00 L 200.00 89.00 L 199.99 83.25 C199.98,80.09 199.70,75.80 199.35,73.72 L 198.73 69.94 L 195.56 77.72 C192.62,84.95 192.19,85.50 189.45,85.50 C186.72,85.50 186.29,84.96 183.52,78.00 L 180.53 70.50 L 179.84 75.00 C179.46,77.47 179.11,81.64 179.07,84.25 C179.00,88.84 178.90,89.00 176.00,89.00 L 173.00 89.00 L 173.01 81.75 ZM 214.00 73.50 L 214.00 58.00 L 217.50 58.00 L 221.00 58.00 L 221.00 73.50 L 221.00 89.00 L 217.50 89.00 L 214.00 89.00 L 214.00 73.50 ZM 235.00 76.55 L 235.00 64.11 L 230.25 63.80 C225.93,63.53 225.50,63.27 225.50,61.00 L 225.50 58.50 L 238.25 58.22 L 251.00 57.94 L 251.00 60.97 C251.00,63.89 250.84,64.00 246.50,64.00 L 242.00 64.00 L 242.00 76.50 L 242.00 89.00 L 238.50 89.00 L 235.00 89.00 L 235.00 76.55 ZM 283.38 84.56 C282.16,81.38 283.58,79.66 288.91,77.85 C291.89,76.84 294.51,75.82 294.74,75.59 C294.98,75.36 292.43,74.17 289.08,72.95 C283.57,70.94 283.00,70.46 283.00,67.87 L 283.00 65.00 L 292.50 65.00 L 302.00 65.00 L 302.00 67.62 C302.00,69.97 301.70,70.19 299.20,69.69 C294.43,68.74 293.51,70.52 298.01,72.00 C303.58,73.84 303.25,76.90 297.25,78.97 C291.76,80.87 291.85,82.00 297.50,82.00 C301.33,82.00 302.00,82.30 302.00,84.00 C302.00,85.85 301.33,86.00 292.97,86.00 C286.03,86.00 283.81,85.67 283.38,84.56 ZM 292.25 59.18 C284.47,56.22 283.00,55.30 283.00,53.46 C283.00,51.62 284.37,50.78 291.77,48.14 C296.59,46.41 300.87,45.00 301.27,45.00 C301.67,45.00 302.00,46.07 302.00,47.38 C302.00,48.93 301.29,49.95 300.00,50.29 C297.19,51.02 297.27,56.27 300.12,58.16 C301.28,58.93 302.07,60.27 301.87,61.14 C301.56,62.47 300.08,62.17 292.25,59.18 ZM 293.60 52.26 C293.28,51.95 292.00,52.16 290.76,52.74 L 288.50 53.79 L 291.00 54.77 C292.94,55.53 293.58,55.43 293.84,54.30 C294.02,53.50 293.92,52.58 293.60,52.26 Z" fill="rgba(245,246,246,1)"/>
</g>
</svg>