<svg xmlns="http://www.w3.org/2000/svg" width="371" height="308" viewBox="0 0 371 308">
<g>
<path d="M 199.50 229.84 C196.80,231.33 190.00,231.52 131.50,231.67 C95.75,231.76 65.15,231.50 63.50,231.09 C56.29,229.28 51.18,225.07 48.55,218.77 C47.27,215.72 47.00,210.02 47.00,186.49 C47.00,160.11 47.15,157.63 48.96,154.09 C51.41,149.28 55.98,145.38 60.80,143.98 C63.33,143.24 85.77,142.99 131.66,143.20 L 198.82 143.50 L 202.66 146.59 C204.77,148.29 207.62,151.66 209.00,154.09 L 211.50 158.50 L 211.50 187.00 C211.50,212.89 211.33,215.82 209.64,219.00 C207.23,223.52 203.28,227.75 199.50,229.84 ZM 217.15 115.78 C208.80,118.86 195.18,119.64 186.80,117.51 C162.07,111.24 145.07,89.86 145.01,64.96 C144.96,41.09 161.33,19.62 184.93,12.61 C196.37,9.22 213.75,11.05 224.41,16.78 C236.52,23.29 247.79,38.45 251.39,53.06 C257.72,78.80 242.68,106.35 217.15,115.78 ZM 80.46 127.47 C58.03,133.31 33.75,121.41 23.33,99.47 C20.11,92.71 19.63,90.67 19.22,82.09 C18.87,74.77 19.17,70.91 20.46,66.44 C27.73,41.28 51.03,26.01 76.55,29.69 C97.03,32.64 113.92,49.37 118.06,70.80 C122.80,95.32 105.86,120.85 80.46,127.47 ZM 160.31 210.93 C168.21,213.43 170.37,213.44 178.25,211.01 C186.09,208.58 192.36,203.39 196.53,195.86 C199.21,191.03 199.50,189.61 199.50,181.50 C199.50,171.16 197.55,165.93 191.29,159.48 C176.82,144.59 150.53,148.96 141.32,167.79 C137.58,175.42 137.42,185.96 140.91,193.77 C144.25,201.24 152.35,208.40 160.31,210.93 ZM 175.57 204.53 C170.10,206.16 170.05,206.16 164.73,204.91 C158.73,203.50 153.56,200.42 150.54,196.46 C140.81,183.71 145.34,165.37 159.72,159.35 C163.55,157.74 174.73,157.57 178.68,159.06 C182.69,160.57 188.92,166.81 191.10,171.50 C196.98,184.15 189.32,200.43 175.57,204.53 ZM 167.99 261.25 C168.00,262.32 92.23,262.18 91.57,261.11 C91.27,260.63 92.07,255.56 93.34,249.86 L 95.66 239.50 L 129.31 239.24 L 162.96 238.97 L 163.48 241.24 C163.77,242.48 164.90,247.32 165.99,252.00 C167.09,256.67 167.99,260.84 167.99,261.25 ZM 77.01 289.75 L 75.92 294.00 L 68.96 294.00 C62.36,294.00 62.00,293.88 62.00,291.70 C62.00,287.82 65.74,272.01 67.03,270.46 C68.07,269.21 76.92,269.00 128.97,269.00 C185.53,269.00 189.80,269.12 191.26,270.75 C192.80,272.47 197.00,288.18 197.00,292.22 C197.00,294.12 196.59,294.23 191.75,293.65 C188.86,293.30 185.56,293.01 184.41,293.01 C182.72,293.00 182.02,291.88 180.66,286.99 C179.82,283.96 179.53,281.85 178.41,280.37 C175.53,276.59 167.13,277.00 129.72,277.00 C89.44,277.00 82.77,276.92 80.43,280.06 C79.91,280.77 79.60,281.64 79.18,282.71 C78.58,284.24 77.61,287.41 77.01,289.75 ZM 63.53 177.39 C64.94,178.80 68.89,179.00 94.87,179.00 C116.66,179.00 124.92,178.68 125.80,177.80 C127.16,176.44 127.46,161.27 126.17,159.24 C125.54,158.25 118.41,158.03 93.93,158.24 L 62.50 158.50 L 62.21 167.14 C61.98,174.02 62.25,176.11 63.53,177.39 ZM 165.43 200.06 C169.88,201.13 170.36,201.12 174.10,199.86 C183.36,196.76 188.48,189.28 187.80,179.84 C187.29,172.82 183.74,167.70 176.98,164.25 C171.37,161.38 167.78,161.42 161.31,164.43 C153.93,167.87 150.54,173.22 150.52,181.48 C150.50,186.60 150.97,188.34 153.23,191.60 C156.17,195.86 160.55,198.89 165.43,200.06 ZM 191.00 44.36 C192.92,45.72 194.95,46.05 199.73,45.77 C207.51,45.32 210.53,42.75 215.77,32.15 C219.16,25.30 219.30,24.63 217.94,22.20 C215.11,17.17 210.57,15.52 199.50,15.53 C179.82,15.53 175.10,20.49 182.49,33.40 C186.63,40.65 187.70,42.03 191.00,44.36 ZM 187.75 112.64 C194.82,114.63 209.68,113.95 213.96,111.45 C219.40,108.28 219.83,105.05 215.86,97.23 C214.02,93.60 211.10,89.13 209.39,87.31 C206.48,84.23 205.81,84.00 199.88,84.00 C191.49,84.01 188.48,85.93 183.20,94.68 C176.67,105.48 177.78,109.84 187.75,112.64 ZM 154.76 61.43 C156.56,62.41 160.46,62.93 166.10,62.96 C175.87,63.01 179.79,61.23 183.33,55.17 C186.51,49.72 185.88,44.96 180.89,36.77 C175.97,28.69 172.83,26.32 168.51,27.41 C160.84,29.33 149.36,49.33 151.36,57.28 C151.72,58.75 153.26,60.62 154.76,61.43 ZM 221.10 98.20 C226.25,103.65 229.98,103.48 235.51,97.55 C240.45,92.24 245.95,81.82 246.68,76.38 C247.38,71.13 244.90,68.09 238.96,66.95 C224.18,64.10 215.87,67.99 212.88,79.18 C211.76,83.36 211.87,83.98 214.59,89.02 C216.19,91.98 219.12,96.12 221.10,98.20 ZM 227.00 62.99 C232.65,63.73 239.83,63.18 242.68,61.79 C246.18,60.09 247.52,55.69 246.05,50.70 C242.89,40.02 232.99,27.00 228.03,27.00 C224.91,27.00 218.65,33.30 215.05,40.05 C211.30,47.09 211.44,51.23 215.62,56.74 C218.72,60.82 221.33,62.26 227.00,62.99 ZM 167.37 101.51 C168.97,102.19 171.13,102.52 172.17,102.24 C174.85,101.54 179.57,95.55 183.18,88.25 L 186.27 82.00 L 184.46 77.25 C183.47,74.64 181.34,71.26 179.72,69.75 C176.91,67.11 176.36,67.00 166.35,67.00 C156.46,67.00 155.77,67.14 153.33,69.58 C151.18,71.73 150.84,72.80 151.28,76.07 C152.50,85.14 161.22,98.93 167.37,101.51 ZM 62.26 60.57 C66.40,62.44 73.42,61.82 76.86,59.28 C79.69,57.20 85.70,47.96 86.64,44.25 C88.43,37.24 83.66,33.91 71.03,33.34 C60.68,32.88 53.38,35.00 51.08,39.15 C49.75,41.53 49.79,42.22 51.52,46.05 C54.96,53.68 58.95,59.08 62.26,60.57 ZM 29.25 76.51 C33.87,78.52 43.73,78.38 47.98,76.25 C56.52,71.96 58.17,63.56 52.47,53.38 C47.34,44.20 44.02,42.39 38.05,45.47 C34.36,47.38 27.53,57.64 25.36,64.54 C23.28,71.12 24.34,74.38 29.25,76.51 ZM 57.52 123.27 C63.45,125.37 76.82,125.18 81.46,122.93 C85.18,121.14 87.50,117.13 86.69,113.93 C85.56,109.49 79.55,100.60 76.10,98.28 C71.59,95.25 65.42,95.24 60.93,98.27 C58.76,99.73 56.12,103.28 53.53,108.24 C49.68,115.59 49.57,116.05 51.02,118.72 C52.05,120.59 54.17,122.08 57.52,123.27 ZM 34.93 110.05 C41.40,116.84 46.02,115.40 52.47,104.56 C56.51,97.77 56.91,93.71 54.11,88.21 C50.58,81.30 48.94,80.50 38.31,80.50 C29.08,80.50 28.76,80.58 26.33,83.40 C24.29,85.77 23.95,86.96 24.46,89.90 C25.42,95.40 30.74,105.64 34.93,110.05 ZM 93.00 113.29 C96.47,114.57 98.57,113.76 102.54,109.62 C109.93,101.90 114.74,89.12 112.10,84.19 C109.80,79.89 96.63,78.62 89.22,81.99 C85.95,83.47 84.47,84.95 82.99,88.22 C80.29,94.17 80.50,96.41 84.42,103.43 C87.86,109.57 90.20,112.26 93.00,113.29 ZM 91.62 76.97 C93.20,77.44 97.20,77.87 100.50,77.91 C107.13,78.00 112.91,75.41 113.11,72.26 C113.51,65.95 110.21,57.97 103.90,49.99 C100.39,45.55 99.53,45.00 96.11,45.00 C93.83,45.00 91.27,45.78 89.81,46.94 C86.64,49.43 81.00,59.99 81.00,63.44 C81.00,68.76 86.16,75.33 91.62,76.97 ZM 25.45 204.08 C23.93,206.49 22.21,208.00 20.99,208.00 C19.06,208.00 19.00,207.28 19.00,183.00 C19.00,165.12 18.97,158.72 20.71,158.19 C21.70,157.89 23.28,159.51 25.76,162.00 C29.28,165.51 30.33,166.00 34.38,166.00 L 39.00 166.00 L 39.00 198.77 L 33.46 199.46 C28.41,200.09 27.71,200.50 25.45,204.08 ZM 250.00 181.57 C250.00,196.66 249.66,208.99 249.25,208.97 C248.84,208.96 245.46,207.32 241.75,205.34 L 235.00 201.74 L 235.00 162.50 L 242.50 158.32 L 250.00 154.15 ZM 194.74 78.57 C199.59,80.30 199.76,80.29 204.60,78.10 C217.22,72.36 215.05,52.98 201.50,50.43 C196.86,49.56 189.62,52.94 187.03,57.18 C183.59,62.82 184.77,72.08 189.42,75.94 C190.28,76.65 192.67,77.83 194.74,78.57 ZM 64.64 91.97 C69.10,93.31 70.79,93.15 75.02,90.99 C79.69,88.61 82.00,84.63 82.00,79.00 C82.00,73.68 79.88,69.71 75.66,67.10 C64.35,60.11 51.12,71.90 56.36,84.28 C58.03,88.21 60.85,90.84 64.64,91.97 ZM 176.00 191.11 C172.08,193.93 168.90,194.19 164.26,192.05 C156.39,188.44 154.80,179.05 161.00,172.85 C163.38,170.47 164.68,170.00 168.91,170.00 C175.81,170.00 180.00,173.58 180.64,180.03 C181.14,185.07 179.74,188.41 176.00,191.11 ZM 120.00 165.00 L 120.00 172.00 L 69.00 172.00 L 69.00 165.00 L 120.00 165.00 ZM 207.56 106.88 C200.99,108.53 192.79,108.05 186.51,105.64 C185.00,105.06 185.16,104.36 187.99,99.25 C189.73,96.09 192.08,92.71 193.19,91.75 C196.00,89.33 202.45,89.45 204.97,91.97 C206.97,93.97 212.00,103.18 212.00,104.85 C212.00,105.35 210.00,106.27 207.56,106.88 ZM 175.50 54.59 C173.42,56.67 172.15,57.00 166.21,57.00 C158.72,57.00 158.00,56.70 158.01,53.58 C158.03,48.67 167.19,34.00 170.24,34.00 C171.63,34.00 173.52,36.49 176.60,42.37 C179.51,47.92 179.25,50.84 175.50,54.59 ZM 203.80 38.43 C201.36,40.13 197.72,40.37 194.41,39.03 C193.25,38.56 190.78,35.23 188.92,31.63 C186.14,26.28 185.76,24.84 186.81,23.79 C188.48,22.12 209.37,21.98 211.02,23.63 C212.47,25.07 207.07,36.14 203.80,38.43 ZM 232.41 91.13 C230.44,93.81 228.45,96.00 227.99,96.00 C226.81,96.00 223.84,92.07 221.05,86.81 C218.41,81.83 218.70,78.30 222.03,74.97 C223.66,73.34 225.37,73.00 232.00,73.00 C239.64,73.00 240.00,73.10 239.98,75.25 C239.95,78.41 236.62,85.39 232.41,91.13 ZM 239.82 54.28 C239.53,56.31 238.87,56.53 232.22,56.79 C225.30,57.07 224.79,56.94 221.97,54.12 C218.26,50.41 218.25,47.84 221.91,41.45 C226.36,33.69 227.46,33.11 231.10,36.60 C234.78,40.12 240.25,51.22 239.82,54.28 ZM 174.99 89.51 C172.67,93.08 170.41,96.00 169.97,96.00 C167.56,96.00 158.73,81.08 157.82,75.50 C157.53,73.66 158.14,73.48 165.65,73.21 C173.46,72.93 173.88,73.03 175.92,75.62 C179.73,80.47 179.60,82.44 174.99,89.51 ZM 228.00 165.00 L 228.00 199.00 L 219.00 199.00 L 219.00 165.00 L 228.00 165.00 ZM 78.47 117.01 C72.22,119.39 57.00,118.60 57.00,115.90 C57.00,114.47 60.97,106.79 62.77,104.75 C63.79,103.59 65.77,103.00 68.60,103.00 C72.28,103.00 73.25,103.47 75.33,106.25 C76.67,108.04 78.51,110.97 79.41,112.76 C81.05,115.99 81.04,116.03 78.47,117.01 ZM 64.11 218.60 C69.04,221.33 73.96,219.91 76.49,215.02 C78.63,210.89 78.38,208.60 75.41,205.08 C73.26,202.51 72.10,202.00 68.50,202.00 C64.90,202.00 63.74,202.51 61.59,205.08 C57.67,209.74 58.77,215.64 64.11,218.60 ZM 89.36 219.01 C93.10,220.52 95.76,220.07 98.92,217.41 C103.20,213.81 103.27,208.11 99.08,203.92 C97.47,202.32 95.24,201.00 94.12,201.00 C84.04,201.00 80.25,215.33 89.36,219.01 ZM 111.92 217.08 C117.91,223.07 126.90,219.26 126.97,210.70 C127.01,205.39 123.52,202.00 118.00,202.00 C109.48,202.00 105.85,211.01 111.92,217.08 ZM 74.08 53.38 C71.08,56.01 66.18,56.15 63.17,53.71 C62.44,53.11 60.70,50.38 59.31,47.63 C56.90,42.87 56.87,42.57 58.58,41.32 C60.67,39.79 76.66,39.50 78.95,40.95 C80.19,41.73 80.05,42.62 78.03,46.93 C76.73,49.72 74.95,52.62 74.08,53.38 ZM 48.01 67.75 C46.05,70.96 45.94,71.00 38.39,71.00 L 30.75 71.00 L 31.40 67.76 C32.67,61.38 39.52,51.00 42.45,51.00 C43.70,51.00 50.00,61.15 50.00,63.16 C49.99,63.90 49.10,65.96 48.01,67.75 ZM 106.49 70.01 C105.44,71.71 92.37,71.22 90.56,69.42 C87.65,66.50 86.94,64.29 88.02,61.45 C89.44,57.72 94.28,51.05 95.58,51.02 C98.17,50.97 107.85,67.82 106.49,70.01 ZM 49.44 96.38 C49.09,97.78 47.34,100.99 45.54,103.51 L 42.29 108.09 L 39.01 104.36 C35.48,100.34 31.03,91.62 31.01,88.71 C31.00,87.11 31.85,86.95 38.70,87.21 C46.16,87.49 46.45,87.60 48.24,90.66 C49.43,92.71 49.86,94.72 49.44,96.38 ZM 100.11 102.34 C98.35,104.90 96.30,107.00 95.56,107.00 C93.67,107.00 88.00,97.85 88.00,94.80 C88.00,93.41 88.93,91.08 90.07,89.63 C91.95,87.25 92.79,87.00 98.91,87.00 C102.62,87.00 105.94,87.28 106.28,87.62 C107.25,88.59 103.64,97.22 100.11,102.34 ZM 147.23 98.44 C146.54,99.12 123.53,99.20 122.85,98.51 C122.58,98.25 122.83,96.00 123.41,93.51 L 124.45 89.00 L 142.83 89.00 L 145.31 93.44 C146.67,95.88 147.54,98.13 147.23,98.44 ZM 203.61 70.66 C200.13,73.65 197.56,73.53 193.75,70.21 C191.38,68.15 191.43,61.83 193.83,59.65 C196.40,57.32 202.26,57.52 204.51,60.01 C207.27,63.06 206.86,67.86 203.61,70.66 ZM 73.64 83.45 C70.56,86.53 67.14,86.71 64.19,83.96 C57.85,78.05 66.24,68.16 72.85,73.75 C76.29,76.66 76.60,80.49 73.64,83.45 ZM 95.00 211.06 C95.00,213.38 92.19,213.67 91.34,211.43 C90.61,209.55 92.38,207.50 93.91,208.45 C94.51,208.82 95.00,209.99 95.00,211.06 ZM 120.00 211.06 C120.00,213.38 117.19,213.67 116.34,211.43 C115.61,209.55 117.38,207.50 118.91,208.45 C119.51,208.82 120.00,209.99 120.00,211.06 ZM 70.50 210.99 C70.50,212.58 67.87,213.53 66.70,212.37 C65.13,210.79 66.06,208.87 68.25,209.18 C69.49,209.36 70.50,210.17 70.50,210.99 Z" fill="rgba(1,0,6,1)"/>
<path d="M 186.79 129.46 L 187.09 124.42 L 180.25 122.22 C172.29,119.66 163.00,114.33 157.96,109.44 L 154.42 106.00 L 154.09 106.00 L 151.08 102.25 L 148.07 98.50 L 147.02 98.52 C147.13,98.50 147.20,98.47 147.23,98.44 C147.54,98.13 146.67,95.88 145.31,93.44 L 142.83 89.00 L 134.11 89.00 C142.39,89.00 143.15,88.84 142.49,87.25 C142.10,86.29 141.55,84.71 141.27,83.75 C140.85,82.27 139.53,82.00 132.88,82.00 L 139.61 82.00 L 139.18 69.86 C138.64,54.93 139.75,49.34 145.63,37.33 C152.47,23.33 163.09,13.81 178.44,7.93 C187.56,4.44 194.27,3.71 206.00,4.93 C213.97,5.77 216.84,6.59 223.85,10.06 C239.12,17.62 251.34,31.75 256.24,47.50 C258.79,55.68 259.16,70.12 257.04,79.00 C250.75,105.44 227.79,123.91 199.50,125.26 L 194.50 125.50 L 194.20 130.05 L 193.91 134.59 L 193.84 134.56 L 194.17 129.78 L 194.50 125.00 L 190.80 125.00 L 187.11 125.00 L 186.50 134.50 L 124.00 135.03 C73.90,135.45 63.96,135.53 59.34,136.73 L 62.08 135.60 L 54.77 133.49 C44.00,130.38 37.40,126.43 28.90,118.02 C13.84,103.11 9.09,85.01 14.62,63.56 C18.57,48.24 28.88,36.10 44.72,28.12 C64.44,18.18 91.93,22.74 107.49,38.53 C117.50,48.69 124.94,65.37 124.99,77.75 L 125.00 82.00 L 125.00 89.00 L 124.45 89.00 L 123.41 93.51 C122.83,96.00 122.58,98.25 122.85,98.51 C123.07,98.74 125.79,98.88 129.33,98.95 C122.40,99.20 121.06,99.60 120.72,100.80 C120.45,101.74 119.90,103.29 119.51,104.25 C118.84,105.88 120.02,106.00 136.44,106.00 L 118.48 106.00 L 113.86 112.36 C108.21,120.16 98.64,127.20 87.59,131.69 L 79.50 134.98 L 133.00 134.74 L 186.50 134.50 ZM 217.15 115.78 C242.68,106.35 257.72,78.80 251.39,53.06 C247.79,38.45 236.52,23.29 224.41,16.78 C213.75,11.05 196.37,9.22 184.93,12.61 C161.33,19.62 144.96,41.09 145.01,64.96 C145.07,89.86 162.07,111.24 186.80,117.51 C195.18,119.64 208.80,118.86 217.15,115.78 ZM 80.46 127.47 C105.86,120.85 122.80,95.32 118.06,70.80 C113.92,49.37 97.03,32.64 76.55,29.69 C51.03,26.01 27.73,41.28 20.46,66.44 C19.17,70.91 18.87,74.77 19.22,82.09 C19.63,90.67 20.11,92.71 23.33,99.47 C33.75,121.41 58.03,133.31 80.46,127.47 ZM 160.31 210.93 C152.35,208.40 144.25,201.24 140.91,193.77 C137.42,185.96 137.58,175.42 141.32,167.79 C150.53,148.96 176.82,144.59 191.29,159.48 C197.55,165.93 199.50,171.16 199.50,181.50 C199.50,189.61 199.21,191.03 196.53,195.86 C192.36,203.39 186.09,208.58 178.25,211.01 C170.37,213.44 168.21,213.43 160.31,210.93 ZM 175.57 204.53 C189.32,200.43 196.98,184.15 191.10,171.50 C188.92,166.81 182.69,160.57 178.68,159.06 C174.73,157.57 163.55,157.74 159.72,159.35 C145.34,165.37 140.81,183.71 150.54,196.46 C153.56,200.42 158.73,203.50 164.73,204.91 C170.05,206.16 170.10,206.16 175.57,204.53 ZM 191.00 44.36 C187.70,42.03 186.63,40.65 182.49,33.40 C175.10,20.49 179.82,15.53 199.50,15.53 C210.57,15.52 215.11,17.17 217.94,22.20 C219.30,24.63 219.16,25.30 215.77,32.15 C210.53,42.75 207.51,45.32 199.73,45.77 C194.95,46.05 192.92,45.72 191.00,44.36 ZM 187.75 112.64 C177.78,109.84 176.67,105.48 183.20,94.68 C188.48,85.93 191.49,84.01 199.88,84.00 C205.81,84.00 206.48,84.23 209.39,87.31 C211.10,89.13 214.02,93.60 215.86,97.23 C219.83,105.05 219.40,108.28 213.96,111.45 C209.68,113.95 194.82,114.63 187.75,112.64 ZM 154.76 61.43 C153.26,60.62 151.72,58.75 151.36,57.28 C149.36,49.33 160.84,29.33 168.51,27.41 C172.83,26.32 175.97,28.69 180.89,36.77 C185.88,44.96 186.51,49.72 183.33,55.17 C179.79,61.23 175.87,63.01 166.10,62.96 C160.46,62.93 156.56,62.41 154.76,61.43 ZM 221.10 98.20 C219.12,96.12 216.19,91.98 214.59,89.02 C211.87,83.98 211.76,83.36 212.88,79.18 C215.87,67.99 224.18,64.10 238.96,66.95 C244.90,68.09 247.38,71.13 246.68,76.38 C245.95,81.82 240.45,92.24 235.51,97.55 C229.98,103.48 226.25,103.65 221.10,98.20 ZM 227.00 62.99 C221.33,62.26 218.72,60.82 215.62,56.74 C211.44,51.23 211.30,47.09 215.05,40.05 C218.65,33.30 224.91,27.00 228.03,27.00 C232.99,27.00 242.89,40.02 246.05,50.70 C247.52,55.69 246.18,60.09 242.68,61.79 C239.83,63.18 232.65,63.73 227.00,62.99 ZM 167.37 101.51 C161.22,98.93 152.50,85.14 151.28,76.07 C150.84,72.80 151.18,71.73 153.33,69.58 C155.77,67.14 156.46,67.00 166.35,67.00 C176.36,67.00 176.91,67.11 179.72,69.75 C181.34,71.26 183.47,74.64 184.46,77.25 L 186.27 82.00 L 183.18 88.25 C179.57,95.55 174.85,101.54 172.17,102.24 C171.13,102.52 168.97,102.19 167.37,101.51 ZM 62.26 60.57 C58.95,59.08 54.96,53.68 51.52,46.05 C49.79,42.22 49.75,41.53 51.08,39.15 C53.38,35.00 60.68,32.88 71.03,33.34 C83.66,33.91 88.43,37.24 86.64,44.25 C85.70,47.96 79.69,57.20 76.86,59.28 C73.42,61.82 66.40,62.44 62.26,60.57 ZM 29.25 76.51 C24.34,74.38 23.28,71.12 25.36,64.54 C27.53,57.64 34.36,47.38 38.05,45.47 C44.02,42.39 47.34,44.20 52.47,53.38 C58.17,63.56 56.52,71.96 47.98,76.25 C43.73,78.38 33.87,78.52 29.25,76.51 ZM 57.52 123.27 C54.17,122.08 52.05,120.59 51.02,118.72 C49.57,116.05 49.68,115.59 53.53,108.24 C56.12,103.28 58.76,99.73 60.93,98.27 C65.42,95.24 71.59,95.25 76.10,98.28 C79.55,100.60 85.56,109.49 86.69,113.93 C87.50,117.13 85.18,121.14 81.46,122.93 C76.82,125.18 63.45,125.37 57.52,123.27 ZM 34.93 110.05 C30.74,105.64 25.42,95.40 24.46,89.90 C23.95,86.96 24.29,85.77 26.33,83.40 C28.76,80.58 29.08,80.50 38.31,80.50 C48.94,80.50 50.58,81.30 54.11,88.21 C56.91,93.71 56.51,97.77 52.47,104.56 C46.02,115.40 41.40,116.84 34.93,110.05 ZM 93.00 113.29 C90.20,112.26 87.86,109.57 84.42,103.43 C80.50,96.41 80.29,94.17 82.99,88.22 C84.47,84.95 85.95,83.47 89.22,81.99 C96.63,78.62 109.80,79.89 112.10,84.19 C114.74,89.12 109.93,101.90 102.54,109.62 C98.57,113.76 96.47,114.57 93.00,113.29 ZM 91.62 76.97 C86.16,75.33 81.00,68.76 81.00,63.44 C81.00,59.99 86.64,49.43 89.81,46.94 C91.27,45.78 93.83,45.00 96.11,45.00 C99.53,45.00 100.39,45.55 103.90,49.99 C110.21,57.97 113.51,65.95 113.11,72.26 C112.91,75.41 107.13,78.00 100.50,77.91 C97.20,77.87 93.20,77.44 91.62,76.97 ZM 207.56 106.88 C210.00,106.27 212.00,105.35 212.00,104.85 C212.00,103.18 206.97,93.97 204.97,91.97 C202.45,89.45 196.00,89.33 193.19,91.75 C192.08,92.71 189.73,96.09 187.99,99.25 C185.16,104.36 185.00,105.06 186.51,105.64 C192.79,108.05 200.99,108.53 207.56,106.88 ZM 175.50 54.59 C179.25,50.84 179.51,47.92 176.60,42.37 C173.52,36.49 171.63,34.00 170.24,34.00 C167.19,34.00 158.03,48.67 158.01,53.58 C158.00,56.70 158.72,57.00 166.21,57.00 C172.15,57.00 173.42,56.67 175.50,54.59 ZM 203.80 38.43 C207.07,36.14 212.47,25.07 211.02,23.63 C209.37,21.98 188.48,22.12 186.81,23.79 C185.76,24.84 186.14,26.28 188.92,31.63 C190.78,35.23 193.25,38.56 194.41,39.03 C197.72,40.37 201.36,40.13 203.80,38.43 ZM 232.41 91.13 C236.62,85.39 239.95,78.41 239.98,75.25 C240.00,73.10 239.64,73.00 232.00,73.00 C225.37,73.00 223.66,73.34 222.03,74.97 C218.70,78.30 218.41,81.83 221.05,86.81 C223.84,92.07 226.81,96.00 227.99,96.00 C228.45,96.00 230.44,93.81 232.41,91.13 ZM 239.82 54.28 C240.25,51.22 234.78,40.12 231.10,36.60 C227.46,33.11 226.36,33.69 221.91,41.45 C218.25,47.84 218.26,50.41 221.97,54.12 C224.79,56.94 225.30,57.07 232.22,56.79 C238.87,56.53 239.53,56.31 239.82,54.28 ZM 174.99 89.51 C179.60,82.44 179.73,80.47 175.92,75.62 C173.88,73.03 173.46,72.93 165.65,73.21 C158.14,73.48 157.53,73.66 157.82,75.50 C158.73,81.08 167.56,96.00 169.97,96.00 C170.41,96.00 172.67,93.08 174.99,89.51 ZM 78.47 117.01 C81.04,116.03 81.05,115.99 79.41,112.76 C78.51,110.97 76.67,108.04 75.33,106.25 C73.25,103.47 72.28,103.00 68.60,103.00 C65.77,103.00 63.79,103.59 62.77,104.75 C60.97,106.79 57.00,114.47 57.00,115.90 C57.00,118.60 72.22,119.39 78.47,117.01 ZM 74.08 53.38 C74.95,52.62 76.73,49.72 78.03,46.93 C80.05,42.62 80.19,41.73 78.95,40.95 C76.66,39.50 60.67,39.79 58.58,41.32 C56.87,42.57 56.90,42.87 59.31,47.63 C60.70,50.38 62.44,53.11 63.17,53.71 C66.18,56.15 71.08,56.01 74.08,53.38 ZM 48.01 67.75 C49.10,65.96 49.99,63.90 50.00,63.16 C50.00,61.15 43.70,51.00 42.45,51.00 C39.52,51.00 32.67,61.38 31.40,67.76 L 30.75 71.00 L 38.39 71.00 C45.94,71.00 46.05,70.96 48.01,67.75 ZM 106.49 70.01 C107.85,67.82 98.17,50.97 95.58,51.02 C94.28,51.05 89.44,57.72 88.02,61.45 C86.94,64.29 87.65,66.50 90.56,69.42 C92.37,71.22 105.44,71.71 106.49,70.01 ZM 49.44 96.38 C49.86,94.72 49.43,92.71 48.24,90.66 C46.45,87.60 46.16,87.49 38.70,87.21 C31.85,86.95 31.00,87.11 31.01,88.71 C31.03,91.62 35.48,100.34 39.01,104.36 L 42.29 108.09 L 45.54 103.51 C47.34,100.99 49.09,97.78 49.44,96.38 ZM 100.11 102.34 C103.64,97.22 107.25,88.59 106.28,87.62 C105.94,87.28 102.62,87.00 98.91,87.00 C92.79,87.00 91.95,87.25 90.07,89.63 C88.93,91.08 88.00,93.41 88.00,94.80 C88.00,97.85 93.67,107.00 95.56,107.00 C96.30,107.00 98.35,104.90 100.11,102.34 ZM 46.46 145.33 C44.70,147.41 43.09,149.86 41.55,152.75 C43.09,149.85 44.71,147.40 46.46,145.33 Z" fill="rgba(15,194,231,1)"/>
<path d="M 55.75 299.92 C53.26,298.47 53.50,292.75 56.58,279.85 C60.32,264.22 62.29,262.32 75.98,261.14 L 83.47 260.50 L 85.68 250.50 C86.90,245.00 87.92,240.21 87.95,239.86 C87.98,239.51 81.81,239.04 74.25,238.81 C61.79,238.43 60.02,238.14 55.38,235.74 C45.99,230.89 40.97,223.33 39.36,211.63 C38.77,207.33 38.52,207.00 35.83,207.00 C33.86,207.00 31.82,208.11 29.45,210.49 C25.54,214.39 23.07,215.29 17.46,214.82 C14.00,214.53 13.52,214.15 12.71,211.00 C11.72,207.19 12.11,153.56 13.13,152.54 C14.21,151.45 20.79,150.73 23.47,151.40 C24.89,151.76 27.82,153.65 29.98,155.60 C35.46,160.55 37.70,160.00 41.55,152.75 C45.55,145.22 50.09,140.66 56.38,137.84 C61.49,135.56 61.57,135.55 124.00,135.03 L 186.50 134.50 L 187.11 125.00 L 190.80 125.00 L 194.50 125.00 L 194.17 129.78 L 193.84 134.56 L 199.61 136.96 C207.14,140.08 212.47,145.00 216.10,152.19 C218.98,157.90 219.10,158.00 223.29,158.00 C226.66,158.00 230.31,156.51 240.84,150.86 C253.29,144.18 254.25,143.82 255.82,145.40 C257.33,146.90 257.50,150.65 257.50,182.07 C257.50,210.62 257.52,217.60 255.22,218.47 C254.46,218.76 253.44,218.38 252.08,217.89 C250.66,217.38 244.91,214.64 239.30,211.80 C231.48,207.83 228.01,206.62 224.38,206.57 L 219.65 206.50 L 218.41 213.12 C216.89,221.28 214.32,226.39 209.33,231.20 C203.36,236.97 199.31,238.19 184.15,238.77 L 170.79 239.29 L 171.37 242.90 C171.69,244.89 172.67,249.71 173.55,253.62 L 175.15 260.72 L 183.05 261.27 C193.36,261.97 197.27,264.25 199.40,270.79 C201.85,278.29 205.12,294.16 204.80,296.95 C204.44,300.01 201.97,300.71 190.88,300.88 C177.69,301.09 177.49,300.98 174.46,291.88 L 171.84 284.00 L 130.17 284.02 C107.25,284.02 87.94,284.39 87.25,284.83 C86.56,285.26 84.94,288.74 83.66,292.56 C81.61,298.64 80.96,299.58 78.41,300.13 C73.64,301.17 57.64,301.02 55.75,299.92 ZM 199.50 229.84 C203.28,227.75 207.23,223.52 209.64,219.00 C211.33,215.82 211.50,212.89 211.50,187.00 L 211.50 158.50 L 209.00 154.09 C207.62,151.66 204.77,148.29 202.66,146.59 L 198.82 143.50 L 131.66 143.20 C85.77,142.99 63.33,143.24 60.80,143.98 C55.98,145.38 51.41,149.28 48.96,154.09 C47.15,157.63 47.00,160.11 47.00,186.49 C47.00,210.02 47.27,215.72 48.55,218.77 C51.18,225.07 56.29,229.28 63.50,231.09 C65.15,231.50 95.75,231.76 131.50,231.67 C190.00,231.52 196.80,231.33 199.50,229.84 ZM 167.99 261.25 C167.99,260.84 167.09,256.67 165.99,252.00 C164.90,247.32 163.77,242.48 163.48,241.24 L 162.96 238.97 L 129.31 239.24 L 95.66 239.50 L 93.34 249.86 C92.07,255.56 91.27,260.63 91.57,261.11 C92.23,262.18 168.00,262.32 167.99,261.25 ZM 77.01 289.75 C77.61,287.41 78.58,284.24 79.18,282.71 C79.60,281.64 79.91,280.77 80.43,280.06 C82.77,276.92 89.44,277.00 129.72,277.00 C167.13,277.00 175.53,276.59 178.41,280.37 C179.53,281.85 179.82,283.96 180.66,286.99 C182.02,291.88 182.72,293.00 184.41,293.01 C185.56,293.01 188.86,293.30 191.75,293.65 C196.59,294.23 197.00,294.12 197.00,292.22 C197.00,288.18 192.80,272.47 191.26,270.75 C189.80,269.12 185.53,269.00 128.97,269.00 C76.92,269.00 68.07,269.21 67.03,270.46 C65.74,272.01 62.00,287.82 62.00,291.70 C62.00,293.88 62.36,294.00 68.96,294.00 L 75.92 294.00 ZM 25.45 204.08 C27.71,200.50 28.41,200.09 33.46,199.46 L 39.00 198.77 L 39.00 166.00 L 34.38 166.00 C30.33,166.00 29.28,165.51 25.76,162.00 C23.28,159.51 21.70,157.89 20.71,158.19 C18.97,158.72 19.00,165.12 19.00,183.00 C19.00,207.28 19.06,208.00 20.99,208.00 C22.21,208.00 23.93,206.49 25.45,204.08 ZM 250.00 181.57 L 250.00 154.15 L 242.50 158.32 L 235.00 162.50 L 235.00 201.74 L 241.75 205.34 C245.46,207.32 248.84,208.96 249.25,208.97 C249.66,208.99 250.00,196.66 250.00,181.57 ZM 228.00 165.00 L 219.00 165.00 L 219.00 199.00 L 228.00 199.00 L 228.00 165.00 ZM 119.51 104.25 C119.90,103.29 120.45,101.74 120.72,100.80 C121.14,99.34 123.02,99.06 134.64,98.80 L 148.07 98.50 L 151.08 102.25 L 154.09 106.00 L 136.44 106.00 C120.02,106.00 118.84,105.88 119.51,104.25 ZM 125.00 82.00 L 132.88 82.00 C139.53,82.00 140.85,82.27 141.27,83.75 C141.55,84.71 142.10,86.29 142.49,87.25 C143.15,88.84 142.39,89.00 134.11,89.00 L 125.00 89.00 L 125.00 82.00 Z" fill="rgba(234,39,105,1)"/>
<path d="M 63.53 177.39 C62.25,176.11 61.98,174.02 62.21,167.14 L 62.50 158.50 L 93.93 158.24 C118.41,158.03 125.54,158.25 126.17,159.24 C127.46,161.27 127.16,176.44 125.80,177.80 C124.92,178.68 116.66,179.00 94.87,179.00 C68.89,179.00 64.94,178.80 63.53,177.39 ZM 165.43 200.06 C160.55,198.89 156.17,195.86 153.23,191.60 C150.97,188.34 150.50,186.60 150.52,181.48 C150.54,173.22 153.93,167.87 161.31,164.43 C167.78,161.42 171.37,161.38 176.98,164.25 C183.74,167.70 187.29,172.82 187.80,179.84 C188.48,189.28 183.36,196.76 174.10,199.86 C170.36,201.12 169.88,201.13 165.43,200.06 ZM 194.74 78.57 C192.67,77.83 190.28,76.65 189.42,75.94 C184.77,72.08 183.59,62.82 187.03,57.18 C189.62,52.94 196.86,49.56 201.50,50.43 C215.05,52.98 217.22,72.36 204.60,78.10 C199.76,80.29 199.59,80.30 194.74,78.57 ZM 64.64 91.97 C60.85,90.84 58.03,88.21 56.36,84.28 C51.12,71.90 64.35,60.11 75.66,67.10 C79.88,69.71 82.00,73.68 82.00,79.00 C82.00,84.63 79.69,88.61 75.02,90.99 C70.79,93.15 69.10,93.31 64.64,91.97 ZM 176.00 191.11 C179.74,188.41 181.14,185.07 180.64,180.03 C180.00,173.58 175.81,170.00 168.91,170.00 C164.68,170.00 163.38,170.47 161.00,172.85 C154.80,179.05 156.39,188.44 164.26,192.05 C168.90,194.19 172.08,193.93 176.00,191.11 ZM 120.00 165.00 L 69.00 165.00 L 69.00 172.00 L 120.00 172.00 L 120.00 165.00 ZM 64.11 218.60 C58.77,215.64 57.67,209.74 61.59,205.08 C63.74,202.51 64.90,202.00 68.50,202.00 C72.10,202.00 73.26,202.51 75.41,205.08 C78.38,208.60 78.63,210.89 76.49,215.02 C73.96,219.91 69.04,221.33 64.11,218.60 ZM 89.36 219.01 C80.25,215.33 84.04,201.00 94.12,201.00 C95.24,201.00 97.47,202.32 99.08,203.92 C103.27,208.11 103.20,213.81 98.92,217.41 C95.76,220.07 93.10,220.52 89.36,219.01 ZM 111.92 217.08 C105.85,211.01 109.48,202.00 118.00,202.00 C123.52,202.00 127.01,205.39 126.97,210.70 C126.90,219.26 117.91,223.07 111.92,217.08 ZM 203.61 70.66 C206.86,67.86 207.27,63.06 204.51,60.01 C202.26,57.52 196.40,57.32 193.83,59.65 C191.43,61.83 191.38,68.15 193.75,70.21 C197.56,73.53 200.13,73.65 203.61,70.66 ZM 73.64 83.45 C76.60,80.49 76.29,76.66 72.85,73.75 C66.24,68.16 57.85,78.05 64.19,83.96 C67.14,86.71 70.56,86.53 73.64,83.45 ZM 95.00 211.06 C95.00,209.99 94.51,208.82 93.91,208.45 C92.38,207.50 90.61,209.55 91.34,211.43 C92.19,213.67 95.00,213.38 95.00,211.06 ZM 120.00 211.06 C120.00,209.99 119.51,208.82 118.91,208.45 C117.38,207.50 115.61,209.55 116.34,211.43 C117.19,213.67 120.00,213.38 120.00,211.06 ZM 70.50 210.99 C70.50,210.17 69.49,209.36 68.25,209.18 C66.06,208.87 65.13,210.79 66.70,212.37 C67.87,213.53 70.50,212.58 70.50,210.99 Z" fill="rgba(242,215,11,1)"/>
<path d="M 347.00 237.07 C340.67,234.97 324.02,229.12 310.00,224.09 C264.30,207.67 263.52,207.30 267.35,204.12 C268.85,202.88 282.45,207.25 322.50,221.83 C362.78,236.50 362.89,236.55 359.96,239.45 C358.69,240.71 357.05,240.41 347.00,237.07 ZM 318.00 203.51 C301.15,201.00 281.59,197.63 273.20,195.81 C268.70,194.83 267.95,194.35 268.20,192.58 C268.38,191.32 269.37,190.38 270.68,190.19 C273.48,189.79 333.88,199.87 336.23,201.12 C337.20,201.64 338.00,202.49 338.00,203.00 C338.00,203.81 334.66,206.14 333.82,205.92 C333.64,205.87 326.52,204.79 318.00,203.51 ZM 271.01 182.10 C267.50,181.13 267.21,178.25 270.49,177.00 C271.94,176.45 280.41,175.99 289.32,175.97 C298.22,175.96 316.25,175.52 329.40,175.01 C356.10,173.97 362.00,174.33 362.00,177.01 C362.00,179.54 359.08,179.88 328.62,180.97 C281.66,182.65 273.57,182.81 271.01,182.10 ZM 267.70 167.66 C267.42,166.92 267.48,165.86 267.84,165.29 C269.11,163.33 328.45,149.74 333.79,150.20 C338.62,150.61 338.99,152.69 334.57,154.54 C328.69,156.99 275.50,169.00 270.50,169.00 C269.24,169.00 267.98,168.40 267.70,167.66 ZM 266.00 154.02 C266.00,151.40 268.39,150.23 315.46,129.85 C338.34,119.94 355.50,113.06 356.92,113.22 C359.60,113.53 360.40,114.82 359.15,116.79 C357.86,118.83 270.89,156.00 267.41,156.00 C266.63,156.00 266.00,155.11 266.00,154.02 Z" fill="rgba(246,246,246,1)"/>
</g>
</svg>