<svg xmlns="http://www.w3.org/2000/svg" width="367" height="175" viewBox="0 0 367 175">
<g>
<path d="M 117.00 166.07 C100.87,166.87 58.36,167.04 54.00,166.31 C42.92,164.45 36.18,158.99 33.60,149.79 C32.78,146.88 30.93,136.40 29.48,126.50 C26.36,105.29 24.94,101.86 17.72,98.15 L 12.94 95.70 L 13.22 84.10 L 13.50 72.50 L 74.50 72.72 C142.58,72.96 146.53,73.27 156.82,79.21 L 162.50 82.50 L 209.50 82.50 L 215.19 79.21 C225.49,73.26 228.26,73.02 295.00,72.32 C350.49,71.74 355.61,71.83 356.87,73.34 C357.95,74.64 358.08,77.26 357.52,85.56 C356.82,95.79 356.71,96.16 354.15,97.13 C350.82,98.39 347.22,101.70 345.41,105.18 C344.64,106.66 342.66,117.37 341.00,128.99 C337.84,151.14 336.57,155.23 331.34,160.20 C325.34,165.89 322.72,166.37 295.50,166.78 C261.73,167.28 241.12,166.04 234.50,163.11 C224.80,158.82 219.77,152.05 214.57,136.28 C207.97,116.29 190.16,107.58 173.20,116.06 C164.77,120.27 160.34,126.09 156.50,138.00 C153.66,146.80 149.42,154.42 145.42,157.94 C138.59,163.94 134.14,165.21 117.00,166.07 ZM 48.95 153.75 C52.27,155.98 52.58,156.00 88.97,156.00 C119.75,156.00 126.51,155.74 131.05,154.39 C137.41,152.50 142.45,147.75 143.96,142.21 C145.61,136.13 151.35,103.89 151.73,98.50 C152.17,92.27 149.83,88.12 144.37,85.45 C140.83,83.72 136.48,83.48 94.00,82.66 C42.12,81.65 42.00,81.67 38.03,88.19 C35.36,92.57 35.44,95.48 39.07,122.57 C42.36,147.22 43.20,149.87 48.95,153.75 ZM 241.99 155.07 C243.37,155.49 261.20,155.87 281.60,155.91 C318.54,156.00 318.72,155.99 322.10,153.74 C327.58,150.09 328.61,146.54 332.14,119.27 L 335.41 94.03 L 333.30 89.67 C332.45,87.93 331.83,86.56 330.88,85.50 C327.35,81.57 319.15,81.84 277.08,82.67 C226.34,83.67 226.81,83.61 222.09,89.61 C218.61,94.04 219.60,104.02 227.05,139.76 C228.66,147.47 233.58,152.51 241.99,155.07 ZM 52.29 56.22 L 43.09 65.00 L 32.29 64.97 L 21.50 64.94 L 24.08 62.72 C26.86,60.32 76.58,19.57 83.18,14.28 C89.47,9.23 95.87,8.75 101.16,12.91 C104.96,15.90 110.07,26.30 110.69,32.28 C111.14,36.67 110.90,37.79 109.19,39.33 C105.95,42.26 102.80,41.14 101.19,36.50 C97.14,24.82 95.71,23.00 90.54,23.00 C87.97,23.00 78.34,31.37 52.29,56.22 ZM 347.96 63.72 C349.20,64.70 347.43,64.93 339.00,64.92 L 328.50 64.90 L 306.70 44.46 C294.43,32.95 283.75,23.73 282.27,23.35 C277.53,22.16 274.77,24.75 271.97,33.02 C269.28,40.98 267.48,42.40 263.05,40.03 C261.46,39.17 261.00,37.94 261.00,34.50 C261.00,24.98 268.63,12.13 275.28,10.47 C281.36,8.94 284.29,10.61 302.66,26.11 C317.81,38.89 342.70,59.55 347.96,63.72 Z" fill="rgba(0,1,8,1)"/>
<path d="M 62.50 173.11 C47.84,172.50 46.08,172.23 41.44,169.80 C34.56,166.21 29.43,160.28 27.56,153.79 C26.72,150.88 24.49,139.59 22.61,128.71 C20.72,117.82 18.59,108.21 17.87,107.35 C17.16,106.48 14.55,104.81 12.08,103.64 C9.11,102.22 7.35,100.65 6.89,99.00 C6.51,97.62 6.15,90.18 6.10,82.45 L 6.00 68.40 L 31.70 47.45 C45.83,35.93 62.14,22.53 67.95,17.68 C82.34,5.64 85.86,3.67 92.87,3.67 C102.05,3.68 107.69,7.71 112.98,18.04 C114.54,21.09 116.36,26.34 117.02,29.72 C118.10,35.20 118.03,36.26 116.37,39.61 C113.76,44.86 109.80,47.50 104.53,47.50 C98.90,47.50 96.94,45.63 94.06,37.47 C92.63,33.39 91.25,31.02 90.44,31.20 C89.12,31.50 64.68,53.58 57.71,60.77 L 53.91 64.68 L 94.07 65.36 C141.69,66.18 146.54,66.69 157.85,72.05 L 166.19 76.00 L 206.20 76.00 L 214.35 72.00 C224.93,66.82 229.73,66.33 278.79,65.43 C299.85,65.05 316.95,64.44 316.79,64.09 C315.80,61.89 282.23,31.02 281.06,31.24 C280.27,31.38 278.58,34.19 277.30,37.48 C274.60,44.47 272.61,46.74 268.50,47.53 C264.68,48.25 257.03,44.50 255.20,41.00 C252.94,36.66 254.26,27.42 258.28,19.43 C266.51,3.10 278.95,-0.98 291.98,8.39 C294.47,10.18 311.96,24.61 330.85,40.46 L 365.21 69.28 L 364.85 84.49 C364.48,100.60 363.80,103.00 359.63,103.00 C358.46,103.01 356.21,104.04 354.64,105.30 C351.89,107.50 351.63,108.49 347.97,130.68 C345.55,145.35 343.44,155.17 342.17,157.63 C339.53,162.76 334.68,167.20 328.18,170.44 L 322.87 173.10 L 280.68 172.80 C239.33,172.50 238.39,172.45 232.80,170.19 C222.26,165.94 213.26,155.10 208.98,141.50 C207.01,135.22 203.45,128.75 200.34,125.80 C192.30,118.17 179.70,118.17 171.66,125.80 C168.60,128.70 164.07,137.01 162.00,143.50 C159.96,149.90 156.20,156.77 152.48,160.89 C148.25,165.57 139.35,170.38 132.00,171.97 C125.42,173.38 84.99,174.05 62.50,173.11 ZM 117.00 166.07 C134.14,165.21 138.59,163.94 145.42,157.94 C149.42,154.42 153.66,146.80 156.50,138.00 C160.34,126.09 164.77,120.27 173.20,116.06 C190.16,107.58 207.97,116.29 214.57,136.28 C219.77,152.05 224.80,158.82 234.50,163.11 C241.12,166.04 261.73,167.28 295.50,166.78 C322.72,166.37 325.34,165.89 331.34,160.20 C336.57,155.23 337.84,151.14 341.00,128.99 C342.66,117.37 344.64,106.66 345.41,105.18 C347.22,101.70 350.82,98.39 354.15,97.13 C356.71,96.16 356.82,95.79 357.52,85.56 C358.08,77.26 357.95,74.64 356.87,73.34 C355.61,71.83 350.49,71.74 295.00,72.32 C228.26,73.02 225.49,73.26 215.19,79.21 L 209.50 82.50 L 162.50 82.50 L 156.82 79.21 C146.53,73.27 142.58,72.96 74.50,72.72 L 13.50 72.50 L 13.22 84.10 L 12.94 95.70 L 17.72 98.15 C24.94,101.86 26.36,105.29 29.48,126.50 C30.93,136.40 32.78,146.88 33.60,149.79 C36.18,158.99 42.92,164.45 54.00,166.31 C58.36,167.04 100.87,166.87 117.00,166.07 ZM 241.99 155.07 C233.58,152.51 228.66,147.47 227.05,139.76 C219.60,104.02 218.61,94.04 222.09,89.61 C226.81,83.61 226.34,83.67 277.08,82.67 C319.15,81.84 327.35,81.57 330.88,85.50 C331.83,86.56 332.45,87.93 333.30,89.67 L 335.41 94.03 L 332.14 119.27 C328.61,146.54 327.58,150.09 322.10,153.74 C318.72,155.99 318.54,156.00 281.60,155.91 C261.20,155.87 243.37,155.49 241.99,155.07 ZM 52.29 56.22 C78.34,31.37 87.97,23.00 90.54,23.00 C95.71,23.00 97.14,24.82 101.19,36.50 C102.80,41.14 105.95,42.26 109.19,39.33 C110.90,37.79 111.14,36.67 110.69,32.28 C110.07,26.30 104.96,15.90 101.16,12.91 C95.87,8.75 89.47,9.23 83.18,14.28 C76.58,19.57 26.86,60.32 24.08,62.72 L 21.50 64.94 L 32.29 64.97 L 43.09 65.00 ZM 347.96 63.72 C342.70,59.55 317.81,38.89 302.66,26.11 C284.29,10.61 281.36,8.94 275.28,10.47 C268.63,12.13 261.00,24.98 261.00,34.50 C261.00,37.94 261.46,39.17 263.05,40.03 C267.48,42.40 269.28,40.98 271.97,33.02 C274.77,24.75 277.53,22.16 282.27,23.35 C283.75,23.73 294.43,32.95 306.70,44.46 L 328.50 64.90 L 339.00 64.92 C347.43,64.93 349.20,64.70 347.96,63.72 Z" fill="rgba(12,187,224,1)"/>
<path d="M 48.95 153.75 C43.20,149.87 42.36,147.22 39.07,122.57 C35.44,95.48 35.36,92.57 38.03,88.19 C42.00,81.67 42.12,81.65 94.00,82.66 C136.48,83.48 140.83,83.72 144.37,85.45 C149.83,88.12 152.17,92.27 151.73,98.50 C151.35,103.89 145.61,136.13 143.96,142.21 C142.45,147.75 137.41,152.50 131.05,154.39 C126.51,155.74 119.75,156.00 88.97,156.00 C52.58,156.00 52.27,155.98 48.95,153.75 Z" fill="rgba(241,41,109,1)"/>
</g>
</svg>