<?xml version="1.0" encoding="UTF-8"?>
<svg version="1.1" xmlns="http://www.w3.org/2000/svg" width="920" height="920">
<path d="M0 0 C0 190.08 0 380.16 0 576 C-29.13132003 570.17373599 -29.13132003 570.17373599 -39.50390625 568.046875 C-40.75912582 567.78968689 -42.0143454 567.53249878 -43.30760193 567.26751709 C-47.39288555 566.42988795 -51.47772042 565.59008309 -55.5625 564.75 C-56.27694275 564.60315765 -56.9913855 564.45631531 -57.72747803 564.30502319 C-83.69496226 558.96724256 -109.63077667 553.48681796 -135.55738449 547.95427322 C-159.06186901 542.93875677 -182.5792082 538.00651607 -206.125 533.1875 C-249.12513539 524.32546493 -292.05739221 515.13672506 -335 506 C-335 360.47 -335 214.94 -335 65 C-302.88882865 58.11903471 -302.88882865 58.11903471 -290.64453125 55.79296875 C-289.18034837 55.51225124 -287.71622437 55.23122652 -286.25215149 54.94993591 C-283.10129094 54.34506687 -279.95010778 53.74192123 -276.79864502 53.14019775 C-268.74707273 51.60259159 -260.69750873 50.05451001 -252.64767456 48.50783539 C-249.65415766 47.93274954 -246.66057565 47.35800342 -243.66699219 46.78326416 C-218.59487557 41.96796355 -193.5322276 37.10368799 -168.46887207 32.24304199 C-160.83232389 30.76205351 -153.19564107 29.28176025 -145.55891776 27.80167508 C-122.56309962 23.34480439 -99.56740432 18.88730576 -76.57296371 14.42333221 C-67.6444658 12.69005413 -58.71574976 10.95790327 -49.78685379 9.22667694 C-43.71364727 8.0490505 -37.64075508 6.8698208 -31.56810284 5.68933964 C-27.89739011 4.97617192 -24.22638327 4.26452803 -20.5552845 3.55335045 C-18.87316361 3.2271579 -17.1911676 2.90032059 -15.50930595 2.57279396 C-13.2455442 2.13202939 -10.98135689 1.69352275 -8.71704102 1.25561523 C-7.45843765 1.01125229 -6.19983429 0.76688934 -4.90309143 0.51512146 C-2 0 -2 0 0 0 Z M-220.1875 214.625 C-240.74817976 241.69656169 -244.81665795 278.22809017 -240.75390625 311.08984375 C-237.37185628 334.94495009 -227.49254486 358.29643834 -208.59765625 373.99609375 C-202.80648713 378.25027011 -196.71001823 381.4486978 -190 384 C-189.15695312 384.32097656 -188.31390625 384.64195312 -187.4453125 384.97265625 C-170.47593686 390.26021533 -149.98295282 388.24526694 -134.25 380.3125 C-112.01329896 367.11564478 -99.54087752 345.19365841 -93.25 320.75 C-86.32151473 287.70645487 -88.45712045 250.56105416 -105.7578125 220.99609375 C-107.40224769 218.55238658 -109.12606229 216.27180134 -111 214 C-111.69996094 213.15050781 -112.39992188 212.30101562 -113.12109375 211.42578125 C-124.07949299 198.72011558 -138.28496087 189.09693928 -155.41699219 187.81982422 C-182.12830372 186.45640382 -202.58798734 194.20817404 -220.1875 214.625 Z " fill="#FFFFFF" transform="translate(511,172)"/>
<path d="M0 0 C0.09346217 28.13781656 0.16398854 56.27560983 0.20724869 84.41355038 C0.22786946 97.47863391 0.25598098 110.54362097 0.30175781 123.60864258 C0.34164019 134.9967798 0.36743634 146.38484715 0.37635398 157.77305228 C0.38156629 163.80242759 0.39380744 169.83160301 0.42292023 175.86091423 C0.4501112 181.53832301 0.45843742 187.21544992 0.45243073 192.89291763 C0.4535293 194.97418945 0.46146103 197.0554709 0.4768219 199.13668633 C0.49680724 201.98465087 0.49190792 204.83155974 0.48101807 207.67955017 C0.49266943 208.49767038 0.5043208 209.31579059 0.51632524 210.15870231 C0.42651416 218.88491817 -3.13232849 225.92522393 -9 232.2734375 C-15.52338884 237.90495678 -23.32982657 239.15376578 -31.65618896 239.12025452 C-32.43139806 239.12110894 -33.20660716 239.12196337 -34.00530744 239.12284368 C-36.60479872 239.12449176 -39.20422559 239.11898808 -41.80371094 239.11352539 C-43.66634622 239.11324335 -45.52898161 239.11340159 -47.39161682 239.1139679 C-52.45114566 239.1142552 -57.51065087 239.10836918 -62.57017422 239.10139394 C-67.8566164 239.09514937 -73.1430591 239.09455572 -78.42950439 239.09336853 C-88.44147037 239.09025848 -98.45342545 239.08204946 -108.46538663 239.07201904 C-121.99361556 239.05875961 -135.52184746 239.05335536 -149.05008125 239.04751682 C-170.366729 239.03810937 -191.68335375 239.01818826 -213 239 C-213 188.51 -213 138.02 -213 86 C-209.43021848 87.42791261 -207.26296893 88.33301573 -204.3203125 90.46875 C-203.30880127 91.195177 -203.30880127 91.195177 -202.27685547 91.9362793 C-201.56674316 92.45230713 -200.85663086 92.96833496 -200.125 93.5 C-198.61021409 94.58060428 -197.09457162 95.66000874 -195.578125 96.73828125 C-194.4344043 97.55353271 -194.4344043 97.55353271 -193.26757812 98.38525391 C-189.81812004 100.84161865 -186.36284861 103.28588486 -182.875 105.6875 C-182.28477051 106.10902344 -181.69454102 106.53054688 -181.08642578 106.96484375 C-177.087614 109.69053199 -173.83322381 110.80028001 -169 111 C-163.4331074 109.57955461 -158.4939866 105.35023693 -153.89453125 102.05078125 C-150.51346996 99.65529249 -147.07702387 97.35397844 -143.625 95.0625 C-142.97539307 94.6308252 -142.32578613 94.19915039 -141.65649414 93.75439453 C-140.36693855 92.89791429 -139.07714828 92.04178726 -137.78710938 91.18603516 C-135.31379885 89.54459492 -132.84434152 87.89740356 -130.375 86.25 C-126.76171875 83.84114583 -123.1484375 81.43229167 -119.53515625 79.0234375 C-118.71668213 78.47776123 -117.89820801 77.93208496 -117.05493164 77.36987305 C-115.27166536 76.1810843 -113.48829527 74.99245126 -111.70483398 73.80395508 C-106.86334629 70.57727123 -102.02369664 67.34789077 -97.1875 64.11328125 C-86.67510062 57.08739785 -76.14623007 50.08841214 -65.58203125 43.140625 C-64.66315125 42.53623596 -63.74427124 41.93184692 -62.79754639 41.30914307 C-55.09321776 36.24193024 -55.09321776 36.24193024 -51.39483643 33.81018066 C-37.47459266 24.65383062 -23.62367547 15.40364915 -9.87402344 5.99291992 C-9.27170395 5.58170898 -8.66938446 5.17049805 -8.04881287 4.74682617 C-6.45145904 3.6557911 -4.85613929 2.56177963 -3.26098633 1.4675293 C-1 0 -1 0 0 0 Z " fill="#FFFFFF" transform="translate(744,363)"/>
<path d="M0 0 C25.41702369 -0.09345925 50.83402162 -0.1639871 76.25118256 -0.20724869 C88.05293015 -0.22787009 99.85457095 -0.25598278 111.65625 -0.30175781 C121.94311167 -0.34163831 132.229896 -0.36743588 142.51683283 -0.37635398 C147.96323885 -0.38156663 153.40942359 -0.39380976 158.85575867 -0.42292023 C163.98407326 -0.45010832 169.11207581 -0.45843805 174.24045563 -0.45243073 C176.12057949 -0.45352944 178.000714 -0.46146301 179.88077545 -0.4768219 C182.45324578 -0.49680313 185.02454699 -0.49190992 187.5970459 -0.48101807 C188.33636903 -0.49266943 189.07569217 -0.5043208 189.83741903 -0.51632524 C196.27236693 -0.44297317 201.39953771 1.72119768 206.2421875 5.96484375 C212.08139832 13.0193927 212.08139832 13.0193927 213 17 C213.4021875 18.6396875 213.4021875 18.6396875 213.8125 20.3125 C212.83522132 24.74784171 212.02169693 25.07180778 208.40234375 27.58203125 C207.40227295 28.28126709 206.40220215 28.98050293 205.37182617 29.70092773 C204.24853229 30.46823491 203.1245648 31.2345567 202 32 C200.81020744 32.81765107 199.62051273 33.63544453 198.4309082 34.45336914 C194.5496682 37.1123446 190.65040209 39.74425261 186.75 42.375 C185.43348276 43.26546093 184.11707613 44.1560854 182.80078125 45.046875 C173.89326491 51.07051264 164.95361693 57.0451685 156 63 C154.63036045 63.91111682 153.26073179 64.82225 151.89111328 65.73339844 C151.19676178 66.19530579 150.50241028 66.65721313 149.78701782 67.13311768 C146.96391427 69.01139205 144.14120598 70.89025982 141.31860352 72.76928711 C139.88918632 73.72053977 138.45949545 74.67138129 137.02954102 75.62182617 C129.89870447 80.36196828 122.78723183 85.11483239 115.79174805 90.0534668 C109.66363912 94.32626194 103.45403445 98.48134401 97.26147461 102.65991211 C94.83445827 104.29768238 92.40836928 105.93681879 89.98242188 107.57617188 C82.62439904 112.54577637 75.25716532 117.49992495 67.859375 122.41015625 C63.94497214 125.00904942 60.05814282 127.63498707 56.24609375 130.3828125 C55.59962891 130.846875 54.95316406 131.3109375 54.28710938 131.7890625 C53.01236008 132.70978955 51.7444869 133.64008666 50.48242188 134.578125 C47.64034924 136.59787205 45.51080809 137.89020013 42.07421875 138.62890625 C37.51308532 137.69581542 34.20789434 135.3838946 30.375 132.8125 C29.6634375 132.34908203 28.951875 131.88566406 28.21875 131.40820312 C26.60864065 130.35783718 25.01824313 129.2768725 23.4446106 128.17260742 C20.77725804 126.39011363 18.02310378 125.0451884 15.11764526 123.6895752 C1.68196358 116.95594558 1.68196358 116.95594558 -1.12436295 110.35552025 C-2.83020696 102.65956771 -2.2956247 94.83130741 -1.953125 87.01171875 C-1.91576954 84.4969259 -1.8873252 81.98198636 -1.86737061 79.46699524 C-1.79913705 73.5528668 -1.64206026 67.64648879 -1.44038081 61.73551923 C-1.19348459 54.33609637 -1.08719341 46.93569964 -0.9765625 39.53320312 C-0.76277715 26.35166027 -0.42587925 13.17630994 0 0 Z " fill="#FFFFFF" transform="translate(531,294)"/>
<path d="M0 0 C12.36296202 9.43633163 17.06631453 26.07976962 19.078125 40.78515625 C19.57894361 46.40108843 19.56532543 52.02660014 19.515625 57.66015625 C19.51225128 58.40495239 19.50887756 59.14974854 19.50540161 59.91711426 C19.38397696 78.43027585 16.92262697 96.84955416 3.640625 110.91015625 C-4.52500808 118.40693201 -12.47035426 120.17832125 -23.31640625 120.0546875 C-32.72056979 119.35166769 -39.82842194 114.85575764 -45.921875 107.78515625 C-56.46764489 92.72512251 -59.17167901 76.59924892 -59.234375 58.47265625 C-59.23699341 57.75439667 -59.23961182 57.03613708 -59.24230957 56.29611206 C-59.24956602 37.7571689 -56.28814822 19.5522772 -43.609375 5.16015625 C-30.76069795 -6.19448859 -15.28299297 -9.66059108 0 0 Z " fill="#FFFFFF" transform="translate(364.921875,402.21484375)"/>
</svg>
